<?xml version="1.0" standalone="no"?>
<!DOCTYPE svg PUBLIC "-//W3C//DTD SVG 20010904//EN"
 "http://www.w3.org/TR/2001/REC-SVG-20010904/DTD/svg10.dtd">
<svg version="1.0" xmlns="http://www.w3.org/2000/svg"
 width="170.000000pt" height="170.000000pt" viewBox="0 0 170.000000 170.000000"
 preserveAspectRatio="xMidYMid meet">

<g transform="translate(0.000000,170.000000) scale(0.100000,-0.100000)"
fill="#000000" stroke="none">
<path d="M377 1003 c-4 -3 -7 -24 -7 -45 0 -34 3 -38 25 -38 18 0 25 -5 25
-20 0 -15 7 -20 25 -20 18 0 25 -5 25 -20 0 -15 7 -20 25 -20 18 0 25 -5 25
-20 0 -19 7 -20 140 -20 133 0 140 1 140 20 0 14 7 20 24 20 15 0 26 7 29 20
3 14 14 20 31 20 24 0 26 4 26 40 l0 40 50 0 50 0 0 -40 c0 -33 3 -40 20 -40
13 0 20 -7 20 -20 0 -15 7 -20 25 -20 18 0 25 -5 25 -20 0 -17 7 -20 43 -20
23 0 99 -3 170 -7 l127 -6 0 26 c0 22 5 27 25 27 18 0 25 5 25 20 0 15 7 20
25 20 18 0 25 5 25 20 0 15 7 20 25 20 23 0 25 4 25 45 l0 45 -603 0 c-332 0
-607 -3 -610 -7z m381 -55 c-7 -20 -48 -23 -48 -4 0 11 9 16 26 16 16 0 24 -5
22 -12z m572 -42 c0 -8 -7 -16 -15 -20 -10 -4 -15 1 -15 14 0 11 7 20 15 20 8
0 15 -6 15 -14z m-670 -46 c0 -15 -7 -20 -25 -20 -18 0 -25 5 -25 20 0 15 7
20 25 20 18 0 25 -5 25 -20z m630 0 c0 -13 -7 -20 -20 -20 -13 0 -20 7 -20 20
0 13 7 20 20 20 13 0 20 -7 20 -20z m-535 -10 c3 -5 -3 -10 -15 -10 -12 0 -18
5 -15 10 3 6 10 10 15 10 5 0 12 -4 15 -10z"/>
</g>
</svg>
