<svg version="1.1" xmlns="http://www.w3.org/2000/svg" xmlns:xlink="http://www.w3.org/1999/xlink" width="151.66667" height="68.66667" viewBox="0,0,151.66667,68.66667"><g transform="translate(-165,-141.16667)"><g data-paper-data="{&quot;isPaintingLayer&quot;:true}" fill-rule="nonzero" stroke="#000000" stroke-linejoin="miter" stroke-miterlimit="10" stroke-dasharray="" stroke-dashoffset="0" style="mix-blend-mode: normal"><path d="M183,200.5c-2.20914,0 -4,-1.335 -4,-2.98182v-35.03636c0,-1.64682 1.79086,-2.98182 4,-2.98182h114c2.20914,0 4,1.335 4,2.98182v35.03636c0,1.64682 -1.79086,2.98182 -4,2.98182z" fill="#000000" stroke-width="0.5" stroke-linecap="butt"/><path d="M215.83334,179.5c0,6.35127 -5.37258,11.5 -12,11.5c-6.62742,0 -12,-5.14873 -12,-11.5c0,-6.35127 5.37258,-11.5 12,-11.5c6.62742,0 12,5.14873 12,11.5z" fill="#ffffff" stroke-width="0" stroke-linecap="butt"/><path d="M252,180c0,6.35127 -5.37258,11.5 -12,11.5c-6.62742,0 -12,-5.14873 -12,-11.5c0,-6.35127 5.37258,-11.5 12,-11.5c6.62742,0 12,5.14873 12,11.5z" fill="#ffffff" stroke-width="0" stroke-linecap="butt"/><path d="M288.33333,179.66667c0,6.35127 -5.37259,11.5 -12,11.5c-6.62741,0 -12,-5.14873 -12,-11.5c0,-6.35127 5.37259,-11.5 12,-11.5c6.62741,0 12,5.14873 12,11.5z" fill="#ffffff" stroke-width="0" stroke-linecap="butt"/><path d="M169.5,145.66667h50h41.33333l51.33333,0.33333v55l0.00001,4.33334" fill="none" stroke-width="9" stroke-linecap="round"/></g></g></svg>