<svg version="1.1" xmlns="http://www.w3.org/2000/svg" xmlns:xlink="http://www.w3.org/1999/xlink" width="133.91666" height="67.94496" viewBox="0,0,133.91666,67.94496"><g transform="translate(-167.33336,-144.16665)"><g data-paper-data="{&quot;isPaintingLayer&quot;:true}" fill-rule="nonzero" stroke="#000000" stroke-linejoin="miter" stroke-miterlimit="10" stroke-dasharray="" stroke-dashoffset="0" style="mix-blend-mode: normal"><path d="M216.46338,207.61162l-42.29669,-0.27827l-2.33333,-0.00001v-53v-5.66667h44l38.99998,-0.00001" fill="none" stroke-width="9" stroke-linecap="round"/><path d="M183.00002,200.50002c-2.20914,0 -4,-1.335 -4,-2.98182v-35.03636c0,-1.64682 1.79086,-2.98182 4,-2.98182h114c2.20914,0 4,1.335 4,2.98182v35.03636c0,1.64682 -1.79086,2.98182 -4,2.98182z" fill="#000000" stroke-width="0.5" stroke-linecap="butt"/><path d="M215.83336,179.50002c0,6.35127 -5.37258,11.5 -12,11.5c-6.62742,0 -12,-5.14873 -12,-11.5c0,-6.35127 5.37258,-11.5 12,-11.5c6.62742,0 12,5.14873 12,11.5z" fill="#ffffff" stroke-width="0" stroke-linecap="butt"/><path d="M252,180.00001c0,6.35127 -5.37258,11.5 -12,11.5c-6.62742,0 -12,-5.14873 -12,-11.5c0,-6.35127 5.37258,-11.5 12,-11.5c6.62742,0 12,5.14873 12,11.5z" fill="#ffffff" stroke-width="0" stroke-linecap="butt"/></g></g></svg>