<svg version="1.1" xmlns="http://www.w3.org/2000/svg" xmlns:xlink="http://www.w3.org/1999/xlink" width="147.00001" height="71.09957" viewBox="0,0,147.00001,71.09957"><g transform="translate(-169.66667,-141.76429)"><g data-paper-data="{&quot;isPaintingLayer&quot;:true}" fill-rule="nonzero" stroke="#000000" stroke-linejoin="miter" stroke-miterlimit="10" stroke-dasharray="" stroke-dashoffset="0" style="mix-blend-mode: normal"><path d="M183,200.50003c-2.20914,0 -4,-1.335 -4,-2.98182v-35.03636c0,-1.64682 1.79086,-2.98182 4,-2.98182h114c2.20914,0 4,1.335 4,2.98182v35.03636c0,1.64682 -1.79086,2.98182 -4,2.98182z" fill="#000000" stroke-width="0.5" stroke-linecap="butt"/><path d="M288.33333,179.6667c0,6.35127 -5.37259,11.5 -12,11.5c-6.62741,0 -12,-5.14873 -12,-11.5c0,-6.35127 5.37259,-11.5 12,-11.5c6.62741,0 12,5.14873 12,11.5z" fill="#ffffff" stroke-width="0" stroke-linecap="butt"/><path d="M312.16666,146.26429v54.4024l0.00001,7.66667l-49.33333,-0.33333l-38.00001,-0.33335l-50.66666,-0.33334" fill="none" stroke-width="9" stroke-linecap="round"/></g></g></svg>