<?xml version="1.0" standalone="no"?>
<!DOCTYPE svg PUBLIC "-//W3C//DTD SVG 20010904//EN"
 "http://www.w3.org/TR/2001/REC-SVG-20010904/DTD/svg10.dtd">
<svg version="1.0" xmlns="http://www.w3.org/2000/svg"
 width="512.000000pt" height="512.000000pt" viewBox="0 0 512.000000 512.000000"
 preserveAspectRatio="xMidYMid meet">
<metadata>
Created by potrace 1.14, written by Peter Selinger 2001-2017
</metadata>
<g transform="translate(0.000000,512.000000) scale(0.100000,-0.100000)"
fill="#000000" stroke="none">
<path d="M2710 4500 l0 -240 25 0 25 0 0 240 0 240 -25 0 -25 0 0 -240z"/>
<path d="M3440 4645 c0 -52 -3 -95 -6 -95 -3 0 -17 9 -31 20 -17 13 -41 20
-69 20 -79 0 -127 -66 -126 -175 0 -68 23 -120 64 -145 44 -26 72 -25 125 5
42 25 43 25 43 5 0 -15 6 -20 25 -20 l25 0 0 240 0 240 -25 0 c-25 0 -25 0
-25 -95z m-35 -126 c33 -29 35 -35 35 -93 0 -67 -2 -72 -44 -104 -60 -46 -120
-17 -132 64 -9 60 3 112 31 140 33 32 67 30 110 -7z"/>
<path d="M1240 4545 c0 -178 7 -212 51 -251 78 -70 215 -51 258 35 19 36 21
58 21 211 l0 170 -25 0 -25 0 0 -152 c0 -185 -8 -220 -54 -242 -19 -9 -46 -16
-61 -16 -34 0 -80 27 -94 54 -6 12 -12 94 -13 186 l-3 165 -27 3 -28 3 0 -166z"/>
<path d="M2307 4703 c-12 -11 -8 -53 6 -54 40 -4 58 11 50 42 -5 19 -42 27
-56 12z"/>
<path d="M2087 4664 c-4 -4 -7 -24 -7 -44 0 -32 -3 -36 -22 -36 -17 1 -24 -5
-26 -21 -3 -19 1 -23 21 -23 24 0 25 -1 29 -120 3 -97 7 -123 22 -139 37 -41
126 -35 126 8 0 14 -6 17 -32 13 -49 -7 -58 14 -58 135 l0 103 46 0 c41 0 45
2 42 23 -3 19 -8 22 -45 20 l-42 -3 -3 43 c-2 33 -7 43 -23 45 -12 2 -24 0
-28 -4z"/>
<path d="M2489 4663 c0 -5 -1 -24 -2 -43 -2 -30 -5 -35 -27 -35 -18 0 -25 -5
-25 -20 0 -12 9 -21 25 -25 25 -6 25 -7 28 -124 1 -75 7 -124 14 -134 19 -22
60 -34 95 -27 26 5 33 11 33 29 0 19 -4 22 -30 18 -53 -8 -60 8 -60 129 l0
109 46 0 c41 0 45 2 42 23 -3 19 -9 22 -43 22 -40 0 -40 0 -43 43 -3 37 -6 42
-28 42 -13 0 -24 -3 -25 -7z"/>
<path d="M1703 4573 c-4 -10 -7 -85 -5 -166 3 -146 3 -148 25 -145 21 3 22 8
25 121 l3 117 39 26 c28 19 47 24 65 20 42 -11 55 -52 55 -176 l0 -110 25 0
25 0 0 119 c0 66 -5 132 -10 146 -25 67 -112 87 -168 40 -36 -30 -40 -31 -44
-3 -4 28 -24 34 -35 11z"/>
<path d="M2323 4583 c-10 -4 -13 -45 -13 -164 l0 -159 25 0 25 0 0 159 c0 161
-3 176 -37 164z"/>
<path d="M2923 4571 c-46 -29 -66 -74 -67 -151 -1 -86 20 -125 81 -152 53 -23
128 -20 170 7 27 18 26 42 -3 37 -128 -20 -160 -14 -180 33 -27 65 -26 65 96
65 107 0 110 1 116 24 8 35 -12 99 -41 126 -36 34 -127 39 -172 11z m131 -42
c17 -14 26 -30 26 -50 l0 -29 -85 0 c-47 0 -85 4 -85 9 0 4 5 23 11 40 18 52
86 67 133 30z"/>
<path d="M2217 4094 c-4 -4 -7 -27 -7 -51 l0 -43 50 0 50 0 0 -50 c0 -49 -1
-50 -29 -50 -55 0 -61 -7 -61 -75 0 -34 -3 -96 -6 -138 l-7 -77 -43 0 -43 0
-3 48 -3 47 -47 3 -48 3 0 145 0 144 -100 0 -100 0 0 -50 0 -50 50 0 49 0 3
-97 3 -98 48 -3 47 -3 0 -95 0 -94 94 0 95 0 3 -47 3 -48 47 -3 47 -3 3 -47 3
-47 98 -3 97 -3 0 -49 0 -50 51 0 50 0 -3 -47 -3 -48 -47 -3 -47 -3 -3 -47 -3
-47 -95 0 -95 0 -3 -47 -3 -48 -50 0 -49 0 0 -95 0 -95 -50 0 -50 0 0 40 0 40
-52 1 c-29 1 -69 0 -89 -1 -21 -1 -40 4 -44 11 -4 6 -7 51 -6 100 l2 89 -100
0 -101 0 0 50 0 50 -50 0 -50 0 0 49 0 50 -47 3 -48 3 -1 45 0 45 -50 5 -49 5
-2 40 c-1 22 -2 64 -2 93 l-1 52 -45 0 -45 0 0 -50 0 -50 -49 0 -50 0 -3 -47
-3 -48 -40 0 -40 0 -5 -45 -5 -45 -50 -5 -50 -5 0 -45 0 -45 198 -3 197 -2 0
-50 0 -50 94 0 95 0 3 -47 3 -48 100 0 100 0 -4 -90 c-1 -49 -4 -91 -5 -92 0
0 -46 -3 -101 -5 l-100 -3 3 93 3 92 -45 0 -46 0 0 -95 0 -95 -50 0 -50 0 0
-50 0 -49 93 1 92 1 3 -52 3 -51 -45 0 -46 0 0 -95 0 -95 -70 0 -70 0 0 200 0
200 -35 0 -35 0 -2 -202 c-3 -195 -4 -203 -23 -204 -69 -3 -66 -1 -63 -46 l3
-43 48 -3 47 -3 0 -94 c0 -59 4 -95 11 -97 6 -2 26 -2 45 0 l34 4 0 114 0 114
55 0 c48 0 55 -2 55 -20 0 -17 7 -20 50 -20 l51 0 -3 -102 -3 -103 -47 2 -48
3 0 -95 0 -94 48 -3 47 -3 3 -97 3 -98 44 0 45 0 0 51 0 50 48 -3 47 -3 0 45
0 45 -47 3 -48 3 0 210 c0 115 -1 212 -2 217 -2 4 31 8 72 10 82 3 95 10 85
41 -6 19 -14 21 -96 21 l-89 0 0 50 0 50 60 0 c55 0 60 2 66 24 3 14 12 27 20
30 21 8 17 47 -5 53 -14 4 -19 12 -17 31 5 46 -2 52 -65 52 -59 0 -59 0 -59
30 l0 30 90 0 c83 0 90 1 90 20 0 28 36 26 44 -2 3 -13 6 -58 6 -100 l0 -77
48 -3 47 -3 3 -46 c2 -37 7 -48 23 -52 17 -5 19 -13 18 -67 -1 -33 3 -66 8
-71 18 -18 47 -6 53 21 5 21 12 25 45 25 l40 0 5 -95 5 -95 48 -3 47 -3 0
-100 0 -99 50 0 50 0 0 -150 0 -150 50 0 50 0 0 -240 0 -240 -35 -1 c-19 -1
-41 -2 -47 -3 -8 -1 -14 -20 -16 -51 l-3 -51 -47 6 -47 5 0 45 0 45 -46 3 -46
3 -7 87 c-4 48 -13 90 -19 94 -7 4 -26 8 -43 8 l-32 0 -7 -95 -7 -95 -43 0
-44 0 -3 47 -3 48 -137 -2 c-130 -2 -138 -1 -149 18 -6 12 -9 34 -7 50 l5 29
-66 1 c-36 1 -59 3 -51 5 11 3 14 16 12 49 l-4 45 102 0 102 0 -3 47 -3 48 52
3 52 3 0 45 0 44 -95 0 -95 0 -2 -27 c0 -16 -2 -32 -3 -38 -2 -5 -3 -16 -4
-22 -1 -10 -46 -13 -190 -13 -105 0 -192 4 -195 9 -3 5 -6 50 -7 100 l-1 91
-44 0 c-38 0 -44 -3 -50 -24 -3 -14 -3 -34 1 -45 6 -20 2 -21 -50 -21 l-56 0
3 48 3 47 46 3 47 3 -1 44 -1 44 -45 3 -46 3 -5 45 -5 45 -45 5 -45 5 -5 94
-5 94 -42 3 -43 3 0 -189 c0 -105 0 -193 0 -197 0 -5 23 -9 51 -11 l51 -3 -4
-92 -3 -92 48 -3 47 -3 0 -50 0 -49 100 0 100 0 0 -100 0 -100 49 0 50 0 3
-48 3 -47 90 -1 90 -2 3 -46 3 -46 197 -2 197 -3 3 -47 3 -48 539 0 539 0 3
47 3 48 98 3 97 3 0 44 0 45 78 1 c42 1 82 1 89 0 17 -2 27 19 28 59 0 35 1
35 48 38 l47 3 0 50 0 49 50 0 50 0 0 50 0 50 50 0 50 0 0 50 0 50 101 0 101
0 -7 95 -7 95 50 0 c62 0 64 5 56 116 l-7 84 -93 0 -94 0 0 -49 0 -50 -47 -3
c-36 -2 -47 -7 -45 -18 2 -8 1 -29 -3 -47 -6 -31 -8 -33 -50 -33 -42 0 -45 -2
-46 -27 -3 -70 -1 -68 -51 -71 l-47 -3 -3 -47 c-3 -46 -4 -47 -38 -49 -19 0
-41 -2 -47 -2 -9 -1 -13 -17 -13 -46 l0 -45 -55 0 -55 0 0 -50 0 -49 -97 -3
-98 -3 3 -42 4 -43 -51 0 -51 0 0 -50 0 -50 -45 0 c-39 0 -45 3 -51 25 -3 14
-4 34 -1 45 5 18 0 20 -49 20 l-54 0 0 -45 c0 -41 -2 -45 -25 -46 -14 -1 -35
-2 -47 -2 -21 -1 -23 3 -23 48 l0 50 48 3 47 3 0 95 c0 51 -3 93 -7 93 -5 -1
-50 -1 -100 0 l-93 1 0 95 0 95 -45 0 -45 0 0 55 0 55 48 0 c46 0 48 1 48 28
1 15 1 57 2 95 l2 67 50 0 49 0 3 98 3 97 45 1 45 0 3 47 c3 44 5 47 33 48 16
1 34 3 39 4 6 1 35 3 65 4 l55 1 0 45 c0 58 18 66 65 30 l36 -26 -3 -127 -3
-127 -42 -3 c-43 -3 -43 -3 -43 -42 0 -21 5 -42 10 -45 6 -4 46 -3 90 1 l80 7
0 42 c0 43 1 43 40 50 21 4 44 4 50 0 6 -4 10 10 10 39 l0 45 -47 3 -48 3 0
70 0 69 40 8 c64 13 85 28 85 60 0 19 -5 28 -16 28 -14 0 -16 8 -10 46 3 26 6
62 6 80 0 34 1 34 45 34 l45 0 0 -104 c0 -57 3 -124 6 -150 l7 -46 -52 0 -51
0 0 -39 c0 -39 1 -40 43 -46 24 -4 66 -5 93 -3 l49 3 3 68 3 67 79 0 80 0 0
30 c0 23 4 30 20 30 17 0 20 7 20 45 l0 45 -95 0 -95 0 0 -45 c0 -38 -3 -45
-20 -45 -18 0 -20 7 -20 75 l0 74 78 3 c75 3 77 4 77 28 0 23 -4 25 -57 28
-32 2 -58 6 -59 10 0 4 -2 15 -4 26 -7 35 5 46 50 46 40 0 44 2 47 28 2 21 9
28 31 30 19 2 27 9 27 23 0 18 6 20 72 17 l73 -3 -3 -41 c-4 -46 5 -54 55 -47
33 5 49 35 37 67 -6 15 -16 18 -69 20 -17 1 -20 8 -20 51 l0 50 49 3 49 3 -6
97 c-4 53 -7 118 -7 145 l0 47 -45 0 -45 0 0 78 c0 112 -4 122 -51 122 l-39 0
0 -50 0 -50 -105 0 -105 0 0 100 0 100 50 0 50 0 0 95 0 95 -44 0 -45 0 -3
-47 c-3 -47 -4 -48 -38 -49 -19 -1 -41 -2 -47 -3 -9 -1 -13 -41 -15 -148 l-3
-146 -45 -1 -45 -1 -3 -47 -3 -48 -50 0 -51 0 3 -47 3 -48 -99 -5 -100 -5 -1
-35 c0 -19 -1 -41 -2 -47 -2 -10 -30 -13 -102 -13 l-100 0 0 50 0 50 -44 0
-45 0 -3 -47 -3 -48 -45 -5 -45 -5 -3 -86 -3 -85 -52 -11 c-29 -6 -54 -7 -57
-2 -3 5 -69 10 -145 11 -138 3 -139 3 -138 26 3 65 0 62 48 62 l45 0 0 45 0
45 100 0 100 0 0 50 0 50 50 0 50 0 0 49 0 50 48 3 47 3 3 47 3 47 47 3 47 3
0 45 0 45 50 0 50 0 3 -42 3 -43 43 0 43 0 2 86 c1 48 4 91 7 95 3 5 25 9 50
9 l44 0 0 50 0 50 50 0 50 0 0 94 0 95 48 3 47 3 2 98 1 97 -99 0 -99 0 0 -50
0 -50 -37 0 c-61 0 -60 3 -62 -157 l-1 -43 -95 0 -95 0 0 -85 c0 -47 0 -88 0
-92 0 -5 -21 -10 -47 -13 l-48 -5 -5 -45 -5 -45 -50 0 -50 0 0 95 0 95 -100 0
-99 0 3 48 3 47 -46 0 -46 0 0 -46 0 -45 -52 3 -53 3 -1 93 0 92 48 0 48 0 0
50 0 50 50 0 50 0 0 50 0 50 100 0 100 0 0 50 0 50 50 0 50 0 0 44 c0 25 -5
48 -11 51 -6 4 -51 4 -100 0 l-89 -7 0 -44 0 -44 -101 0 -101 0 3 48 3 47 -95
3 c-52 1 -98 0 -102 -4z m1481 -1031 l3 -53 -50 0 -51 0 0 -50 0 -50 -49 0
-50 0 -3 -47 -3 -48 -97 -3 -98 -3 0 -33 c0 -31 -2 -34 -41 -39 -78 -10 -149
-86 -164 -176 l-7 -42 -41 3 -42 3 -2 105 c-1 58 -2 110 -3 115 -1 6 -2 25 -1
43 l1 32 100 0 c75 0 100 3 99 13 -1 6 -1 29 0 50 l1 37 95 0 95 0 0 45 c0 47
0 47 60 50 35 1 35 1 38 53 l3 53 102 -3 102 -3 3 -52z m-767 -348 c0 -8 1
-31 1 -50 0 -19 -1 -82 -1 -140 l-1 -105 -60 0 -60 0 0 -45 c0 -49 -10 -56
-47 -30 -24 17 -47 101 -41 150 3 27 7 30 41 33 37 3 37 4 37 47 l0 44 48 3
47 3 3 40 c1 22 5 46 7 53 6 17 25 15 26 -3z m-321 -110 l0 -85 -45 0 -45 0
-2 -47 c0 -27 -2 -61 -3 -78 -4 -52 3 -65 38 -65 48 0 59 12 55 56 -3 36 -1
39 25 42 23 3 27 0 27 -21 0 -13 11 -46 25 -73 27 -53 32 -99 13 -106 -7 -3
-29 -4 -48 -4 -35 1 -35 1 -40 -49 l-5 -49 -45 -1 -45 0 -3 98 c-2 89 -4 97
-22 97 -19 0 -20 8 -20 181 l0 181 65 -7 c45 -5 65 -4 65 4 0 6 2 11 5 11 3 0
5 -38 5 -85z m-210 -55 l0 -130 -45 0 -45 0 -1 38 c-1 20 -1 43 0 50 2 9 -8
13 -31 12 -60 -3 -58 -6 -58 80 l0 80 90 0 90 0 0 -130z m902 -171 c-3 -27 0
-45 9 -51 23 -16 -63 2 -88 18 -16 10 -23 24 -23 44 0 29 1 30 53 30 l53 0 -4
-41z"/>
<path d="M2910 3115 l0 -95 45 0 46 0 -3 92 -3 93 -42 3 -43 3 0 -96z"/>
<path d="M1235 2998 c-3 -7 -3 -26 -1 -43 3 -27 7 -30 41 -33 48 -4 59 7 51
52 -7 34 -9 36 -47 36 -23 0 -42 -5 -44 -12z"/>
<path d="M1330 2865 l0 -45 45 0 45 0 0 45 0 45 -45 0 -45 0 0 -45z"/>
<path d="M3990 2765 l0 -45 45 0 45 0 0 45 0 45 -45 0 -45 0 0 -45z"/>
<path d="M3800 2524 l0 -95 43 3 42 3 3 70 c4 103 0 115 -48 115 l-40 0 0 -96z"/>
<path d="M1040 2424 l0 -95 43 3 42 3 3 93 3 92 -46 0 -45 0 0 -96z"/>
<path d="M3994 2506 c-3 -8 -4 -27 -2 -43 3 -25 7 -28 46 -31 l42 -3 0 45 0
46 -40 0 c-26 0 -43 -5 -46 -14z"/>
<path d="M3892 2326 l3 -91 45 0 45 0 0 93 0 93 -48 -2 -48 -3 3 -90z"/>
<path d="M1922 2228 l3 -93 37 -3 c42 -4 56 13 53 63 -1 17 -3 51 -4 78 l-1
47 -45 0 -46 0 3 -92z"/>
<path d="M3798 2168 c-2 -78 0 -119 6 -126 4 -3 67 -7 141 -10 l135 -4 0 46 0
46 -95 0 c-69 0 -95 3 -96 13 -1 6 0 29 1 50 l2 37 -46 0 -46 0 -2 -52z"/>
<path d="M2027 2023 c-4 -3 -7 -23 -7 -44 0 -40 12 -49 60 -46 22 2 25 7 28
48 l3 46 -39 1 c-21 1 -42 -1 -45 -5z"/>
<path d="M3699 2026 c-2 -3 -3 -23 -1 -45 l4 -41 45 0 44 0 -3 42 c-4 42 -4
42 -44 46 -22 2 -42 1 -45 -2z"/>
<path d="M2122 1883 l3 -48 43 -1 42 -2 0 49 0 49 -46 0 -45 0 3 -47z"/>
<path d="M3010 1881 l0 -48 43 1 42 1 0 45 0 45 -42 1 -43 2 0 -47z"/>
<path d="M3504 1915 c-8 -19 0 -80 9 -77 4 1 45 2 92 2 l85 0 0 45 0 45 -91
-1 c-65 0 -92 -4 -95 -14z"/>
<path d="M1927 1823 c-13 -12 -8 -83 6 -84 6 0 28 -1 47 -2 l35 -2 5 -95 5
-95 43 -3 42 -3 0 145 0 146 -88 0 c-49 0 -92 -3 -95 -7z"/>
<path d="M2910 1786 l0 -46 46 0 45 0 -3 43 c-3 42 -3 42 -45 45 l-43 3 0 -45z"/>
<path d="M3400 1784 l0 -44 45 0 45 0 -2 44 -1 44 -44 0 -43 0 0 -44z"/>
<path d="M2714 1716 c-3 -8 -4 -27 -2 -43 3 -25 7 -28 46 -31 l42 -3 0 45 0
46 -40 0 c-26 0 -43 -5 -46 -14z"/>
<path d="M3200 1685 l0 -45 95 0 95 0 0 45 0 45 -95 0 -95 0 0 -45z"/>
<path d="M3007 1611 c-2 -10 -2 -31 0 -45 5 -26 6 -26 99 -26 l94 0 0 45 0 45
-94 0 c-84 0 -94 -2 -99 -19z"/>
<path d="M1920 1485 l0 -45 45 0 45 0 0 45 0 45 -45 0 -45 0 0 -45z"/>
<path d="M2910 1485 l0 -45 45 0 45 0 0 45 0 45 -45 0 -45 0 0 -45z"/>
<path d="M2020 1395 c0 -36 3 -44 23 -49 12 -3 33 -3 45 1 18 4 22 12 22 48
l0 43 -45 0 -45 0 0 -43z"/>
<path d="M1748 654 c-54 -16 -112 -77 -129 -135 -6 -20 -10 -69 -8 -110 4 -63
9 -81 34 -116 33 -47 87 -79 151 -89 54 -8 149 19 164 47 11 19 12 169 2 197
-3 8 -29 12 -83 12 -78 0 -79 0 -79 -25 0 -24 3 -25 55 -25 l55 0 0 -70 c0
-66 -1 -71 -26 -80 -40 -15 -91 -12 -132 9 -114 58 -115 271 -2 333 41 23 129
20 180 -5 27 -14 32 -14 37 -1 8 23 -23 51 -72 63 -56 14 -89 13 -147 -5z"/>
<path d="M2098 524 c-26 -14 -35 -33 -22 -46 3 -4 21 0 39 8 78 32 145 6 145
-56 0 -30 -1 -30 -54 -30 -98 0 -146 -33 -146 -100 0 -42 15 -67 50 -85 39
-20 69 -19 105 5 36 24 55 25 55 5 0 -8 9 -15 20 -15 19 0 20 7 20 136 l0 136
-29 29 c-27 26 -36 29 -93 29 -36 -1 -75 -7 -90 -16z m162 -197 c0 -75 -124
-115 -145 -48 -16 52 16 79 98 80 47 1 47 1 47 -32z"/>
<path d="M2427 534 c-4 -4 -7 -79 -7 -166 l0 -158 25 0 25 0 0 109 c0 103 2
111 25 140 29 34 56 45 86 36 35 -11 49 -64 49 -180 l0 -105 25 0 25 0 0 119
0 120 33 25 c41 32 68 33 93 5 16 -18 20 -40 22 -145 l4 -124 25 0 25 0 -4
141 c-3 140 -3 141 -31 165 -38 33 -95 33 -135 -1 -17 -14 -32 -25 -35 -25 -4
0 -17 11 -31 25 -35 35 -95 34 -141 -1 l-33 -25 -4 23 c-3 22 -27 35 -41 22z"/>
<path d="M3026 509 c-71 -62 -73 -220 -2 -274 63 -48 207 -38 214 14 3 20 1
22 -15 16 -10 -4 -46 -10 -80 -13 -56 -4 -64 -2 -87 21 -17 17 -26 37 -26 56
l0 30 108 3 107 3 3 30 c10 88 -41 145 -132 145 -47 0 -60 -4 -90 -31z m143
-26 c11 -10 24 -33 27 -50 l7 -33 -87 0 c-85 0 -86 0 -86 25 0 61 90 98 139
58z"/>
</g>
</svg>
