<svg version="1.1" xmlns="http://www.w3.org/2000/svg" xmlns:xlink="http://www.w3.org/1999/xlink" width="714.2363" height="1464.02543" viewBox="0,0,714.2363,1464.02543"><g transform="translate(52.8445,738.19754)"><g data-paper-data="{&quot;isPaintingLayer&quot;:true}" fill-rule="nonzero" stroke-linecap="butt" stroke-linejoin="miter" stroke-miterlimit="10" stroke-dasharray="" stroke-dashoffset="0" style="mix-blend-mode: normal"><path d="M23.85253,-8.50193l0.25529,-723.88158l57.00065,-0.00848l-0.25529,723.88158z" fill="#3ab5b5" stroke="#000000" stroke-width="0.5"/><text transform="translate(52.70297,-28.74476) rotate(-89.56111) scale(0.5,0.5)" font-size="40" xml:space="preserve" fill="#00ff1e" fill-rule="nonzero" stroke="none" stroke-width="1" stroke-linecap="butt" stroke-linejoin="miter" stroke-miterlimit="10" stroke-dasharray="" stroke-dashoffset="0" font-family="Sans Serif" font-weight="normal" text-anchor="start" style="mix-blend-mode: normal"><tspan x="0" dy="0">Untitled Lettuce Game</tspan></text><path d="M-21.81848,-7.32616l9.59878,-726.61555l50.99917,0.5739l-9.59878,726.61555z" fill="#ff0000" stroke="#000000" stroke-width="0.5"/><path d="M10.9444,-212.65226v-19h17v19z" fill="#5e5e5e" stroke="#000000" stroke-width="0.5"/><path d="M13.9444,-214.15226v-15.5h11v15.5z" fill="#000000" stroke="#000000" stroke-width="0.5"/><path d="M9.8194,-263.15226v-18h17.25v18z" fill="#5e5e5e" stroke="#000000" stroke-width="0.5"/><path d="M3.35189,-317.33868l13.67175,-24.59058l11.93501,12.97064l-13.67175,24.59058z" fill="#5e5e5e" stroke="#000000" stroke-width="0.5"/><path d="M12.9444,-265.65226v-13.5h11v13.5z" fill="#000000" stroke="#000000" stroke-width="0.5"/><path d="M6.41899,-317.99342l11.94968,-19.20035l7.10115,7.57873l-11.94968,19.20035z" data-paper-data="{&quot;index&quot;:null}" fill="#000000" stroke="#000000" stroke-width="0.5"/><path d="M-1.64811,-432.83866l13.67175,-24.59059l11.93501,12.97064l-13.67175,24.59058z" fill="#5e5e5e" stroke="#000000" stroke-width="0.5"/><path d="M1.41899,-433.4934l11.94968,-19.20035l7.10115,7.57873l-11.94968,19.20035z" data-paper-data="{&quot;index&quot;:null}" fill="#000000" stroke="#000000" stroke-width="0.5"/><path d="M3.8194,-367.65225v-18h17.25v18z" fill="#5e5e5e" stroke="#000000" stroke-width="0.5"/><path d="M6.9444,-370.15225v-13.5h11v13.5z" fill="#000000" stroke="#000000" stroke-width="0.5"/><path d="M4.81938,-554.15227v-18h17.25v18z" fill="#5e5e5e" stroke="#000000" stroke-width="0.5"/><path d="M7.9444,-556.65227v-13.5h11v13.5z" fill="#000000" stroke="#000000" stroke-width="0.5"/><path d="M5.3194,-470.65225v-18h17.25v18z" fill="#5e5e5e" stroke="#000000" stroke-width="0.5"/><path d="M8.4444,-473.15225v-13.5h11v13.5z" fill="#000000" stroke="#000000" stroke-width="0.5"/><path d="M3.9444,-516.65227v-19h17v19z" fill="#5e5e5e" stroke="#000000" stroke-width="0.5"/><path d="M6.9444,-518.15227v-15.5h11v15.5z" fill="#000000" stroke="#000000" stroke-width="0.5"/><path d="M4.44438,-139.15226v-19h17v19z" fill="#5e5e5e" stroke="#000000" stroke-width="0.5"/><path d="M7.4444,-140.65226v-15.5h11v15.5z" fill="#000000" stroke="#000000" stroke-width="0.5"/><path d="M11.01082,-586.56924l-10.30998,-26.17858l17.5989,-0.98023l10.30997,26.17858z" fill="#5e5e5e" stroke="#000000" stroke-width="0.5"/><path d="M15.18326,-611.43767l8.80807,20.82946l-10.28578,1.4374l-8.80807,-20.82946z" data-paper-data="{&quot;index&quot;:null}" fill="#000000" stroke="#000000" stroke-width="0.5"/><path d="M8.51081,-78.06924l-10.30998,-26.17858l17.5989,-0.98023l10.30998,26.17858z" fill="#5e5e5e" stroke="#000000" stroke-width="0.5"/><path d="M12.68326,-102.93765l8.80807,20.82945l-10.28578,1.4374l-8.80807,-20.82945z" data-paper-data="{&quot;index&quot;:null}" fill="#000000" stroke="#000000" stroke-width="0.5"/><path d="M3.8194,-623.65227v-18h17.25v18z" fill="#5e5e5e" stroke="#000000" stroke-width="0.5"/><path d="M6.9444,-626.15227v-13.5h11v13.5z" fill="#000000" stroke="#000000" stroke-width="0.5"/><path d="M1.07594,-702.3404l8.56486,-15.83171l15.17206,8.20799l-8.56486,15.83171z" fill="#5e5e5e" stroke="#000000" stroke-width="0.5"/><path d="M5.01407,-703.05229l6.42365,-11.87378l9.67494,5.23408l-6.42365,11.87378z" fill="#000000" stroke="#000000" stroke-width="0.5"/><path d="M6.51082,-656.56924l-10.30998,-26.17858l17.5989,-0.98023l10.30998,26.17858z" fill="#5e5e5e" stroke="#000000" stroke-width="0.5"/><path d="M10.68326,-681.43764l8.80807,20.82946l-10.28578,1.4374l-8.80807,-20.82945z" data-paper-data="{&quot;index&quot;:null}" fill="#000000" stroke="#000000" stroke-width="0.5"/><text transform="translate(56.70297,-305.74475) rotate(-89.56111) scale(0.5,0.5)" font-size="40" xml:space="preserve" fill="#00922e" fill-rule="nonzero" stroke="none" stroke-width="1" stroke-linecap="butt" stroke-linejoin="miter" stroke-miterlimit="10" stroke-dasharray="" stroke-dashoffset="0" font-family="Sans Serif" font-weight="normal" text-anchor="start" style="mix-blend-mode: normal"><tspan x="0" dy="0">Letttuce Dealer</tspan></text><text transform="translate(59.70975,-523.69926) rotate(-89.78571) scale(0.5,0.5)" font-size="40" xml:space="preserve" fill="#ff0000" fill-rule="nonzero" stroke="none" stroke-width="1" stroke-linecap="butt" stroke-linejoin="miter" stroke-miterlimit="10" stroke-dasharray="" stroke-dashoffset="0" font-family="Sans Serif" font-weight="normal" text-anchor="start" style="mix-blend-mode: normal"><tspan x="0" dy="0">Radical Lettuce</tspan></text><path d="M559.95422,-12.51341l-0.23968,-723.88158l53.51626,0.00848l0.23968,723.88158z" data-paper-data="{&quot;index&quot;:null}" fill="#3ab5b5" stroke="#000000" stroke-width="0.5"/><text transform="translate(584.62004,-248.39311) rotate(90.43889) scale(0.5,0.5)" font-size="40" xml:space="preserve" data-paper-data="{&quot;index&quot;:null}" fill="#00ff1e" fill-rule="nonzero" stroke="none" stroke-width="1" stroke-linecap="butt" stroke-linejoin="miter" stroke-miterlimit="10" stroke-dasharray="" stroke-dashoffset="0" font-family="Sans Serif" font-weight="normal" text-anchor="start" style="mix-blend-mode: normal"><tspan x="0" dy="0">Untitled Lettuce Game</tspan></text><path d="M608.14233,-3.24774l-9.59878,-734.11714l50.99917,-0.57983l9.59878,734.11714z" data-paper-data="{&quot;index&quot;:null}" fill="#ff0000" stroke="#000000" stroke-width="0.5"/><path d="M609.37862,-216.65525v-19h17v19z" data-paper-data="{&quot;index&quot;:null}" fill="#5e5e5e" stroke="#000000" stroke-width="0.5"/><path d="M612.37862,-218.15525v-15.5h11v15.5z" data-paper-data="{&quot;index&quot;:null}" fill="#000000" stroke="#000000" stroke-width="0.5"/><path d="M610.25362,-267.15525v-18h17.25v18z" data-paper-data="{&quot;index&quot;:null}" fill="#5e5e5e" stroke="#000000" stroke-width="0.5"/><path d="M622.03612,-308.37103l-13.67175,-24.59058l11.93501,-12.97064l13.67175,24.59058z" data-paper-data="{&quot;index&quot;:null}" fill="#5e5e5e" stroke="#000000" stroke-width="0.5"/><path d="M613.37862,-269.65525v-13.5h11v13.5z" data-paper-data="{&quot;index&quot;:null}" fill="#000000" stroke="#000000" stroke-width="0.5"/><path d="M623.80288,-314.41768l-11.94968,-19.20035l7.10115,-7.57873l11.94968,19.20035z" data-paper-data="{&quot;index&quot;:null}" fill="#000000" stroke="#000000" stroke-width="0.5"/><path d="M627.03612,-423.87103l-13.67175,-24.59058l11.93501,-12.97064l13.67175,24.59059z" data-paper-data="{&quot;index&quot;:null}" fill="#5e5e5e" stroke="#000000" stroke-width="0.5"/><path d="M628.80288,-429.91767l-11.94968,-19.20035l7.10115,-7.57873l11.94968,19.20035z" data-paper-data="{&quot;index&quot;:null}" fill="#000000" stroke="#000000" stroke-width="0.5"/><path d="M616.25362,-371.65525v-18h17.25v18z" data-paper-data="{&quot;index&quot;:null}" fill="#5e5e5e" stroke="#000000" stroke-width="0.5"/><path d="M619.37862,-374.15525v-13.5h11v13.5z" data-paper-data="{&quot;index&quot;:null}" fill="#000000" stroke="#000000" stroke-width="0.5"/><path d="M615.25362,-558.15525v-18h17.25v18z" data-paper-data="{&quot;index&quot;:null}" fill="#5e5e5e" stroke="#000000" stroke-width="0.5"/><path d="M618.37862,-560.65525v-13.5h11v13.5z" data-paper-data="{&quot;index&quot;:null}" fill="#000000" stroke="#000000" stroke-width="0.5"/><path d="M614.75362,-474.65525v-18h17.25v18z" data-paper-data="{&quot;index&quot;:null}" fill="#5e5e5e" stroke="#000000" stroke-width="0.5"/><path d="M617.87862,-477.15525v-13.5h11v13.5z" data-paper-data="{&quot;index&quot;:null}" fill="#000000" stroke="#000000" stroke-width="0.5"/><path d="M616.37862,-520.65525v-19h17v19z" data-paper-data="{&quot;index&quot;:null}" fill="#5e5e5e" stroke="#000000" stroke-width="0.5"/><path d="M619.37862,-522.15525v-15.5h11v15.5z" data-paper-data="{&quot;index&quot;:null}" fill="#000000" stroke="#000000" stroke-width="0.5"/><path d="M615.87862,-143.15527v-19h17v19z" data-paper-data="{&quot;index&quot;:null}" fill="#5e5e5e" stroke="#000000" stroke-width="0.5"/><path d="M618.87862,-144.65527v-15.5h11v15.5z" data-paper-data="{&quot;index&quot;:null}" fill="#000000" stroke="#000000" stroke-width="0.5"/><path d="M608.7133,-591.55246l10.30997,-26.17858l17.5989,0.98023l-10.30998,26.17858z" data-paper-data="{&quot;index&quot;:null}" fill="#5e5e5e" stroke="#000000" stroke-width="0.5"/><path d="M632.42554,-614.00327l-8.80807,20.82946l-10.28578,-1.4374l8.80807,-20.82946z" data-paper-data="{&quot;index&quot;:null}" fill="#000000" stroke="#000000" stroke-width="0.5"/><path d="M611.2133,-83.05248l10.30998,-26.17858l17.5989,0.98023l-10.30998,26.17858z" data-paper-data="{&quot;index&quot;:null}" fill="#5e5e5e" stroke="#000000" stroke-width="0.5"/><path d="M634.92554,-105.50325l-8.80807,20.82945l-10.28578,-1.4374l8.80807,-20.82945z" data-paper-data="{&quot;index&quot;:null}" fill="#000000" stroke="#000000" stroke-width="0.5"/><path d="M616.25362,-627.65529v-18h17.25v18z" data-paper-data="{&quot;index&quot;:null}" fill="#5e5e5e" stroke="#000000" stroke-width="0.5"/><path d="M619.37862,-630.15529v-13.5h11v13.5z" data-paper-data="{&quot;index&quot;:null}" fill="#000000" stroke="#000000" stroke-width="0.5"/><path d="M621.07502,-698.13541l-8.56486,-15.83171l15.17206,-8.20799l8.56486,15.83171z" data-paper-data="{&quot;index&quot;:null}" fill="#5e5e5e" stroke="#000000" stroke-width="0.5"/><path d="M622.634,-701.82121l-6.42365,-11.87378l9.67494,-5.23408l6.42365,11.87378z" data-paper-data="{&quot;index&quot;:null}" fill="#000000" stroke="#000000" stroke-width="0.5"/><path d="M613.2133,-661.55246l10.30998,-26.17858l17.5989,0.98023l-10.30998,26.17858z" data-paper-data="{&quot;index&quot;:null}" fill="#5e5e5e" stroke="#000000" stroke-width="0.5"/><path d="M636.92554,-684.00323l-8.80807,20.82945l-10.28578,-1.4374l8.80807,-20.82946z" data-paper-data="{&quot;index&quot;:null}" fill="#000000" stroke="#000000" stroke-width="0.5"/><text transform="translate(580.62004,-456.97518) rotate(90.43889) scale(0.5,0.5)" font-size="40" xml:space="preserve" data-paper-data="{&quot;index&quot;:null}" fill="#00922e" fill-rule="nonzero" stroke="none" stroke-width="1" stroke-linecap="butt" stroke-linejoin="miter" stroke-miterlimit="10" stroke-dasharray="" stroke-dashoffset="0" font-family="Sans Serif" font-weight="normal" text-anchor="start" style="mix-blend-mode: normal"><tspan x="0" dy="0">Letttuce Dealer</tspan></text><text transform="translate(578.11326,-672.96563) rotate(90.21429) scale(0.5,0.5)" font-size="40" xml:space="preserve" data-paper-data="{&quot;index&quot;:null}" fill="#ff0000" fill-rule="nonzero" stroke="none" stroke-width="1" stroke-linecap="butt" stroke-linejoin="miter" stroke-miterlimit="10" stroke-dasharray="" stroke-dashoffset="0" font-family="Sans Serif" font-weight="normal" text-anchor="start" style="mix-blend-mode: normal"><tspan x="0" dy="0">Radical Lettuce</tspan></text><path d="M20.24632,723.80998l0.25754,-736.27208l57.50339,-0.00863l-0.25754,736.27209z" fill="#3ab5b5" stroke="#000000" stroke-width="0.5"/><text transform="translate(49.35124,703.38861) rotate(-89.56097) scale(0.50441,0.50441)" font-size="40" xml:space="preserve" fill="#00ff1e" fill-rule="nonzero" stroke="none" stroke-width="1" stroke-linecap="butt" stroke-linejoin="miter" stroke-miterlimit="10" stroke-dasharray="" stroke-dashoffset="0" font-family="Sans Serif" font-weight="normal" text-anchor="start" style="mix-blend-mode: normal"><tspan x="0" dy="0">Untitled Lettuce Game</tspan></text><path d="M-25.82749,724.99613l9.68344,-733.02423l51.44898,0.57897l-9.68344,733.02424z" fill="#ff0000" stroke="#000000" stroke-width="0.5"/><path d="M7.22436,517.85907v-19.16758h17.14994v19.16758z" fill="#5e5e5e" stroke="#000000" stroke-width="0.5"/><path d="M10.25081,516.34584v-15.63671h11.09702v15.63671z" fill="#000000" stroke="#000000" stroke-width="0.5"/><path d="M6.08943,466.91367v-18.15876h17.40214v18.15876z" fill="#5e5e5e" stroke="#000000" stroke-width="0.5"/><path d="M-0.43512,412.24933l13.79234,-24.80747l12.04027,13.08504l-13.79233,24.80747z" fill="#5e5e5e" stroke="#000000" stroke-width="0.5"/><path d="M9.24199,464.39162v-13.61907h11.09702v13.61907z" fill="#000000" stroke="#000000" stroke-width="0.5"/><path d="M2.65903,411.58881l12.05508,-19.3697l7.16378,7.64557l-12.05508,19.36969z" data-paper-data="{&quot;index&quot;:null}" fill="#000000" stroke="#000000" stroke-width="0.5"/><path d="M-5.47922,295.73062l13.79234,-24.80748l12.04027,13.08504l-13.79233,24.80747z" fill="#5e5e5e" stroke="#000000" stroke-width="0.5"/><path d="M-2.38506,295.07012l12.05507,-19.36969l7.16378,7.64557l-12.05508,19.3697z" data-paper-data="{&quot;index&quot;:null}" fill="#000000" stroke="#000000" stroke-width="0.5"/><path d="M0.03652,361.49198v-18.15876h17.40214v18.15876z" fill="#5e5e5e" stroke="#000000" stroke-width="0.5"/><path d="M3.18908,358.96993v-13.61907h11.09702v13.61907z" fill="#000000" stroke="#000000" stroke-width="0.5"/><path d="M1.04533,173.34707v-18.15876h17.40214v18.15876z" fill="#5e5e5e" stroke="#000000" stroke-width="0.5"/><path d="M4.1979,170.82502v-13.61907h11.09702v13.61907z" fill="#000000" stroke="#000000" stroke-width="0.5"/><path d="M1.54975,257.58351v-18.15876h17.40214v18.15876z" fill="#5e5e5e" stroke="#000000" stroke-width="0.5"/><path d="M4.70231,255.06148v-13.61906h11.09702v13.61906z" fill="#000000" stroke="#000000" stroke-width="0.5"/><path d="M0.16259,211.17781v-19.16758h17.14994v19.16758z" fill="#5e5e5e" stroke="#000000" stroke-width="0.5"/><path d="M3.18908,209.66459v-15.63671h11.09702v15.63671z" fill="#000000" stroke="#000000" stroke-width="0.5"/><path d="M0.66702,592.00731v-19.16757h17.14994v19.16757z" fill="#5e5e5e" stroke="#000000" stroke-width="0.5"/><path d="M3.69349,590.4941v-15.6367h11.09702v15.6367z" fill="#000000" stroke="#000000" stroke-width="0.5"/><path d="M7.29136,140.64416l-10.40091,-26.40947l17.75412,-0.98888l10.40091,26.40947z" fill="#5e5e5e" stroke="#000000" stroke-width="0.5"/><path d="M11.50061,115.55641l8.88576,21.01318l-10.3765,1.45008l-8.88575,-21.01317z" data-paper-data="{&quot;index&quot;:null}" fill="#000000" stroke="#000000" stroke-width="0.5"/><path d="M4.76929,653.62907l-10.40091,-26.40947l17.75412,-0.98888l10.40091,26.40947z" fill="#5e5e5e" stroke="#000000" stroke-width="0.5"/><path d="M8.97856,628.54135l8.88576,21.01317l-10.3765,1.45008l-8.88575,-21.01316z" data-paper-data="{&quot;index&quot;:null}" fill="#000000" stroke="#000000" stroke-width="0.5"/><path d="M0.03652,103.23408v-18.15876h17.40214v18.15876z" fill="#5e5e5e" stroke="#000000" stroke-width="0.5"/><path d="M3.18908,100.71202v-13.61907h11.09702v13.61907z" fill="#000000" stroke="#000000" stroke-width="0.5"/><path d="M-2.73115,23.85192l8.64041,-15.97135l15.30587,8.28038l-8.6404,15.97135z" fill="#5e5e5e" stroke="#000000" stroke-width="0.5"/><path d="M1.24171,23.13375l6.48031,-11.97851l9.76028,5.28024l-6.4803,11.97851z" fill="#000000" stroke="#000000" stroke-width="0.5"/><path d="M2.75167,70.02678l-10.40091,-26.40947l17.75412,-0.98888l10.40091,26.40947z" fill="#5e5e5e" stroke="#000000" stroke-width="0.5"/><path d="M6.96092,44.93904l8.88576,21.01317l-10.3765,1.45008l-8.88575,-21.01317z" data-paper-data="{&quot;index&quot;:null}" fill="#000000" stroke="#000000" stroke-width="0.5"/><text transform="translate(53.38652,423.94551) rotate(-89.56097) scale(0.50441,0.50441)" font-size="40" xml:space="preserve" fill="#00922e" fill-rule="nonzero" stroke="none" stroke-width="1" stroke-linecap="butt" stroke-linejoin="miter" stroke-miterlimit="10" stroke-dasharray="" stroke-dashoffset="0" font-family="Sans Serif" font-weight="normal" text-anchor="start" style="mix-blend-mode: normal"><tspan x="0" dy="0">Letttuce Dealer</tspan></text><text transform="translate(56.41981,204.06865) rotate(-89.78588) scale(0.50441,0.50441)" font-size="40" xml:space="preserve" fill="#ff0000" fill-rule="nonzero" stroke="none" stroke-width="1" stroke-linecap="butt" stroke-linejoin="miter" stroke-miterlimit="10" stroke-dasharray="" stroke-dashoffset="0" font-family="Sans Serif" font-weight="normal" text-anchor="start" style="mix-blend-mode: normal"><tspan x="0" dy="0">Radical Lettuce</tspan></text><path d="M561.07638,719.7631l-0.24179,-731.76763l53.98827,0.00857l0.24179,731.76764z" data-paper-data="{&quot;index&quot;:null}" fill="#3ab5b5" stroke="#000000" stroke-width="0.5"/><text transform="translate(585.95976,481.80298) rotate(90.43903) scale(0.50441,0.50441)" font-size="40" xml:space="preserve" data-paper-data="{&quot;index&quot;:null}" fill="#00ff1e" fill-rule="nonzero" stroke="none" stroke-width="1" stroke-linecap="butt" stroke-linejoin="miter" stroke-miterlimit="10" stroke-dasharray="" stroke-dashoffset="0" font-family="Sans Serif" font-weight="normal" text-anchor="start" style="mix-blend-mode: normal"><tspan x="0" dy="0">Untitled Lettuce Game</tspan></text><path d="M609.68952,721.53678l-9.68344,-725.03054l51.44897,-0.57265l9.68344,725.03055z" data-paper-data="{&quot;index&quot;:null}" fill="#ff0000" stroke="#000000" stroke-width="0.5"/><path d="M610.9367,513.82076v-19.16757h17.14994v19.16757z" data-paper-data="{&quot;index&quot;:null}" fill="#5e5e5e" stroke="#000000" stroke-width="0.5"/><path d="M613.96317,512.30753v-15.63671h11.09702v15.63671z" data-paper-data="{&quot;index&quot;:null}" fill="#000000" stroke="#000000" stroke-width="0.5"/><path d="M611.81943,462.87535v-18.15875h17.40215v18.15875z" data-paper-data="{&quot;index&quot;:null}" fill="#5e5e5e" stroke="#000000" stroke-width="0.5"/><path d="M623.70584,421.29606l-13.79233,-24.80747l12.04027,-13.08504l13.79233,24.80746z" data-paper-data="{&quot;index&quot;:null}" fill="#5e5e5e" stroke="#000000" stroke-width="0.5"/><path d="M614.97199,460.3533v-13.61906h11.09702v13.61906z" data-paper-data="{&quot;index&quot;:null}" fill="#000000" stroke="#000000" stroke-width="0.5"/><path d="M625.48817,415.19607l-12.05507,-19.36969l7.16378,-7.64558l12.05507,19.3697z" data-paper-data="{&quot;index&quot;:null}" fill="#000000" stroke="#000000" stroke-width="0.5"/><path d="M628.74995,304.77736l-13.79233,-24.80746l12.04028,-13.08504l13.79233,24.80748z" data-paper-data="{&quot;index&quot;:null}" fill="#5e5e5e" stroke="#000000" stroke-width="0.5"/><path d="M630.5323,298.67739l-12.05508,-19.36969l7.16378,-7.64558l12.05507,19.3697z" data-paper-data="{&quot;index&quot;:null}" fill="#000000" stroke="#000000" stroke-width="0.5"/><path d="M617.87235,357.45368v-18.15875h17.40215v18.15875z" data-paper-data="{&quot;index&quot;:null}" fill="#5e5e5e" stroke="#000000" stroke-width="0.5"/><path d="M621.02491,354.93163v-13.61907h11.09702v13.61907z" data-paper-data="{&quot;index&quot;:null}" fill="#000000" stroke="#000000" stroke-width="0.5"/><path d="M616.86353,169.30877v-18.15876h17.40215v18.15876z" data-paper-data="{&quot;index&quot;:null}" fill="#5e5e5e" stroke="#000000" stroke-width="0.5"/><path d="M620.01609,166.78671v-13.61907h11.09702v13.61907z" data-paper-data="{&quot;index&quot;:null}" fill="#000000" stroke="#000000" stroke-width="0.5"/><path d="M616.35912,253.54523v-18.15876h17.40215v18.15876z" data-paper-data="{&quot;index&quot;:null}" fill="#5e5e5e" stroke="#000000" stroke-width="0.5"/><path d="M619.51168,251.02317v-13.61907h11.09702v13.61907z" data-paper-data="{&quot;index&quot;:null}" fill="#000000" stroke="#000000" stroke-width="0.5"/><path d="M617.99844,207.13951v-19.16758h17.14994v19.16758z" data-paper-data="{&quot;index&quot;:null}" fill="#5e5e5e" stroke="#000000" stroke-width="0.5"/><path d="M621.02491,205.62628v-15.63671h11.09702v15.63671z" data-paper-data="{&quot;index&quot;:null}" fill="#000000" stroke="#000000" stroke-width="0.5"/><path d="M617.49404,587.96902v-19.16758h17.14994v19.16758z" data-paper-data="{&quot;index&quot;:null}" fill="#5e5e5e" stroke="#000000" stroke-width="0.5"/><path d="M620.5205,586.45579v-15.63671h11.09702v15.63671z" data-paper-data="{&quot;index&quot;:null}" fill="#000000" stroke="#000000" stroke-width="0.5"/><path d="M610.2655,135.61699l10.4009,-26.40947l17.75412,0.98888l-10.40091,26.40948z" data-paper-data="{&quot;index&quot;:null}" fill="#5e5e5e" stroke="#000000" stroke-width="0.5"/><path d="M634.18688,112.96819l-8.88576,21.01317l-10.3765,-1.45008l8.88576,-21.01317z" data-paper-data="{&quot;index&quot;:null}" fill="#000000" stroke="#000000" stroke-width="0.5"/><path d="M612.78757,648.60191l10.40091,-26.40947l17.75413,0.98888l-10.40091,26.40947z" data-paper-data="{&quot;index&quot;:null}" fill="#5e5e5e" stroke="#000000" stroke-width="0.5"/><path d="M636.70895,625.95313l-8.88576,21.01316l-10.3765,-1.45007l8.88576,-21.01317z" data-paper-data="{&quot;index&quot;:null}" fill="#000000" stroke="#000000" stroke-width="0.5"/><path d="M617.87235,99.19577v-18.15876h17.40215v18.15876z" data-paper-data="{&quot;index&quot;:null}" fill="#5e5e5e" stroke="#000000" stroke-width="0.5"/><path d="M621.02491,96.67372v-13.61907h11.09702v13.61907z" data-paper-data="{&quot;index&quot;:null}" fill="#000000" stroke="#000000" stroke-width="0.5"/><path d="M622.73628,28.09399l-8.6404,-15.97135l15.30588,-8.28039l8.6404,15.97135z" data-paper-data="{&quot;index&quot;:null}" fill="#5e5e5e" stroke="#000000" stroke-width="0.5"/><path d="M624.309,24.37568l-6.48031,-11.97851l9.76027,-5.28025l6.48031,11.97851z" data-paper-data="{&quot;index&quot;:null}" fill="#000000" stroke="#000000" stroke-width="0.5"/><path d="M614.80522,64.9996l10.40091,-26.40948l17.75413,0.98888l-10.40092,26.40948z" data-paper-data="{&quot;index&quot;:null}" fill="#5e5e5e" stroke="#000000" stroke-width="0.5"/><path d="M638.7266,42.35081l-8.88576,21.01317l-10.37649,-1.45008l8.88575,-21.01317z" data-paper-data="{&quot;index&quot;:null}" fill="#000000" stroke="#000000" stroke-width="0.5"/><text transform="translate(581.92449,271.38122) rotate(90.43903) scale(0.50441,0.50441)" font-size="40" xml:space="preserve" data-paper-data="{&quot;index&quot;:null}" fill="#00922e" fill-rule="nonzero" stroke="none" stroke-width="1" stroke-linecap="butt" stroke-linejoin="miter" stroke-miterlimit="10" stroke-dasharray="" stroke-dashoffset="0" font-family="Sans Serif" font-weight="normal" text-anchor="start" style="mix-blend-mode: normal"><tspan x="0" dy="0">Letttuce Dealer</tspan></text><text transform="translate(579.39559,53.48576) rotate(90.21412) scale(0.50441,0.50441)" font-size="40" xml:space="preserve" data-paper-data="{&quot;index&quot;:null}" fill="#ff0000" fill-rule="nonzero" stroke="none" stroke-width="1" stroke-linecap="butt" stroke-linejoin="miter" stroke-miterlimit="10" stroke-dasharray="" stroke-dashoffset="0" font-family="Sans Serif" font-weight="normal" text-anchor="start" style="mix-blend-mode: normal"><tspan x="0" dy="0">Radical Lettuce</tspan></text><path d="M598.86974,1.83097l12.45923,-19.19396l11.11229,7.21324l-12.45924,19.19395z" fill="#ff0000" stroke="#000000" stroke-width="0"/><path d="M618.1555,3.10001v-17h38v17z" fill="#ff0000" stroke="none" stroke-width="0"/><path d="M-20.84452,-7.89999v-14h56v14z" fill="#ff0000" stroke="none" stroke-width="0"/><path d="M-52.84449,4.10001v-35h88v35z" fill="#ff0000" stroke="none" stroke-width="0"/><path d="M36.15551,-0.89999v-20h44l-4.5045,63.54354z" fill="#3ab5b5" stroke="#000000" stroke-width="0"/><path d="M560.1555,2.09999v-20h41v20z" fill="#3ab5b5" stroke="#000000" stroke-width="0"/></g></g></svg>