<svg version="1.1" xmlns="http://www.w3.org/2000/svg" xmlns:xlink="http://www.w3.org/1999/xlink" width="731.52801" height="730.47226" viewBox="0,0,731.52801,730.47226"><g transform="translate(45.76401,5.23613)"><g data-paper-data="{&quot;isPaintingLayer&quot;:true}" fill-rule="nonzero" stroke="none" stroke-linecap="butt" stroke-linejoin="miter" stroke-miterlimit="10" stroke-dasharray="" stroke-dashoffset="0" style="mix-blend-mode: normal"><path d="M-45.764,725.23613v-730.47226h731.52801v730.47226z" fill="#000000" stroke-width="0"/><path d="M283.42575,311.84236c0.02716,0.02299 0.05425,0.04582 0.08141,0.06869c0.10489,0.02131 0.20902,0.04401 0.31269,0.06858c0.51435,0.04435 1.04775,0.07926 1.61342,0.0869c21.3114,0.28799 42.56907,0.21869 63.90035,0.80236c0.98623,-1.99228 2.07922,-3.88429 3.92867,-5.70795c1.07218,-1.05723 2.65214,-1.79271 3.17838,-3.20352c0.00987,-0.02645 0.01983,-0.05327 0.02995,-0.08064c0.12934,-0.4365 0.28719,-0.85904 0.47228,-1.26839c1.56897,-3.46991 5.059,-5.87629 9.11471,-5.87629c4.41321,0 8.257,2.8767 9.58392,6.84345c0.17969,0.37096 0.31437,0.76952 0.39628,1.19886c1.32803,6.96112 -4.39081,11.5473 -8.29762,16.20348c0.12799,0.69094 0.19481,1.43041 0.19481,2.21644c0,5.98443 -3.93642,9.21889 -8.61793,9.88596c-1.84091,1.56596 -3.56089,2.97314 -4.37666,4.16924c-1.12342,1.64718 -3.12832,4.96183 -5.00179,5.77379c-1.68672,0.73102 -8.58472,1.30466 -10.06889,0.56258c-0.87036,-0.43518 -5.46012,-7.19982 -5.59175,-8.38458c-0.06734,-0.60607 0.00196,-1.2062 0.13711,-1.80232c-5.61023,-0.07879 -11.24493,-0.2201 -16.8596,-0.38619c0.19921,0.52446 0.32251,0.9667 0.33969,1.27599c0.06856,1.23405 -1.38686,2.07016 -1.8417,3.21938c-1.30938,3.30829 -3.80965,7.90741 -8.88277,6.78005c-11.02246,-2.44944 -27.44963,-8.73285 -37.06936,-17.08322c-2.39587,-0.44982 -4.04311,-1.58405 -5.17194,-2.92425c-3.63716,-1.09279 -5.79409,-4.32864 -5.79409,-4.32864c-1.08347,-1.88305 -2.64119,-3.56901 -3.25255,-5.65373c-0.55325,-1.88657 -0.43189,-10.68717 -0.43189,-12.90734c0,-9.40219 1.50149,-17.95692 7.92965,-25.09296l6.49051,-2.35879c0.21384,-4.83389 -0.74332,-10.19601 -0.33777,-14.8071c0.12041,-1.36908 0.84848,-2.637 1.00198,-4.00277c0.2003,-1.7822 -0.16738,-3.60334 0.05647,-5.38274c0.18654,-1.48284 1.01043,-2.91223 0.87299,-4.40042c0,0 0.00864,-10.00688 10.00864,-10.00688c10,0 10.05063,10.08618 10.05063,10.08618c-0.15542,5.53884 -1.54635,10.73457 -2.06479,16.21451c-0.56874,6.0116 0.94836,12.36737 -0.0415,18.36098c-0.53529,3.24118 -2.5984,6.32453 -2.94262,9.60297c-0.34947,3.32847 -0.46596,6.68481 -1.17103,9.95646c-0.51001,2.36654 -1.58988,4.61165 -1.83453,7.02013c-0.1774,1.74644 0.15198,3.51853 -0.04378,5.26174z" data-paper-data="{&quot;noHover&quot;:false,&quot;origItem&quot;:[&quot;Path&quot;,{&quot;applyMatrix&quot;:true,&quot;segments&quot;:[[[203.42508,126.60352],[-0.1774,1.74644],[0.24465,-2.40848]],[[205.25638,119.57557],[-0.51001,2.36654],[0.70507,-3.27165]],[[206.42508,109.60352],[-0.34947,3.32847],[0.34422,-3.27844]],[[209.37087,99.98351],[-0.53529,3.24118],[0.98986,-5.99361]],[[209.42508,81.60352],[-0.56874,6.0116],[0.51844,-5.47994]],[[211.5,65.38169],[-0.15542,5.53884],[0,0]],[[201.5,55.38169],[10,0],[-10,0]],[[191.5,65.38169],[0,0],[0.13744,1.48819]],[[190.62913,69.77987],[0.18654,-1.48284],[-0.22385,1.7794]],[[190.57492,75.15986],[0.2003,-1.7822],[-0.1535,1.36577]],[[189.57492,79.15986],[0.12041,-1.36908],[-0.40555,4.61109]],[[189.91828,93.95569],[0.21384,-4.83389],[0,0]],[[183.42893,96.31062],[0,0],[-6.42816,7.13605]],[[175.5,121.38169],[0,-9.40219],[0,2.22017]],[[175.92908,134.27953],[-0.55325,-1.88657],[0.61136,2.08472]],[[179.1795,139.92869],[-1.08347,-1.88305],[0,0]],[[184.97084,144.25276],[-3.63716,-1.09279],[1.12883,1.34019]],[[190.14009,147.17339],[-2.39587,-0.44982],[9.61973,8.35037]],[[227.17857,164.23883],[-11.02246,-2.44944],[5.07312,1.12736]],[[236.05324,157.45816],[-1.30938,3.30829],[0.45484,-1.14922]],[[237.89286,154.23883],[0.06856,1.23405],[-0.01718,-0.30929]],[[237.55349,152.96283],[0.19921,0.52446],[5.61467,0.16609]],[[254.39544,153.353],[-5.61023,-0.07879],[-0.13515,0.59613]],[[254.25912,155.15499],[-0.06734,-0.60607],[0.13163,1.18477]],[[259.84929,163.54025],[-0.87036,-0.43518],[1.48416,0.74208]],[[269.9116,162.98123],[-1.68672,0.73102],[1.87347,-0.81195]],[[274.90856,157.21097],[-1.12342,1.64718],[0.81577,-1.1961]],[[279.28158,153.04505],[-1.84091,1.56596],[4.68151,-0.66707]],[[287.89286,143.1674],[0,5.98443],[0,-0.78603]],[[287.69728,140.9522],[0.12799,0.69094],[3.90681,-4.65619]],[[295.98926,124.76241],[1.32803,6.96112],[-0.08191,-0.42934]],[[295.59278,123.5644],[0.17969,0.37096],[-1.32692,-3.96675]],[[286.10714,116.73883],[4.41321,0],[-4.05572,0]],[[276.99065,122.62315],[1.56897,-3.46991],[-0.18509,0.40935]],[[276.51789,123.89304],[0.12934,-0.4365],[-0.01012,0.02737]],[[276.4879,123.97378],[0.00987,-0.02645],[-0.52624,1.41081]],[[273.30768,127.18188],[1.07218,-1.05723],[-1.84945,1.82366]],[[269.37484,132.89716],[0.98623,-1.99228],[-21.33128,-0.58367]],[[205.39286,132.09598],[21.3114,0.28799],[-0.56567,-0.00764]],[[203.77868,132.00801],[0.51435,0.04435],[-0.10367,-0.02456]],[[203.46582,131.93918],[0.10489,0.02131],[-0.02716,-0.02287]],[[203.38434,131.87038],[0.02716,0.02299],[0.19576,-1.74321]]],&quot;closed&quot;:true}]}" fill="#000000" stroke-width="0.5"/><path d="M283.41427,311.88699c0.1344,0.02605 0.26755,0.05449 0.39997,0.08587c0.51435,0.04435 1.04739,0.07923 1.61306,0.08687c21.32876,0.28823 42.62549,0.22507 63.96013,0.81207c-0.9075,1.83074 -1.71897,3.73996 -2.93266,5.74105c-0.6543,1.07879 -2.56078,1.56212 -3.43778,2.24075c-2.17818,1.68549 -6.98772,6.67896 -7.63982,9.27026c-0.27357,1.08712 -0.74694,2.1707 -0.99017,3.26686c-5.60166,-0.07807 -11.21119,-0.22208 -16.81801,-0.38687c-0.8912,-2.37465 -3.38759,-6.49035 -4.67611,-7.515c-2.45218,-1.95002 -7.43031,-2.09562 -10.44923,-3.36924c-11.1591,-4.70779 -17.15037,-7.11992 -24.73695,-15.97093c-2.37313,-2.76866 -5.69043,-5.01507 -9.65856,-4.82928c-0.43583,0.02041 -0.84569,0.09724 -1.23326,0.22247c-4.66757,0.84461 -8.20772,4.9288 -8.20772,9.83984c0,2.00516 0.59017,3.87248 1.60628,5.43774c0.10806,1.94515 4.90511,4.99254 6.02193,6.37021c1.12855,1.39214 2.4662,2.74026 3.96719,4.03784c-2.44957,-0.43848 -4.12579,-1.58413 -5.26974,-2.94228c-3.63716,-1.09279 -5.79472,-4.3285 -5.79472,-4.3285c-1.08347,-1.88305 -2.64172,-3.56885 -3.25308,-5.65356c-0.55325,-1.88657 -0.43287,-10.68682 -0.43287,-12.90699c0,-9.40219 1.49932,-17.95775 7.92748,-25.0938l6.49015,-2.3588c0.21384,-4.83389 -0.74329,-10.19831 -0.33774,-14.8094c0.12041,-1.36908 0.84864,-2.6375 1.00214,-4.00327c0.2003,-1.7822 -0.16713,-3.60385 0.05672,-5.38324c0.18654,-1.48284 1.01066,-2.91259 0.87323,-4.40078c0,0 0.00965,-10.00775 10.00965,-10.00775c10,0 10.0492,10.08698 10.0492,10.08698c-0.15542,5.53884 -1.54453,10.73326 -2.06297,16.21319c-0.56874,6.0116 0.94977,12.36031 -0.04009,18.35392c-0.53529,3.24118 -2.60166,6.32178 -2.94588,9.60022c-0.34947,3.32847 -0.46924,6.68559 -1.17431,9.95724c-0.51001,2.36654 -1.5907,4.61348 -1.83534,7.02196c-0.17915,1.76363 0.15814,3.55467 -0.05014,5.31434z" data-paper-data="{&quot;noHover&quot;:false,&quot;origItem&quot;:[&quot;Path&quot;,{&quot;applyMatrix&quot;:true,&quot;segments&quot;:[[[406.85015,253.20705],[-0.35829,3.52725],[0.4893,-4.81697]],[[410.51275,239.15114],[-1.02002,4.73309],[1.41014,-6.54331]],[[412.85015,219.20705],[-0.69895,6.65694],[0.68844,-6.55688]],[[418.74175,199.96703],[-1.07057,6.48236],[1.97971,-11.98722]],[[418.85015,163.20705],[-1.13747,12.02321],[1.03687,-10.95987]],[[423,130.76338],[-0.31084,11.07767],[0,0]],[[403,110.76338],[20,0],[-20,0]],[[383,130.76338],[0,0],[0.27488,2.97638]],[[381.25825,139.55974],[0.37308,-2.96567],[-0.4477,3.55879]],[[381.14985,150.31972],[0.4006,-3.5644],[-0.30699,2.73154]],[[379.14985,158.31972],[0.24082,-2.73817],[-0.8111,9.22218]],[[379.83656,187.91137],[0.42768,-9.66778],[0,0]],[[366.85786,192.62124],[0,0],[-12.85633,14.27209]],[[351,242.76338],[0,-18.80437],[0,4.44035]],[[351.85816,268.55906],[-1.1065,-3.77314],[1.22272,4.16943]],[[358.35899,279.85738],[-2.16694,-3.76611],[0,0]],[[369.94168,288.50552],[-7.27431,-2.18557],[2.93349,3.48276]],[[385,294.76338],[-7.44996,0],[0.47516,0]],[[386.3919,294.73005],[-0.45285,0.02204],[2.89206,4.24199]],[[398.97966,303.08789],[-5.21406,-1.04418],[0.37478,0.07505]],[[400.11503,303.28131],[-0.38203,-0.05379],[3.78251,0.60276]],[[410.07143,304.19195],[-1.9729,-0.02666],[48.31166,0.65286]],[[555.78571,306.33481],[-48.33066,1.70866],[10.53207,-0.37235]],[[575.78571,286.33481],[0,13.13656],[0,-13.15754]],[[555.78571,266.33481],[10.53207,0.38307],[-48.33529,-1.75806]],[[410.78571,264.19195],[48.29654,0.65266],[-1.13134,-0.01529]],[[407.55736,264.01601],[1.0287,0.0887],[-0.26485,-0.06276]],[[406.75681,263.84366],[0.26881,0.05211],[0.41656,-3.51935]]],&quot;closed&quot;:true}]}" fill="#000000" stroke-width="0.5"/><path d="M367.93403,323.1958c0,6.02361 -3.98709,9.25936 -8.70996,9.89817c1.8274,-1.55337 3.78588,-3.26742 5.11307,-5.09729c1.2803,-1.76521 1.53169,-4.76255 2.80285,-6.36284c0.18926,-0.23826 0.38435,-0.47599 0.58408,-0.71352c0.13727,0.70904 0.20995,1.46741 0.20995,2.27547z" data-paper-data="{&quot;noHover&quot;:false,&quot;origItem&quot;:[&quot;Path&quot;,{&quot;applyMatrix&quot;:true,&quot;segments&quot;:[[[406.85015,253.20705],[-0.35829,3.52725],[0.4893,-4.81697]],[[410.51275,239.15114],[-1.02002,4.73309],[1.41014,-6.54331]],[[412.85015,219.20705],[-0.69895,6.65694],[0.68844,-6.55688]],[[418.74175,199.96703],[-1.07057,6.48236],[1.97971,-11.98722]],[[418.85015,163.20705],[-1.13747,12.02321],[1.03687,-10.95987]],[[423,130.76338],[-0.31084,11.07767],[0,0]],[[403,110.76338],[20,0],[-20,0]],[[383,130.76338],[0,0],[0.27488,2.97638]],[[381.25825,139.55974],[0.37308,-2.96567],[-0.4477,3.55879]],[[381.14985,150.31972],[0.4006,-3.5644],[-0.30699,2.73154]],[[379.14985,158.31972],[0.24082,-2.73817],[-0.8111,9.22218]],[[379.83656,187.91137],[0.42768,-9.66778],[0,0]],[[366.85786,192.62124],[0,0],[-12.85633,14.27209]],[[351,242.76338],[0,-18.80437],[0,4.44035]],[[351.85816,268.55906],[-1.1065,-3.77314],[1.22272,4.16943]],[[358.35899,279.85738],[-2.16694,-3.76611],[0,0]],[[369.94168,288.50552],[-7.27431,-2.18557],[2.93349,3.48276]],[[385,294.76338],[-7.44996,0],[0.47516,0]],[[386.3919,294.73005],[-0.45285,0.02204],[2.89206,4.24199]],[[398.97966,303.08789],[-5.21406,-1.04418],[0.37478,0.07505]],[[400.11503,303.28131],[-0.38203,-0.05379],[3.78251,0.60276]],[[410.07143,304.19195],[-1.9729,-0.02666],[48.31166,0.65286]],[[555.78571,306.33481],[-48.33066,1.70866],[10.53207,-0.37235]],[[575.78571,286.33481],[0,13.13656],[0,-13.15754]],[[555.78571,266.33481],[10.53207,0.38307],[-48.33529,-1.75806]],[[410.78571,264.19195],[48.29654,0.65266],[-1.13134,-0.01529]],[[407.55736,264.01601],[1.0287,0.0887],[-0.26485,-0.06276]],[[406.75681,263.84366],[0.26881,0.05211],[0.41656,-3.51935]]],&quot;closed&quot;:true}]}" fill="#000000" stroke-width="0.5"/><path d="M264.9611,324.3018c-3.63716,-1.09279 -5.799,-4.32624 -5.799,-4.32624c-1.08347,-1.88305 -2.6452,-3.56721 -3.25656,-5.65193c-0.55325,-1.88657 -0.43897,-10.68461 -0.43897,-12.90478c0,-9.40219 1.48956,-17.99469 7.91772,-25.13074l6.51231,-2.37749c0.21384,-4.83389 -0.7359,-10.18893 -0.33035,-14.80002c0.12041,-1.36908 0.84966,-2.63468 1.00315,-4.00045c0.2003,-1.7822 -0.16863,-3.6007 0.05522,-5.38009c0.18654,-1.48284 1.01006,-2.91012 0.87262,-4.39831c0,0 0.01134,-9.99934 10.01134,-9.99934c10,0 10.01379,10.00454 10.01379,10.00454c-0.15542,5.53884 -1.54749,10.74768 -2.06593,16.22761c-0.56874,6.0116 0.9541,12.42093 -0.03576,18.41454c-0.53529,3.24118 -2.60919,6.37278 -2.95341,9.65122c-0.34947,3.32847 -0.47868,6.71556 -1.18375,9.98721c-0.51001,2.36654 -1.59548,4.624 -1.84013,7.03249c-0.17633,1.73588 0.14822,3.50317 -0.0402,5.23629c-1.87018,-1.58127 -3.72974,-3.4431 -5.69651,-5.73767c-2.37313,-2.76866 -5.69043,-5.01507 -9.65856,-4.82928c-0.43583,0.02041 -0.84569,0.09724 -1.23326,0.22247c-4.66757,0.84461 -8.20772,4.9288 -8.20772,9.83984c0,2.00516 0.59017,3.87248 1.60628,5.43774c0.10806,1.94515 4.90511,4.99254 6.02193,6.37021c1.13138,1.39563 2.4729,2.74701 3.97847,4.04759c-2.43943,-0.44027 -4.11202,-1.58113 -5.25273,-2.93543z" data-paper-data="{&quot;noHover&quot;:false,&quot;origItem&quot;:[&quot;Path&quot;,{&quot;applyMatrix&quot;:true,&quot;segments&quot;:[[405,274.76338],[[405,272.76338],[0,0],[-0.27488,-2.97638]],[[406.74175,263.96703],[-0.37308,2.96567],[0.4477,-3.55879]],[[406.85015,253.20705],[-0.36248,3.56848],[0.4893,-4.81697]],[[410.51275,239.15114],[-1.02002,4.73309],[1.41014,-6.54331]],[[412.85015,219.20705],[-0.69895,6.65694],[0.68844,-6.55688]],[[418.74175,199.96703],[-1.07057,6.48236],[1.97971,-11.98722]],[[418.85015,163.20705],[-1.13747,12.02321],[1.03687,-10.95987]],[[423,130.76338],[-0.31084,11.07767],[0,0]],[[403,110.76338],[20,0],[-20,0]],[[383,130.76338],[0,0],[0.27488,2.97638]],[[381.25825,139.55974],[0.37308,-2.96567],[-0.4477,3.55879]],[[381.14985,150.31972],[0.4006,-3.5644],[-0.30699,2.73154]],[[379.14985,158.31972],[0.24082,-2.73817],[-0.8111,9.22218]],[[379.83656,187.91137],[0.42768,-9.66778],[0,0]],[[366.85786,192.62124],[0,0],[-12.85633,14.27209]],[[351,242.76338],[0,-18.80437],[0,4.44035]],[[351.85816,268.55906],[-1.1065,-3.77314],[1.22272,4.16943]],[[358.35899,279.85738],[-2.16694,-3.76611],[0,0]],[[369.94168,288.50552],[-7.27431,-2.18557],[2.93349,3.48276]],[[385,294.76338],[-7.44996,0],[20,0]]],&quot;closed&quot;:true}]}" fill="#000000" stroke-width="0.5"/><path d="M337.46559,236.01011c0.55195,0.9002 1.53993,1.52044 1.95842,2.4899c0.37253,0.863 0.03693,1.90651 0.32554,2.80109c0.26956,0.83551 1.00101,1.46224 1.31446,2.28231c0.7108,1.85965 1.20149,3.74478 1.54252,5.64672c0.19997,0.49032 0.33786,0.84722 0.35369,0.93587c0.13108,0.73405 0.13932,1.46234 0.08198,2.18784c0.45245,4.36488 0.32835,8.7923 0.45803,13.17995c0.10266,3.47316 0.42347,6.91068 0.28861,10.39338c-0.305,7.05793 -0.24966,14.29095 -0.95972,21.39949c0.78432,2.21886 -0.20658,4.85841 -0.30509,7.06577c-0.07465,1.67291 0.45017,3.32513 0.49752,4.99903c0.05996,2.12009 -0.05891,4.27553 -0.19404,6.42253c-0.7595,0.79775 -1.42559,1.63292 -2.07009,2.4942c-20.86996,-4.45069 -41.86671,-8.25959 -62.77086,-12.41591c-0.55486,-0.11032 -1.07358,-0.24277 -1.57131,-0.37986c-0.09748,-0.04299 -0.19587,-0.08452 -0.29514,-0.12453c-0.92156,-1.12076 -1.82114,-2.33731 -2.71717,-3.68538c1.01822,-4.03573 2.3387,-7.83465 3.11983,-12.06116c0.63069,-3.41251 1.55399,-5.89058 2.72352,-9.05631c1.02047,-2.76223 0.64079,-6.06131 1.63566,-8.85012c1.71301,-4.80194 3.9088,-9.42116 5.67613,-14.20498c0.69309,-1.87607 0.41845,-4.01636 1.09044,-5.90008c0.35417,-0.99281 1.15963,-1.78089 1.52857,-2.7683c0.41532,-1.11153 0.17823,-2.45872 0.8017,-3.46831c0.17068,-0.27639 0.43942,-0.45875 0.7394,-0.61142c0.1107,-0.54524 0.37344,-0.96451 0.46362,-1.09669c0.40704,-1.36556 0.82512,-2.72605 1.25471,-4.08073c0,0 0.41017,-1.29332 1.57895,-1.67222l0.32384,-0.52378c7.94508,-8.18118 17.88053,-16.64776 29.88353,-11.90135c1.42501,0.56349 4.36325,1.13482 5.56241,2.15278c0.01091,0.00926 0.0218,0.01855 0.03266,0.02786l0.00479,-0.00964l2.27906,1.13215c0.85549,0.40095 1.4188,1.26086 1.43723,2.2125c1.63495,1.39681 2.57501,2.783 3.9266,4.9874z" fill="#42ff00" stroke-width="0.5"/><path d="" fill="#1eff00" stroke-width="0.5"/><text transform="translate(292.50002,257.09599) scale(0.5,0.5)" font-size="40" xml:space="preserve" fill="#000000" fill-rule="nonzero" stroke="none" stroke-width="1" stroke-linecap="butt" stroke-linejoin="miter" stroke-miterlimit="10" stroke-dasharray="" stroke-dashoffset="0" font-family="Sans Serif" font-weight="normal" text-anchor="start" style="mix-blend-mode: normal"><tspan x="0" dy="0">R.I.P</tspan></text><text transform="translate(280.29174,298.66741) scale(0.41333,0.41333)" font-size="40" xml:space="preserve" fill="#000000" fill-rule="nonzero" stroke="none" stroke-width="1" stroke-linecap="butt" stroke-linejoin="miter" stroke-miterlimit="10" stroke-dasharray="" stroke-dashoffset="0" font-family="Sans Serif" font-weight="normal" text-anchor="start" style="mix-blend-mode: normal"><tspan x="0" dy="0">Lettuce</tspan></text><path d="M312.52756,310.23906c2.08447,0.76747 4.04402,1.93369 6.20125,2.46953c1.9179,0.47639 3.97337,0.34814 5.84814,0.97306c1.2268,0.05249 2.51191,-0.2199 3.68041,0.15748c1.14369,0.36936 1.86434,1.60665 3,2c0.73229,0.25364 1.57377,-0.36803 2.31959,-0.15748c2.04337,0.57687 4.37,0.96854 5.87135,2.4699c2.46352,2.46352 3.29269,8.54248 2.13806,11.7214c-0.7357,2.02551 -3.33874,2.86674 -4.38445,4.751c-0.5115,0.92167 -0.43773,2.10839 -1,3c-1.91205,3.032 -6.06247,6.35026 -9.15932,7.95607c-0.78554,0.40732 -1.78413,0.30058 -2.54651,0.74976c-0.61534,0.36256 -0.87694,1.14425 -1.43165,1.59413c-2.69818,2.18827 -5.9537,5.0586 -9.02185,6.65611c-0.93495,0.48681 -2.05681,0.52936 -3,1c-1.13485,0.56627 -2.01522,1.58949 -3.18269,2.08504c-1.1106,0.47141 -2.45222,0.23971 -3.53724,0.76735c-0.68086,0.3311 -1.01129,1.12698 -1.51694,1.69047c-2.71278,1.39582 -5.1379,3.34925 -7.94582,4.54218c-2.58154,1.09675 -5.23872,1.84883 -7.94,2.36342c0.0435,0.27205 0.0661,0.55108 0.0661,0.83538c0,2.89949 -2.35051,5.25 -5.25,5.25h-4l0,-0.21426c-0.32832,0.0532 -0.65912,0.09376 -0.99281,0.11953c-1.78973,0.1382 -3.25846,-1.56494 -5,-2c-1.1419,-0.28526 -2.41493,0.25044 -3.52855,-0.13054c-1.17401,-0.40164 -2.15959,-1.20076 -3.19334,-1.90521l-0.31339,0.20893c-0.84501,0.58129 -1.86872,0.92155 -2.9719,0.92155c-2.13232,0 -3.96774,-1.27123 -4.78972,-3.09716c-1.25694,0.0164 -2.53465,0.21648 -3.73165,-0.12811c-1.42021,-0.40885 -2.48176,-1.61207 -3.78523,-2.30858c-1.74359,-0.93169 -4.05188,0.09628 -5.89961,-0.6066c-2.63666,-1.00298 -5.3236,-2.29779 -7.25971,-4.34947c-0.40205,-0.42605 -0.41144,-1.01626 -0.35412,-1.64322c-0.37928,0.08711 -0.77425,0.13313 -1.17996,0.13313c-0.27634,0 -0.54769,-0.02135 -0.81249,-0.06249c0.04114,0.2648 0.06249,0.53615 0.06249,0.81249c0,2.89949 -2.35051,5.25 -5.25,5.25c-0.62351,0 -1.22163,-0.10869 -1.77645,-0.30817l-2.88374,-0.96125l0.2015,-0.6045l-1.30139,0.08983c-1.23528,-1.23528 -2.74331,-2.24796 -3.70583,-3.70583c-4.08258,-6.1836 -2.84226,-15.33408 -2.55882,-22.28146c2.34158,-2.24288 3.85608,-6.04079 7.02473,-6.72863c1.21603,-0.26398 2.11713,0.70675 3.00948,1.80853c0.22052,-1.41106 0.68602,-2.84189 1.5246,-4.31862c2.16617,-3.81457 6.03701,-5.25923 9.39619,-7.49893c0.88596,-0.59071 1.3965,-1.65913 2.30964,-2.2069c1.04987,-0.62979 2.36006,-0.69954 3.45349,-1.25024c2.45043,-1.23414 4.77162,-2.94649 7.46564,-3.46605c0.76095,-0.14676 1.56774,0.34538 2.31959,0.15748c1.91308,-0.47811 2.70601,-3.03453 4.51228,-3.82563c1.0233,-0.44818 2.32113,0.30762 3.34889,-0.13022c1.28358,-0.54682 2.01226,-1.97754 3.22364,-2.66975c0.37914,-0.21665 5.97868,-2.06435 6.77636,-2.33025c0,0 3.79399,-1.26466 5.86307,1.72492c3.27531,-0.09634 7.43104,-0.43979 10.63808,0.07346c2.60751,0.4173 5.05011,1.68197 7.67637,1.95776c4.12006,0.43266 8.16919,0.69996 12.24162,1.40387c1.46177,-0.43255 2.85852,-0.49592 4.00115,0.35466c0.37631,0.28013 0.7195,0.56059 1.03147,0.84112zM231.14044,348.4136c-0.07386,-0.06629 -0.14743,-0.13207 -0.22068,-0.19729c-0.50517,0.41786 -1.0373,0.86695 -1.20318,1.30774c-0.17207,0.45723 -0.0138,0.94766 0.12294,1.44195c0.32512,-0.83822 0.85927,-1.5722 1.53848,-2.13795c-0.09729,-0.12233 -0.17621,-0.26364 -0.23755,-0.41445zM277.5432,315.78539c0.00651,0.2769 -0.00322,0.55379 -0.02768,0.83043c0.32679,-0.2274 0.64475,-0.46414 0.94544,-0.7194c-0.30655,-0.0416 -0.61271,-0.08136 -0.91776,-0.11103z" fill="#3f230d" stroke-width="0.5"/><path d="M270.736,348.11386c-2.81569,0 -5.11366,-2.21659 -5.24415,-5c-2.58528,0 -5.17057,0 -7.75585,0h-3c0,0 -5.25,0 -5.25,-5.25c0,-5.25 5.25,-5.25 5.25,-5.25c0.92303,0 1.8936,0 2.89972,0c0.56078,-2.29601 2.63153,-4 5.10028,-4c2.46874,0 4.5395,1.70399 5.10028,4c4.21508,0 8.39919,0 11.89972,0c0,0 5.25,0 5.25,5.25c0,5.25 -5.25,5.25 -5.25,5.25c-1.25195,0 -2.5039,0 -3.75585,0c-0.13049,2.78341 -2.42846,5 -5.24415,5z" fill="#24400d" stroke-width="0.5"/><path d="M297.986,337.86386c-0.51256,2.23744 0.0854,5.08922 -1.53769,6.71231c-2.10589,2.10589 -14.33651,2.32003 -16.42462,0c-4.43932,-4.93237 -0.33749,-14.17175 4.70322,-16.56268c1.0102,-0.47916 6.3166,-0.39963 8.00909,-0.39963c0,0 5.25,0 5.25,5.25c0,0.38631 -0.02843,0.74419 -0.08109,1.07574c0.05329,0.30005 0.08109,0.6089 0.08109,0.92426v3l-0.94102,0c-0.15329,0.21976 -0.32296,0.42724 -0.50724,0.62068z" fill="#981e1e" stroke-width="0.5"/></g></g></svg>