<svg version="1.1" xmlns="http://www.w3.org/2000/svg" xmlns:xlink="http://www.w3.org/1999/xlink" width="785.52801" height="782.07225" viewBox="0,0,785.52801,782.07225"><g transform="translate(108.764,31.03613)"><g data-paper-data="{&quot;isPaintingLayer&quot;:true}" fill-rule="nonzero" stroke-linejoin="miter" stroke-miterlimit="10" stroke-dasharray="" stroke-dashoffset="0" style="mix-blend-mode: normal"><path d="M-108.764,751.03613v-782.07225h785.52801v782.07225z" fill="#000000" stroke="none" stroke-width="0" stroke-linecap="butt"/><text transform="translate(195.87454,330.57089) scale(0.5,0.5)" font-size="40" xml:space="preserve" fill="#1eff00" fill-rule="nonzero" stroke="none" stroke-width="1" stroke-linecap="butt" stroke-linejoin="miter" stroke-miterlimit="10" stroke-dasharray="" stroke-dashoffset="0" font-family="Sans Serif" font-weight="normal" text-anchor="start" style="mix-blend-mode: normal"><tspan x="0" dy="0">Untitled L E T T U C E Game</tspan></text><text transform="translate(260.64376,394.15624) scale(0.5,0.5)" font-size="40" xml:space="preserve" fill="#1eff00" fill-rule="nonzero" stroke="none" stroke-width="1" stroke-linecap="butt" stroke-linejoin="miter" stroke-miterlimit="10" stroke-dasharray="" stroke-dashoffset="0" font-family="Sans Serif" font-weight="normal" text-anchor="start" style="mix-blend-mode: normal"><tspan x="0" dy="0">Press Play...</tspan></text><path d="M148.86846,668.95033l-51.92247,-69.44389l141.94358,-92.3845l51.92246,69.44389z" fill="#5a886d" stroke="none" stroke-width="0" stroke-linecap="butt"/><text transform="translate(135.29743,598.78768) rotate(-18.92071) scale(0.5,0.5)" font-size="40" xml:space="preserve" fill="#000000" fill-rule="nonzero" stroke="none" stroke-width="1" stroke-linecap="butt" stroke-linejoin="miter" stroke-miterlimit="10" stroke-dasharray="" stroke-dashoffset="0" font-family="Sans Serif" font-weight="normal" text-anchor="start" style="mix-blend-mode: normal"><tspan x="0" dy="0"> Lettuce</tspan><tspan x="0" dy="46.150000000000006px">was here</tspan></text><path d="M102.37862,593.26537l-20.28708,-68.76742l143.62877,-75.54704l20.9016,68.72977z" fill="#ff0000" stroke="#ff0000" stroke-width="3" stroke-linecap="butt"/><path d="M212.5,426.53614l94,156l-96,-149" fill="none" stroke="#000000" stroke-width="0.5" stroke-linecap="round"/><path d="M240.27421,515.14847l-11.88219,-65.47294l54.13396,59.02206l8.11296,71.87178z" fill="#ff0000" stroke="#000000" stroke-width="0.5" stroke-linecap="butt"/><path d="" data-paper-data="{&quot;index&quot;:null}" fill="#ff0000" stroke="#000000" stroke-width="0.5" stroke-linecap="butt"/><path d="M145.89804,666.31983l-54,-70l-10,-74" fill="none" stroke="#ff0000" stroke-width="3" stroke-linecap="round"/><path d="M92.89804,595.31983l12,-3" fill="none" stroke="#ff0000" stroke-width="3" stroke-linecap="round"/><path d="M102.29077,580.59537c0.42667,1.34357 0.44925,2.66945 0.44485,4.00393c0.62544,0.50482 1.20703,1.03219 1.47212,1.76382c1.58724,4.38073 -0.45684,6.56879 -4.21132,8.20249c-1.62287,0.70617 -3.61006,1.73328 -5.21641,0.99028c-3.05321,-1.41223 -2.92572,-8.24361 -3.34969,-10.83561c-0.39684,-2.42615 -1.65779,-4.66248 -2.01355,-7.095c-0.14013,-0.95815 0.17019,-1.94941 0.01355,-2.905c-0.39768,-2.42602 -1.69953,-4.65674 -2.01355,-7.095c-0.17031,-1.32241 0.16228,-2.67658 0,-4c-0.33455,-2.7283 -1.69441,-5.26831 -2,-8c-0.19661,-1.75753 -0.01248,-3.53697 -0.01873,-5.30545c0,0 0,-2.5 2.5,-2.5c2.5,0 2.5,2.5 2.5,2.5c-0.01811,4.53971 1.25576,7.73493 1.88775,12.01457c0.36589,-0.30161 0.88259,-0.51457 1.61225,-0.51457c2.25029,0 2.47505,2.02553 2.49751,2.43016c0.35744,-0.25617 0.84298,-0.43016 1.50249,-0.43016c2.5,0 2.5,2.5 2.5,2.5c0,3.12112 0,7.99566 0,11.34004c0.631,0.98487 1.54032,1.82578 1.89273,2.9355zM97.39804,590.31983c0,0.20927 -0.02571,0.41253 -0.07415,0.6068c0.0363,-0.0703 0.07234,-0.15272 0.10954,-0.23868c-0.03539,-0.22181 -0.03539,-0.36811 -0.03539,-0.36811v-1c0.00236,-0.19016 0.00054,-0.37605 -0.00512,-0.55816c-0.08817,0.01761 -0.16832,0.02989 -0.23723,0.03845c0.03789,0.24169 0.07568,0.4834 0.11343,0.72511c0.08362,0.24963 0.12892,0.51683 0.12892,0.7946z" fill="#ff0000" stroke="none" stroke-width="0.5" stroke-linecap="butt"/><path d="M108.26975,594.52926c0.79057,2.37171 -1.58114,3.16227 -1.58114,3.16227c-2,0.66666 -7,2.33334 -9,3c0,0 -2.37171,0.79058 -3.16228,-1.58113c-0.79057,-2.37171 1.58114,-3.16228 1.58114,-3.16228c2,-0.66666 4,-1.33334 6,-2l3,-1c0,0 2.3717,-0.79057 3.16227,1.58114z" fill="#5a886d" stroke="none" stroke-width="0.5" stroke-linecap="butt"/></g></g></svg>