<svg version="1.1" xmlns="http://www.w3.org/2000/svg" xmlns:xlink="http://www.w3.org/1999/xlink" width="649" height="745.0847" viewBox="0,0,649,745.0847"><defs><linearGradient x1="320" y1="-12.54235" x2="320" y2="732.54235" gradientUnits="userSpaceOnUse" id="color-1"><stop offset="0" stop-color="#9966ff"/><stop offset="1" stop-color="#66ff9d"/></linearGradient></defs><g transform="translate(4.5,12.54235)"><g data-paper-data="{&quot;isPaintingLayer&quot;:true}" fill-rule="nonzero" stroke="none" stroke-linecap="butt" stroke-linejoin="miter" stroke-miterlimit="10" stroke-dasharray="" stroke-dashoffset="0" style="mix-blend-mode: normal"><path d="M-4.5,732.54235v-745.0847h649v745.0847z" fill="url(#color-1)" stroke-width="0"/><path d="M96.50004,531.33613l1.39216,-102c0,0 3.78511,-8 12.81372,-8c38.65828,0 301.81396,-0.5 301.81396,-0.5c0,0 6.97873,3.37371 6.99949,6.69988c0.08558,13.70776 -0.0387,103.30013 -0.0387,103.30013c0,0 -3.67265,6 -9.049,6c-47.25369,0 -279.19275,0.5 -305.57868,0.5c-4.78842,0 -8.35293,-6 -8.35293,-6z" fill="#444444" stroke-width="0"/><path d="M184.50005,465.83613v-38h151v38z" fill="#9e9e9e" stroke-width="0"/><text transform="translate(189.53012,455.18566) scale(0.81612,0.6739)" font-size="40" xml:space="preserve" fill="#ff0000" fill-rule="nonzero" stroke="none" stroke-width="1" stroke-linecap="butt" stroke-linejoin="miter" stroke-miterlimit="10" stroke-dasharray="" stroke-dashoffset="0" font-family="Sans Serif" font-weight="normal" text-anchor="start" style="mix-blend-mode: normal"><tspan x="0" dy="0">Difficulty</tspan></text><path d="M115.50003,431.78613c0,3.17564 -2.57437,5.75 -5.75,5.75c-3.17563,0 -5.75,-2.57437 -5.75,-5.75c0,-3.17563 2.57437,-5.75 5.75,-5.75c3.17564,0 5.75,2.57437 5.75,5.75z" fill="#292929" stroke-width="0"/><path d="M414.00005,429.78613c0,3.17564 -2.57437,5.75 -5.75,5.75c-3.17563,0 -5.75,-2.57437 -5.75,-5.75c0,-3.17563 2.57437,-5.75 5.75,-5.75c3.17564,0 5.75,2.57437 5.75,5.75z" fill="#292929" stroke-width="0"/><path d="M113.50003,527.78613c0,3.17564 -2.57437,5.75 -5.75,5.75c-3.17563,0 -5.75,-2.57436 -5.75,-5.75c0,-3.17564 2.57437,-5.75 5.75,-5.75c3.17564,0 5.75,2.57436 5.75,5.75z" fill="#292929" stroke-width="0"/><path d="M417.00009,528.28613c0,3.17564 -2.57437,5.75 -5.75,5.75c-3.17563,0 -5.75,-2.57436 -5.75,-5.75c0,-3.17564 2.57437,-5.75 5.75,-5.75c3.17564,0 5.75,2.57436 5.75,5.75z" fill="#292929" stroke-width="0"/><path d="M437.74268,202.78334l112.82078,1.37653c0,0 7.13358,4.40471 7.1631,14.39826c0.12638,42.78986 0.01682,333.29977 0.01682,333.29977c0,0 -3.60942,7.74655 -7.19041,7.7912c-14.7579,0.18402 -111.21611,0.63006 -111.21611,0.63006c0,0 -6.47178,-4.02608 -6.48936,-9.97702c-0.15448,-52.30392 -1.45104,-309.02812 -1.5373,-338.23405c-0.01565,-5.30019 6.43247,-9.28473 6.43247,-9.28473z" fill="#444444" stroke-width="0"/><path d="M453.68357,251.05048l0.08693,-40.62882l81.07361,0.68791l-0.08693,40.62882z" fill="#9e9e9e" stroke-width="0"/><path d="M548.91422,221.79805c-3.17561,0.01768 -5.76083,-3.35793 -5.77426,-7.53962c-0.01342,-4.18168 2.55004,-7.58595 5.72564,-7.60363c3.1756,-0.01768 5.76083,3.35793 5.77426,7.53962c0.01342,4.1817 -2.55004,7.58595 -5.72564,7.60363z" fill="#292929" stroke-width="0"/><text transform="translate(455.03012,226.21787) scale(0.52757,0.44892)" font-size="40" xml:space="preserve" fill="#ff0000" fill-rule="nonzero" stroke="none" stroke-width="1" stroke-linecap="butt" stroke-linejoin="miter" stroke-miterlimit="10" stroke-dasharray="" stroke-dashoffset="0" font-family="Sans Serif" font-weight="normal" text-anchor="start" style="mix-blend-mode: normal"><tspan x="0" dy="0">  Music</tspan><tspan x="0" dy="48px">Volume</tspan></text><path d="M550.285,555.47984c-3.17561,0.01768 -5.76083,-3.35793 -5.77426,-7.53962c-0.01342,-4.18168 2.55004,-7.58595 5.72564,-7.60363c3.1756,-0.01768 5.76083,3.35793 5.77426,7.53962c0.01342,4.1817 -2.55004,7.58595 -5.72564,7.60363z" fill="#292929" stroke-width="0"/><path d="M441.40662,221.51564c-3.17561,0.01768 -5.76083,-3.35793 -5.77426,-7.53962c-0.01342,-4.18168 2.55003,-7.58595 5.72564,-7.60363c3.17561,-0.01768 5.76083,3.35793 5.77426,7.53962c0.01342,4.1817 -2.55003,7.58595 -5.72564,7.60363z" fill="#292929" stroke-width="0"/><path d="M442.79221,555.51699c-3.17561,0.01768 -5.76083,-3.35793 -5.77426,-7.53962c-0.01342,-4.18168 2.55003,-7.58595 5.72564,-7.60363c3.17561,-0.01768 5.76083,3.35793 5.77426,7.53962c0.01342,4.1817 -2.55003,7.58595 -5.72564,7.60363z" fill="#292929" stroke-width="0"/><path d="M96.50005,391.48419l1.40773,-175.98283c0,0 1.85539,-14.80257 10.98496,-14.80257c39.09056,0 307.16095,0.13734 307.16095,0.13734c0,0 7.05677,5.82074 7.07776,11.55945c0.08653,23.6503 -0.03913,178.22597 -0.03913,178.22597c0,0 -3.71372,10.35193 -9.15019,10.35193c-47.7821,0 -282.31475,0.86266 -308.99573,0.86266c-4.84197,0 -8.44634,-10.35193 -8.44634,-10.35193z" fill="#444444" stroke-width="0"/><path d="M140.9936,250.20308v-40.49356h242.56652v40.49356z" fill="#9e9e9e" stroke-width="0"/><text transform="translate(143.48227,242.11787) scale(1.14887,0.94867)" font-size="40" xml:space="preserve" fill="#ff0000" fill-rule="nonzero" stroke="none" stroke-width="1" stroke-linecap="butt" stroke-linejoin="miter" stroke-miterlimit="10" stroke-dasharray="" stroke-dashoffset="0" font-family="Sans Serif" font-weight="normal" text-anchor="start" style="mix-blend-mode: normal"><tspan x="0" dy="0">Skin Picker</tspan></text><path d="M120.74683,215.75072c0,4.47043 -3.62401,8.09442 -8.09442,8.09442c-4.47041,0 -8.09442,-3.62401 -8.09442,-8.09442c0,-4.47041 3.62401,-8.09442 8.09442,-8.09442c4.47043,0 8.09442,3.62401 8.09442,8.09442z" fill="#292929" stroke-width="0"/><path d="M419.73828,212.843c0,4.47043 -3.62401,8.09442 -8.09442,8.09442c-4.47041,0 -8.09442,-3.62401 -8.09442,-8.09442c0,-4.47041 3.62401,-8.09442 8.09442,-8.09442c4.47043,0 8.09442,3.62401 8.09442,8.09442z" fill="#292929" stroke-width="0"/><path d="M120.4314,388.39235c0,4.47043 -3.62401,8.09442 -8.09442,8.09442c-4.47041,0 -8.09442,-3.62399 -8.09442,-8.09442c0,-4.47043 3.62401,-8.09442 8.09442,-8.09442c4.47043,0 8.09442,3.62399 8.09442,8.09442z" fill="#292929" stroke-width="0"/><path d="M415.34987,387.68849c0,4.47043 -3.62401,8.09442 -8.09442,8.09442c-4.47041,0 -8.09442,-3.62399 -8.09442,-8.09442c0,-4.47043 3.62401,-8.09442 8.09442,-8.09442c4.47043,0 8.09442,3.62399 8.09442,8.09442z" fill="#292929" stroke-width="0"/><text transform="translate(435.76405,366.05001) scale(0.44944,0.4061)" font-size="40" xml:space="preserve" fill="#ffffff" fill-rule="nonzero" stroke="none" stroke-width="1" stroke-linecap="butt" stroke-linejoin="miter" stroke-miterlimit="10" stroke-dasharray="" stroke-dashoffset="0" font-family="Sans Serif" font-weight="normal" text-anchor="start" style="mix-blend-mode: normal"><tspan x="0" dy="0">Doesn't Work</tspan><tspan x="0" dy="46.150000000000006px">on skins with</tspan><tspan x="0" dy="46.150000000000006px">custom music</tspan></text><path d="M95.00005,701.50781l1.39,-132.58154c0,0 3.27538,-10.93777 12.29002,-10.93777c38.59844,0 301.85069,-0.65236 301.85069,-0.65236c0,0 6.96793,4.40175 6.98866,8.74147c0.08544,17.8848 -0.03864,134.77785 -0.03864,134.77785c0,0 -3.66697,7.82833 -9.03499,7.82833c-47.18056,0 -278.76063,0.65236 -305.10572,0.65236c-4.78101,0 -8.34001,-7.82833 -8.34001,-7.82833z" fill="#444444" stroke-width="0"/><path d="M139.50005,592.50138v-30.64163h242v30.64163z" fill="#9e9e9e" stroke-width="0"/><text transform="translate(140.53011,584.84014) scale(0.78921,0.67318)" font-size="40" xml:space="preserve" fill="#ff0000" fill-rule="nonzero" stroke="none" stroke-width="1" stroke-linecap="butt" stroke-linejoin="miter" stroke-miterlimit="10" stroke-dasharray="" stroke-dashoffset="0" font-family="Sans Serif" font-weight="normal" text-anchor="start" style="mix-blend-mode: normal"><tspan x="0" dy="0">Others Settings</tspan></text><path d="M113.00003,568.12284c0,3.59104 -2.57437,6.50215 -5.75,6.50215c-3.17563,0 -5.75,-2.91112 -5.75,-6.50215c0,-3.59103 2.57437,-6.50215 5.75,-6.50215c3.17564,0 5.75,2.91112 5.75,6.50215z" fill="#292929" stroke-width="0"/><path d="M414.50009,566.70867c0,3.59104 -2.57437,6.50215 -5.75,6.50215c-3.17563,0 -5.75,-2.91112 -5.75,-6.50215c0,-3.59103 2.57437,-6.50215 5.75,-6.50215c3.17564,0 5.75,2.91112 5.75,6.50215z" fill="#292929" stroke-width="0"/><path d="M111.00005,699.12605c0,3.72911 -2.57437,6.75215 -5.75,6.75215c-3.17563,0 -5.75,-3.02304 -5.75,-6.75215c0,-3.72911 2.57437,-6.75215 5.75,-6.75215c3.17564,0 5.75,3.02304 5.75,6.75215z" fill="#292929" stroke-width="0"/><path d="M414.50009,697.87605c0,3.59104 -2.57437,6.50215 -5.75,6.50215c-3.17563,0 -5.75,-2.91111 -5.75,-6.50215c0,-3.59104 2.57437,-6.50215 5.75,-6.50215c3.17564,0 5.75,2.91111 5.75,6.50215z" fill="#292929" stroke-width="0"/><path d="M209.50006,80.58285l0.92507,-72.30591c0,0 4.17637,-5.67105 10.17575,-5.67105c25.68788,0 198.88994,-0.35444 198.88994,-0.35444c0,0 4.63727,2.39156 4.65106,4.74942c0.05686,9.71718 -0.02571,73.22754 -0.02571,73.22754c0,0 -2.44043,4.25329 -6.01294,4.25329c-31.39942,0 -185.51968,0.35444 -203.05276,0.35444c-3.18184,0 -5.55041,-4.25329 -5.55041,-4.25329z" fill="#444444" stroke-width="0"/><text transform="translate(236.23603,35.23525) scale(1.03509,0.83064)" font-size="40" xml:space="preserve" fill="#ff0000" fill-rule="nonzero" stroke="none" stroke-width="1" stroke-linecap="butt" stroke-linejoin="miter" stroke-miterlimit="10" stroke-dasharray="" stroke-dashoffset="0" font-family="Sans Serif" font-weight="normal" text-anchor="start" style="mix-blend-mode: normal"><tspan x="0" dy="0">Settings</tspan><tspan x="0" dy="46.150000000000006px">  Menu</tspan></text><path d="M227.74685,74.75073c0,4.47043 -3.62401,8.09442 -8.09442,8.09442c-4.47041,0 -8.09442,-3.62401 -8.09442,-8.09442c0,-4.47041 3.62401,-8.09442 8.09442,-8.09442c4.47043,0 8.09442,3.62401 8.09442,8.09442z" fill="#292929" stroke-width="0"/><path d="M421.74687,74.25073c0,4.47043 -3.62401,8.09442 -8.09442,8.09442c-4.47041,0 -8.09442,-3.62401 -8.09442,-8.09442c0,-4.47041 3.62401,-8.09442 8.09442,-8.09442c4.47043,0 8.09442,3.62401 8.09442,8.09442z" fill="#292929" stroke-width="0"/><path d="M229.24685,13.25073c0,4.47043 -3.62401,8.09442 -8.09442,8.09442c-4.47041,0 -8.09442,-3.62401 -8.09442,-8.09442c0,-4.47041 3.62401,-8.09442 8.09442,-8.09442c4.47043,0 8.09442,3.62401 8.09442,8.09442z" fill="#292929" stroke-width="0"/><path d="M422.74687,11.25073c0,4.47043 -3.62401,8.09442 -8.09442,8.09442c-4.47041,0 -8.09442,-3.62401 -8.09442,-8.09442c0,-4.47041 3.62401,-8.09442 8.09442,-8.09442c4.47043,0 8.09442,3.62401 8.09442,8.09442z" fill="#292929" stroke-width="0"/><path d="M429.90005,664.48566l0.54578,-56.74418c0,0 1.28608,-4.68131 4.82569,-4.68131c15.15572,0 118.52202,-0.27921 118.52202,-0.27921c0,0 2.73597,1.88393 2.74411,3.7413c0.03355,7.6546 -0.01517,57.68419 -0.01517,57.68419c0,0 -1.43984,3.35048 -3.5476,3.35048c-18.5255,0 -109.45568,0.27921 -119.80011,0.27921c-1.87727,0 -3.27472,-3.35048 -3.27472,-3.35048z" fill="#444444" stroke-width="0"/><path d="M440.00396,609.36048c0,2.47375 -1.7734,4.47909 -3.96097,4.47909c-2.18757,0 -3.96097,-2.00536 -3.96097,-4.47909c0,-2.47373 1.7734,-4.47909 3.96097,-4.47909c2.18759,0 3.96097,2.00536 3.96097,4.47909z" fill="#292929" stroke-width="0"/><path d="M555.24434,608.03624c0,2.22393 -1.59431,4.02677 -3.56097,4.02677c-1.96666,0 -3.56097,-1.80285 -3.56097,-4.02677c0,-2.22392 1.59431,-4.02677 3.56097,-4.02677c1.96667,0 3.56097,1.80285 3.56097,4.02677z" fill="#292929" stroke-width="0"/><path d="M439.41463,662.48895c0,2.504 -1.72862,4.53388 -3.86097,4.53388c-2.13235,0 -3.86097,-2.02988 -3.86097,-4.53388c0,-2.504 1.72862,-4.53388 3.86097,-4.53388c2.13236,0 3.86097,2.02988 3.86097,4.53388z" fill="#292929" stroke-width="0"/><path d="M555.24434,661.00891c0,2.59865 -1.86294,4.70525 -4.16097,4.70525c-2.29803,0 -4.16097,-2.10662 -4.16097,-4.70525c0,-2.59865 1.86294,-4.70525 4.16097,-4.70525c2.29805,0 4.16097,2.10662 4.16097,4.70525z" fill="#292929" stroke-width="0"/></g></g></svg>