<svg version="1.1" xmlns="http://www.w3.org/2000/svg" xmlns:xlink="http://www.w3.org/1999/xlink" width="687.21263" height="1468.5889" viewBox="0,0,687.21263,1468.5889"><g transform="translate(-294.17919,738.19753)"><g data-paper-data="{&quot;isPaintingLayer&quot;:true}" fill-rule="nonzero" stroke-linecap="butt" stroke-linejoin="miter" stroke-miterlimit="10" stroke-dasharray="" stroke-dashoffset="0" style="mix-blend-mode: normal"><path d="M345.35404,-9.00943l0.24718,-720.40114l55.18958,-0.00844l-0.24718,720.40114z" fill="#3ab5b5" stroke="#000000" stroke-width="0.5"/><text transform="translate(375.70598,-27.24325) rotate(-89.56111) scale(0.5,0.5)" font-size="40" xml:space="preserve" fill="#00ff1e" fill-rule="nonzero" stroke="none" stroke-width="1" stroke-linecap="butt" stroke-linejoin="miter" stroke-miterlimit="10" stroke-dasharray="" stroke-dashoffset="0" font-family="Sans Serif" font-weight="normal" text-anchor="start" style="mix-blend-mode: normal"><tspan x="0" dy="0">Untitled Lettuce Game</tspan></text><path d="M297.77815,-1.97178l0.40235,-726.67884l51.00235,-0.07156l-0.40235,726.67884z" fill="#ff0000" stroke="#000000" stroke-width="0.5"/><path d="M330.94441,-212.65226v-19h17v19z" fill="#5e5e5e" stroke="#000000" stroke-width="0.5"/><path d="M333.94441,-214.15226v-15.5h11v15.5z" fill="#000000" stroke="#000000" stroke-width="0.5"/><path d="M329.81941,-263.15226v-18h17.25v18z" fill="#5e5e5e" stroke="#000000" stroke-width="0.5"/><path d="M323.3519,-317.33868l13.67175,-24.59058l11.93501,12.97064l-13.67175,24.59058z" fill="#5e5e5e" stroke="#000000" stroke-width="0.5"/><path d="M332.94441,-265.65226v-13.5h11v13.5z" fill="#000000" stroke="#000000" stroke-width="0.5"/><path d="M326.419,-317.99342l11.94968,-19.20035l7.10115,7.57873l-11.94968,19.20035z" data-paper-data="{&quot;index&quot;:null}" fill="#000000" stroke="#000000" stroke-width="0.5"/><path d="M318.3519,-432.83866l13.67175,-24.59059l11.93501,12.97064l-13.67175,24.59058z" fill="#5e5e5e" stroke="#000000" stroke-width="0.5"/><path d="M321.419,-433.4934l11.94968,-19.20035l7.10115,7.57873l-11.94968,19.20035z" data-paper-data="{&quot;index&quot;:null}" fill="#000000" stroke="#000000" stroke-width="0.5"/><path d="M323.81941,-367.65225v-18h17.25v18z" fill="#5e5e5e" stroke="#000000" stroke-width="0.5"/><path d="M326.94441,-370.15225v-13.5h11v13.5z" fill="#000000" stroke="#000000" stroke-width="0.5"/><path d="M324.81939,-554.15227v-18h17.25v18z" fill="#5e5e5e" stroke="#000000" stroke-width="0.5"/><path d="M327.94441,-556.65227v-13.5h11v13.5z" fill="#000000" stroke="#000000" stroke-width="0.5"/><path d="M325.31941,-470.65225v-18h17.25v18z" fill="#5e5e5e" stroke="#000000" stroke-width="0.5"/><path d="M328.44441,-473.15225v-13.5h11v13.5z" fill="#000000" stroke="#000000" stroke-width="0.5"/><path d="M323.94441,-516.65227v-19h17v19z" fill="#5e5e5e" stroke="#000000" stroke-width="0.5"/><path d="M326.94441,-518.15227v-15.5h11v15.5z" fill="#000000" stroke="#000000" stroke-width="0.5"/><path d="M324.44439,-139.15226v-19h17v19z" fill="#5e5e5e" stroke="#000000" stroke-width="0.5"/><path d="M327.44441,-140.65226v-15.5h11v15.5z" fill="#000000" stroke="#000000" stroke-width="0.5"/><path d="M331.01083,-586.56924l-10.30998,-26.17858l17.5989,-0.98023l10.30997,26.17858z" fill="#5e5e5e" stroke="#000000" stroke-width="0.5"/><path d="M335.18327,-611.43767l8.80807,20.82946l-10.28578,1.4374l-8.80807,-20.82946z" data-paper-data="{&quot;index&quot;:null}" fill="#000000" stroke="#000000" stroke-width="0.5"/><path d="M328.51081,-78.06924l-10.30998,-26.17858l17.5989,-0.98023l10.30998,26.17858z" fill="#5e5e5e" stroke="#000000" stroke-width="0.5"/><path d="M332.68327,-102.93765l8.80807,20.82945l-10.28578,1.4374l-8.80807,-20.82945z" data-paper-data="{&quot;index&quot;:null}" fill="#000000" stroke="#000000" stroke-width="0.5"/><path d="M323.81941,-623.65227v-18h17.25v18z" fill="#5e5e5e" stroke="#000000" stroke-width="0.5"/><path d="M326.94441,-626.15227v-13.5h11v13.5z" fill="#000000" stroke="#000000" stroke-width="0.5"/><path d="M321.07595,-702.3404l8.56486,-15.83171l15.17206,8.20799l-8.56486,15.83171z" fill="#5e5e5e" stroke="#000000" stroke-width="0.5"/><path d="M325.01408,-703.05229l6.42365,-11.87378l9.67494,5.23408l-6.42365,11.87378z" fill="#000000" stroke="#000000" stroke-width="0.5"/><path d="M326.51083,-656.56924l-10.30998,-26.17858l17.5989,-0.98023l10.30998,26.17858z" fill="#5e5e5e" stroke="#000000" stroke-width="0.5"/><path d="M330.68327,-681.43764l8.80807,20.82946l-10.28578,1.4374l-8.80807,-20.82945z" data-paper-data="{&quot;index&quot;:null}" fill="#000000" stroke="#000000" stroke-width="0.5"/><text transform="translate(376.70298,-305.74475) rotate(-89.56111) scale(0.5,0.5)" font-size="40" xml:space="preserve" fill="#00922e" fill-rule="nonzero" stroke="none" stroke-width="1" stroke-linecap="butt" stroke-linejoin="miter" stroke-miterlimit="10" stroke-dasharray="" stroke-dashoffset="0" font-family="Sans Serif" font-weight="normal" text-anchor="start" style="mix-blend-mode: normal"><tspan x="0" dy="0">Letttuce Dealer</tspan></text><text transform="translate(379.70976,-523.69926) rotate(-89.78571) scale(0.5,0.5)" font-size="40" xml:space="preserve" fill="#ff0000" fill-rule="nonzero" stroke="none" stroke-width="1" stroke-linecap="butt" stroke-linejoin="miter" stroke-miterlimit="10" stroke-dasharray="" stroke-dashoffset="0" font-family="Sans Serif" font-weight="normal" text-anchor="start" style="mix-blend-mode: normal"><tspan x="0" dy="0">Radical Lettuce</tspan></text><path d="M879.95423,-12.51341l-0.23968,-723.88158l53.51626,0.00848l0.23968,723.88158z" data-paper-data="{&quot;index&quot;:null}" fill="#3ab5b5" stroke="#000000" stroke-width="0.5"/><text transform="translate(904.62005,-248.39311) rotate(90.43889) scale(0.5,0.5)" font-size="40" xml:space="preserve" data-paper-data="{&quot;index&quot;:null}" fill="#00ff1e" fill-rule="nonzero" stroke="none" stroke-width="1" stroke-linecap="butt" stroke-linejoin="miter" stroke-miterlimit="10" stroke-dasharray="" stroke-dashoffset="0" font-family="Sans Serif" font-weight="normal" text-anchor="start" style="mix-blend-mode: normal"><tspan x="0" dy="0">Untitled Lettuce Game</tspan></text><path d="M928.14234,-3.24774l-9.59878,-734.11714l50.99917,-0.57983l9.59878,734.11714z" data-paper-data="{&quot;index&quot;:null}" fill="#ff0000" stroke="#000000" stroke-width="0.5"/><path d="M929.37863,-216.65525v-19h17v19z" data-paper-data="{&quot;index&quot;:null}" fill="#5e5e5e" stroke="#000000" stroke-width="0.5"/><path d="M932.37863,-218.15525v-15.5h11v15.5z" data-paper-data="{&quot;index&quot;:null}" fill="#000000" stroke="#000000" stroke-width="0.5"/><path d="M930.25363,-267.15525v-18h17.25v18z" data-paper-data="{&quot;index&quot;:null}" fill="#5e5e5e" stroke="#000000" stroke-width="0.5"/><path d="M942.03613,-308.37103l-13.67175,-24.59058l11.93501,-12.97064l13.67175,24.59058z" data-paper-data="{&quot;index&quot;:null}" fill="#5e5e5e" stroke="#000000" stroke-width="0.5"/><path d="M933.37863,-269.65525v-13.5h11v13.5z" data-paper-data="{&quot;index&quot;:null}" fill="#000000" stroke="#000000" stroke-width="0.5"/><path d="M943.80289,-314.41768l-11.94968,-19.20035l7.10115,-7.57873l11.94968,19.20035z" data-paper-data="{&quot;index&quot;:null}" fill="#000000" stroke="#000000" stroke-width="0.5"/><path d="M947.03613,-423.87103l-13.67175,-24.59058l11.93501,-12.97064l13.67175,24.59059z" data-paper-data="{&quot;index&quot;:null}" fill="#5e5e5e" stroke="#000000" stroke-width="0.5"/><path d="M948.80289,-429.91767l-11.94968,-19.20035l7.10115,-7.57873l11.94968,19.20035z" data-paper-data="{&quot;index&quot;:null}" fill="#000000" stroke="#000000" stroke-width="0.5"/><path d="M936.25363,-371.65525v-18h17.25v18z" data-paper-data="{&quot;index&quot;:null}" fill="#5e5e5e" stroke="#000000" stroke-width="0.5"/><path d="M939.37863,-374.15525v-13.5h11v13.5z" data-paper-data="{&quot;index&quot;:null}" fill="#000000" stroke="#000000" stroke-width="0.5"/><path d="M935.25363,-558.15525v-18h17.25v18z" data-paper-data="{&quot;index&quot;:null}" fill="#5e5e5e" stroke="#000000" stroke-width="0.5"/><path d="M938.37863,-560.65525v-13.5h11v13.5z" data-paper-data="{&quot;index&quot;:null}" fill="#000000" stroke="#000000" stroke-width="0.5"/><path d="M934.75363,-474.65525v-18h17.25v18z" data-paper-data="{&quot;index&quot;:null}" fill="#5e5e5e" stroke="#000000" stroke-width="0.5"/><path d="M937.87863,-477.15525v-13.5h11v13.5z" data-paper-data="{&quot;index&quot;:null}" fill="#000000" stroke="#000000" stroke-width="0.5"/><path d="M936.37863,-520.65525v-19h17v19z" data-paper-data="{&quot;index&quot;:null}" fill="#5e5e5e" stroke="#000000" stroke-width="0.5"/><path d="M939.37863,-522.15525v-15.5h11v15.5z" data-paper-data="{&quot;index&quot;:null}" fill="#000000" stroke="#000000" stroke-width="0.5"/><path d="M935.87863,-143.15527v-19h17v19z" data-paper-data="{&quot;index&quot;:null}" fill="#5e5e5e" stroke="#000000" stroke-width="0.5"/><path d="M938.87863,-144.65527v-15.5h11v15.5z" data-paper-data="{&quot;index&quot;:null}" fill="#000000" stroke="#000000" stroke-width="0.5"/><path d="M928.71331,-591.55246l10.30997,-26.17858l17.5989,0.98023l-10.30998,26.17858z" data-paper-data="{&quot;index&quot;:null}" fill="#5e5e5e" stroke="#000000" stroke-width="0.5"/><path d="M952.42555,-614.00327l-8.80807,20.82946l-10.28578,-1.4374l8.80807,-20.82946z" data-paper-data="{&quot;index&quot;:null}" fill="#000000" stroke="#000000" stroke-width="0.5"/><path d="M931.21331,-83.05248l10.30998,-26.17858l17.5989,0.98023l-10.30998,26.17858z" data-paper-data="{&quot;index&quot;:null}" fill="#5e5e5e" stroke="#000000" stroke-width="0.5"/><path d="M954.92555,-105.50325l-8.80807,20.82945l-10.28578,-1.4374l8.80807,-20.82945z" data-paper-data="{&quot;index&quot;:null}" fill="#000000" stroke="#000000" stroke-width="0.5"/><path d="M936.25363,-627.65529v-18h17.25v18z" data-paper-data="{&quot;index&quot;:null}" fill="#5e5e5e" stroke="#000000" stroke-width="0.5"/><path d="M939.37863,-630.15529v-13.5h11v13.5z" data-paper-data="{&quot;index&quot;:null}" fill="#000000" stroke="#000000" stroke-width="0.5"/><path d="M941.07503,-698.13541l-8.56486,-15.83171l15.17206,-8.20799l8.56486,15.83171z" data-paper-data="{&quot;index&quot;:null}" fill="#5e5e5e" stroke="#000000" stroke-width="0.5"/><path d="M942.63401,-701.82121l-6.42365,-11.87378l9.67494,-5.23408l6.42365,11.87378z" data-paper-data="{&quot;index&quot;:null}" fill="#000000" stroke="#000000" stroke-width="0.5"/><path d="M933.21331,-661.55246l10.30998,-26.17858l17.5989,0.98023l-10.30998,26.17858z" data-paper-data="{&quot;index&quot;:null}" fill="#5e5e5e" stroke="#000000" stroke-width="0.5"/><path d="M956.92555,-684.00323l-8.80807,20.82945l-10.28578,-1.4374l8.80807,-20.82946z" data-paper-data="{&quot;index&quot;:null}" fill="#000000" stroke="#000000" stroke-width="0.5"/><text transform="translate(900.62005,-456.97518) rotate(90.43889) scale(0.5,0.5)" font-size="40" xml:space="preserve" data-paper-data="{&quot;index&quot;:null}" fill="#00922e" fill-rule="nonzero" stroke="none" stroke-width="1" stroke-linecap="butt" stroke-linejoin="miter" stroke-miterlimit="10" stroke-dasharray="" stroke-dashoffset="0" font-family="Sans Serif" font-weight="normal" text-anchor="start" style="mix-blend-mode: normal"><tspan x="0" dy="0">Letttuce Dealer</tspan></text><text transform="translate(898.11327,-672.96563) rotate(90.21429) scale(0.5,0.5)" font-size="40" xml:space="preserve" data-paper-data="{&quot;index&quot;:null}" fill="#ff0000" fill-rule="nonzero" stroke="none" stroke-width="1" stroke-linecap="butt" stroke-linejoin="miter" stroke-miterlimit="10" stroke-dasharray="" stroke-dashoffset="0" font-family="Sans Serif" font-weight="normal" text-anchor="start" style="mix-blend-mode: normal"><tspan x="0" dy="0">Radical Lettuce</tspan></text><path d="M348.24633,723.80998l0.22187,-736.27208l49.53906,-0.00863l-0.22187,736.27209z" fill="#3ab5b5" stroke="#000000" stroke-width="0"/><text transform="translate(369.35125,703.38861) rotate(-89.56097) scale(0.50441,0.50441)" font-size="40" xml:space="preserve" fill="#00ff1e" fill-rule="nonzero" stroke="none" stroke-width="1" stroke-linecap="butt" stroke-linejoin="miter" stroke-miterlimit="10" stroke-dasharray="" stroke-dashoffset="0" font-family="Sans Serif" font-weight="normal" text-anchor="start" style="mix-blend-mode: normal"><tspan x="0" dy="0">Untitled Lettuce Game</tspan></text><path d="M294.17919,730.23402l3.7336,-736.07837l52.38547,0.15734l-3.7336,736.07838z" fill="#ff0000" stroke="#000000" stroke-width="0"/><path d="M327.22436,517.85907v-19.16758h17.14994v19.16758z" fill="#5e5e5e" stroke="#000000" stroke-width="0.5"/><path d="M330.25082,516.34584v-15.63671h11.09702v15.63671z" fill="#000000" stroke="#000000" stroke-width="0.5"/><path d="M326.08943,466.91367v-18.15876h17.40214v18.15876z" fill="#5e5e5e" stroke="#000000" stroke-width="0.5"/><path d="M319.56489,412.24933l13.79234,-24.80747l12.04027,13.08504l-13.79233,24.80747z" fill="#5e5e5e" stroke="#000000" stroke-width="0.5"/><path d="M329.24199,464.39162v-13.61907h11.09702v13.61907z" fill="#000000" stroke="#000000" stroke-width="0.5"/><path d="M322.65904,411.58881l12.05508,-19.3697l7.16378,7.64557l-12.05508,19.36969z" data-paper-data="{&quot;index&quot;:null}" fill="#000000" stroke="#000000" stroke-width="0.5"/><path d="M314.52079,295.73062l13.79234,-24.80748l12.04027,13.08504l-13.79233,24.80747z" fill="#5e5e5e" stroke="#000000" stroke-width="0.5"/><path d="M317.61494,295.07012l12.05507,-19.36969l7.16378,7.64557l-12.05508,19.3697z" data-paper-data="{&quot;index&quot;:null}" fill="#000000" stroke="#000000" stroke-width="0.5"/><path d="M320.03653,361.49198v-18.15876h17.40214v18.15876z" fill="#5e5e5e" stroke="#000000" stroke-width="0.5"/><path d="M323.18908,358.96993v-13.61907h11.09702v13.61907z" fill="#000000" stroke="#000000" stroke-width="0.5"/><path d="M321.04534,173.34707v-18.15876h17.40214v18.15876z" fill="#5e5e5e" stroke="#000000" stroke-width="0.5"/><path d="M324.19791,170.82502v-13.61907h11.09702v13.61907z" fill="#000000" stroke="#000000" stroke-width="0.5"/><path d="M321.54976,257.58351v-18.15876h17.40214v18.15876z" fill="#5e5e5e" stroke="#000000" stroke-width="0.5"/><path d="M324.70232,255.06148v-13.61906h11.09702v13.61906z" fill="#000000" stroke="#000000" stroke-width="0.5"/><path d="M320.1626,211.17781v-19.16758h17.14994v19.16758z" fill="#5e5e5e" stroke="#000000" stroke-width="0.5"/><path d="M323.18908,209.66459v-15.63671h11.09702v15.63671z" fill="#000000" stroke="#000000" stroke-width="0.5"/><path d="M320.66703,592.00731v-19.16757h17.14994v19.16757z" fill="#5e5e5e" stroke="#000000" stroke-width="0.5"/><path d="M323.6935,590.4941v-15.6367h11.09702v15.6367z" fill="#000000" stroke="#000000" stroke-width="0.5"/><path d="M327.29137,140.64416l-10.40091,-26.40947l17.75412,-0.98888l10.40091,26.40947z" fill="#5e5e5e" stroke="#000000" stroke-width="0.5"/><path d="M331.50062,115.55641l8.88576,21.01318l-10.3765,1.45008l-8.88575,-21.01317z" data-paper-data="{&quot;index&quot;:null}" fill="#000000" stroke="#000000" stroke-width="0.5"/><path d="M324.7693,653.62907l-10.40091,-26.40947l17.75412,-0.98888l10.40091,26.40947z" fill="#5e5e5e" stroke="#000000" stroke-width="0.5"/><path d="M328.97857,628.54135l8.88576,21.01317l-10.3765,1.45008l-8.88575,-21.01316z" data-paper-data="{&quot;index&quot;:null}" fill="#000000" stroke="#000000" stroke-width="0.5"/><path d="M320.03653,103.23408v-18.15876h17.40214v18.15876z" fill="#5e5e5e" stroke="#000000" stroke-width="0.5"/><path d="M323.18908,100.71202v-13.61907h11.09702v13.61907z" fill="#000000" stroke="#000000" stroke-width="0.5"/><path d="M317.26886,23.85192l8.64041,-15.97135l15.30587,8.28038l-8.6404,15.97135z" fill="#5e5e5e" stroke="#000000" stroke-width="0.5"/><path d="M321.24172,23.13375l6.48031,-11.97851l9.76028,5.28024l-6.4803,11.97851z" fill="#000000" stroke="#000000" stroke-width="0.5"/><path d="M322.75167,70.02678l-10.40091,-26.40947l17.75412,-0.98888l10.40091,26.40947z" fill="#5e5e5e" stroke="#000000" stroke-width="0.5"/><path d="M326.96092,44.93904l8.88576,21.01317l-10.3765,1.45008l-8.88575,-21.01317z" data-paper-data="{&quot;index&quot;:null}" fill="#000000" stroke="#000000" stroke-width="0.5"/><text transform="translate(373.38653,423.94551) rotate(-89.56097) scale(0.50441,0.50441)" font-size="40" xml:space="preserve" fill="#00922e" fill-rule="nonzero" stroke="none" stroke-width="1" stroke-linecap="butt" stroke-linejoin="miter" stroke-miterlimit="10" stroke-dasharray="" stroke-dashoffset="0" font-family="Sans Serif" font-weight="normal" text-anchor="start" style="mix-blend-mode: normal"><tspan x="0" dy="0">Letttuce Dealer</tspan></text><text transform="translate(376.41982,204.06865) rotate(-89.78588) scale(0.50441,0.50441)" font-size="40" xml:space="preserve" fill="#ff0000" fill-rule="nonzero" stroke="none" stroke-width="1" stroke-linecap="butt" stroke-linejoin="miter" stroke-miterlimit="10" stroke-dasharray="" stroke-dashoffset="0" font-family="Sans Serif" font-weight="normal" text-anchor="start" style="mix-blend-mode: normal"><tspan x="0" dy="0">Radical Lettuce</tspan></text><path d="M881.07639,719.7631l-0.24179,-731.76763l53.98827,0.00857l0.24179,731.76764z" data-paper-data="{&quot;index&quot;:null}" fill="#3ab5b5" stroke="#000000" stroke-width="0.5"/><text transform="translate(905.95977,481.80298) rotate(90.43903) scale(0.50441,0.50441)" font-size="40" xml:space="preserve" data-paper-data="{&quot;index&quot;:null}" fill="#00ff1e" fill-rule="nonzero" stroke="none" stroke-width="1" stroke-linecap="butt" stroke-linejoin="miter" stroke-miterlimit="10" stroke-dasharray="" stroke-dashoffset="0" font-family="Sans Serif" font-weight="normal" text-anchor="start" style="mix-blend-mode: normal"><tspan x="0" dy="0">Untitled Lettuce Game</tspan></text><path d="M929.68953,721.53678l-9.68344,-725.03054l51.44897,-0.57265l9.68344,725.03055z" data-paper-data="{&quot;index&quot;:null}" fill="#ff0000" stroke="#000000" stroke-width="0.5"/><path d="M930.93671,513.82076v-19.16757h17.14994v19.16757z" data-paper-data="{&quot;index&quot;:null}" fill="#5e5e5e" stroke="#000000" stroke-width="0.5"/><path d="M933.96318,512.30753v-15.63671h11.09702v15.63671z" data-paper-data="{&quot;index&quot;:null}" fill="#000000" stroke="#000000" stroke-width="0.5"/><path d="M931.81944,462.87535v-18.15875h17.40215v18.15875z" data-paper-data="{&quot;index&quot;:null}" fill="#5e5e5e" stroke="#000000" stroke-width="0.5"/><path d="M943.70585,421.29606l-13.79233,-24.80747l12.04027,-13.08504l13.79233,24.80746z" data-paper-data="{&quot;index&quot;:null}" fill="#5e5e5e" stroke="#000000" stroke-width="0.5"/><path d="M934.972,460.3533v-13.61906h11.09702v13.61906z" data-paper-data="{&quot;index&quot;:null}" fill="#000000" stroke="#000000" stroke-width="0.5"/><path d="M945.48818,415.19607l-12.05507,-19.36969l7.16378,-7.64558l12.05507,19.3697z" data-paper-data="{&quot;index&quot;:null}" fill="#000000" stroke="#000000" stroke-width="0.5"/><path d="M948.74996,304.77736l-13.79233,-24.80746l12.04028,-13.08504l13.79233,24.80748z" data-paper-data="{&quot;index&quot;:null}" fill="#5e5e5e" stroke="#000000" stroke-width="0.5"/><path d="M950.53231,298.67739l-12.05508,-19.36969l7.16378,-7.64558l12.05507,19.3697z" data-paper-data="{&quot;index&quot;:null}" fill="#000000" stroke="#000000" stroke-width="0.5"/><path d="M937.87236,357.45368v-18.15875h17.40215v18.15875z" data-paper-data="{&quot;index&quot;:null}" fill="#5e5e5e" stroke="#000000" stroke-width="0.5"/><path d="M941.02492,354.93163v-13.61907h11.09702v13.61907z" data-paper-data="{&quot;index&quot;:null}" fill="#000000" stroke="#000000" stroke-width="0.5"/><path d="M936.86354,169.30877v-18.15876h17.40215v18.15876z" data-paper-data="{&quot;index&quot;:null}" fill="#5e5e5e" stroke="#000000" stroke-width="0.5"/><path d="M940.0161,166.78671v-13.61907h11.09702v13.61907z" data-paper-data="{&quot;index&quot;:null}" fill="#000000" stroke="#000000" stroke-width="0.5"/><path d="M936.35913,253.54523v-18.15876h17.40215v18.15876z" data-paper-data="{&quot;index&quot;:null}" fill="#5e5e5e" stroke="#000000" stroke-width="0.5"/><path d="M939.51169,251.02317v-13.61907h11.09702v13.61907z" data-paper-data="{&quot;index&quot;:null}" fill="#000000" stroke="#000000" stroke-width="0.5"/><path d="M937.99845,207.13951v-19.16758h17.14994v19.16758z" data-paper-data="{&quot;index&quot;:null}" fill="#5e5e5e" stroke="#000000" stroke-width="0.5"/><path d="M941.02492,205.62628v-15.63671h11.09702v15.63671z" data-paper-data="{&quot;index&quot;:null}" fill="#000000" stroke="#000000" stroke-width="0.5"/><path d="M937.49405,587.96902v-19.16758h17.14994v19.16758z" data-paper-data="{&quot;index&quot;:null}" fill="#5e5e5e" stroke="#000000" stroke-width="0.5"/><path d="M940.52051,586.45579v-15.63671h11.09702v15.63671z" data-paper-data="{&quot;index&quot;:null}" fill="#000000" stroke="#000000" stroke-width="0.5"/><path d="M930.26551,135.61699l10.4009,-26.40947l17.75412,0.98888l-10.40091,26.40948z" data-paper-data="{&quot;index&quot;:null}" fill="#5e5e5e" stroke="#000000" stroke-width="0.5"/><path d="M954.18689,112.96819l-8.88576,21.01317l-10.3765,-1.45008l8.88576,-21.01317z" data-paper-data="{&quot;index&quot;:null}" fill="#000000" stroke="#000000" stroke-width="0.5"/><path d="M932.78758,648.60191l10.40091,-26.40947l17.75413,0.98888l-10.40091,26.40947z" data-paper-data="{&quot;index&quot;:null}" fill="#5e5e5e" stroke="#000000" stroke-width="0.5"/><path d="M956.70896,625.95313l-8.88576,21.01316l-10.3765,-1.45007l8.88576,-21.01317z" data-paper-data="{&quot;index&quot;:null}" fill="#000000" stroke="#000000" stroke-width="0.5"/><path d="M937.87236,99.19577v-18.15876h17.40215v18.15876z" data-paper-data="{&quot;index&quot;:null}" fill="#5e5e5e" stroke="#000000" stroke-width="0.5"/><path d="M941.02492,96.67372v-13.61907h11.09702v13.61907z" data-paper-data="{&quot;index&quot;:null}" fill="#000000" stroke="#000000" stroke-width="0.5"/><path d="M942.73629,28.09399l-8.6404,-15.97135l15.30588,-8.28039l8.6404,15.97135z" data-paper-data="{&quot;index&quot;:null}" fill="#5e5e5e" stroke="#000000" stroke-width="0.5"/><path d="M944.30901,24.37568l-6.48031,-11.97851l9.76027,-5.28025l6.48031,11.97851z" data-paper-data="{&quot;index&quot;:null}" fill="#000000" stroke="#000000" stroke-width="0.5"/><path d="M934.80523,64.9996l10.40091,-26.40948l17.75413,0.98888l-10.40092,26.40948z" data-paper-data="{&quot;index&quot;:null}" fill="#5e5e5e" stroke="#000000" stroke-width="0.5"/><path d="M958.72661,42.35081l-8.88576,21.01317l-10.37649,-1.45008l8.88575,-21.01317z" data-paper-data="{&quot;index&quot;:null}" fill="#000000" stroke="#000000" stroke-width="0.5"/><text transform="translate(901.9245,271.38122) rotate(90.43903) scale(0.50441,0.50441)" font-size="40" xml:space="preserve" data-paper-data="{&quot;index&quot;:null}" fill="#00922e" fill-rule="nonzero" stroke="none" stroke-width="1" stroke-linecap="butt" stroke-linejoin="miter" stroke-miterlimit="10" stroke-dasharray="" stroke-dashoffset="0" font-family="Sans Serif" font-weight="normal" text-anchor="start" style="mix-blend-mode: normal"><tspan x="0" dy="0">Letttuce Dealer</tspan></text><text transform="translate(899.3956,53.48576) rotate(90.21412) scale(0.50441,0.50441)" font-size="40" xml:space="preserve" data-paper-data="{&quot;index&quot;:null}" fill="#ff0000" fill-rule="nonzero" stroke="none" stroke-width="1" stroke-linecap="butt" stroke-linejoin="miter" stroke-miterlimit="10" stroke-dasharray="" stroke-dashoffset="0" font-family="Sans Serif" font-weight="normal" text-anchor="start" style="mix-blend-mode: normal"><tspan x="0" dy="0">Radical Lettuce</tspan></text><path d="M918.86975,1.83097l12.45923,-19.19396l11.11229,7.21324l-12.45924,19.19395z" fill="#ff0000" stroke="#000000" stroke-width="0"/><path d="M938.15551,3.10001v-17h38v17z" fill="#ff0000" stroke="none" stroke-width="0"/><path d="M350.14951,5.10602v-20h44l-4.5045,63.54354z" fill="#3ab5b5" stroke="#000000" stroke-width="0"/><path d="M880.15551,2.09999v-20h41v20z" fill="#3ab5b5" stroke="#000000" stroke-width="0"/></g></g></svg>