<svg version="1.1" xmlns="http://www.w3.org/2000/svg" xmlns:xlink="http://www.w3.org/1999/xlink" width="1516.85233" height="974.5913" viewBox="0,0,1516.85233,974.5913"><g transform="translate(118.42616,5.23613)"><g data-paper-data="{&quot;isPaintingLayer&quot;:true}" fill-rule="nonzero" stroke="none" stroke-linecap="butt" stroke-linejoin="miter" stroke-miterlimit="10" stroke-dasharray="" stroke-dashoffset="0" style="mix-blend-mode: normal"><path d="M-118.42616,725.23613v-730.47226h1516.85233v730.47226z" fill="#000000" stroke-width="0"/><path d="M48.50004,47.26387v-47h36v47z" fill="#d6ff00" stroke-width="0"/><text transform="translate(426.16669,88.09719) scale(1.10672,1.10672)" font-size="40" xml:space="preserve" fill="#20ff00" fill-rule="nonzero" stroke="none" stroke-width="1" stroke-linecap="butt" stroke-linejoin="miter" stroke-miterlimit="10" stroke-dasharray="" stroke-dashoffset="0" font-family="Sans Serif" font-weight="normal" text-anchor="start" style="mix-blend-mode: normal"><tspan x="0" dy="0">SAVE DATA OPTIONS</tspan></text><text transform="translate(404.50002,154.80001) scale(0.46309,0.5)" font-size="40" xml:space="preserve" fill="#5dff00" fill-rule="nonzero" stroke="none" stroke-width="1" stroke-linecap="butt" stroke-linejoin="miter" stroke-miterlimit="10" stroke-dasharray="" stroke-dashoffset="0" font-family="Sans Serif" font-weight="normal" text-anchor="start" style="mix-blend-mode: normal"><tspan x="0" dy="0">You can use this menu to save and load your progress</tspan><tspan x="0" dy="46.15px"> </tspan><tspan x="0" dy="46.15px"> </tspan><tspan x="0" dy="46.15px"> </tspan><tspan x="0" dy="46.15px"> </tspan><tspan x="0" dy="46.15px"> </tspan><tspan x="0" dy="46.15px"> </tspan><tspan x="0" dy="46.15px"> </tspan><tspan x="0" dy="46.15px"> </tspan><tspan x="0" dy="46.15px"> </tspan><tspan x="0" dy="46.15px"> </tspan><tspan x="0" dy="46.15px"> </tspan><tspan x="0" dy="46.15px"> </tspan><tspan x="0" dy="46.15px">[      Please dont use the        ]</tspan><tspan x="0" dy="46.15px">[    import/export function    ]</tspan><tspan x="0" dy="46.15px">[     To Save Your Progress     ]</tspan></text><g stroke-width="0"><path d="M429.16671,46.26387v-47h32v47z" fill="#616161"/><path d="M461.16671,46.26387v-47h32v47z" fill="#d6ff00"/><path d="M486.83335,46.26387v-47h32v47z" fill="#616161"/><path d="M517.50004,46.26387v-47h32v47z" fill="#d6ff00"/><path d="M545.1667,46.5972v-47h32v47z" fill="#616161"/><path d="M577.1667,46.5972v-47h32v47z" fill="#d6ff00"/><path d="M602.83338,46.5972v-47h32v47z" fill="#616161"/><path d="M631.50005,44.93054v-47h32v47z" fill="#d6ff00"/><path d="M659.16669,45.26387v-47h32v47z" fill="#616161"/><path d="M691.16671,45.26387v-47h32v47z" fill="#d6ff00"/><path d="M716.83339,45.26387v-47h32v47z" fill="#616161"/><path d="M747.50005,45.26387v-47h32v47z" fill="#d6ff00"/><path d="M775.16672,45.59721v-47h32v47z" fill="#616161"/><path d="M807.16672,45.5972v-47h32v47z" fill="#d6ff00"/><path d="M832.83338,45.59721v-47h32v47z" fill="#616161"/><path d="M400.73235,46.20543v-47h32v47z" fill="#d6ff00"/></g><path d="M893.50362,45.25786v-47h31.8621v47z" fill="#616161" stroke-width="0"/><path d="M925.36572,45.25786v-47h31.8621v47z" fill="#d6ff00" stroke-width="0"/><path d="M950.92175,45.25786v-47h31.8621v47z" fill="#616161" stroke-width="0"/><path d="M981.45629,45.25786v-47h31.8621v47z" fill="#d6ff00" stroke-width="0"/><path d="M1009.00372,45.59119v-47h31.8621v47z" fill="#616161" stroke-width="0"/><path d="M1040.86582,45.59119v-47h31.86209v47z" fill="#d6ff00" stroke-width="0"/><path d="M1066.42189,45.59119v-47h31.8621v47z" fill="#616161" stroke-width="0"/><path d="M1094.96503,43.92453v-47h31.8621v47z" fill="#d6ff00" stroke-width="0"/><path d="M1122.51244,44.25786v-47h31.8621v47z" fill="#616161" stroke-width="0"/><path d="M1154.37456,44.25786v-47h31.8621v47z" fill="#d6ff00" stroke-width="0"/><path d="M1179.93063,44.25786v-47h31.8621v47z" fill="#616161" stroke-width="0"/><path d="M1210.46513,44.25786v-47h31.8621v47z" fill="#d6ff00" stroke-width="0"/><path d="M1238.01258,44.5912v-47h48.8621v47z" fill="#616161" stroke-width="0"/><path d="M865.19181,45.19942v-47h31.8621v47z" fill="#d6ff00" stroke-width="0"/><g stroke-width="0"><path d="M1240.81402,70.69086l46.9999,-0.09888l0.06732,31.99993l-46.99989,0.09888z" fill="#616161"/><path d="M1240.88135,102.69079l46.99989,-0.09888l0.06732,31.99993l-46.9999,0.09887z" fill="#d6ff00"/><path d="M1240.93534,128.35737l46.99989,-0.09887l0.06732,31.99993l-46.99989,0.09888z" fill="#616161"/><path d="M1240.99986,159.024l46.99989,-0.09888l0.06732,31.99993l-46.9999,0.09887z" fill="#d6ff00"/><path d="M1240.72473,186.6913l46.9999,-0.09887l0.06732,31.99993l-46.9999,0.09887z" fill="#616161"/><path d="M1240.79204,218.69123l46.9999,-0.09887l0.06732,31.99993l-46.99989,0.09887z" fill="#d6ff00"/><path d="M1240.84604,244.35785l46.9999,-0.09887l0.06732,31.99993l-46.99989,0.09888z" fill="#616161"/><path d="M1242.57301,273.02095l46.99989,-0.09887l0.06732,31.99993l-46.99989,0.09887z" fill="#d6ff00"/><path d="M1242.29788,300.68823l46.9999,-0.09887l0.06732,31.99993l-46.99989,0.09888z" fill="#616161"/><path d="M1242.3652,332.68818l46.99989,-0.09888l0.06732,31.99993l-46.99989,0.09888z" fill="#d6ff00"/><path d="M1242.41919,358.3548l46.99989,-0.09888l0.06732,31.99993l-46.9999,0.09888z" fill="#616161"/><path d="M1242.48371,389.02139l46.99989,-0.09888l0.06732,31.99993l-46.99989,0.09888z" fill="#d6ff00"/><path d="M1242.20857,416.6887l46.99989,-0.09887l0.06732,31.99993l-46.9999,0.09887z" fill="#616161"/><path d="M1242.2759,448.68863l46.9999,-0.09887l0.06732,31.99993l-46.99989,0.09888z" fill="#d6ff00"/><path d="M1242.32988,474.35524l46.9999,-0.09888l0.06732,31.99993l-46.99989,0.09888z" fill="#616161"/><path d="M1240.81265,42.25645l46.99989,-0.09887l0.06732,31.99993l-46.9999,0.09887z" fill="#d6ff00"/></g><path d="M1242.81402,533.69086l46.9999,-0.09888l0.06732,31.99993l-46.99989,0.09888z" fill="#616161" stroke-width="0"/><path d="M1242.88135,565.69079l46.99989,-0.09888l0.06732,31.99993l-46.9999,0.09888z" fill="#d6ff00" stroke-width="0"/><path d="M1242.93534,591.35737l46.99989,-0.09887l0.06732,31.99993l-46.99989,0.09888z" fill="#616161" stroke-width="0"/><path d="M1242.99986,622.024l46.99989,-0.09888l0.06732,31.99993l-46.9999,0.09887z" fill="#d6ff00" stroke-width="0"/><path d="M1242.72473,649.6913l46.9999,-0.09888l0.06732,31.99993l-46.9999,0.09888z" fill="#616161" stroke-width="0"/><path d="M1244.2759,911.68863l46.9999,-0.09888l0.06732,31.99993l-46.99989,0.09888z" fill="#d6ff00" stroke-width="0"/><path d="M1244.32988,937.35524l46.9999,-0.09888l0.06732,31.99993l-46.99989,0.09888z" fill="#616161" stroke-width="0"/><path d="M1242.81265,505.25645l46.99989,-0.09887l0.06732,31.99993l-46.9999,0.09888z" fill="#d6ff00" stroke-width="0"/><path d="M1.01258,51.40065v-51.80945h53.8621v51.80946z" fill="#616161" stroke-width="0"/><path d="M0.82498,72.69086l52.76493,-0.09888l0.07557,31.99993l-52.76493,0.09888z" fill="#616161" stroke-width="0"/><path d="M0.90056,104.69079l52.76493,-0.09888l0.07558,31.99993l-52.76493,0.09887z" fill="#d6ff00" stroke-width="0"/><path d="M0.96117,130.35737l52.76493,-0.09887l0.07558,31.99993l-52.76493,0.09888z" fill="#616161" stroke-width="0"/><path d="M1.0336,161.024l52.76493,-0.09888l0.07558,31.99993l-52.76493,0.09887z" fill="#d6ff00" stroke-width="0"/><path d="M0.72473,188.6913l52.76493,-0.09887l0.07558,31.99993l-52.76493,0.09887z" fill="#616161" stroke-width="0"/><path d="M0.8003,220.69123l52.76493,-0.09887l0.07557,31.99993l-52.76493,0.09887z" fill="#d6ff00" stroke-width="0"/><path d="M0.86092,246.35785l52.76493,-0.09887l0.07557,31.99993l-52.76493,0.09888z" fill="#616161" stroke-width="0"/><path d="M2.79972,275.02095l52.76493,-0.09887l0.07558,31.99993l-52.76493,0.09887z" fill="#d6ff00" stroke-width="0"/><path d="M-14.02568,302.68823l69.25783,-0.09887l0.09919,31.99993l-69.25782,0.09888z" fill="#616161" stroke-width="0"/><path d="M2.56642,334.68818l52.76493,-0.09888l0.07558,31.99993l-52.76493,0.09888z" fill="#d6ff00" stroke-width="0"/><path d="M-37.91351,360.3548l93.24748,-0.09888l0.13356,31.99993l-93.24748,0.09888z" fill="#616161" stroke-width="0"/><path d="M2.69946,391.02139l52.76493,-0.09888l0.07558,31.99993l-52.76493,0.09888z" fill="#d6ff00" stroke-width="0"/><path d="M-21.63345,418.6887l76.75459,-0.09887l0.10994,31.99993l-76.7546,0.09887z" fill="#616161" stroke-width="0"/><path d="M-0.53684,450.68863l55.76364,-0.09887l0.07987,31.99993l-55.76363,0.09888z" fill="#d6ff00" stroke-width="0"/><path d="M-1.97774,476.35524l57.26299,-0.09888l0.08201,31.99993l-57.26299,0.09888z" fill="#616161" stroke-width="0"/><path d="M0.82343,44.25645l52.76493,-0.09887l0.07558,31.99993l-52.76493,0.09887z" fill="#d6ff00" stroke-width="0"/><path d="M-37.72952,535.69086l90.48117,-0.09888l0.12959,31.99993l-90.48116,0.09888z" fill="#616161" stroke-width="0"/><path d="M-30.15469,567.69079l82.98439,-0.09888l0.11886,31.99993l-82.98439,0.09888z" fill="#d6ff00" stroke-width="0"/><path d="M-15.08568,593.35737l67.99085,-0.09887l0.09739,31.99993l-67.99085,0.09888z" fill="#616161" stroke-width="0"/><path d="M-21.02717,624.024l73.98827,-0.09888l0.10598,31.99993l-73.98827,0.09887z" fill="#d6ff00" stroke-width="0"/><path d="M-18.29929,651.6913l70.98956,-0.09888l0.10168,31.99993l-70.98957,0.09888z" fill="#616161" stroke-width="0"/><path d="M5.79205,683.70971l46.9999,-0.11735l0.06732,37.98145l-46.99989,0.11735z" fill="#d6ff00" stroke-width="0"/><path d="M-3.19636,507.25645l55.99602,-0.09887l0.08021,31.99993l-55.99602,0.09888z" fill="#d6ff00" stroke-width="0"/><path d="M80.1667,47.5972v-47h32v47z" fill="#616161" stroke-width="0"/><path d="M112.1667,47.5972v-47h32v47z" fill="#d6ff00" stroke-width="0"/><path d="M137.83337,47.5972v-47h32v47z" fill="#616161" stroke-width="0"/><path d="M166.50005,45.93054v-47h32v47z" fill="#d6ff00" stroke-width="0"/><path d="M194.16669,46.26387v-47h32v47z" fill="#616161" stroke-width="0"/><path d="M226.16671,46.26387v-47h32v47z" fill="#d6ff00" stroke-width="0"/><path d="M251.83339,46.26387v-47h32v47z" fill="#616161" stroke-width="0"/><path d="M282.50005,46.26387v-47h32v47z" fill="#d6ff00" stroke-width="0"/><path d="M310.16672,46.59721v-47h32v47z" fill="#616161" stroke-width="0"/><path d="M342.16672,46.5972v-47h32v47z" fill="#d6ff00" stroke-width="0"/><path d="M367.83338,46.59721v-47h32v47z" fill="#616161" stroke-width="0"/><path d="M50.49703,720.43203v-47h36v47z" fill="#d6ff00" stroke-width="0"/><g stroke-width="0"><path d="M431.1637,719.43203v-47h32v47z" fill="#616161"/><path d="M463.1637,719.43203v-47h32v47z" fill="#d6ff00"/><path d="M488.83034,719.43203v-47h32v47z" fill="#616161"/><path d="M519.49703,719.43203v-47h32v47z" fill="#d6ff00"/><path d="M547.16369,719.76536v-47h32v47z" fill="#616161"/><path d="M579.16369,719.76536v-47h32v47z" fill="#d6ff00"/><path d="M604.83037,719.76536v-47h32v47z" fill="#616161"/><path d="M633.49704,718.0987v-47h32v47z" fill="#d6ff00"/><path d="M661.16368,718.43203v-47h32v47z" fill="#616161"/><path d="M693.1637,718.43203v-47h32v47z" fill="#d6ff00"/><path d="M718.83038,718.43203v-47h32v47z" fill="#616161"/><path d="M749.49704,718.43203v-47h32v47z" fill="#d6ff00"/><path d="M777.16371,718.76537v-47h32v47z" fill="#616161"/><path d="M809.16371,718.76536v-47h32v47z" fill="#d6ff00"/><path d="M834.83037,718.76537v-47h32v47z" fill="#616161"/><path d="M402.72934,719.37359v-47h32v47z" fill="#d6ff00"/></g><path d="M895.50062,718.42602v-47h31.8621v47z" fill="#616161" stroke-width="0"/><path d="M927.36272,718.42602v-47h31.8621v47z" fill="#d6ff00" stroke-width="0"/><path d="M952.91875,718.42602v-47h31.8621v47z" fill="#616161" stroke-width="0"/><path d="M983.45328,718.42602v-47h31.8621v47z" fill="#d6ff00" stroke-width="0"/><path d="M1011.00072,718.75935v-47h31.8621v47z" fill="#616161" stroke-width="0"/><path d="M1042.86282,718.75935v-47h31.86209v47z" fill="#d6ff00" stroke-width="0"/><path d="M1068.41889,730.77137v-59.01201h31.8621v59.01201z" fill="#616161" stroke-width="0"/><path d="M1242.79204,683.11644l46.9999,-0.13157l0.06732,42.58072l-46.99989,0.13156z" fill="#d6ff00" stroke-width="0"/><path d="M1096.96202,722.78405v-52.69135h31.8621v52.69135z" fill="#d6ff00" stroke-width="0"/><path d="M1124.50943,723.15774v-52.69135h31.8621v52.69135z" fill="#616161" stroke-width="0"/><path d="M1156.37155,723.15774v-52.69135h31.8621v52.69135z" fill="#d6ff00" stroke-width="0"/><path d="M1181.92762,723.15774v-52.69135h31.8621v52.69135z" fill="#616161" stroke-width="0"/><path d="M1212.46213,723.15774v-52.69135h31.8621v52.69135z" fill="#d6ff00" stroke-width="0"/><path d="M1240.00957,723.53144v-52.69135h48.8621v52.69135z" fill="#616161" stroke-width="0"/><path d="M867.1888,718.36758v-47h31.8621v47z" fill="#d6ff00" stroke-width="0"/><path d="M-16.50995,724.56882v-51.80945h73.38162v51.80945z" fill="#616161" stroke-width="0"/><path d="M82.16369,720.76536v-47h32v47z" fill="#616161" stroke-width="0"/><path d="M114.16369,720.76536v-47h32v47z" fill="#d6ff00" stroke-width="0"/><path d="M139.83037,720.76536v-47h32v47z" fill="#616161" stroke-width="0"/><path d="M168.49704,719.0987v-47h32v47z" fill="#d6ff00" stroke-width="0"/><path d="M196.16368,719.43203v-47h32v47z" fill="#616161" stroke-width="0"/><path d="M228.1637,719.43203v-47h32v47z" fill="#d6ff00" stroke-width="0"/><path d="M253.83038,719.43203v-47h32v47z" fill="#616161" stroke-width="0"/><path d="M284.49704,719.43203v-47h32v47z" fill="#d6ff00" stroke-width="0"/><path d="M312.16371,719.76537v-47h32v47z" fill="#616161" stroke-width="0"/><path d="M344.16371,719.76536v-47h32v47z" fill="#d6ff00" stroke-width="0"/><path d="M369.83037,719.76537v-47h32v47z" fill="#616161" stroke-width="0"/></g></g></svg>