<svg version="1.1" xmlns="http://www.w3.org/2000/svg" xmlns:xlink="http://www.w3.org/1999/xlink" width="658.52801" height="730.47226" viewBox="0,0,658.52801,730.47226"><g transform="translate(9.264,5.23613)"><g data-paper-data="{&quot;isPaintingLayer&quot;:true}" fill-rule="nonzero" stroke="none" stroke-linecap="butt" stroke-linejoin="miter" stroke-miterlimit="10" stroke-dasharray="" stroke-dashoffset="0" style="mix-blend-mode: normal"><path d="M-9.264,725.23613v-730.47226h658.52801v730.47226z" fill="#000000" stroke-width="0"/><path d="M60.50003,45.93053v-47h55v47z" fill="#d6ff00" stroke-width="0"/><path d="M109.16671,46.26386v-47h32v47z" fill="#616161" stroke-width="0"/><path d="M141.16671,46.26386v-47h32v47z" fill="#d6ff00" stroke-width="0"/><path d="M166.83335,46.26386v-47h32v47z" fill="#616161" stroke-width="0"/><path d="M197.50004,46.26386v-47h32v47z" fill="#d6ff00" stroke-width="0"/><path d="M225.1667,46.59719v-47h32v47z" fill="#616161" stroke-width="0"/><path d="M257.1667,46.59719v-47h32v47z" fill="#d6ff00" stroke-width="0"/><path d="M282.83338,46.59719v-47h32v47z" fill="#616161" stroke-width="0"/><path d="M311.50005,44.93053v-47h32v47z" fill="#d6ff00" stroke-width="0"/><path d="M339.16669,45.26386v-47h32v47z" fill="#616161" stroke-width="0"/><path d="M371.16671,45.26386v-47h32v47z" fill="#d6ff00" stroke-width="0"/><path d="M396.83339,45.26386v-47h32v47z" fill="#616161" stroke-width="0"/><path d="M427.50005,45.26386v-47h32v47z" fill="#d6ff00" stroke-width="0"/><path d="M455.16672,45.5972v-47h32v47z" fill="#616161" stroke-width="0"/><path d="M487.16672,45.59719v-47h32v47z" fill="#d6ff00" stroke-width="0"/><path d="M512.83338,45.5972v-47h32v47z" fill="#616161" stroke-width="0"/><path d="M535.50005,44.93053v-47h55v47z" fill="#d6ff00" stroke-width="0"/><text transform="translate(106.16669,88.09718) scale(1.10672,1.10672)" font-size="40" xml:space="preserve" fill="#20ff00" fill-rule="nonzero" stroke="none" stroke-width="1" stroke-linecap="butt" stroke-linejoin="miter" stroke-miterlimit="10" stroke-dasharray="" stroke-dashoffset="0" font-family="Sans Serif" font-weight="normal" text-anchor="start" style="mix-blend-mode: normal"><tspan x="0" dy="0">SAVE DATA OPTIONS</tspan></text><text transform="translate(84.50002,154.8) scale(0.46309,0.5)" font-size="40" xml:space="preserve" fill="#5dff00" fill-rule="nonzero" stroke="none" stroke-width="1" stroke-linecap="butt" stroke-linejoin="miter" stroke-miterlimit="10" stroke-dasharray="" stroke-dashoffset="0" font-family="Sans Serif" font-weight="normal" text-anchor="start" style="mix-blend-mode: normal"><tspan x="0" dy="0">You can use this menu to save and load your progress</tspan><tspan x="0" dy="46.150000000000006px"> </tspan><tspan x="0" dy="46.150000000000006px"> </tspan><tspan x="0" dy="46.150000000000006px"> </tspan><tspan x="0" dy="46.150000000000006px"> </tspan><tspan x="0" dy="46.150000000000006px"> </tspan><tspan x="0" dy="46.150000000000006px"> </tspan><tspan x="0" dy="46.150000000000006px"> </tspan><tspan x="0" dy="46.150000000000006px"> </tspan><tspan x="0" dy="46.150000000000006px"> </tspan><tspan x="0" dy="46.150000000000006px"> </tspan><tspan x="0" dy="46.150000000000006px"> </tspan><tspan x="0" dy="46.150000000000006px"> </tspan><tspan x="0" dy="46.150000000000006px">[      Please dont use the        ]</tspan><tspan x="0" dy="46.150000000000006px">[    import/export function    ]</tspan><tspan x="0" dy="46.150000000000006px">[     To Save Your Progress     ]</tspan></text></g></g></svg>