<svg version="1.1" xmlns="http://www.w3.org/2000/svg" xmlns:xlink="http://www.w3.org/1999/xlink" width="714.23631" height="1464.02541" viewBox="0,0,714.23631,1464.02541"><g transform="translate(52.84452,738.19755)"><g data-paper-data="{&quot;isPaintingLayer&quot;:true}" fill-rule="nonzero" stroke-linecap="butt" stroke-linejoin="miter" stroke-miterlimit="10" stroke-dasharray="" stroke-dashoffset="0" style="mix-blend-mode: normal"><path d="M23.85251,-8.50195l0.25529,-723.88158l57.00065,-0.00848l-0.25529,723.88158z" fill="#3ab5b5" stroke="#000000" stroke-width="0.5"/><text transform="translate(52.70295,-28.74478) rotate(-89.56111) scale(0.5,0.5)" font-size="40" xml:space="preserve" fill="#00ff1e" fill-rule="nonzero" stroke="none" stroke-width="1" stroke-linecap="butt" stroke-linejoin="miter" stroke-miterlimit="10" stroke-dasharray="" stroke-dashoffset="0" font-family="Sans Serif" font-weight="normal" text-anchor="start" style="mix-blend-mode: normal"><tspan x="0" dy="0">Untitled Lettuce Game</tspan></text><path d="M-21.8185,-7.32618l9.59878,-726.61555l50.99917,0.5739l-9.59878,726.61555z" fill="#ff0000" stroke="#000000" stroke-width="0.5"/><path d="M10.94438,-212.65228v-19h17v19z" fill="#5e5e5e" stroke="#000000" stroke-width="0.5"/><path d="M13.94438,-214.15228v-15.5h11v15.5z" fill="#000000" stroke="#000000" stroke-width="0.5"/><path d="M9.81938,-263.15227v-18h17.25v18z" fill="#5e5e5e" stroke="#000000" stroke-width="0.5"/><path d="M3.35187,-317.33869l13.67175,-24.59058l11.93501,12.97064l-13.67175,24.59058z" fill="#5e5e5e" stroke="#000000" stroke-width="0.5"/><path d="M12.94438,-265.65227v-13.5h11v13.5z" fill="#000000" stroke="#000000" stroke-width="0.5"/><path d="M6.41897,-317.99343l11.94968,-19.20035l7.10115,7.57873l-11.94968,19.20035z" data-paper-data="{&quot;index&quot;:null}" fill="#000000" stroke="#000000" stroke-width="0.5"/><path d="M-1.64813,-432.83868l13.67175,-24.59059l11.93501,12.97064l-13.67175,24.59058z" fill="#5e5e5e" stroke="#000000" stroke-width="0.5"/><path d="M1.41897,-433.49342l11.94968,-19.20035l7.10115,7.57873l-11.94968,19.20035z" data-paper-data="{&quot;index&quot;:null}" fill="#000000" stroke="#000000" stroke-width="0.5"/><path d="M3.81938,-367.65227v-18h17.25v18z" fill="#5e5e5e" stroke="#000000" stroke-width="0.5"/><path d="M6.94438,-370.15227v-13.5h11v13.5z" fill="#000000" stroke="#000000" stroke-width="0.5"/><path d="M4.81938,-554.15227v-18h17.25v18z" fill="#5e5e5e" stroke="#000000" stroke-width="0.5"/><path d="M7.94438,-556.65227v-13.5h11v13.5z" fill="#000000" stroke="#000000" stroke-width="0.5"/><path d="M5.31938,-470.65227v-18h17.25v18z" fill="#5e5e5e" stroke="#000000" stroke-width="0.5"/><path d="M8.44438,-473.15227v-13.5h11v13.5z" fill="#000000" stroke="#000000" stroke-width="0.5"/><path d="M3.94438,-516.65227v-19h17v19z" fill="#5e5e5e" stroke="#000000" stroke-width="0.5"/><path d="M6.94438,-518.15227v-15.5h11v15.5z" fill="#000000" stroke="#000000" stroke-width="0.5"/><path d="M4.44438,-139.15228v-19h17v19z" fill="#5e5e5e" stroke="#000000" stroke-width="0.5"/><path d="M7.44438,-140.65228v-15.5h11v15.5z" fill="#000000" stroke="#000000" stroke-width="0.5"/><path d="M11.0108,-586.56925l-10.30998,-26.17858l17.5989,-0.98023l10.30997,26.17858z" fill="#5e5e5e" stroke="#000000" stroke-width="0.5"/><path d="M15.18324,-611.43767l8.80807,20.82946l-10.28578,1.4374l-8.80807,-20.82946z" data-paper-data="{&quot;index&quot;:null}" fill="#000000" stroke="#000000" stroke-width="0.5"/><path d="M8.5108,-78.06926l-10.30998,-26.17858l17.5989,-0.98023l10.30998,26.17858z" fill="#5e5e5e" stroke="#000000" stroke-width="0.5"/><path d="M12.68324,-102.93767l8.80807,20.82945l-10.28578,1.4374l-8.80807,-20.82945z" data-paper-data="{&quot;index&quot;:null}" fill="#000000" stroke="#000000" stroke-width="0.5"/><path d="M3.81938,-623.65228v-18h17.25v18z" fill="#5e5e5e" stroke="#000000" stroke-width="0.5"/><path d="M6.94438,-626.15228v-13.5h11v13.5z" fill="#000000" stroke="#000000" stroke-width="0.5"/><path d="M1.07592,-702.34042l8.56486,-15.83171l15.17206,8.20799l-8.56486,15.83171z" fill="#5e5e5e" stroke="#000000" stroke-width="0.5"/><path d="M5.01405,-703.05231l6.42365,-11.87378l9.67494,5.23408l-6.42365,11.87378z" fill="#000000" stroke="#000000" stroke-width="0.5"/><path d="M6.5108,-656.56925l-10.30998,-26.17858l17.5989,-0.98023l10.30998,26.17858z" fill="#5e5e5e" stroke="#000000" stroke-width="0.5"/><path d="M10.68324,-681.43766l8.80807,20.82946l-10.28578,1.4374l-8.80807,-20.82945z" data-paper-data="{&quot;index&quot;:null}" fill="#000000" stroke="#000000" stroke-width="0.5"/><text transform="translate(56.70295,-305.74476) rotate(-89.56111) scale(0.5,0.5)" font-size="40" xml:space="preserve" fill="#00922e" fill-rule="nonzero" stroke="none" stroke-width="1" stroke-linecap="butt" stroke-linejoin="miter" stroke-miterlimit="10" stroke-dasharray="" stroke-dashoffset="0" font-family="Sans Serif" font-weight="normal" text-anchor="start" style="mix-blend-mode: normal"><tspan x="0" dy="0">Letttuce Dealer</tspan></text><text transform="translate(59.70973,-523.69928) rotate(-89.78571) scale(0.5,0.5)" font-size="40" xml:space="preserve" fill="#ff0000" fill-rule="nonzero" stroke="none" stroke-width="1" stroke-linecap="butt" stroke-linejoin="miter" stroke-miterlimit="10" stroke-dasharray="" stroke-dashoffset="0" font-family="Sans Serif" font-weight="normal" text-anchor="start" style="mix-blend-mode: normal"><tspan x="0" dy="0">Radical Lettuce</tspan></text><path d="M559.95421,-12.51343l-0.23968,-723.88158l53.51626,0.00848l0.23968,723.88158z" data-paper-data="{&quot;index&quot;:null}" fill="#3ab5b5" stroke="#000000" stroke-width="0.5"/><text transform="translate(584.62002,-248.39313) rotate(90.43889) scale(0.5,0.5)" font-size="40" xml:space="preserve" data-paper-data="{&quot;index&quot;:null}" fill="#00ff1e" fill-rule="nonzero" stroke="none" stroke-width="1" stroke-linecap="butt" stroke-linejoin="miter" stroke-miterlimit="10" stroke-dasharray="" stroke-dashoffset="0" font-family="Sans Serif" font-weight="normal" text-anchor="start" style="mix-blend-mode: normal"><tspan x="0" dy="0">Untitled Lettuce Game</tspan></text><path d="M608.14231,-3.24776l-9.59878,-734.11714l50.99917,-0.57983l9.59878,734.11714z" data-paper-data="{&quot;index&quot;:null}" fill="#ff0000" stroke="#000000" stroke-width="0.5"/><path d="M609.3786,-216.65527v-19h17v19z" data-paper-data="{&quot;index&quot;:null}" fill="#5e5e5e" stroke="#000000" stroke-width="0.5"/><path d="M612.3786,-218.15527v-15.5h11v15.5z" data-paper-data="{&quot;index&quot;:null}" fill="#000000" stroke="#000000" stroke-width="0.5"/><path d="M610.2536,-267.15527v-18h17.25v18z" data-paper-data="{&quot;index&quot;:null}" fill="#5e5e5e" stroke="#000000" stroke-width="0.5"/><path d="M622.0361,-308.37105l-13.67175,-24.59058l11.93501,-12.97064l13.67175,24.59058z" data-paper-data="{&quot;index&quot;:null}" fill="#5e5e5e" stroke="#000000" stroke-width="0.5"/><path d="M613.3786,-269.65527v-13.5h11v13.5z" data-paper-data="{&quot;index&quot;:null}" fill="#000000" stroke="#000000" stroke-width="0.5"/><path d="M623.80286,-314.4177l-11.94968,-19.20035l7.10115,-7.57873l11.94968,19.20035z" data-paper-data="{&quot;index&quot;:null}" fill="#000000" stroke="#000000" stroke-width="0.5"/><path d="M627.0361,-423.87105l-13.67175,-24.59058l11.93501,-12.97064l13.67175,24.59059z" data-paper-data="{&quot;index&quot;:null}" fill="#5e5e5e" stroke="#000000" stroke-width="0.5"/><path d="M628.80286,-429.91769l-11.94968,-19.20035l7.10115,-7.57873l11.94968,19.20035z" data-paper-data="{&quot;index&quot;:null}" fill="#000000" stroke="#000000" stroke-width="0.5"/><path d="M616.2536,-371.65527v-18h17.25v18z" data-paper-data="{&quot;index&quot;:null}" fill="#5e5e5e" stroke="#000000" stroke-width="0.5"/><path d="M619.3786,-374.15527v-13.5h11v13.5z" data-paper-data="{&quot;index&quot;:null}" fill="#000000" stroke="#000000" stroke-width="0.5"/><path d="M615.2536,-558.15527v-18h17.25v18z" data-paper-data="{&quot;index&quot;:null}" fill="#5e5e5e" stroke="#000000" stroke-width="0.5"/><path d="M618.3786,-560.65527v-13.5h11v13.5z" data-paper-data="{&quot;index&quot;:null}" fill="#000000" stroke="#000000" stroke-width="0.5"/><path d="M614.7536,-474.65527v-18h17.25v18z" data-paper-data="{&quot;index&quot;:null}" fill="#5e5e5e" stroke="#000000" stroke-width="0.5"/><path d="M617.8786,-477.15527v-13.5h11v13.5z" data-paper-data="{&quot;index&quot;:null}" fill="#000000" stroke="#000000" stroke-width="0.5"/><path d="M616.3786,-520.65527v-19h17v19z" data-paper-data="{&quot;index&quot;:null}" fill="#5e5e5e" stroke="#000000" stroke-width="0.5"/><path d="M619.3786,-522.15527v-15.5h11v15.5z" data-paper-data="{&quot;index&quot;:null}" fill="#000000" stroke="#000000" stroke-width="0.5"/><path d="M615.8786,-143.15527v-19h17v19z" data-paper-data="{&quot;index&quot;:null}" fill="#5e5e5e" stroke="#000000" stroke-width="0.5"/><path d="M618.8786,-144.65527v-15.5h11v15.5z" data-paper-data="{&quot;index&quot;:null}" fill="#000000" stroke="#000000" stroke-width="0.5"/><path d="M608.71328,-591.55248l10.30997,-26.17858l17.5989,0.98023l-10.30998,26.17858z" data-paper-data="{&quot;index&quot;:null}" fill="#5e5e5e" stroke="#000000" stroke-width="0.5"/><path d="M632.42552,-614.00327l-8.80807,20.82946l-10.28578,-1.4374l8.80807,-20.82946z" data-paper-data="{&quot;index&quot;:null}" fill="#000000" stroke="#000000" stroke-width="0.5"/><path d="M611.21328,-83.0525l10.30998,-26.17858l17.5989,0.98023l-10.30998,26.17858z" data-paper-data="{&quot;index&quot;:null}" fill="#5e5e5e" stroke="#000000" stroke-width="0.5"/><path d="M634.92552,-105.50327l-8.80807,20.82945l-10.28578,-1.4374l8.80807,-20.82945z" data-paper-data="{&quot;index&quot;:null}" fill="#000000" stroke="#000000" stroke-width="0.5"/><path d="M616.2536,-627.65529v-18h17.25v18z" data-paper-data="{&quot;index&quot;:null}" fill="#5e5e5e" stroke="#000000" stroke-width="0.5"/><path d="M619.3786,-630.15529v-13.5h11v13.5z" data-paper-data="{&quot;index&quot;:null}" fill="#000000" stroke="#000000" stroke-width="0.5"/><path d="M621.075,-698.13543l-8.56486,-15.83171l15.17206,-8.20799l8.56486,15.83171z" data-paper-data="{&quot;index&quot;:null}" fill="#5e5e5e" stroke="#000000" stroke-width="0.5"/><path d="M622.63398,-701.82123l-6.42365,-11.87378l9.67494,-5.23408l6.42365,11.87378z" data-paper-data="{&quot;index&quot;:null}" fill="#000000" stroke="#000000" stroke-width="0.5"/><path d="M613.21328,-661.55248l10.30998,-26.17858l17.5989,0.98023l-10.30998,26.17858z" data-paper-data="{&quot;index&quot;:null}" fill="#5e5e5e" stroke="#000000" stroke-width="0.5"/><path d="M636.92552,-684.00325l-8.80807,20.82945l-10.28578,-1.4374l8.80807,-20.82946z" data-paper-data="{&quot;index&quot;:null}" fill="#000000" stroke="#000000" stroke-width="0.5"/><text transform="translate(580.62002,-456.9752) rotate(90.43889) scale(0.5,0.5)" font-size="40" xml:space="preserve" data-paper-data="{&quot;index&quot;:null}" fill="#00922e" fill-rule="nonzero" stroke="none" stroke-width="1" stroke-linecap="butt" stroke-linejoin="miter" stroke-miterlimit="10" stroke-dasharray="" stroke-dashoffset="0" font-family="Sans Serif" font-weight="normal" text-anchor="start" style="mix-blend-mode: normal"><tspan x="0" dy="0">Letttuce Dealer</tspan></text><text transform="translate(578.11324,-672.96565) rotate(90.21429) scale(0.5,0.5)" font-size="40" xml:space="preserve" data-paper-data="{&quot;index&quot;:null}" fill="#ff0000" fill-rule="nonzero" stroke="none" stroke-width="1" stroke-linecap="butt" stroke-linejoin="miter" stroke-miterlimit="10" stroke-dasharray="" stroke-dashoffset="0" font-family="Sans Serif" font-weight="normal" text-anchor="start" style="mix-blend-mode: normal"><tspan x="0" dy="0">Radical Lettuce</tspan></text><path d="M20.24631,723.80996l0.25754,-736.27208l57.50339,-0.00863l-0.25754,736.27209z" fill="#3ab5b5" stroke="#000000" stroke-width="0.5"/><text transform="translate(49.35122,703.38859) rotate(-89.56097) scale(0.50441,0.50441)" font-size="40" xml:space="preserve" fill="#00ff1e" fill-rule="nonzero" stroke="none" stroke-width="1" stroke-linecap="butt" stroke-linejoin="miter" stroke-miterlimit="10" stroke-dasharray="" stroke-dashoffset="0" font-family="Sans Serif" font-weight="normal" text-anchor="start" style="mix-blend-mode: normal"><tspan x="0" dy="0">Untitled Lettuce Game</tspan></text><path d="M-25.82751,724.99611l9.68344,-733.02423l51.44898,0.57897l-9.68344,733.02424z" fill="#ff0000" stroke="#000000" stroke-width="0.5"/><path d="M7.22434,517.85905v-19.16758h17.14994v19.16758z" fill="#5e5e5e" stroke="#000000" stroke-width="0.5"/><path d="M10.2508,516.34582v-15.63671h11.09702v15.63671z" fill="#000000" stroke="#000000" stroke-width="0.5"/><path d="M6.08941,466.91365v-18.15876h17.40214v18.15876z" fill="#5e5e5e" stroke="#000000" stroke-width="0.5"/><path d="M-0.43514,412.24931l13.79234,-24.80747l12.04027,13.08504l-13.79233,24.80747z" fill="#5e5e5e" stroke="#000000" stroke-width="0.5"/><path d="M9.24198,464.3916v-13.61907h11.09702v13.61907z" fill="#000000" stroke="#000000" stroke-width="0.5"/><path d="M2.65901,411.58879l12.05508,-19.3697l7.16378,7.64557l-12.05508,19.36969z" data-paper-data="{&quot;index&quot;:null}" fill="#000000" stroke="#000000" stroke-width="0.5"/><path d="M-5.47924,295.73061l13.79234,-24.80748l12.04027,13.08504l-13.79233,24.80747z" fill="#5e5e5e" stroke="#000000" stroke-width="0.5"/><path d="M-2.38508,295.0701l12.05507,-19.36969l7.16378,7.64557l-12.05508,19.3697z" data-paper-data="{&quot;index&quot;:null}" fill="#000000" stroke="#000000" stroke-width="0.5"/><path d="M0.0365,361.49196v-18.15876h17.40214v18.15876z" fill="#5e5e5e" stroke="#000000" stroke-width="0.5"/><path d="M3.18906,358.96991v-13.61907h11.09702v13.61907z" fill="#000000" stroke="#000000" stroke-width="0.5"/><path d="M1.04532,173.34705v-18.15876h17.40214v18.15876z" fill="#5e5e5e" stroke="#000000" stroke-width="0.5"/><path d="M4.19788,170.825v-13.61907h11.09702v13.61907z" fill="#000000" stroke="#000000" stroke-width="0.5"/><path d="M1.54973,257.58351v-18.15876h17.40214v18.15876z" fill="#5e5e5e" stroke="#000000" stroke-width="0.5"/><path d="M4.70229,255.06146v-13.61906h11.09702v13.61906z" fill="#000000" stroke="#000000" stroke-width="0.5"/><path d="M0.16259,211.17779v-19.16758h17.14994v19.16758z" fill="#5e5e5e" stroke="#000000" stroke-width="0.5"/><path d="M3.18906,209.66457v-15.63671h11.09702v15.63671z" fill="#000000" stroke="#000000" stroke-width="0.5"/><path d="M0.667,592.00731v-19.16757h17.14994v19.16757z" fill="#5e5e5e" stroke="#000000" stroke-width="0.5"/><path d="M3.69347,590.49408v-15.6367h11.09702v15.6367z" fill="#000000" stroke="#000000" stroke-width="0.5"/><path d="M7.29134,140.64415l-10.40091,-26.40947l17.75412,-0.98888l10.40091,26.40947z" fill="#5e5e5e" stroke="#000000" stroke-width="0.5"/><path d="M11.50059,115.55639l8.88576,21.01318l-10.3765,1.45008l-8.88575,-21.01317z" data-paper-data="{&quot;index&quot;:null}" fill="#000000" stroke="#000000" stroke-width="0.5"/><path d="M4.76929,653.62907l-10.40091,-26.40947l17.75412,-0.98888l10.40091,26.40947z" fill="#5e5e5e" stroke="#000000" stroke-width="0.5"/><path d="M8.97854,628.54133l8.88576,21.01317l-10.3765,1.45008l-8.88575,-21.01316z" data-paper-data="{&quot;index&quot;:null}" fill="#000000" stroke="#000000" stroke-width="0.5"/><path d="M0.0365,103.23406v-18.15876h17.40214v18.15876z" fill="#5e5e5e" stroke="#000000" stroke-width="0.5"/><path d="M3.18906,100.712v-13.61907h11.09702v13.61907z" fill="#000000" stroke="#000000" stroke-width="0.5"/><path d="M-2.73117,23.8519l8.64041,-15.97135l15.30587,8.28038l-8.6404,15.97135z" fill="#5e5e5e" stroke="#000000" stroke-width="0.5"/><path d="M1.2417,23.13373l6.48031,-11.97851l9.76028,5.28024l-6.4803,11.97851z" fill="#000000" stroke="#000000" stroke-width="0.5"/><path d="M2.75165,70.02676l-10.40091,-26.40947l17.75412,-0.98888l10.40091,26.40947z" fill="#5e5e5e" stroke="#000000" stroke-width="0.5"/><path d="M6.9609,44.93902l8.88576,21.01317l-10.3765,1.45008l-8.88575,-21.01317z" data-paper-data="{&quot;index&quot;:null}" fill="#000000" stroke="#000000" stroke-width="0.5"/><text transform="translate(53.3865,423.94549) rotate(-89.56097) scale(0.50441,0.50441)" font-size="40" xml:space="preserve" fill="#00922e" fill-rule="nonzero" stroke="none" stroke-width="1" stroke-linecap="butt" stroke-linejoin="miter" stroke-miterlimit="10" stroke-dasharray="" stroke-dashoffset="0" font-family="Sans Serif" font-weight="normal" text-anchor="start" style="mix-blend-mode: normal"><tspan x="0" dy="0">Letttuce Dealer</tspan></text><text transform="translate(56.41979,204.06863) rotate(-89.78588) scale(0.50441,0.50441)" font-size="40" xml:space="preserve" fill="#ff0000" fill-rule="nonzero" stroke="none" stroke-width="1" stroke-linecap="butt" stroke-linejoin="miter" stroke-miterlimit="10" stroke-dasharray="" stroke-dashoffset="0" font-family="Sans Serif" font-weight="normal" text-anchor="start" style="mix-blend-mode: normal"><tspan x="0" dy="0">Radical Lettuce</tspan></text><path d="M561.07638,719.76308l-0.24179,-731.76763l53.98827,0.00857l0.24179,731.76764z" data-paper-data="{&quot;index&quot;:null}" fill="#3ab5b5" stroke="#000000" stroke-width="0.5"/><text transform="translate(585.95975,481.80296) rotate(90.43903) scale(0.50441,0.50441)" font-size="40" xml:space="preserve" data-paper-data="{&quot;index&quot;:null}" fill="#00ff1e" fill-rule="nonzero" stroke="none" stroke-width="1" stroke-linecap="butt" stroke-linejoin="miter" stroke-miterlimit="10" stroke-dasharray="" stroke-dashoffset="0" font-family="Sans Serif" font-weight="normal" text-anchor="start" style="mix-blend-mode: normal"><tspan x="0" dy="0">Untitled Lettuce Game</tspan></text><path d="M609.6895,721.53676l-9.68344,-725.03054l51.44897,-0.57265l9.68344,725.03055z" data-paper-data="{&quot;index&quot;:null}" fill="#ff0000" stroke="#000000" stroke-width="0.5"/><path d="M610.93669,513.82074v-19.16757h17.14994v19.16757z" data-paper-data="{&quot;index&quot;:null}" fill="#5e5e5e" stroke="#000000" stroke-width="0.5"/><path d="M613.96315,512.30751v-15.63671h11.09702v15.63671z" data-paper-data="{&quot;index&quot;:null}" fill="#000000" stroke="#000000" stroke-width="0.5"/><path d="M611.81941,462.87533v-18.15875h17.40215v18.15875z" data-paper-data="{&quot;index&quot;:null}" fill="#5e5e5e" stroke="#000000" stroke-width="0.5"/><path d="M623.70583,421.29604l-13.79233,-24.80747l12.04027,-13.08504l13.79233,24.80746z" data-paper-data="{&quot;index&quot;:null}" fill="#5e5e5e" stroke="#000000" stroke-width="0.5"/><path d="M614.97197,460.35328v-13.61906h11.09702v13.61906z" data-paper-data="{&quot;index&quot;:null}" fill="#000000" stroke="#000000" stroke-width="0.5"/><path d="M625.48817,415.19605l-12.05507,-19.36969l7.16378,-7.64558l12.05507,19.3697z" data-paper-data="{&quot;index&quot;:null}" fill="#000000" stroke="#000000" stroke-width="0.5"/><path d="M628.74993,304.77734l-13.79233,-24.80746l12.04028,-13.08504l13.79233,24.80748z" data-paper-data="{&quot;index&quot;:null}" fill="#5e5e5e" stroke="#000000" stroke-width="0.5"/><path d="M630.53228,298.67737l-12.05508,-19.36969l7.16378,-7.64558l12.05507,19.3697z" data-paper-data="{&quot;index&quot;:null}" fill="#000000" stroke="#000000" stroke-width="0.5"/><path d="M617.87233,357.45366v-18.15875h17.40215v18.15875z" data-paper-data="{&quot;index&quot;:null}" fill="#5e5e5e" stroke="#000000" stroke-width="0.5"/><path d="M621.02489,354.93161v-13.61907h11.09702v13.61907z" data-paper-data="{&quot;index&quot;:null}" fill="#000000" stroke="#000000" stroke-width="0.5"/><path d="M616.86351,169.30875v-18.15876h17.40215v18.15876z" data-paper-data="{&quot;index&quot;:null}" fill="#5e5e5e" stroke="#000000" stroke-width="0.5"/><path d="M620.01607,166.7867v-13.61907h11.09702v13.61907z" data-paper-data="{&quot;index&quot;:null}" fill="#000000" stroke="#000000" stroke-width="0.5"/><path d="M616.3591,253.54521v-18.15876h17.40215v18.15876z" data-paper-data="{&quot;index&quot;:null}" fill="#5e5e5e" stroke="#000000" stroke-width="0.5"/><path d="M619.51166,251.02315v-13.61907h11.09702v13.61907z" data-paper-data="{&quot;index&quot;:null}" fill="#000000" stroke="#000000" stroke-width="0.5"/><path d="M617.99843,207.13949v-19.16758h17.14994v19.16758z" data-paper-data="{&quot;index&quot;:null}" fill="#5e5e5e" stroke="#000000" stroke-width="0.5"/><path d="M621.02489,205.62626v-15.63671h11.09702v15.63671z" data-paper-data="{&quot;index&quot;:null}" fill="#000000" stroke="#000000" stroke-width="0.5"/><path d="M617.49402,587.969v-19.16758h17.14994v19.16758z" data-paper-data="{&quot;index&quot;:null}" fill="#5e5e5e" stroke="#000000" stroke-width="0.5"/><path d="M620.52048,586.45577v-15.63671h11.09702v15.63671z" data-paper-data="{&quot;index&quot;:null}" fill="#000000" stroke="#000000" stroke-width="0.5"/><path d="M610.2655,135.61697l10.4009,-26.40947l17.75412,0.98888l-10.40091,26.40948z" data-paper-data="{&quot;index&quot;:null}" fill="#5e5e5e" stroke="#000000" stroke-width="0.5"/><path d="M634.18688,112.96817l-8.88576,21.01317l-10.3765,-1.45008l8.88576,-21.01317z" data-paper-data="{&quot;index&quot;:null}" fill="#000000" stroke="#000000" stroke-width="0.5"/><path d="M612.78756,648.60189l10.40091,-26.40947l17.75413,0.98888l-10.40091,26.40947z" data-paper-data="{&quot;index&quot;:null}" fill="#5e5e5e" stroke="#000000" stroke-width="0.5"/><path d="M636.70894,625.95311l-8.88576,21.01316l-10.3765,-1.45007l8.88576,-21.01317z" data-paper-data="{&quot;index&quot;:null}" fill="#000000" stroke="#000000" stroke-width="0.5"/><path d="M617.87233,99.19575v-18.15876h17.40215v18.15876z" data-paper-data="{&quot;index&quot;:null}" fill="#5e5e5e" stroke="#000000" stroke-width="0.5"/><path d="M621.02489,96.6737v-13.61907h11.09702v13.61907z" data-paper-data="{&quot;index&quot;:null}" fill="#000000" stroke="#000000" stroke-width="0.5"/><path d="M622.73626,28.09397l-8.6404,-15.97135l15.30588,-8.28039l8.6404,15.97135z" data-paper-data="{&quot;index&quot;:null}" fill="#5e5e5e" stroke="#000000" stroke-width="0.5"/><path d="M624.30899,24.37566l-6.48031,-11.97851l9.76027,-5.28025l6.48031,11.97851z" data-paper-data="{&quot;index&quot;:null}" fill="#000000" stroke="#000000" stroke-width="0.5"/><path d="M614.8052,64.99958l10.40091,-26.40948l17.75413,0.98888l-10.40092,26.40948z" data-paper-data="{&quot;index&quot;:null}" fill="#5e5e5e" stroke="#000000" stroke-width="0.5"/><path d="M638.72658,42.35079l-8.88576,21.01317l-10.37649,-1.45008l8.88575,-21.01317z" data-paper-data="{&quot;index&quot;:null}" fill="#000000" stroke="#000000" stroke-width="0.5"/><text transform="translate(581.92447,271.38121) rotate(90.43903) scale(0.50441,0.50441)" font-size="40" xml:space="preserve" data-paper-data="{&quot;index&quot;:null}" fill="#00922e" fill-rule="nonzero" stroke="none" stroke-width="1" stroke-linecap="butt" stroke-linejoin="miter" stroke-miterlimit="10" stroke-dasharray="" stroke-dashoffset="0" font-family="Sans Serif" font-weight="normal" text-anchor="start" style="mix-blend-mode: normal"><tspan x="0" dy="0">Letttuce Dealer</tspan></text><text transform="translate(579.39558,53.48574) rotate(90.21412) scale(0.50441,0.50441)" font-size="40" xml:space="preserve" data-paper-data="{&quot;index&quot;:null}" fill="#ff0000" fill-rule="nonzero" stroke="none" stroke-width="1" stroke-linecap="butt" stroke-linejoin="miter" stroke-miterlimit="10" stroke-dasharray="" stroke-dashoffset="0" font-family="Sans Serif" font-weight="normal" text-anchor="start" style="mix-blend-mode: normal"><tspan x="0" dy="0">Radical Lettuce</tspan></text><path d="M598.86972,1.83095l12.45923,-19.19396l11.11229,7.21324l-12.45924,19.19395z" fill="#ff0000" stroke="#000000" stroke-width="0"/><path d="M618.15549,3.09999v-17h38v17z" fill="#ff0000" stroke="none" stroke-width="0"/><path d="M-20.84452,-7.90001v-14h56v14z" fill="#ff0000" stroke="none" stroke-width="0"/><path d="M-52.84451,4.09999v-35h88v35z" fill="#ff0000" stroke="none" stroke-width="0"/><path d="M36.15549,-0.90001v-20h44v20z" fill="#3ab5b5" stroke="#000000" stroke-width="0"/><path d="M560.15549,2.09999v-20h41v20z" fill="#3ab5b5" stroke="#000000" stroke-width="0"/></g></g></svg>