<svg version="1.1" xmlns="http://www.w3.org/2000/svg" xmlns:xlink="http://www.w3.org/1999/xlink" width="344.5" height="237.24038" viewBox="0,0,344.5,237.24038"><g transform="translate(-467.75,-241.37981)"><g data-paper-data="{&quot;isPaintingLayer&quot;:true}" fill-rule="nonzero" stroke-linecap="butt" stroke-linejoin="miter" stroke-miterlimit="10" stroke-dasharray="" stroke-dashoffset="0" style="mix-blend-mode: normal"><path d="M470.25,476.12019v-232.24038h339.5v232.24038z" fill="#00323a" stroke="#000000" stroke-width="5"/><path d="M503.36058,264.24359c0,6.82523 -5.53294,12.35817 -12.35817,12.35817c-6.82523,0 -12.35817,-5.53294 -12.35817,-12.35817c0,-6.82523 5.53294,-12.35817 12.35817,-12.35817c6.82523,0 12.35817,5.53294 12.35817,12.35817z" fill="#000000" stroke="none" stroke-width="0"/><path d="M502.89423,456.37821c0,6.56768 -5.32415,11.89183 -11.89183,11.89183c-6.56768,0 -11.89183,-5.32415 -11.89183,-11.89183c0,-6.56768 5.32415,-11.89183 11.89183,-11.89183c6.56768,0 11.89183,5.32415 11.89183,11.89183z" fill="#000000" stroke="none" stroke-width="0"/><path d="M801.75481,266.01042c0,6.91684 -5.6072,12.52404 -12.52404,12.52404c-6.91684,0 -12.52404,-5.6072 -12.52404,-12.52404c0,-6.91684 5.6072,-12.52404 12.52404,-12.52404c6.91684,0 12.52404,5.6072 12.52404,12.52404z" fill="#000000" stroke="none" stroke-width="0"/><path d="M803.6875,457.61138c0,6.40172 -5.18962,11.59135 -11.59135,11.59135c-6.40172,0 -11.59135,-5.18962 -11.59135,-11.59135c0,-6.40172 5.18962,-11.59135 11.59135,-11.59135c6.40172,0 11.59135,5.18962 11.59135,11.59135z" fill="#000000" stroke="none" stroke-width="0"/><text transform="translate(517,275.98072) scale(0.81947,0.64613)" font-size="40" xml:space="preserve" fill="#67ff2c" fill-rule="nonzero" stroke="none" stroke-width="1" stroke-linecap="butt" stroke-linejoin="miter" stroke-miterlimit="10" stroke-dasharray="" stroke-dashoffset="0" font-family="Pixel" font-weight="normal" text-anchor="start" style="mix-blend-mode: normal"><tspan x="0" dy="0">Debug Options</tspan></text></g></g></svg>