<svg version="1.1" xmlns="http://www.w3.org/2000/svg" xmlns:xlink="http://www.w3.org/1999/xlink" width="103.43033" height="727.69503" viewBox="0,0,103.43033,727.69503"><g transform="translate(-508.95093,1.69751)"><g data-paper-data="{&quot;isPaintingLayer&quot;:true}" fill-rule="nonzero" stroke-linecap="butt" stroke-linejoin="miter" stroke-miterlimit="10" stroke-dasharray="" stroke-dashoffset="0" style="mix-blend-mode: normal"><path d="M566.45696,0.30496l-0.25529,723.88158l-57.00065,0.00848l0.25529,-723.88158z" data-paper-data="{&quot;index&quot;:null}" fill="#3ab5b5" stroke="#000000" stroke-width="0.5"/><text transform="translate(532.10651,470.04778) rotate(90.43889) scale(0.5,0.5)" font-size="40" xml:space="preserve" data-paper-data="{&quot;index&quot;:null}" fill="#00ff1e" fill-rule="nonzero" stroke="none" stroke-width="1" stroke-linecap="butt" stroke-linejoin="miter" stroke-miterlimit="10" stroke-dasharray="" stroke-dashoffset="0" font-family="Sans Serif" font-weight="normal" text-anchor="start" style="mix-blend-mode: normal"><tspan x="0" dy="0">Untitled Lettuce Game</tspan></text><path d="M612.12797,-0.87082l-9.59878,726.61555l-50.99917,-0.5739l9.59878,-726.61555z" data-paper-data="{&quot;index&quot;:null}" fill="#ff0000" stroke="#000000" stroke-width="0.5"/><path d="M579.36509,204.45528v19h-17v-19z" data-paper-data="{&quot;index&quot;:null}" fill="#5e5e5e" stroke="#000000" stroke-width="0.5"/><path d="M576.36509,205.95528v15.5h-11v-15.5z" data-paper-data="{&quot;index&quot;:null}" fill="#000000" stroke="#000000" stroke-width="0.5"/><path d="M580.49009,254.95528v18h-17.25v-18z" data-paper-data="{&quot;index&quot;:null}" fill="#5e5e5e" stroke="#000000" stroke-width="0.5"/><path d="M586.9576,309.1417l-13.67175,24.59058l-11.93501,-12.97064l13.67175,-24.59058z" data-paper-data="{&quot;index&quot;:null}" fill="#5e5e5e" stroke="#000000" stroke-width="0.5"/><path d="M577.36509,257.45528v13.5h-11v-13.5z" data-paper-data="{&quot;index&quot;:null}" fill="#000000" stroke="#000000" stroke-width="0.5"/><path d="M583.8905,309.79644l-11.94968,19.20035l-7.10115,-7.57873l11.94968,-19.20035z" data-paper-data="{&quot;index&quot;:null}" fill="#000000" stroke="#000000" stroke-width="0.5"/><path d="M591.9576,424.64169l-13.67175,24.59059l-11.93501,-12.97064l13.67175,-24.59058z" data-paper-data="{&quot;index&quot;:null}" fill="#5e5e5e" stroke="#000000" stroke-width="0.5"/><path d="M588.8905,425.29643l-11.94968,19.20035l-7.10115,-7.57873l11.94968,-19.20035z" data-paper-data="{&quot;index&quot;:null}" fill="#000000" stroke="#000000" stroke-width="0.5"/><path d="M586.49009,359.45528v18h-17.25v-18z" data-paper-data="{&quot;index&quot;:null}" fill="#5e5e5e" stroke="#000000" stroke-width="0.5"/><path d="M583.36509,361.95528v13.5h-11v-13.5z" data-paper-data="{&quot;index&quot;:null}" fill="#000000" stroke="#000000" stroke-width="0.5"/><path d="M585.49009,545.95528v18h-17.25v-18z" data-paper-data="{&quot;index&quot;:null}" fill="#5e5e5e" stroke="#000000" stroke-width="0.5"/><path d="M582.36509,548.45528v13.5h-11v-13.5z" data-paper-data="{&quot;index&quot;:null}" fill="#000000" stroke="#000000" stroke-width="0.5"/><path d="M584.99009,462.45528v18h-17.25v-18z" data-paper-data="{&quot;index&quot;:null}" fill="#5e5e5e" stroke="#000000" stroke-width="0.5"/><path d="M581.86509,464.95528v13.5h-11v-13.5z" data-paper-data="{&quot;index&quot;:null}" fill="#000000" stroke="#000000" stroke-width="0.5"/><path d="M586.36509,508.45528v19h-17v-19z" data-paper-data="{&quot;index&quot;:null}" fill="#5e5e5e" stroke="#000000" stroke-width="0.5"/><path d="M583.36509,509.95528v15.5h-11v-15.5z" data-paper-data="{&quot;index&quot;:null}" fill="#000000" stroke="#000000" stroke-width="0.5"/><path d="M585.86509,130.95528v19h-17v-19z" data-paper-data="{&quot;index&quot;:null}" fill="#5e5e5e" stroke="#000000" stroke-width="0.5"/><path d="M582.86509,132.45528v15.5h-11v-15.5z" data-paper-data="{&quot;index&quot;:null}" fill="#000000" stroke="#000000" stroke-width="0.5"/><path d="M579.29867,578.37226l10.30998,26.17858l-17.5989,0.98023l-10.30997,-26.17858z" data-paper-data="{&quot;index&quot;:null}" fill="#5e5e5e" stroke="#000000" stroke-width="0.5"/><path d="M575.12623,603.24068l-8.80807,-20.82946l10.28578,-1.4374l8.80807,20.82946z" data-paper-data="{&quot;index&quot;:null}" fill="#000000" stroke="#000000" stroke-width="0.5"/><path d="M581.79867,69.87227l10.30998,26.17858l-17.5989,0.98023l-10.30998,-26.17858z" data-paper-data="{&quot;index&quot;:null}" fill="#5e5e5e" stroke="#000000" stroke-width="0.5"/><path d="M577.62623,94.74067l-8.80807,-20.82945l10.28578,-1.4374l8.80807,20.82945z" data-paper-data="{&quot;index&quot;:null}" fill="#000000" stroke="#000000" stroke-width="0.5"/><path d="M586.49009,615.45529v18h-17.25v-18z" data-paper-data="{&quot;index&quot;:null}" fill="#5e5e5e" stroke="#000000" stroke-width="0.5"/><path d="M583.36509,617.95529v13.5h-11v-13.5z" data-paper-data="{&quot;index&quot;:null}" fill="#000000" stroke="#000000" stroke-width="0.5"/><path d="M589.23355,694.14343l-8.56486,15.83171l-15.17206,-8.20799l8.56486,-15.83171z" data-paper-data="{&quot;index&quot;:null}" fill="#5e5e5e" stroke="#000000" stroke-width="0.5"/><path d="M585.29542,694.85532l-6.42365,11.87378l-9.67494,-5.23408l6.42365,-11.87378z" data-paper-data="{&quot;index&quot;:null}" fill="#000000" stroke="#000000" stroke-width="0.5"/><path d="M583.79867,648.37226l10.30998,26.17858l-17.5989,0.98023l-10.30998,-26.17858z" data-paper-data="{&quot;index&quot;:null}" fill="#5e5e5e" stroke="#000000" stroke-width="0.5"/><path d="M579.62623,673.24067l-8.80807,-20.82946l10.28578,-1.4374l8.80807,20.82945z" data-paper-data="{&quot;index&quot;:null}" fill="#000000" stroke="#000000" stroke-width="0.5"/><text transform="translate(533.60651,297.54777) rotate(90.43889) scale(0.5,0.5)" font-size="40" xml:space="preserve" data-paper-data="{&quot;index&quot;:null}" fill="#00922e" fill-rule="nonzero" stroke="none" stroke-width="1" stroke-linecap="butt" stroke-linejoin="miter" stroke-miterlimit="10" stroke-dasharray="" stroke-dashoffset="0" font-family="Sans Serif" font-weight="normal" text-anchor="start" style="mix-blend-mode: normal"><tspan x="0" dy="0">Letttuce Dealer</tspan></text><text transform="translate(535.09974,75.50229) rotate(90.21429) scale(0.5,0.5)" font-size="40" xml:space="preserve" data-paper-data="{&quot;index&quot;:null}" fill="#ff0000" fill-rule="nonzero" stroke="none" stroke-width="1" stroke-linecap="butt" stroke-linejoin="miter" stroke-miterlimit="10" stroke-dasharray="" stroke-dashoffset="0" font-family="Sans Serif" font-weight="normal" text-anchor="start" style="mix-blend-mode: normal"><tspan x="0" dy="0">Radical Lettuce</tspan></text></g></g></svg>