<svg version="1.1" xmlns="http://www.w3.org/2000/svg" xmlns:xlink="http://www.w3.org/1999/xlink" width="99.48817" height="72.24298" viewBox="0,0,99.48817,72.24298"><g transform="translate(-173.968,-322.62233)"><g data-paper-data="{&quot;isPaintingLayer&quot;:true}" fill-rule="nonzero" stroke-linecap="butt" stroke-linejoin="miter" stroke-miterlimit="10" stroke-dasharray="" stroke-dashoffset="0" style="mix-blend-mode: normal"><path d="M248.54931,392.11442l-31.92093,-51.98129l22.15596,-13.60564l31.92093,51.98129z" fill="#00ff2a" stroke="#000000" stroke-width="4"/><path d="M224.67149,335.07663l-5.96555,-9.71454l5.71291,-2.73976l5.36555,9.31454z" fill="#00ff2a" stroke="none" stroke-width="0"/><path d="M214.5698,330.97606l-0.89318,-6.40861l10.28497,-1.67021l0.89318,5.20861z" fill="#00ff2a" stroke="none" stroke-width="0"/><text transform="translate(232.15176,362.0869) rotate(-31.55347) scale(0.21039,0.31798) skewX(0)" font-size="40" xml:space="preserve" fill="#000000" fill-rule="nonzero" stroke="none" stroke-width="1" stroke-linecap="butt" stroke-linejoin="miter" stroke-miterlimit="10" stroke-dasharray="" stroke-dashoffset="0" font-family="Sans Serif" font-weight="normal" text-anchor="start" style="mix-blend-mode: normal"><tspan x="0" dy="0">Spray</tspan><tspan x="0" dy="46.150000000000006px">Paint</tspan></text><path d="M200.82507,329.91383c0,0.69554 0.30361,1.25938 0.67813,1.25938c0.37452,0 0.67813,-0.56384 0.67813,-1.25938c0,-0.69554 -0.30361,-1.25938 -0.67813,-1.25938c-0.37452,0 -0.67813,0.56384 -0.67813,1.25938z" fill="#00ff03" stroke="none" stroke-width="0"/><path d="M204.50634,328.55757c0,-0.0535 0.78071,-0.09688 1.74376,-0.09688c0.96305,0 1.74376,0.04337 1.74376,0.09688c0,0.0535 -0.78071,0.09688 -1.74376,0.09688c-0.96305,0 -1.74376,-0.04337 -1.74376,-0.09688z" fill="#00ff03" stroke="none" stroke-width="0"/><path d="M196.7563,327.87944c0,0.42802 1.04094,0.775 2.32501,0.775c1.28407,0 2.32501,-0.34698 2.32501,-0.775c0,-0.42802 -1.04094,-0.775 -2.32501,-0.775c-1.28407,0 -2.32501,0.34698 -2.32501,0.775z" fill="#00ff03" stroke="none" stroke-width="0"/><path d="M183.58122,330.97946c0,0.85605 2.34212,1.55001 5.23128,1.55001c2.88916,0 5.23128,-0.69396 5.23128,-1.55001c0,-0.85605 -2.34212,-1.55001 -5.23128,-1.55001c-2.88916,0 -5.23128,0.69396 -5.23128,1.55001z" fill="#00ff03" stroke="none" stroke-width="0"/><path d="M199.46881,331.75447c0,0.64203 1.08432,1.16251 2.42189,1.16251c1.33757,0 2.42189,-0.52047 2.42189,-1.16251c0,-0.64203 -1.08432,-1.16251 -2.42189,-1.16251c-1.33757,0 -2.42189,0.52047 -2.42189,1.16251z" fill="#00ff03" stroke="none" stroke-width="0"/><path d="M174.60402,333.58572c0.114,1.06397 3.8105,1.54033 8.25637,1.06399c4.44587,-0.47634 7.95755,-1.72501 7.84355,-2.78898c-0.114,-1.06397 -3.8105,-1.54033 -8.25637,-1.06399c-4.44587,0.47634 -7.95755,1.72501 -7.84355,2.78898z" fill="#00ff03" stroke="none" stroke-width="0"/><path d="M193.26878,328.55757c0,0.16051 0.4771,0.29063 1.06563,0.29063c0.58853,0 1.06563,-0.13012 1.06563,-0.29063c0,-0.16051 -0.4771,-0.29063 -1.06563,-0.29063c-0.58853,0 -1.06563,0.13012 -1.06563,0.29063z" fill="#00ff03" stroke="none" stroke-width="0"/><path d="M184.54997,329.52633c0,0.48153 1.17106,0.87188 2.61564,0.87188c1.44458,0 2.61564,-0.39035 2.61564,-0.87188c0,-0.48153 -1.17106,-0.87188 -2.61564,-0.87188c-1.44458,0 -2.61564,0.39035 -2.61564,0.87188z" fill="#00ff03" stroke="none" stroke-width="0"/><path d="M174.01403,333.19104c0.25422,0.47078 1.49073,0.29598 2.76182,-0.39041c1.27109,-0.68639 2.09543,-1.62446 1.84121,-2.09523c-0.25422,-0.47078 -1.49073,-0.29598 -2.76182,0.39041c-1.27109,0.68639 -2.09543,1.62446 -1.84121,2.09523z" fill="#00ff03" stroke="none" stroke-width="0"/><path d="M200.63132,329.42945c0,0.42802 1.82165,0.775 4.06877,0.775c2.24712,0 4.06877,-0.34698 4.06877,-0.775c0,-0.42802 -1.82165,-0.775 -4.06877,-0.775c-2.24712,0 -4.06877,0.34698 -4.06877,0.775z" fill="#00ff03" stroke="none" stroke-width="0"/><path d="M206.83136,326.13568c0,0.32102 1.21444,0.58125 2.71252,0.58125c1.49808,0 2.71252,-0.26024 2.71252,-0.58125c0,-0.32102 -1.21444,-0.58125 -2.71252,-0.58125c-1.49808,0 -2.71252,0.26024 -2.71252,0.58125z" fill="#00ff03" stroke="none" stroke-width="0"/><path d="M201.79383,326.42631c0,1.01656 0.9542,1.84064 2.13126,1.84064c1.17706,0 2.13126,-0.82408 2.13126,-1.84064c0,-1.01656 -0.9542,-1.84064 -2.13126,-1.84064c-1.17706,0 -2.13126,0.82408 -2.13126,1.84064z" fill="#00ff03" stroke="none" stroke-width="0"/><path d="M201.21257,326.03881c0,1.33757 1.34455,2.42189 3.00314,2.42189c1.65859,0 3.00314,-1.08432 3.00314,-2.42189c0,-1.33757 -1.34455,-2.42189 -3.00314,-2.42189c-1.65859,0 -3.00314,1.08432 -3.00314,2.42189z" fill-opacity="0.66667" fill="#00ff04" stroke="none" stroke-width="0"/><path d="M191.71877,328.94507c0,0.69554 1.47467,1.25938 3.29377,1.25938c1.8191,0 3.29377,-0.56384 3.29377,-1.25938c0,-0.69554 -1.47467,-1.25938 -3.29377,-1.25938c-1.8191,0 -3.29377,0.56384 -3.29377,1.25938z" fill-opacity="0.66667" fill="#00ff04" stroke="none" stroke-width="0"/><path d="M175.83117,333.40135c0,-0.58853 1.38793,-1.06563 3.10002,-1.06563c1.71209,0 3.10002,0.4771 3.10002,1.06563c0,0.58853 -1.38793,1.06563 -3.10002,1.06563c-1.71209,0 -3.10002,-0.4771 -3.10002,-1.06563z" fill-opacity="0.66667" fill="#00ff04" stroke="none" stroke-width="0"/><path d="M203.53759,330.10758c0,0.16051 0.91083,0.29063 2.03439,0.29063c1.12356,0 2.03439,-0.13012 2.03439,-0.29063c0,-0.16051 -0.91083,-0.29063 -2.03439,-0.29063c-1.12356,0 -2.03439,0.13012 -2.03439,0.29063z" fill-opacity="0.66667" fill="#00ff04" stroke="none" stroke-width="0"/><path d="M185.13123,330.39821c0,0.42802 0.52047,0.775 1.16251,0.775c0.64203,0 1.16251,-0.34698 1.16251,-0.775c0,-0.42802 -0.52047,-0.775 -1.16251,-0.775c-0.64203,0 -1.16251,0.34698 -1.16251,0.775z" fill-opacity="0.39216" fill="#00ff04" stroke="none" stroke-width="0"/><path d="M206.05635,327.97632c0,0.69554 1.21444,1.25938 2.71252,1.25938c1.49808,0 2.71252,-0.56384 2.71252,-1.25938c0,-0.69554 -1.21444,-1.25938 -2.71252,-1.25938c-1.49808,0 -2.71252,0.56384 -2.71252,1.25938z" fill-opacity="0.39216" fill="#00ff04" stroke="none" stroke-width="0"/><path d="M197.5313,329.72008c0,0.37452 0.9542,0.67813 2.13126,0.67813c1.17706,0 2.13126,-0.30361 2.13126,-0.67813c0,-0.37452 -0.9542,-0.67813 -2.13126,-0.67813c-1.17706,0 -2.13126,0.30361 -2.13126,0.67813z" fill-opacity="0.39216" fill="#00ff04" stroke="none" stroke-width="0"/><path d="M184.8275,333.3882c0.07324,0.14282 1.13606,-0.25598 2.37386,-0.89075c1.2378,-0.63477 2.18187,-1.26514 2.10862,-1.40796c-0.07324,-0.14282 -1.13606,0.25598 -2.37386,0.89075c-1.2378,0.63477 -2.18187,1.26514 -2.10862,1.40796z" fill-opacity="0.39216" fill="#00ff04" stroke="none" stroke-width="0"/><path d="M195.98129,328.07319c0,0.74904 0.86745,1.35626 1.93751,1.35626c1.07006,0 1.93751,-0.60722 1.93751,-1.35626c0,-0.74904 -0.86745,-1.35626 -1.93751,-1.35626c-1.07006,0 -1.93751,0.60722 -1.93751,1.35626z" fill-opacity="0.39216" fill="#00ff04" stroke="none" stroke-width="0"/><path d="M201.21257,330.39821c0,0.74904 1.38793,1.35626 3.10002,1.35626c1.71209,0 3.10002,-0.60722 3.10002,-1.35626c0,-0.74904 -1.38793,-1.35626 -3.10002,-1.35626c-1.71209,0 -3.10002,0.60722 -3.10002,1.35626z" fill-opacity="0.96471" fill="#00ff04" stroke="none" stroke-width="0"/><path d="M188.61875,332.32691c0,-0.10214 1.82165,-0.18494 4.06877,-0.18494c2.24712,0 4.06877,0.0828 4.06877,0.18494c0,0.10214 -1.82165,0.18494 -4.06877,0.18494c-2.24712,0 -4.06877,-0.0828 -4.06877,-0.18494z" fill-opacity="0.96471" fill="#00ff04" stroke="none" stroke-width="0"/><path d="M195.02367,329.09804c0.09516,1.06582 1.42513,1.81798 2.97057,1.67999c1.54544,-0.13799 2.72112,-1.11386 2.62595,-2.17968c-0.09516,-1.06582 -1.42513,-1.81798 -2.97057,-1.67999c-1.54544,0.13799 -2.72112,1.11386 -2.62595,2.17968z" fill-opacity="0.96471" fill="#00ff04" stroke="none" stroke-width="0"/><path d="M201.21257,329.13882c0,0.26751 1.25781,0.48438 2.80939,0.48438c1.55158,0 2.80939,-0.21686 2.80939,-0.48438c0,-0.26751 -1.25781,-0.48438 -2.80939,-0.48438c-1.55158,0 -2.80939,0.21686 -2.80939,0.48438z" fill-opacity="0.47451" fill="#00ff04" stroke="none" stroke-width="0"/><path d="M191.91252,330.59196c0,0.53503 1.69153,0.96876 3.77815,0.96876c2.08661,0 3.77815,-0.43373 3.77815,-0.96876c0,-0.53503 -1.69153,-0.96876 -3.77815,-0.96876c-2.08661,0 -3.77815,0.43373 -3.77815,0.96876z" fill-opacity="0.47451" fill="#00ff04" stroke="none" stroke-width="0"/><path d="M184.93748,332.33572c0,0.32102 -1.12769,0.58125 -2.51877,0.58125c-1.39108,0 -2.51877,-0.26024 -2.51877,-0.58125c0,-0.32102 1.12769,-0.58125 2.51877,-0.58125c1.39108,0 2.51877,0.26024 2.51877,0.58125z" fill-opacity="0.47451" fill="#00ff04" stroke="none" stroke-width="0"/><path d="M200.43757,328.75132c0,-0.58853 -1.99514,-1.06563 -4.45628,-1.06563c-2.46113,0 -4.45628,0.4771 -4.45628,1.06563c0,0.58853 1.99514,1.06563 4.45628,1.06563c2.46113,0 4.45628,-0.4771 4.45628,-1.06563z" fill-opacity="0.47451" fill="#00ff04" stroke="none" stroke-width="0"/></g></g></svg>