<svg version="1.1" xmlns="http://www.w3.org/2000/svg" xmlns:xlink="http://www.w3.org/1999/xlink" width="36.5" height="34" viewBox="0,0,36.5,34"><g transform="translate(-221.75,-163)"><g data-paper-data="{&quot;isPaintingLayer&quot;:true}" fill-rule="nonzero" stroke-linecap="butt" stroke-linejoin="miter" stroke-miterlimit="10" stroke-dasharray="" stroke-dashoffset="0" style="mix-blend-mode: normal"><path d="M258,180c0,9.25077 -8.05887,16.75 -18,16.75c-9.94112,0 -18,-7.49923 -18,-16.75c0,-9.25077 8.05888,-16.75 18,-16.75c9.94113,0 18,7.49923 18,16.75z" fill="#ff0000" stroke="#000000" stroke-width="0.5"/><path d="M258,180c0,9.25077 -8.05887,16.75 -18,16.75c-9.94112,0 -18,-7.49923 -18,-16.75c0,-9.25077 8.05888,-16.75 18,-16.75c9.94113,0 18,7.49923 18,16.75z" fill="none" stroke="#000000" stroke-width="0.5"/><path d="M258.11111,180c0,1.13525 -1.06954,2.05556 -2.38889,2.05556c-1.31935,0 -2.38889,-0.9203 -2.38889,-2.05556c0,-1.13525 1.06954,-2.05556 2.38889,-2.05556c1.31935,0 2.38889,0.9203 2.38889,2.05556z" fill="#1000ff" stroke="none" stroke-width="0"/></g></g></svg>