<svg version="1.1" xmlns="http://www.w3.org/2000/svg" xmlns:xlink="http://www.w3.org/1999/xlink" width="485.5" height="34.5" viewBox="0,0,485.5,34.5"><g transform="translate(2.75,-342.75)"><g data-paper-data="{&quot;isPaintingLayer&quot;:true}" fill-rule="nonzero" stroke="#00ff18" stroke-width="7.5" stroke-linecap="butt" stroke-linejoin="miter" stroke-miterlimit="10" stroke-dasharray="" stroke-dashoffset="0" style="mix-blend-mode: normal"><path d="M1,373.5v-27h478v27z" fill="none"/><path d="M3.5,370.8v-24h14v24z" fill="#00ff18"/><path d="M19.5,371.8v-24h10v24z" fill="#00ff18"/><path d="M30.5,366.8v-15h9v15z" fill="#00ff18"/><path d="M38.5,368.8v-22h15v22z" fill="#00ff18"/><path d="M52.5,367.8v-17h15v17z" fill="#00ff18"/><path d="M68.5,366.8v-16h13v16z" fill="#00ff18"/><path d="M81.5,368.8v-21h6v21z" fill="#00ff18"/><path d="M91.5,370.8v-21h6v21z" fill="#00ff18"/><path d="M98.5,369.8v-22h19v22z" fill="#00ff18"/><path d="M113.5,368.8v-22h16v22z" fill="#00ff18"/><path d="M125.5,370.8v-20h8v20z" fill="#00ff18"/><path d="M133.5,369.8v-20h14v20z" fill="#00ff18"/><path d="M145.5,371.8v-25h8v25z" fill="#00ff18"/><path d="M155.5,370.8v-20h14v20z" fill="#00ff18"/><path d="M168.5,370.8v-19h11v19z" fill="#00ff18"/><path d="M178.5,367.8v-19h13v19z" fill="#00ff18"/><path d="M190.5,366.8v-18h18v18z" fill="#00ff18"/><path d="M208.5,371.8v-24h9v24z" fill="#00ff18"/><path d="M217.5,370.8v-20h8v20z" fill="#00ff18"/><path d="M221.5,370.8v-22h12v22z" fill="#00ff18"/><path d="M233.5,372.8v-25h12v25z" fill="#00ff18"/><path d="M244.5,367.8v-18h9v18z" fill="#00ff18"/><path d="M254.5,371.8v-23h4v23z" fill="#00ff18"/><path d="M255.5,367.8v-19h15v19z" fill="#00ff18"/><path d="M273.5,369.8v-21h1v21z" fill="#00ff18"/><path d="M276.5,370.8v-20h9v20z" fill="#00ff18"/></g></g></svg>