<svg version="1.1" xmlns="http://www.w3.org/2000/svg" xmlns:xlink="http://www.w3.org/1999/xlink" width="523.82117" height="733.11367" viewBox="0,0,523.82117,733.11367"><g transform="translate(21.91059,6.85466)"><g data-paper-data="{&quot;isPaintingLayer&quot;:true}" fill-rule="nonzero" stroke-linecap="butt" stroke-linejoin="miter" stroke-miterlimit="10" stroke-dasharray="" stroke-dashoffset="0" style="mix-blend-mode: normal"><path d="M-20.91058,725.25902v-730.51801h521.82117v730.51801z" fill="#a9ffe1" stroke="#000000" stroke-width="2"/><path d="M40.14551,200.27669c-0.31136,-0.28674 -0.58858,-0.58884 -0.83211,-0.90412c-1.65887,0.61332 -3.23246,0.88112 -4.9929,0.96298c-0.01877,0.35283 -0.03957,0.70153 -0.06165,1.04388c0.71296,-0.38727 1.43846,-0.73954 2.20727,-0.95905c1.06211,-0.30324 2.22383,0.12101 3.31307,-0.06227c0.12367,-0.02081 0.24565,-0.0485 0.36633,-0.08142zM108.78434,202.97819c0.29521,1.39143 0.2476,2.80206 -0.33961,3.98725c-0.09665,0.19506 -0.21211,0.38 -0.34468,0.55528c0.33257,0.0732 0.66235,0.1621 0.98109,0.27518c0.20255,-1.29299 1.06047,-3.1788 1.66461,-4.19198c-0.56818,-0.08461 -1.11477,-0.36407 -1.66877,-0.53484c-0.09761,-0.03009 -0.19516,-0.06039 -0.29264,-0.09089zM46.45742,172.03909c0.14742,0.02667 0.29482,0.05343 0.44221,0.08021c-0.04098,-0.05295 -0.08155,-0.10688 -0.1217,-0.16184c-0.10636,0.02851 -0.21321,0.0557 -0.32051,0.08163zM116.03545,196.10235c0.30653,0.23583 0.61857,0.47897 0.92613,0.73167c0.01579,-0.16665 0.03919,-0.32848 0.07213,-0.48419c0.08427,-0.39827 1.07172,-0.84398 0.69693,-1.0029c-0.40086,-0.16998 -0.51621,0.90654 -0.95147,0.89497c-0.25539,-0.00679 -0.50192,-0.06027 -0.74373,-0.13954zM106.68936,216.45528c-0.28825,-0.08335 -0.59038,-0.15632 -0.91018,-0.21338c-0.99713,-0.1779 -2.01228,-0.13177 -3.02992,-0.06056c0.58092,0.07712 1.16395,0.1241 1.75074,0.11867c0.23022,-0.00213 1.13389,0.08573 2.18936,0.15527zM14.46593,213.60816c-2.14255,-1.47571 -4.56894,-3.57982 -5.93346,-4.68479c-0.33013,-3.17651 0.08806,-7.25024 -0.47436,-10.40254c-0.78618,-4.40643 -2.36272,-10.90236 -0.71556,-15.4429c0.40054,-1.10413 1.73272,-1.6321 2.32953,-2.64371c0.5356,-0.90788 0.44014,-2.10688 1,-3c2.70867,-4.32101 8.02488,-8.1006 11.97498,-11.11425c1.09174,-0.83292 1.84919,-2.18453 3.13087,-2.67742c1.14158,-0.43901 7.29249,-0.34254 8.72208,-0.34254c5.26596,0 10.4696,-0.03848 15.72208,0.34254c3.27853,2.82519 6.07646,3.22502 9.64371,5.32953c1.18196,0.6973 1.98613,2.28917 3.35503,2.38604c3.61877,0.25607 7.39629,-0.52664 11,0c4.11128,0.60081 7.91724,3.43698 12,4c2.82813,0.39 5.11778,-0.82445 8.00126,0.28444c1.28169,0.49289 2.03913,1.8445 3.13087,2.67742c1.81436,1.38423 3.71534,2.68437 5.32903,4.29806c0.20758,0.20758 2.53849,2.71844 3.12205,2.87507c1.76597,0.47399 3.68215,0.28681 5.41679,0.86502c2.35702,0 4.70571,0.45983 7,1c1.6636,0.39168 3.85141,-0.32481 5.04853,0.89497c3.00114,3.05794 2.73065,6.88511 2.73065,10.54692c0,2.54009 -0.65811,5.03766 -1.03372,7.54982c-0.18521,1.23876 0.22922,2.56348 -0.15937,3.7542c-0.44624,1.36736 -1.62885,2.3828 -2.2645,3.67305c-0.53028,1.07639 -0.59241,2.36263 -1.21449,3.38871c-0.59107,0.97492 -1.62464,1.60583 -2.34789,2.48716c-0.9786,1.19249 -1.49686,2.82163 -2.74857,3.72323c-3.07744,2.21667 -5.38318,1.89487 -8.73147,1.92382c-1.18998,0.01029 -7.32516,-0.00388 -7.72082,-0.05811c-1.04433,-0.14312 -1.9565,-0.85093 -3,-1c-1.31993,-0.18856 -2.69332,0.26529 -4,0c-4.93819,-1.00258 -7.2665,-3 -12,-3c-5.56162,-1.85387 -11.22554,-0.29938 -17,-1c-1.04642,-0.12696 -1.96229,-0.81486 -3,-1c-2.76631,-0.49356 -6.50529,0.05811 -9.27918,0.05811c-2.42647,0 -4.87956,-0.41806 -7.27918,-0.05811c-1.04243,0.15637 -1.95873,0.83607 -3,1c-7.15419,1.12633 -15.42998,0.05811 -22.72082,0.05811c0,0 -4.5,0 -4.5,-4.5c0,-0.89784 0.17914,-1.61654 0.46593,-2.19184zM97.12923,190.07977c-0.39176,-0.32454 -0.78919,-0.66307 -1.18794,-1.00854c0.03808,0.23386 0.05814,0.47377 0.0587,0.71826c0.37707,0.09607 0.75346,0.1928 1.12924,0.29029zM71.8034,191.45953c0.14223,-0.0038 0.28544,-0.00548 0.4299,-0.00501l-0.28899,-0.09633c-0.04647,0.0341 -0.09346,0.06787 -0.14092,0.10134zM58.51724,181.85578c0.08908,0.18539 0.16997,0.37021 0.24295,0.5544c0.11965,-0.1352 0.24329,-0.26356 0.37537,-0.37806c-0.20614,-0.06082 -0.41226,-0.11965 -0.61832,-0.17634z" fill="#ffffff" stroke="none" stroke-width="0.5"/><path d="M206.96286,291.29407c-2.08395,0.00911 -4.55339,0.00594 -5.46286,0.00594c-5.71213,0 -10.82342,-0.32043 -16.44342,-1.0219c-2.71714,-0.33915 -5.55691,-0.28833 -8.11784,-1.25762c-2.52491,-0.95565 -4.6083,-2.82252 -6.80453,-4.39255c-1.00849,-0.72094 -4.19883,-0.3013 -4.6681,-0.44831c-1.9808,-0.62051 -3.73154,-1.81935 -5.59731,-2.72903l-0.32982,-0.68958l-0.22097,0.22097l-2,-2c-0.61633,-0.61633 -1.0547,-1.4106 -1.23145,-2.29914c-2.38254,-0.84326 -5.06941,-0.78447 -7.40706,-1.76752c-1.10787,-0.4659 -1.89552,-1.52611 -3,-2c-1.30064,-0.55805 -2.84731,-0.41973 -4.11348,-1.0521c-1.54175,-0.77 -2.65788,-2.22281 -4.15451,-3.07721c-3.5916,-2.05039 -8.1489,-2.7994 -10.06898,-7.26393c-0.62351,-1.44977 -0.22836,-3.14805 -0.34254,-4.72208c0.03454,-0.47618 0.02247,-0.96373 0.00609,-1.45234c-0.31458,-0.08913 -0.62451,-0.18209 -0.92912,-0.27859c0,0 -4.26907,-1.42302 -2.84605,-5.6921c1.42302,-4.26907 5.6921,-2.84605 5.6921,-2.84605c0.73019,0.26286 1.56574,0.48856 2.45239,0.66659c4.75367,-3.17944 11.78285,-2.89752 17.12459,-2.89752c0.15039,0 0.3534,-0.00006 0.59728,-0.00013c2.69755,-0.48563 5.40257,-0.93182 6.03156,-0.98454c5.85392,-0.49063 12.53335,-0.06925 18.37116,-0.01533c1.67837,0.0155 3.40214,-0.27279 5.03389,0.12038c1.68127,0.4051 3.08342,1.57757 4.68819,2.22216c2.17766,0.8747 4.54965,1.2702 6.64371,2.32953c0.93459,0.47278 1.40484,1.58034 2.26541,2.17734c1.50108,1.04135 3.54254,1.34754 4.76835,2.70218c0.58954,0.6515 0.9437,1.45953 1.22158,2.31098c4.98723,-0.84849 9.81469,-3.12588 14.82905,-3.82886c3.02235,-0.42371 6.49095,-0.03372 9.54982,-0.03372c4.29258,0 9.01345,-0.68836 12.97708,1.45758c4.26478,2.30898 5.94549,5.28955 6.42585,9.14056c0.6902,-0.70727 1.41888,-1.37233 2.23128,-1.92607c0.87101,-0.59368 2.09212,-0.4644 3,-1c1.01162,-0.59681 1.53958,-1.92898 2.64371,-2.32953c1.21017,-0.43901 7.23454,-0.34254 8.72208,-0.34254c3.59936,0.0443 7.89765,-0.55934 10.65059,2.8688c1.1886,1.48013 0.66349,3.74202 0.84941,5.6312c0.32374,3.28968 0.24483,5.99757 -0.94758,8.62785c0.32795,4.17322 0.3759,10.17811 -2.25067,13.42968c-3.08832,3.82321 -9.42921,2.46584 -13.26786,3.3221c-1.45495,0.32455 -2.54411,1.67968 -4,2c-1.78554,0.39285 -3.66683,-0.11371 -5.48406,0.08666c-2.73218,0.30126 -5.27788,1.61838 -8,2c-4.15735,0.58283 -7.89958,0.3052 -12.17866,1.01838c-1.6734,0.00761 -6.85104,0.11756 -8.09324,-0.32721c-1.05259,-0.37688 -1.50311,-1.72579 -2.49507,-2.24156c-1.9109,-0.99359 -4.21973,-0.92301 -6.32,-1.42184zM221.80094,272.44858c1.06841,-0.15881 2.03761,0.03313 2.98344,0.35239c0.11322,-0.17523 0.19582,-0.34352 0.23922,-0.50096h-3.10814c-0.03778,0.0497 -0.07596,0.09923 -0.11452,0.14858zM154.67539,267.3996c0.30264,0.06317 0.60752,0.11977 0.91343,0.17337c0.04073,-0.07138 0.08336,-0.14154 0.12782,-0.2104c-0.34712,0.0128 -0.69424,0.02578 -1.04125,0.03704z" fill="#ffffff" stroke="none" stroke-width="0.5"/><path d="M305,215.79289c-0.00059,-6.7041 -0.83724,-10.4799 4.8688,-15.64347c1.03547,-0.93703 2.6315,-0.94304 3.90912,-1.50687c4.56164,-2.01309 9.7961,-4.66227 15.0261,-3.14946c1.38169,0.39966 2.38104,1.63243 3.67305,2.2645c3.69777,1.80897 7.83191,3.07854 8.94336,6.94741c0.73501,-0.46524 1.55775,-0.83369 2.22661,-1.38503c2.97329,-2.45086 5.00141,-5.85346 7.10872,-9.01611c2.94169,-4.41487 5.67737,-9.64161 9.89128,-12.98389c2.09535,-1.66194 4.6734,-2.62227 7.13087,-3.67742c4.31335,-1.852 6.94573,-3.30125 11.72208,-3.34254c1.48794,-0.01286 6.87949,-0.05205 7.72208,0.34254c5.4505,2.55253 6.69606,9.91528 6.77792,15.15746c-0.0073,1.18553 -0.15654,2.3787 -0.0219,3.55658c0.04652,0.40693 0.33409,1.58528 0.61894,3.02121c0.10709,-0.08874 0.19897,-0.16534 0.27176,-0.22839c0.87467,-0.75745 2.26981,-0.58779 3.26541,-1.17734c3.08664,-1.82776 5.40839,-5.21144 9.06176,-6.47899c1.12922,-0.39178 2.40534,0.06809 3.58321,-0.13498c1.03877,-0.17909 1.95873,-0.83607 3,-1c4.75207,-0.74815 11.78515,-0.5853 16.44164,0c5.83167,0.73302 10.87592,3.87924 16.64497,4.61396c1.61823,2.75556 3.49287,5.37579 4.85469,8.26667c1.85157,3.93053 2.24784,9.04225 2.27817,13.31684c1.13391,0.40037 2.05937,1.24226 2.56987,2.31915l1.84717,3.69434c0.77488,0.91328 1.47926,1.95423 2.12673,3.25385c0.40533,0.81358 0.32201,1.82938 0.78551,2.61129c0.59892,1.01037 1.92898,1.53958 2.32953,2.64371c0.41489,1.14369 0.34254,6.04334 0.34254,7.72208v3c0,2.41773 -1.90669,4.39014 -4.29843,4.49557c-0.05832,0.16007 -0.112,0.32052 -0.15915,0.48152l-0.51565,0.3741l0.21745,0.14497l-1.96128,2.94193c-0.80124,1.24065 -2.19618,2.06192 -3.78294,2.06192c-0.86833,0 -1.67921,-0.24594 -2.3668,-0.67196c-1.30749,1.67196 -3.6332,1.67196 -3.6332,1.67196h-1c-3.4395,0 -7.14679,-0.4076 -10.55658,-0.0219c-3.7271,0.42159 -7.33449,1.6933 -11.07226,2.00657c-5.62843,0.47173 -11.37574,-0.47623 -17,0c-4.7852,0.40519 -9.56884,1.00654 -14.37116,1.01533c-11.33333,0 -22.66667,0 -34,0c-6.00436,0 -12.47028,0.62447 -18.44342,-0.0219c-1.68981,-0.18286 -3.30916,-0.82695 -5,-1c-3.28583,-0.3363 -5.82104,0.39811 -9.10641,-0.01182c-6.06402,-0.75662 -12.31925,-2.85098 -18.3327,-4.05367c0,0 -3.36442,-0.67288 -3.63017,-3.78131c-0.3014,-0.11941 -0.60488,-0.2407 -0.91033,-0.36223c-1.60945,-0.64036 -3.57942,-0.81859 -4.75896,-2.08709c-2.33037,-2.50614 -2.93837,-7.76687 -1.97548,-10.90406c0.18604,-0.60612 0.86799,-0.90562 1.40122,-1.30302c-0.95337,-3.27304 -1.30485,-6.58012 -0.40122,-8.69698c1.25568,-2.94158 3.85766,-4.45998 6.65746,-5.28504zM421,219.8c0,0.34544 -0.02652,0.66436 -0.07548,0.95881c0.12636,-0.10997 0.2529,-0.21969 0.37965,-0.32913c-0.11446,-0.29449 -0.19881,-0.60401 -0.24928,-0.92478c-0.01982,0.0137 -0.03976,0.02724 -0.05981,0.04062c0.00326,0.08319 0.00492,0.16801 0.00492,0.25448zM423.25549,214.89885l0.58537,-0.35122c-0.31968,0.07416 -0.63891,0.1506 -0.9579,0.22831c0.02444,0.10503 0.04521,0.21146 0.06215,0.31917c0.10057,-0.06948 0.2041,-0.13498 0.31038,-0.19626zM354.34231,206.26029c-0.20688,-0.19196 -0.40305,-0.39063 -0.58803,-0.59565c-0.54921,0.69259 -1.1187,1.36858 -1.71588,2.02221c0.67754,0.07071 1.29529,0.00484 1.73012,-0.46303c0.25579,-0.27523 0.42247,-0.61365 0.57379,-0.96353zM384.18239,184.23929c0.03632,-0.67384 0.09314,-1.33881 -0.40447,-1.28183c-1.03531,0.11855 -2.11854,0.11247 -3.2003,0.11233c0.48084,0.14686 0.93253,0.30207 1.3454,0.46114c0.71774,0.27653 1.50385,0.46889 2.25937,0.70836zM434.16858,197.45807c1.44208,0.68848 2.84863,1.47031 4.3653,1.96232c0.37303,0.12101 0.79542,0.15177 1.23331,0.14898c-1.25104,-0.36677 -2.51184,-1.10901 -3.72761,-1.51293c-0.62018,-0.20605 -1.2438,-0.40759 -1.871,-0.59837zM317.66021,236.83756c0.32693,0.1289 0.8754,0.29496 1.49916,0.47514c0.11244,-0.00842 0.22604,-0.0127 0.34063,-0.0127h1.29818c-0.06726,-0.02921 -0.13441,-0.0587 -0.20144,-0.08847l-2.93046,-0.48841c-0.0021,0.03815 -0.00412,0.0763 -0.00608,0.11444zM385.83848,204.19736c0.05007,-0.52698 0.11601,-1.05879 0.14773,-1.5775c-0.33193,0.31207 -0.6556,0.62999 -0.94986,0.96779c0.27945,0.21192 0.54872,0.41656 0.80214,0.60971zM398.12686,233.07818c0.00682,0.00189 0.01363,0.00379 0.02045,0.00568c0.00915,-0.00182 0.01828,-0.00364 0.02741,-0.00546c-0.01595,-0.00008 -0.0319,-0.00015 -0.04785,-0.00022zM444.58171,211.09852c0.0845,0.00665 0.16986,0.01096 0.25563,0.01399c-0.01175,-0.0769 -0.02364,-0.15377 -0.03567,-0.23062c-0.06976,0.07442 -0.14305,0.14666 -0.21996,0.21663zM373.2881,244.3c0.65314,0 -0.65314,0 0,0z" fill="#ffffff" stroke="none" stroke-width="0.5"/><path d="M116.76907,97.46403c-1.42302,4.26907 -5.6921,2.84605 -5.6921,2.84605l-2.83512,-0.94853c-0.40559,-0.10104 -0.80941,-0.21124 -1.21229,-0.32619c-0.45758,1.51415 -0.94775,2.87136 -1.41425,3.82614c-2.34632,4.80222 -7.10376,7.12041 -12.08143,8.55913c-0.96068,0.27767 -2.03536,-0.26358 -3,0c-2.7588,0.75382 -4.90086,3.08506 -7.64229,3.8998c-7.12219,2.11669 -15.07972,1.22058 -22.3916,1.22058c0,0 -4.5,0 -4.5,-4.5c0,-1.09247 0.26522,-1.91972 0.66689,-2.54614c-0.20556,-0.0392 -0.40548,-0.09291 -0.58991,-0.18478c-1.9333,-0.96309 -4.63596,-1.32473 -5.6019,-3.25661c-1.12505,-2.25011 0.99199,-6.77484 1.70438,-9.27061c0.36231,-1.26931 1.84011,-7.69413 2.20523,-8.56235c0.4659,-1.10787 1.49981,-1.90718 2,-3c0.75199,-1.64294 0.46293,-3.84587 1.72518,-5.13873c1.59717,-1.63589 4.21209,-1.80923 6.18547,-2.96372c2.76559,-1.61796 5.32262,-3.99651 8.48384,-4.51895c3.13958,-0.51887 6.29932,0.08851 9.08661,1.61396c0.62918,0.34435 0.69338,1.39661 1.35629,1.67047c0.62197,0.25695 1.33887,-0.41649 1.99874,-0.28444c1.60726,0.32164 3.22151,0.80125 4.64497,1.61396c0.97202,0.55497 2.48588,1.93748 2.3251,2.89527c0.2581,-0.56087 0.46002,-1.19679 1.00509,-1.37425c4.56701,-1.48697 12.79296,0.94039 15.27156,5.18355c0.95751,1.63918 0.61041,3.77812 0.49875,5.67319c-0.01229,0.20849 -0.03038,0.43095 -0.05388,0.66554c0.96114,0.2413 1.68109,0.4228 1.84574,0.4641l3.16488,1.05147c0,0 4.26907,1.42302 2.84605,5.6921zM100.05321,88.45706c0.12099,-0.15338 0.6143,-0.16502 0.47925,-0.29269c-0.20662,-0.19533 -0.57329,0.04325 -0.85296,-0.00805c-1.29798,-0.23808 -2.62661,-1.23471 -3.87548,-0.8084c-0.14697,0.05017 -0.29291,0.10291 -0.43796,0.15788c0.5844,0.37408 1.12627,0.78281 1.60162,1.22596c0.17564,-0.09106 0.35425,-0.18132 0.53231,-0.19076c0.84852,-0.04497 1.70201,-0.08791 2.55321,-0.08395zM64.86579,104.21308c1.0909,0.68802 2.47498,0.76258 3.63421,1.32793c0.05072,-0.02623 0.10069,-0.05296 0.14994,-0.08017c-1.36384,-0.26074 -2.50914,-1.13709 -3.13564,-2.32879l-0.23136,0.34704c-0.15383,0.2382 -0.32955,0.46093 -0.52431,0.66537c0.03565,0.02317 0.07137,0.04605 0.10716,0.06862z" fill="#ffffff" stroke="none" stroke-width="0.5"/><path d="M442.80691,38.34504c-1.39452,1.88784 -2.29184,4.27426 -4.18355,5.66351c-1.10427,0.81096 -2.77339,0.0313 -4.08947,0.41208c-2.44364,0.70701 -4.55657,2.26795 -6.77522,3.51247c-4.37816,2.45588 -8.47433,6.45787 -12.40572,9.58794c-1.44225,1.14828 -2.46895,2.87954 -4.13087,3.67742c-2.17539,1.04438 -4.91581,0.17815 -7.16082,1.06302c-3.40701,1.34288 -4.11893,2.69608 -7.84044,3.22141c-5.03582,0.71086 -8.52648,-1.51462 -13.27064,-1.97561c-2.63575,-0.25611 -5.30177,0.12286 -7.94897,0.10822c-1.18832,0.52515 -2.19438,1.53611 -3.46732,1.80511c-1.96823,0.41593 -4.02234,0.09625 -6.03389,0.12038c-0.25055,0.00301 -0.50454,0.00826 -0.76148,0.01525c-0.51379,1.43706 -1.73769,2.53649 -3.249,2.87561l-3.95435,0.97804l-0.05165,-0.20883l-0.45879,0.30421c-3.10643,0.04441 -6.21735,-0.03962 -9.31929,0.13323c-3.0968,0.17257 -6.23489,1.58237 -9.26099,0.90215c-0.16487,-0.03706 -0.32889,-0.07665 -0.49209,-0.11862l-0.01053,0.08421l-7.94077,-0.9926c-0.17842,-0.01968 -0.3537,-0.04979 -0.52521,-0.08971c-2.62363,0.29603 -5.3078,0.11706 -7.97586,0.11706c-5,0 -10,0 -15,0c0,0 -1.64911,0 -2.9507,-0.99832c-0.71507,-0.16473 -1.47318,-0.5616 -2.23128,-1.3197c-3.18198,-3.18198 0,-6.36396 0,-6.36396l1,-1c1.17132,-1.17132 5.18599,-5.2164 5.81619,-5.64595c0.87101,-0.59368 2.09122,-0.46593 3,-1c0.64377,-0.37833 0.93096,-1.18415 1.51284,-1.65211c0.60571,-0.48713 5.42523,-3.60143 6.25387,-4.19349c2.5918,-1.85181 5.24791,-3.63475 7.65067,-5.72602c1.56976,-1.36626 2.71243,-3.2448 4.4712,-4.35724c2.01168,-1.27242 4.33296,-2.02419 6.62623,-2.66202c0.85137,-0.23679 1.81569,0.37396 2.64978,0.08209c1.2843,-0.44941 2.2879,-1.47347 3.43185,-2.21021c1.34909,-1.20351 2.41993,-2.823 4.04728,-3.61053c1.20359,-0.58246 2.68448,-0.05206 4.00126,-0.28444c4.49815,-0.79381 8.54395,-3.43492 13.171,-4.02439c4.58927,-0.58466 9.95369,-0.03372 14.54982,-0.03372c13.51073,0 26.9414,-0.031 40.37116,1.01533c7.01494,0.54654 14.19261,2.14527 21.18699,3.01942c0,0 4.46525,0.55816 3.90709,5.02341c-0.23808,1.9046 -1.18699,2.89527 -2.19703,3.40515c-0.01317,0.45759 -0.00784,0.90761 0.03869,1.34073zM428.42151,37.53637c-2.44072,-0.02185 -5.28326,-0.09282 -7.72501,0.33724c0.7725,0.77955 1.26183,1.84018 1.30096,3.01484c1.69496,-1.07229 3.30568,-1.80974 5.49008,-2.87237c0.3139,-0.1527 0.62454,-0.31445 0.93397,-0.47972z" fill="#ffffff" stroke="none" stroke-width="0.5"/><path d="M236.89474,124.33996c0.37983,0.10811 0.76325,0.19558 1.15509,0.23476c1.99007,0.19901 4.01421,-0.23803 6,0c2.95343,0.35402 5.54647,2.15646 8.27067,3.35097c2.48511,1.08967 5.41509,0.87137 7.90158,1.95786c1.83338,0.80111 3.43885,2.0461 5.15828,3.06915c2.61455,0.89835 4.80775,2.73078 7.20812,4.1023c1.006,0.5748 2.2831,0.56312 3.27731,1.15808c0.80901,0.48413 1.19155,1.51493 2,2c0.90388,0.54233 2.1326,0.40106 3,1c1.34301,0.92735 2.59602,2.07885 3.46214,3.46214c3.04734,4.86694 2.32066,11.32018 -2.23571,15.04416c-1.17349,0.95911 -3.02298,0.55282 -4.37507,1.23753c-0.99743,0.5051 -1.42853,1.90616 -2.49507,2.24156c-1.82277,0.57322 -3.81249,0.27526 -5.72208,0.34254c-2.94055,0.10361 -5.67001,-0.04099 -8.40709,-0.30559c-1.1025,0.78267 -2.10794,1.77977 -3.39171,2.14231c-1.98995,0.56197 -4.13364,0.13314 -6.2012,0.16328c-4.67604,0.06816 -9.90588,0.54572 -14.54982,-0.03372c-2.72759,-0.34033 -5.27119,-1.6696 -8,-2c-1.38028,-0.16712 -2.80739,0.24702 -4.171,-0.02439c-1.97134,-0.39237 -3.7525,-1.51066 -5.71162,-1.94189c-1.29436,0 -2.58873,0 -3.88309,0c-0.27719,0.01163 -0.55381,0.01412 -0.82928,0c-2.28506,0 -4.57013,0 -6.85519,0c-4.70579,0 -9.88432,0.56066 -14.54982,-0.03372c-3.73963,-0.47642 -6.92949,-2.28954 -10.53491,-3.09898c-3.01823,-0.67761 -6.27405,-0.11468 -9.21929,-1.06039c-1.79841,-0.57747 -3.4508,-1.4887 -4.99352,-2.5814c-0.50432,0.48727 -1.04937,0.94557 -1.52047,1.45646c0,0 -3.18198,3.18198 -6.36396,0c-3.18198,-3.18198 0,-6.36396 0,-6.36396c0.27933,-0.22839 0.50025,-0.50045 0.68201,-0.80206c-0.00002,-0.00532 -0.00003,-0.01064 -0.00003,-0.01596c0,-0.24985 0.02036,-0.49495 0.05952,-0.73372c-2.57596,-1.58115 -4.86961,-4.1102 -6.7415,-6.0843c-1.3703,-1.44513 -3.29332,-2.58886 -3.97548,-4.45991c-0.73578,-2.01811 -0.55609,-4.36933 0,-6.44415c0.33139,-1.23644 1.80227,-1.84041 2.50687,-2.90912c0.90036,-1.36564 1.22019,-3.09844 2.27704,-4.34692c0.93018,-1.09884 2.42397,-1.56914 3.5206,-2.50193c1.62911,-1.38571 2.76553,-3.39845 4.63581,-4.43586c5.75879,-3.19431 10.50469,-0.66054 15.59062,1.4779c1.54582,-0.74232 3.06993,-1.54123 4.72173,-1.9701c2.70026,-0.70108 4.9205,0.21621 7.53363,-0.07657c0.98007,-0.10981 1.94436,-0.29236 2.89864,-0.51553c3.56556,-2.16241 7.56729,-3.09205 11.49545,-5.04222c1.2883,-0.63959 2.29847,-1.84101 3.67305,-2.2645c1.3259,-0.40848 8.48689,-0.17601 9.42739,0.33938c1.55224,0.85063 2.1605,2.80992 3.35668,4.11459c1.00693,1.09825 2.11862,2.0972 3.19232,3.13161c0.34633,0.10498 0.69552,0.1993 1.04846,0.27945c1.30392,0.29609 2.77598,-0.25091 4.00126,0.28444c1.10332,0.48206 5.97796,5.30742 6.43538,6.43538c0.10428,0.25716 0.18155,0.60678 0.23728,1.02103zM197.52644,124.5554c-0.00157,0.00123 -0.00314,0.00246 -0.00471,0.00369c0.57297,-0.05357 1.11919,-0.04654 1.56931,0.23303c0.03685,-0.20642 0.08114,-0.41028 0.13301,-0.61073c-0.56572,0.12694 -1.13157,0.25255 -1.69761,0.37401z" fill="#ffffff" stroke="none" stroke-width="0.5"/><path d="M-6.46754,431.16437c-0.77114,-1.32557 -0.23467,-3.06289 -0.49875,-4.57354c-0.73268,-4.19129 -1.57272,-7.91363 -0.97561,-12.27064c0.14312,-1.04433 0.80979,-1.96321 1,-3c0.24128,-1.31517 -0.25091,-2.77598 0.28444,-4.00126c1.29136,-2.95562 6.52232,-7.13554 9.33697,-8.39324c2.03235,-0.90813 4.4658,-0.71292 6.4547,-1.71261c1.64329,-0.82598 1.68658,-3.27861 2.7152,-4.80327c2.29009,-3.39447 5.55976,-6.62889 8.46861,-9.55078c6.26441,-5.98496 15.82117,-9.90883 24.73181,-8.2843c2.24901,0.41002 4.72934,0.72801 6.5077,2.16453c1.38897,1.12199 1.53757,3.22529 2.21155,4.87872c0.1144,0.28065 0.26725,0.5635 0.42077,0.84834c0.3377,-0.03923 0.6679,-0.09738 0.94436,-0.25324c1.6912,-0.95344 2.43759,-3.17065 4.14865,-4.08797c1.21128,-0.64938 2.76958,-0.38766 4,-1c0.79423,-0.39526 1.08951,-1.45747 1.85135,-1.91203c1.03044,-0.61482 2.31621,-0.67638 3.38871,-1.21449c2.69636,-1.35287 5.01946,-3.59395 7.94319,-4.3372c0.59893,-0.15226 7.9374,-0.12038 9.03389,-0.12038c4.42255,0 11.50779,-1.18627 15.72208,0.34254c1.10413,0.40054 1.64298,1.71465 2.64371,2.32953c2.07659,1.27591 4.98954,1.0324 6.81619,2.64595c0.79001,0.69785 0.48385,2.08093 1,3c0.09765,0.17387 0.34011,-0.24336 0.53884,-0.25991c1.08946,-0.09075 2.18595,-0.05811 3.27918,-0.05811c2.26787,0 4.48389,0.68478 6.72082,1.05811c1.02918,0.17176 2.11762,-0.22887 3.13016,0.02309c1.74193,0.43346 3.25903,1.56267 5,2c2.4833,0.62381 5.32266,0.26785 7.51481,1.59088c1.21079,0.73075 1.82334,2.21548 3,3c0.9627,0.64186 2.39869,0.4108 3.26541,1.17734c1.76383,1.55997 3.12714,3.55277 4.35481,5.56211c0.31394,0.51383 1.7196,5.04611 2.05641,6.1114c0.50769,0.82349 1.2515,1.55876 1.755,2.38382c0.76792,-0.16613 1.67688,0.28608 2.48176,0.15137c1.03963,-0.174 1.95567,-0.85688 3,-1c6.0459,-0.82857 14.71739,-0.71128 20.08661,2.61396c5.49399,3.40252 10.95535,13.48001 7.60175,19.95129c-0.9732,1.87793 -3.19191,2.80597 -4.99045,3.91906c-0.77291,0.47834 -1.82675,0.32649 -2.61129,0.78551c-2.30019,1.34581 -3.81856,3.8244 -6.16113,5.09501c-4.69472,2.54642 -7.75854,1.68702 -11.94599,3.96915c-1.31821,0.80494 -2.46795,1.99606 -3.95464,2.41482c-2.43345,0.68543 -5.09437,-0.30907 -7.58321,0.13498c-1.88702,0.33668 -3.77517,0.67084 -5.67127,0.95167l-1.77215,0.59072c-0.24954,0.30584 -0.50728,0.5969 -0.8205,0.80513c-0.50838,0.5793 -1.02632,1.14175 -1.73483,1.36805c-3.83468,1.22481 -7.5025,-0.19779 -11.29905,1.11162c-0.70068,0.24166 -6.32705,2.11569 -6.7022,2.17282c-1.31814,0.20071 -2.68007,-0.18856 -4,0c-1.0435,0.14907 -1.95567,0.85688 -3,1c-4.96518,0.68046 -10.23612,-0.71489 -15.171,0.02439c-1.3592,0.20362 -2.63834,0.81356 -4,1c-1.92506,0.26358 -3.91619,-0.36567 -5.829,-0.02439c-1.03771,0.18514 -1.95873,0.83607 -3,1c-4.93438,0.77685 -10.73017,0.05811 -15.72082,0.05811c-4.97849,0 -9.20584,-0.53953 -14.27962,-1.0087c-7.38594,-0.68297 -15.08561,0.95864 -22.4412,-0.04941c-1.04433,-0.14312 -1.95266,-0.88085 -3,-1c-5.49812,-0.6255 -11.68839,1.13935 -17.13016,-0.02309c-1.93366,-0.41306 -3.65607,-1.51675 -5.53353,-2.13708c-2.40132,-0.79343 -8.26883,-1.5711 -9.79747,-3.09974c-1.52504,-1.52504 -1.45577,-4.06038 -2.18366,-6.09057c0,0 -0.23239,-0.92955 -0.05377,-2.03802c-0.00597,-0.02 -0.01183,-0.0401 -0.01756,-0.06031c-0.5927,-0.55488 -1.11984,-1.16369 -1.53057,-1.86972zM152.39341,409.54091c0.03557,0.00006 0.0711,0.00009 0.10659,0.00009c2.6405,0 5.28123,-0.03049 7.92165,-0.01901c0.39451,-0.32777 0.77975,-0.65803 1.16601,-0.98065c-2.85971,0.36601 -5.69499,0.93748 -8.53783,0.96594c-0.21643,0.00217 -0.43546,0.01425 -0.65642,0.03362zM176.78455,415.75923c-0.19521,0.14057 -0.39081,0.28034 -0.58718,0.41854c0.15124,0.04692 0.30457,0.09399 0.46009,0.14116l-0.32765,0.76024c0.20416,0.21193 0.41096,0.42033 0.62118,0.62416l-0.47894,0.31017c0.01697,-0.00495 0.03392,-0.00992 0.05086,-0.01491c0.32384,-0.09538 0.8944,0.23641 1.00955,-0.08094c0.16116,-0.44415 -0.37224,-0.87158 -0.49875,-1.32681c-0.07893,-0.28403 -0.16187,-0.56126 -0.24917,-0.8316z" fill="#ffffff" stroke="none" stroke-width="0.5"/><path d="M218.13262,353.79217c-0.89357,-0.13193 -1.77487,-0.29943 -2.56659,-0.68794c-1.49623,-0.73422 -2.50964,-2.25394 -4,-3c-1.19242,-0.59691 -2.661,-0.42228 -3.88652,-0.9479c-1.15687,-0.49618 -2.03432,-1.50275 -3.15659,-2.0729c-3.50799,-1.78216 -6.68153,-1.75064 -9.87587,-4.56238c-5.24601,-4.61766 -5.23083,-11.00929 0.48716,-15.30797c0.84255,-0.63342 2.09122,-0.46593 3,-1c3.14809,-1.85008 4.46312,-4.57152 8.64371,-4.32953c0.83498,-0.91948 1.40626,-2.17917 2.50493,-2.75844c2.50633,-1.32146 5.61975,-0.80638 8.36616,-1.5029c1.73997,-0.44128 3.24371,-1.62895 5,-2c4.40847,-0.93137 9.00286,0.38522 13.2944,0.9407c2.07519,0.26861 4.21036,-0.28922 6.2774,0.03621c1.04127,0.16393 1.96229,0.81486 3,1c2.51656,0.449 5.71795,-0.05811 8.27918,-0.05811c11.52928,0 22.54235,-3.66534 33.98725,-0.89037c5.76277,1.17976 11.59099,1.36746 17.29501,3.07692c3.00588,0.90084 6.08643,1.76233 8.80622,3.32744c1.24269,0.71511 2.0279,2.12673 3.33454,2.71693c0.7,0.31619 1.54015,-0.29909 2.2978,-0.17282c0.73171,0.12195 7.13926,2.32113 7.64497,2.61396c0.8159,0.47244 1.21593,1.47643 2,2c1.33479,0.89132 3.40453,0.85462 4.2848,2.19673c1.04111,1.58734 0.76474,3.73479 0.84941,5.6312c0.08522,1.90887 0.30684,3.92503 -0.34254,5.72208c-0.51696,1.43059 -1.95091,2.33559 -2.97548,3.45991c-1.74916,1.91947 -5.17808,6.06534 -7.45991,6.97548c-1.23845,0.49397 -2.73509,-0.42164 -4,0c-0.89443,0.29814 -1.11695,1.66968 -2,2c-1.30616,0.48859 -2.7815,0.20588 -4.17225,0.30883c-12.78838,3.31714 -26.40321,2.03372 -39.54982,2.03372c-5.51861,0 -10.16115,0.53553 -15.681,0.98868c-11.60112,0.95239 -23.66568,0.01132 -35.319,0.01132c0,0 -4.5,0 -4.5,-4.5c0,-0.46211 0.04745,-0.87677 0.13262,-1.24884z" fill="#ffffff" stroke="none" stroke-width="0.5"/><path d="M151.31802,472.37704c0.62802,-0.67538 1.48666,-1.02601 2.39175,-1.31125c0.36782,-3.62017 2.58568,-7.55955 4.60825,-9.68875c0.696,-0.73268 1.97451,-0.76037 2.6058,-1.54949c0.77494,-0.96868 0.52084,-2.56954 1.3942,-3.45051c0.81086,-0.81792 2.41813,-0.40421 3.23357,-1.21756c0.92272,-0.92036 0.73778,-2.57967 1.57486,-3.57857c0.9247,-1.10346 2.40174,-1.59593 3.5206,-2.50193c4.19154,-3.3941 7.85276,-7.88373 11.67097,-11.70194c1.87858,-1.86171 3.20472,-4.23164 5.08951,-6.08706c2.51667,-2.47745 6.55554,-3.50395 9,-6c1.62396,-1.65824 3.16378,-3.42477 4.44188,-5.36215c0.82089,-1.24433 1.17316,-2.75961 2,-4c0.4652,-0.69787 1.39317,-1.01419 1.82266,-1.73459c0.53978,-0.9054 0.41314,-2.12438 1,-3c0.89713,-1.33854 2.3229,-2.24381 3.34789,-3.48716c2.69341,-3.26719 5.26725,-6.29822 8.29806,-9.32903c0.85828,-0.85828 6.18935,-6.23496 6.81619,-6.64595c0.46749,-0.30651 5.97899,-2.12597 6.94277,-2.44115c5.80139,-1.89717 8.62204,-2.23093 14.42302,-2.23093c5.7381,0.0545 10.79063,2.41184 16.44342,3.0219c11.31854,1.22151 22.63336,3.97371 32.80891,9.58233c3.24402,1.78806 6.1026,6.61201 9.78156,7.51615c1.81649,0.44642 4.99942,-0.88425 6.41629,-1.08666c2.33333,-0.33333 4.66476,-0.68026 7,-1c5.28369,-0.72344 11.22464,-0.03372 16.54982,-0.03372c2.84996,0 5.72621,-0.35289 8.54982,0.03372c1.36166,0.18644 2.63426,0.84619 4,1c1.75602,0.19776 3.57003,-0.30735 5.30116,0.04748c2.02058,0.41416 3.84615,1.4915 5.77477,2.22274c5.79959,2.19893 12.39634,4.05924 17.74004,7.36813c1.417,0.87743 2.57095,2.14233 4,3c6.21416,3.72956 13.56834,7.43393 18.81619,12.64595c0.71702,0.71212 0.79788,1.93029 1.54949,2.6058c1.46255,1.31447 3.93234,0.76328 5.63432,1.74825c0.76784,0.44437 1.07878,1.47595 1.85135,1.91203c1.37842,0.77804 5.1936,0.31634 6.22627,0.4378c5.96603,0.70169 8.17714,2.04139 14.23337,4.30217c3.56395,1.53657 8.48841,3.08803 11.50519,5.99395c0.97114,0.93545 1.45983,2.27284 2.29806,3.32903c0.7437,0.93708 1.91809,1.55732 2.43586,2.63581c1.3685,2.85051 0.8104,6.28093 1.5029,9.36616c0.39313,1.75148 1.66188,3.23708 2,5c0.86969,4.53442 0.0812,9.23391 0.0812,13.85098c0,10.67613 0.56796,22.56933 -4.67207,32.36579c-1.58003,2.95393 -7.04379,6.44833 -10.00744,7.74952c-1.29069,0.56668 -2.80763,0.47568 -4.09842,1.04214c-1.9446,0.85338 -3.44368,2.73764 -5.52087,3.17926c-0.99385,0.2113 -17.56857,0.16328 -19.2012,0.16328c-13.16911,0 -26.10865,-0.08994 -39.23248,-1.00601c-7.39678,-0.51631 -14.88099,0.24418 -22.29355,-0.25015c-6.03037,-0.40215 -11.90832,-2.13526 -17.9191,-2.76591c-8.19547,-0.85987 -16.65162,-0.30324 -24.87388,-0.98925c-7.05244,-0.58841 -13.6425,-3.042 -20.681,-2.98868c0,0 -2.62074,0 -3.86222,-2c-0.96461,0 -1.92922,0 -2.89383,0c-0.61775,1.74779 -2.28461,3 -4.24394,3h-3c-3.42977,1.07125 -5.33884,-0.67641 -8.54982,-1.03372c-1.59727,-0.17774 -3.22084,0.16412 -4.82134,0.01838c-7.32767,-0.66725 -14.64552,-2.37041 -21.97839,-2.99826c-4.32422,-0.37025 -8.88945,0.57011 -13.20027,-0.02012c-13.33705,-1.8261 -26.42025,-4.89937 -40,-5c-0.56292,-0.13642 -7.71936,-1.8592 -8.54159,-2.10064c-1.9246,-0.56514 -4.23122,-0.51606 -5.72436,-1.85545c-1.15936,-1.03998 -5.31434,-7.94167 -3.77276,-11.14944c-0.37556,0.0334 -0.76239,0.02851 -1.13228,0.08115l-0.58194,-0.5336l-0.12026,0.36078l-2.90156,-0.96719c-1.83881,-0.56551 -3.17542,-2.27761 -3.17542,-4.30189c0,-1.36798 0.61041,-2.59339 1.57372,-3.41871c-3.77645,-4.14657 -5.9881,-9.67393 -1.2557,-14.76327zM169.623,500.20116c-0.5595,-0.26746 -1.11702,-0.53846 -1.66786,-0.82129c0.06432,0.31069 0.17633,0.55558 0.36063,0.66896c0.38007,0.23381 0.84049,0.19591 1.30723,0.15233z" fill="#ffffff" stroke="none" stroke-width="0.5"/><path d="M29.5,635.05902c-1.57403,-0.11418 -3.25959,0.25053 -4.72208,-0.34254c-2.34947,-0.95277 -3.28967,-3.21818 -5.13087,-4.67742c-2.64165,-2.09362 -5.87604,-3.92484 -7.79764,-6.84884c-2.88383,-4.3882 -4.12756,-9.41926 -3.84941,-14.6312c0.10919,-2.04591 -0.33944,-4.26932 0.53246,-6.12336c0.69037,-1.46803 2.65449,-1.89568 3.78556,-3.05862c1.0112,-1.0397 1.35279,-2.73916 2.58976,-3.49639c5.13412,-3.14293 9.65856,-0.97239 14.87014,-1.47909c0.15895,-0.01545 0.00438,-0.32882 0.07149,-0.47374c0.62636,-1.35274 1.33333,-2.66667 2,-4c3.06116,-2.98391 4.51665,-7.8174 5.19409,-11.99296c0.28881,-1.78015 -0.34588,-3.65656 0.07688,-5.40973c0.93894,-3.89376 2.70434,-5.12528 4.48753,-8.22478c2.38807,-4.15092 2.22131,-6.26962 7.17002,-8.89879c1.23154,-0.6543 2.79524,-0.08829 4.17225,-0.30883c5.42683,-0.86913 9.92056,-1.03372 15.54982,-1.03372c4.66572,0 8.86549,-0.27462 13.38451,1.21828c1.9484,0.64367 3.8712,1.38933 5.71046,2.29912c1.55484,0.7691 4.12743,3.07111 5.93892,3.60298c3.13017,0.91904 8.68178,-0.12038 11.96611,-0.12038c3.49774,0.01407 6.96383,0.66577 10.44342,1.0219c2.94111,0.30102 6.16525,-0.36288 9.10641,0.01182c6.59854,0.84063 12.64666,4.68446 19.59919,3.04748c1.62818,-0.38336 3.02237,-1.48316 4.63843,-1.91475c2.23421,-0.59668 4.53935,-0.93124 6.84139,-1.15111c4.43687,-0.42377 8.91411,-0.01533 13.37116,-0.01533c3.20808,0 6.47494,-0.56829 9.62416,0.0435c3.72995,0.7246 10.02057,2.92771 13.79887,4.18743c6.71447,2.23866 12.64983,4.04591 17.75896,9.08709c5.0565,5.22483 6.29892,11.21562 8.13856,17.92384c0.58722,2.1413 2.4001,3.81256 2.98637,5.95412c0.46714,1.70639 0.15994,3.53516 0.19309,5.30403c0.1172,6.2543 0.89712,11.596 -3.01996,16.85295c-3.37862,4.5343 -6.54838,5.18541 -11.75796,7.30451c-2.53367,1.03062 -6.0214,2.14607 -8.88508,3.41625c0.08483,0.01989 0.16963,0.0401 0.25442,0.06065l0.90859,-0.13436c0,0 4.5,0 4.5,4.5c0,4.5 -4.5,4.5 -4.5,4.5l-3.09141,-0.13436c-5.94306,-1.54549 -12.46376,-1.14296 -18.74286,-0.94428l-1.16573,0.07864c0,0 -0.17097,0 -0.44626,-0.03333c-0.85787,0.02035 -1.70983,0.03333 -2.55374,0.03333c-14.40578,0 -28.97991,0.77877 -43.27962,-1.0087c-7.93384,0.00791 -16.25187,0.63655 -24.1638,-0.0132c-5.88256,-0.4831 -11.68535,-1.89704 -17.47291,-3.07238c-3.77767,-0.76718 -7.68813,-0.57862 -11.52709,-0.92762c-1.69269,-0.15388 -3.30916,-0.82695 -5,-1c-4.71162,-0.48223 -9.81812,0.0219 -14.55658,0.0219c-8.34904,0 -16.69807,0 -25.04711,0c-1.30193,1 -2.95289,1 -2.95289,1z" fill="#ffffff" stroke="none" stroke-width="0.5"/><path d="M289.59258,660.05286c1.56174,-1.46168 2.8349,-3.35911 4.69027,-4.40974c2.57103,-1.45589 5.57996,-2.05208 8.49632,-2.52599c3.99523,-0.64923 7.64812,0.32317 11.44164,1c1.91281,0.34128 3.90432,-0.29065 5.829,-0.02439c1.28019,0.1771 2.45979,0.97363 3.75217,0.97643c2.67043,0.00578 5.3031,-0.63405 7.95465,-0.95108c4.49797,-0.87993 8.55914,-3.30849 13.02254,-4.00096c1.37392,-0.21316 2.79144,0.14856 4.171,-0.02439c1.36369,-0.17097 2.63557,-0.83503 4,-1c6.95538,-0.84094 15.58818,-0.4194 22.11108,2.2458c5.61236,2.29316 7.74426,4.16204 11.62072,8.0385c1.33333,1.33333 2.78733,2.55605 4,4c0.24828,0.29563 0.17863,0.88893 0.54009,1.02452c0.41292,0.15489 0.83736,-0.32262 1.27792,-0.34254c1.84809,-0.08359 3.71116,-0.17057 5.54982,0.03372c4.96594,0.55174 9.85477,2.18246 14.29363,4.3612c4.02011,1.60625 8.80409,1.90453 12.10496,4.70554c3.66959,3.1139 3.58249,6.43177 3.55159,10.39954c-0.01377,1.76913 0.35507,3.62191 -0.19309,5.30403c-1.72382,5.28987 -6.08997,6.8657 -10.37439,9.21151c-0.32161,0.24379 -0.66377,0.42721 -0.99658,0.56521c-2.77883,1.66058 -4.32522,3.51251 -7.90205,4.29887c-2.11113,0.46413 -4.33403,-0.13619 -6.48406,0.08666c-1.36704,0.14169 -2.63361,0.8521 -4,1c-0.42373,0.04587 -11.4038,0.03372 -11.54982,0.03372c-12.80118,0 -25.17708,-0.9668 -37.81126,-3.07373c-4.8882,-1.00058 -9.75554,-1.48144 -14.65253,-1.71252c-4.83194,0.0708 -9.6586,0.04745 -14.47218,-0.20686c-4.10371,0.05759 -8.59823,0.4449 -12.61385,-0.0406c-1.36443,-0.16497 -2.63705,-0.82323 -4,-1c-3.03162,-0.3932 -6.1385,0.36194 -9.171,-0.02439c-1.27518,-0.16245 -2.5418,-0.55574 -3.80484,-1.01077c-2.6424,0.0805 -5.28951,0.28168 -7.91776,0.04698c-6.01948,-0.53754 -11.52057,-1.9781 -17.55658,-1.9781c0,0 -4.5,0 -4.5,-4.5c0,-2.27262 1.14774,-3.39751 2.28393,-3.9543c-0.08059,-1.02228 -0.07925,-2.08565 -0.28393,-3.0457c0.11418,-1.57403 -0.2095,-3.24362 0.34254,-4.72208c0.44777,-1.19921 1.78817,-1.84985 2.50687,-2.90912c1.02573,-1.5118 1.38979,-3.49741 2.70218,-4.76835c0.9993,-0.96773 2.65844,-0.88537 3.85993,-1.58646c1.43951,-0.83999 2.55296,-2.17304 4,-3c0.82478,-0.47135 1.90863,-0.3523 2.72269,-0.84192c0.85581,-0.51473 1.25233,-1.64753 2.14865,-2.08797c1.06972,-0.52565 2.0443,-0.77897 2.95079,-0.96812c0.01639,-0.01065 0.03279,-0.02128 0.04921,-0.03188c0.89155,-0.57594 2.02403,-0.58694 3.08524,-0.78393c0.66961,-0.30473 1.31385,-0.75461 1.94992,-1.48216zM270.69705,682.21008c0.16625,0.0328 0.33126,0.07001 0.49516,0.11114c0.0232,-0.1821 0.04843,-0.36427 0.07569,-0.54647c-0.23038,0.11139 -0.44436,0.23563 -0.57085,0.43534z" fill="#ffffff" stroke="none" stroke-width="0.5"/><text transform="translate(165.5,30.70775) scale(0.87558,0.87558)" font-size="40" xml:space="preserve" fill="#000000" fill-rule="nonzero" stroke="none" stroke-width="1" stroke-linecap="butt" stroke-linejoin="miter" stroke-miterlimit="10" stroke-dasharray="" stroke-dashoffset="0" font-family="Sans Serif" font-weight="normal" text-anchor="start" style="mix-blend-mode: normal"><tspan x="0" dy="0">The Sky</tspan></text></g></g></svg>