<svg version="1.1" xmlns="http://www.w3.org/2000/svg" xmlns:xlink="http://www.w3.org/1999/xlink" width="137.91668" height="72.03051" viewBox="0,0,137.91668,72.03051"><g transform="translate(-178.75,-140.83333)"><g data-paper-data="{&quot;isPaintingLayer&quot;:true}" fill-rule="nonzero" stroke="#000000" stroke-linejoin="miter" stroke-miterlimit="10" stroke-dasharray="" stroke-dashoffset="0" style="mix-blend-mode: normal"><path d="M183,200.50001c-2.20914,0 -4,-1.335 -4,-2.98182v-35.03636c0,-1.64682 1.79086,-2.98182 4,-2.98182h114c2.20914,0 4,1.335 4,2.98182v35.03636c0,1.64682 -1.79086,2.98182 -4,2.98182z" fill="#000000" stroke-width="0.5" stroke-linecap="butt"/><path d="M252,180.00001c0,6.35127 -5.37258,11.5 -12,11.5c-6.62742,0 -12,-5.14873 -12,-11.5c0,-6.35127 5.37258,-11.5 12,-11.5c6.62742,0 12,5.14873 12,11.5z" fill="#ffffff" stroke-width="0" stroke-linecap="butt"/><path d="M288.33333,179.66668c0,6.35127 -5.37259,11.5 -12,11.5c-6.62741,0 -12,-5.14873 -12,-11.5c0,-6.35127 5.37259,-11.5 12,-11.5c6.62741,0 12,5.14873 12,11.5z" fill="#ffffff" stroke-width="0" stroke-linecap="butt"/><path d="M224.42701,145.33334h36.40632l51.33333,0.33333v55l0.00001,7.66667l-49.33333,-0.33333" fill="none" stroke-width="9" stroke-linecap="round"/></g></g></svg>