<svg version="1.1" xmlns="http://www.w3.org/2000/svg" xmlns:xlink="http://www.w3.org/1999/xlink" width="509" height="393" viewBox="0,0,509,393"><defs><radialGradient cx="240" cy="180" r="254.5" gradientUnits="userSpaceOnUse" id="color-1"><stop offset="0" stop-color="#000000"/><stop offset="1" stop-color="#004850"/></radialGradient></defs><g transform="translate(14.5,16.5)"><g data-paper-data="{&quot;isPaintingLayer&quot;:true}" fill-rule="nonzero" stroke-linecap="butt" stroke-linejoin="miter" stroke-miterlimit="10" stroke-dasharray="" stroke-dashoffset="0" style="mix-blend-mode: normal"><path d="M-10.5,376.5c-2.20914,0 -4,-1.79086 -4,-4v-385c0,-2.20914 1.79086,-4 4,-4h501c2.20914,0 4,1.79086 4,4v385c0,2.20914 -1.79086,4 -4,4z" fill="url(#color-1)" stroke="none" stroke-width="0"/><path d="M145.95057,42c-1.62956,0 -2.95057,-1.79086 -2.95057,-4v-36c0,-2.20914 1.32101,-4 2.95057,-4h188.09886c1.62956,0 2.95057,1.79086 2.95057,4v36c0,2.20914 -1.32101,4 -2.95057,4z" fill="#8b8b8b" stroke="#000000" stroke-width="7"/><path d="M159.53992,80.87629c-1.40277,0 -2.53992,-1.54162 -2.53992,-3.4433v-30.98969c0,-1.90168 1.13716,-3.4433 2.53992,-3.4433h161.92015c1.40277,0 2.53992,1.54162 2.53992,3.4433v30.98969c0,1.90168 -1.13716,3.4433 -2.53992,3.4433z" fill="#3c6883" stroke="#000000" stroke-width="7"/></g></g></svg>