<svg version="1.1" xmlns="http://www.w3.org/2000/svg" xmlns:xlink="http://www.w3.org/1999/xlink" width="191.48955" height="193.09633" viewBox="0,0,191.48955,193.09633"><g transform="translate(-264.25522,-263.45184)"><g data-paper-data="{&quot;isPaintingLayer&quot;:true}" fill-rule="nonzero" stroke-linejoin="miter" stroke-miterlimit="10" stroke-dasharray="" stroke-dashoffset="0" style="mix-blend-mode: normal"><path d="M272.3242,454.79816c-3.48989,0 -6.31897,-2.87746 -6.31897,-6.42699v-176.74234c0,-3.54953 2.82911,-6.42699 6.31897,-6.42699h175.35161c3.48989,0 6.31897,2.87747 6.31897,6.42699v176.74235c0,3.54953 -2.82911,6.42699 -6.31897,6.42699z" fill-opacity="0.87843" fill="#00ff66" stroke="#0d0000" stroke-width="3.5" stroke-linecap="butt"/><g><path d="M397.56209,380.15012c-3.48158,8.44043 -21.23044,10.09392 -36.88552,10.09392c-21.19787,0 -38.38212,-11.72744 -38.38212,-26.19397c0,-14.46653 17.18426,-26.19397 38.38212,-26.19397c17.0412,0 26.19002,5.71296 34.75455,18.65616c3.68341,3.98318 -10.34332,8.54476 -10.1636,12.19883c0.26639,5.41637 13.98019,8.58043 12.29458,11.43904zM370.48056,379.07956c0.09641,0.09816 0.24279,0.09817 0.24279,0.09817c0.725,0 1.27679,-0.33524 1.97612,-0.32936l0.33987,-0.20509c0,0 0.08274,-0.08274 0.09938,-0.19861c0.13351,-0.06836 0.25632,-0.15294 0.36408,-0.25773c0.08396,-0.0107 0.29057,-0.06338 0.29057,-0.32268c0,-0.3254 -0.3254,-0.3254 -0.3254,-0.3254l-0.37491,0.13675c-0.13102,0.22328 -0.46929,0.32803 -0.83703,0.37604c-0.03863,-0.03015 -0.0817,-0.04796 -0.11909,-0.05847c-0.05397,-0.23476 -0.31574,-0.23476 -0.31574,-0.23476h-0.10979c-0.50583,0.00557 -0.9993,0.07457 -1.50975,0.10025c-0.02553,-0.00229 -0.04056,-0.00229 -0.04056,-0.00229h-0.66275c0,0 -0.6508,0 -0.6508,0.6508c0,0.6508 0.6508,0.6508 0.6508,0.6508h0.66275c0,0 0.15877,0 0.31947,-0.07842z" data-paper-data="{&quot;index&quot;:null}" fill="#ffffff" stroke="#000000" stroke-width="7" stroke-linecap="butt"/><path d="M337.02393,375.01281c0,-2.88481 4.52792,-5.22341 10.11339,-5.22341c5.58547,0 10.11339,2.3386 10.11339,5.22341c0,2.88481 -4.52792,5.2234 -10.11339,5.2234c-5.58547,0 -10.11339,-2.33859 -10.11339,-5.2234z" data-paper-data="{&quot;index&quot;:null}" fill="#ff6666" stroke="none" stroke-width="0" stroke-linecap="butt"/><path d="M366.59887,352.57525c-3.79746,0 -6.87591,-1.14978 -6.87591,-2.56811c0,-1.41833 3.07845,-2.56811 6.87591,-2.56811c3.79746,0 6.87589,1.14977 6.87589,2.56811c0,1.41833 -3.07844,2.56811 -6.87589,2.56811z" data-paper-data="{&quot;index&quot;:null}" fill="none" stroke="#000000" stroke-width="0" stroke-linecap="butt"/><path d="M330.11143,364.19705c0,-2.8848 4.52792,-5.22339 10.11339,-5.22339c5.58547,0 10.11339,2.33859 10.11339,5.22339c0,2.8848 -4.52792,5.2234 -10.11339,5.2234c-5.58547,0 -10.11339,-2.33859 -10.11339,-5.2234z" data-paper-data="{&quot;index&quot;:null}" fill="#666cff" stroke="none" stroke-width="0" stroke-linecap="butt"/><path d="M338.44192,352.71857c0,-2.8848 4.52792,-5.22341 10.11339,-5.22341c5.58547,0 10.11339,2.33861 10.11339,5.22341c0,2.8848 -4.52792,5.22339 -10.11339,5.22339c-5.58547,0 -10.11339,-2.33859 -10.11339,-5.22339z" data-paper-data="{&quot;index&quot;:null}" fill="#69ff66" stroke="none" stroke-width="0" stroke-linecap="butt"/><path d="M391.27312,332.23863l-17.27251,30.58504l-5.68174,-4.44396l16.59069,-30.84647z" fill="#ffffff" stroke="#000000" stroke-width="2.5" stroke-linecap="round"/><path d="M367.28135,364.13859c0.47175,1.00065 -1.08911,3.07659 -2.85131,3.07659c-1.76221,0 -3.19077,-1.3262 -3.19077,-2.96213c0,-1.63594 1.42856,-2.96213 3.19077,-2.96213c0.74952,0 1.83173,0.15538 1.62685,0.63123c-0.57317,1.3311 0.81097,1.33934 1.22449,2.21645z" fill="#ff0000" stroke="none" stroke-width="0" stroke-linecap="butt"/><path d="M361.54315,364.33294c0,-2.02026 4.66327,-4.55156 7.24561,-4.55156c2.58234,0 4.67574,1.63775 4.67574,3.65801c0,2.02026 -2.0934,3.65801 -4.67574,3.65801c-1.57022,0 -2.19661,-1.70485 -5.50262,-0.94504c-1.08103,0.24845 -1.74299,-1.02758 -1.74299,-1.8194z" fill="none" stroke="#000000" stroke-width="2" stroke-linecap="butt"/><path d="M367.44297,374.01701c0.70677,-1.23685 5.6546,-1.86706 6.14919,-0.46941c0.82813,0.24865 1.38491,0.76693 1.38491,1.65065c0,1.28088 -7.33621,1.99936 -7.7081,1.34854l-0.64099,-1.12174c0.10357,-0.18124 0.26808,-0.36009 0.48051,-0.53218c0.03458,-0.24779 0.14152,-0.53814 0.3345,-0.87586z" fill="#000000" stroke="none" stroke-width="0.5" stroke-linecap="butt"/></g><text transform="translate(280.85774,303.23415) scale(0.6508,0.6508)" font-size="40" xml:space="preserve" fill-opacity="0.87843" fill="#001006" fill-rule="nonzero" stroke="none" stroke-width="1" stroke-linecap="butt" stroke-linejoin="miter" stroke-miterlimit="10" stroke-dasharray="" stroke-dashoffset="0" font-family="Handwriting" font-weight="normal" text-anchor="start" style="mix-blend-mode: normal"><tspan x="0" dy="0">Customization</tspan></text><text transform="translate(289.31733,424.21561) scale(0.6508,0.6508)" font-size="40" xml:space="preserve" fill-opacity="0.87843" fill="#001006" fill-rule="nonzero" stroke="none" stroke-width="1" stroke-linecap="butt" stroke-linejoin="miter" stroke-miterlimit="10" stroke-dasharray="" stroke-dashoffset="0" font-family="Handwriting" font-weight="normal" text-anchor="start" style="mix-blend-mode: normal"><tspan x="0" dy="0">Coming Soon</tspan></text></g></g></svg>