<svg version="1.1" xmlns="http://www.w3.org/2000/svg" xmlns:xlink="http://www.w3.org/1999/xlink" width="423.92878" height="543.82422" viewBox="0,0,423.92878,543.82422"><defs><linearGradient x1="309.19055" y1="154.82871" x2="309.19055" y2="564.74176" gradientUnits="userSpaceOnUse" id="color-1"><stop offset="0" stop-color="#263856"/><stop offset="1" stop-color="#004c94"/></linearGradient><linearGradient x1="410.8095" y1="154.82871" x2="410.8095" y2="564.74176" gradientUnits="userSpaceOnUse" id="color-2"><stop offset="0" stop-color="#263856"/><stop offset="1" stop-color="#004c94"/></linearGradient><linearGradient x1="360.00002" y1="564.34132" x2="360.00002" y2="154.42827" gradientUnits="userSpaceOnUse" id="color-3"><stop offset="0" stop-color="#004c94"/><stop offset="1" stop-color="#263856"/></linearGradient></defs><g transform="translate(-57.90204,-27.99715)"><g data-paper-data="{&quot;isPaintingLayer&quot;:true}" fill-rule="nonzero" stroke-linecap="butt" stroke-linejoin="miter" stroke-miterlimit="10" stroke-dasharray="" stroke-dashoffset="0" style="mix-blend-mode: normal"><path d="M276.75511,568.32137c-19.37741,0 -35.08589,-16.08605 -35.08589,-35.92921v-344.78431c0,-19.84316 15.70849,-35.92921 35.08589,-35.92921h166.48983c19.37741,0 35.08589,16.08605 35.08589,35.92921v344.78431c0,19.84316 -15.7085,35.92921 -35.08589,35.92921z" fill="#004221" stroke="#4bf144" stroke-width="7"/><g stroke="none" stroke-width="0"><path d="M257.82822,564.74176l51.36232,-409.91304l51.36232,409.91304z" fill="url(#color-1)"/><path d="M359.44718,564.74176l51.36232,-409.91304l51.36232,409.91304z" fill="url(#color-2)"/><path d="M411.36234,154.42827l-51.36232,409.91304l-51.36231,-409.91304z" data-paper-data="{&quot;index&quot;:null}" fill="url(#color-3)"/></g><path d="M276.75511,568.32136c-19.37741,0 -35.08589,-16.08605 -35.08589,-35.92921v-344.78431c0,-19.84316 15.70849,-35.92921 35.08589,-35.92921h166.48983c19.37741,0 35.08589,16.08605 35.08589,35.92921v344.78431c0,19.84316 -15.7085,35.92921 -35.08589,35.92921z" fill="none" stroke="#4bf144" stroke-width="7"/><text transform="translate(271.33335,239.43627) scale(0.5,0.5)" font-size="40" xml:space="preserve" fill="#5cad00" fill-rule="nonzero" stroke="none" stroke-width="1" stroke-linecap="butt" stroke-linejoin="miter" stroke-miterlimit="10" stroke-dasharray="" stroke-dashoffset="0" font-family="Curly" font-weight="normal" text-anchor="middle" style="mix-blend-mode: normal"><tspan x="0" dy="0"> </tspan></text><path d="M60.90505,43.01217c-1.65852,0 -3.003,-3.36123 -3.003,-7.50751v0c0,-4.14628 1.34449,-7.50751 3.003,-7.50751v0c1.65852,0 3.00301,3.36123 3.00301,7.50751v0c0,4.14628 -1.34449,7.50751 -3.00301,7.50751z" fill="none" stroke="none" stroke-width="0"/><text transform="translate(272.1633,240.26626) scale(0.5,0.5)" font-size="40" xml:space="preserve" fill="#5cad00" fill-rule="nonzero" stroke="none" stroke-width="1" stroke-linecap="butt" stroke-linejoin="miter" stroke-miterlimit="10" stroke-dasharray="" stroke-dashoffset="0" font-family="Curly" font-weight="normal" text-anchor="middle" style="mix-blend-mode: normal"><tspan x="0" dy="0"> </tspan></text></g></g></svg>