<svg version="1.1" xmlns="http://www.w3.org/2000/svg" xmlns:xlink="http://www.w3.org/1999/xlink" width="37.79315" height="117.71814" viewBox="0,0,37.79315,117.71814"><defs><radialGradient cx="359.65676" cy="394.73897" r="13.72185" gradientUnits="userSpaceOnUse" id="color-1"><stop offset="0" stop-color="#a2a8a4" stop-opacity="0.51765"/><stop offset="1" stop-color="#5c605c" stop-opacity="0.7451"/></radialGradient></defs><g transform="translate(-341.10343,-301.14093)"><g data-paper-data="{&quot;isPaintingLayer&quot;:true}" fill-rule="nonzero" stroke-linejoin="miter" stroke-miterlimit="10" stroke-dasharray="" stroke-dashoffset="0" style="mix-blend-mode: normal"><path d="M343.63514,418.66954c0,0 -1.97806,-27.69697 -2.4086,-41.28327c-0.69834,-22.03666 1.80211,-76.05581 1.80211,-76.05581h33.39926c0,0 3.26467,55.53535 2.28543,77.60699c-0.6225,14.03085 -2.28543,39.88371 -2.28543,39.88371z" fill="#c9f01a" stroke="none" stroke-width="0" stroke-linecap="butt"/><path d="M343.95511,418.85907c0,0 0,-13.52259 0,-19.81624c0,-5.72633 0,-16.40473 0,-16.40473h32.64115v36.22097z" fill-opacity="0.92157" fill="#c9f01a" stroke="none" stroke-width="0" stroke-linecap="butt"/><path d="M343.67943,383.6068v-82.46587h32.64115v82.46587z" fill-opacity="0.92157" fill="#c9f01a" stroke="none" stroke-width="0" stroke-linecap="butt"/><path d="M374.7005,415.11483c0,1.67478 -1.6971,3.03245 -3.79056,3.03245c-2.09347,0 -3.79056,-1.35767 -3.79056,-3.03245c0,-1.67478 1.6971,-3.03245 3.79056,-3.03245c2.09347,0 3.79056,1.35767 3.79056,3.03245z" fill-opacity="0.77647" fill="#4a8fd9" stroke="none" stroke-width="0" stroke-linecap="butt"/><path d="M352.94954,414.81158c0,1.67478 -1.6971,3.03245 -3.79056,3.03245c-2.09347,0 -3.79056,-1.35767 -3.79056,-3.03245c0,-1.67478 1.6971,-3.03245 3.79056,-3.03245c2.09347,0 3.79056,1.35767 3.79056,3.03245z" fill-opacity="0.77647" fill="#4a8fd9" stroke="none" stroke-width="0" stroke-linecap="butt"/><path d="M368.62248,393.03608h2.25059c0.88784,0 1.60757,0.90906 1.60757,2.03045c0,1.12138 -0.71973,2.03045 -1.60757,2.03045h-2.25059v7.3096c-0.02219,0.98121 -0.66996,1.75393 -1.44682,1.72589c-0.77686,-0.02803 -1.38863,-0.84619 -1.36643,-1.82741c-0.02219,-0.7289 -0.50802,-1.29705 -1.08511,-1.26902c-0.57709,0.02803 -1.02692,0.64165 -1.00473,1.37055c-0.02219,0.95318 -0.65196,1.70314 -1.40663,1.67513c-0.75466,-0.02803 -1.34844,-0.82346 -1.32625,-1.77664v-3.75633h-0.88415c-0.48227,0 -0.56265,-0.10153 -0.56265,-0.71065v-6.29438c0,-0.60913 0.08038,-0.71065 0.56265,-0.71065h0.88415c0.0444,-2.63525 1.77175,-4.72609 3.85816,-4.67003c2.08641,0.05606 3.74179,2.23782 3.69741,4.87307" fill="#ff6666" stroke="none" stroke-width="0" stroke-linecap="butt"/><path d="M368.64183,392.72526c2.34804,0 4.25149,1.05376 4.25149,2.35361c0,1.29985 -1.90346,2.35361 -4.25149,2.35361c-2.34804,0 -4.25149,-1.05376 -4.25149,-2.35361c0,-1.29985 1.90346,-2.35361 4.25149,-2.35361z" fill="#ffffff" stroke="none" stroke-width="0" stroke-linecap="butt"/><path d="M363.86638,403.0861v-1.46569h1.51623v1.46569z" fill="#000000" stroke="#000000" stroke-width="0.5" stroke-linecap="butt"/><path d="M366.6491,401.19123c0,1.05463 -0.89381,1.90957 -1.99636,1.90957c-1.10256,0 -1.99636,-0.85494 -1.99636,-1.90957c0,-1.05463 0.8938,-1.90957 1.99636,-1.90957c1.10256,0 1.99636,0.85494 1.99636,1.90957z" fill="none" stroke="#000000" stroke-width="1" stroke-linecap="butt"/><path d="M363.89511,401.73318v-0.80271h1.42703v0.80271z" fill="#000000" stroke="none" stroke-width="0" stroke-linecap="butt"/><path d="M362.86943,401.06425l1.7392,0.26757v1.33784" fill="none" stroke="#000000" stroke-width="0.5" stroke-linecap="round"/><path d="M366.21405,401.01965l-1.65001,0.22297l-0.08919,-1.96218" fill="none" stroke="#000000" stroke-width="0.5" stroke-linecap="round"/><path d="M345.93491,403.15402v-16.83011h27.4437v16.83011z" fill="url(#color-1)" stroke="none" stroke-width="0" stroke-linecap="butt"/><path d="M357.49393,407.48737c0,0 0,-1.61999 0,-2.37396c0,-0.68601 0,-1.96527 0,-1.96527h14.29481v4.33922z" fill="#c4f000" stroke="none" stroke-width="0" stroke-linecap="butt"/></g></g></svg>