<svg version="1.1" xmlns="http://www.w3.org/2000/svg" xmlns:xlink="http://www.w3.org/1999/xlink" width="779" height="747.74373" viewBox="0,0,779,747.74373"><g transform="translate(29.5,17.87186)"><g data-paper-data="{&quot;isPaintingLayer&quot;:true}" fill-rule="nonzero" stroke-linecap="butt" stroke-linejoin="miter" stroke-miterlimit="10" stroke-dasharray="" stroke-dashoffset="0" style="mix-blend-mode: normal"><path d="M-26,726.37187v-740.74373h772v740.74373z" fill="#000000" stroke="#000000" stroke-width="7"/><path d="M5.19603,708.21935c-0.79172,0 -1.43355,-0.53184 -1.43355,-1.18792v-702.06283c0,-0.65608 0.64183,-1.18792 1.43355,-1.18792h709.60793c0.79173,0 1.43355,0.53185 1.43355,1.18792v702.06283c0,0.65607 -0.64183,1.18792 -1.43355,1.18792z" fill-opacity="0.31373" fill="#035200" stroke="#4bf144" stroke-width="7"/><path d="M60.07507,38.18218c-1.65852,0 -3.003,-3.36123 -3.003,-7.50751v0c0,-4.14628 1.34449,-7.50751 3.003,-7.50751v0c1.65852,0 3.00301,3.36123 3.00301,7.50751v0c0,4.14628 -1.34449,7.50751 -3.00301,7.50751z" fill="none" stroke="none" stroke-width="0"/><text transform="translate(271.33333,235.43627) scale(0.5,0.5)" font-size="40" xml:space="preserve" fill="#5cad00" fill-rule="nonzero" stroke="none" stroke-width="1" stroke-linecap="butt" stroke-linejoin="miter" stroke-miterlimit="10" stroke-dasharray="" stroke-dashoffset="0" font-family="Curly" font-weight="normal" text-anchor="middle" style="mix-blend-mode: normal"><tspan x="0" dy="0"> </tspan></text><path d="M234.46997,670.14036c-29.22036,0 -52.90814,-24.25712 -52.90814,-54.17983v-519.92105c0,-29.92269 23.68778,-54.17983 52.90814,-54.17983h251.06006c29.22036,0 52.90814,24.25712 52.90814,54.17983v519.92105c0,29.92269 -23.68779,54.17983 -52.90814,54.17983z" fill="#000000" stroke="#4bf144" stroke-width="7"/></g></g></svg>