<svg version="1.1" xmlns="http://www.w3.org/2000/svg" xmlns:xlink="http://www.w3.org/1999/xlink" width="77.30886" height="30.97866" viewBox="0,0,77.30886,30.97866"><defs><radialGradient cx="359.99999" cy="359.99999" r="37.90442" gradientUnits="userSpaceOnUse" id="color-1"><stop offset="0" stop-color="#83ff66"/><stop offset="1" stop-color="#8aff1e"/></radialGradient></defs><g transform="translate(-321.34557,-347.0741)"><g data-paper-data="{&quot;isPaintingLayer&quot;:true}" fill-rule="nonzero" stroke-linecap="butt" stroke-linejoin="miter" stroke-miterlimit="10" stroke-dasharray="" stroke-dashoffset="0" style="mix-blend-mode: normal"><path d="M326.54684,372.1759c-2.45837,0 -4.45127,-1.91186 -4.45127,-4.27027v-15.81126c0,-2.35841 1.9929,-4.27027 4.45127,-4.27027h66.90632c2.45837,0 4.45127,1.91186 4.45127,4.27027v15.81126c0,2.35841 -1.9929,4.27027 -4.45127,4.27027z" fill="url(#color-1)" stroke="#000000" stroke-width="1.5"/><g stroke="#000000"><path d="M341.37873,359.87697c0,5.61224 -3.74717,10.16186 -8.36954,10.16186c-4.62236,0 -8.36953,-4.54961 -8.36953,-10.16186c0,-5.61224 3.74716,-10.16187 8.36953,-10.16187c4.62236,0 8.36954,4.54963 8.36954,10.16187z" fill="#e9ff59" stroke-width="0.5"/><path d="M331.14301,365.25618v-9.90129h3.16685v9.90129z" fill="#868c61" stroke-width="0"/></g><text transform="translate(340.72096,367.06193) scale(0.55791,0.55791)" font-size="40" xml:space="preserve" fill="#000000" fill-rule="nonzero" stroke="none" stroke-width="1" stroke-linecap="butt" stroke-linejoin="miter" stroke-miterlimit="10" stroke-dasharray="" stroke-dashoffset="0" font-family="Scratch" font-weight="normal" text-anchor="start" style="mix-blend-mode: normal"><tspan x="0" dy="0">1000</tspan></text></g></g></svg>