<svg version="1.1" xmlns="http://www.w3.org/2000/svg" xmlns:xlink="http://www.w3.org/1999/xlink" width="734" height="726.43867" viewBox="0,0,734,726.43867"><g transform="translate(5.49999,0.71932)"><g data-paper-data="{&quot;isPaintingLayer&quot;:true}" fill-rule="nonzero" stroke-linecap="butt" stroke-linejoin="miter" stroke-miterlimit="10" stroke-dasharray="" stroke-dashoffset="0" style="mix-blend-mode: normal"><path d="M-5.49999,725.71935v-726.43867h734v726.43867z" fill="#000000" stroke="none" stroke-width="none"/><path d="M60.07508,42.18219c-1.65852,0 -3.003,-3.36123 -3.003,-7.50751v0c0,-4.14628 1.34449,-7.50751 3.003,-7.50751v0c1.65852,0 3.00301,3.36123 3.00301,7.50751v0c0,4.14628 -1.34449,7.50751 -3.00301,7.50751z" fill="none" stroke="none" stroke-width="0"/><path d="M5.19605,712.21935c-0.79173,0 -1.43355,-0.53185 -1.43355,-1.18792v-702.06283c0,-0.65607 0.64182,-1.18792 1.43355,-1.18792h709.60793c0.79173,0 1.43355,0.53185 1.43355,1.18792v702.06283c0,0.65607 -0.64182,1.18792 -1.43355,1.18792z" fill="#031202" stroke="#4bf144" stroke-width="7"/><path d="M276.7551,568.32138c-19.37741,0 -35.08589,-16.08605 -35.08589,-35.92921v-344.78431c0,-19.84316 15.70849,-35.92921 35.08589,-35.92921h166.48983c19.37741,0 35.08589,16.08605 35.08589,35.92921v344.78431c0,19.84316 -15.7085,35.92921 -35.08589,35.92921z" fill="#000000" stroke="#4bf144" stroke-width="7"/><text transform="translate(362.7294,26.56994) scale(0.29765,0.29039)" font-size="40" xml:space="preserve" fill="#ffffff" fill-rule="nonzero" stroke="none" stroke-width="1" stroke-linecap="butt" stroke-linejoin="miter" stroke-miterlimit="10" stroke-dasharray="" stroke-dashoffset="0" font-family="Bits and Bytes" font-weight="normal" text-anchor="middle" style="mix-blend-mode: normal"><tspan x="0" dy="0">Questionable buisness</tspan><tspan x="0" dy="48px">practices</tspan></text><text transform="translate(271.33334,239.43628) scale(0.5,0.5)" font-size="40" xml:space="preserve" fill="#5cad00" fill-rule="nonzero" stroke="none" stroke-width="1" stroke-linecap="butt" stroke-linejoin="miter" stroke-miterlimit="10" stroke-dasharray="" stroke-dashoffset="0" font-family="Curly" font-weight="normal" text-anchor="middle" style="mix-blend-mode: normal"><tspan x="0" dy="0"> </tspan></text><path d="M234.46998,674.14037c-29.22036,0 -52.90814,-24.25712 -52.90814,-54.17983v-519.92105c0,-29.92269 23.68778,-54.17983 52.90814,-54.17983h251.06006c29.22036,0 52.90814,24.25712 52.90814,54.17983v519.92105c0,29.92269 -23.68779,54.17983 -52.90814,54.17983z" fill="#000000" stroke="#4bf144" stroke-width="7"/><text transform="translate(284.69584,699.76876) scale(0.5,0.5)" font-size="40" xml:space="preserve" fill="#ffffff" fill-rule="nonzero" stroke="none" stroke-width="1" stroke-linecap="butt" stroke-linejoin="miter" stroke-miterlimit="10" stroke-dasharray="" stroke-dashoffset="0" font-family="Serif" font-weight="normal" text-anchor="start" style="mix-blend-mode: normal"><tspan x="0" dy="0">© Radical Lettuce™</tspan></text></g></g></svg>