<svg version="1.1" xmlns="http://www.w3.org/2000/svg" xmlns:xlink="http://www.w3.org/1999/xlink" width="59.65558" height="185.81524" viewBox="0,0,59.65558,185.81524"><defs><radialGradient cx="359.567" cy="414.83462" r="21.65961" gradientUnits="userSpaceOnUse" id="color-1"><stop offset="0" stop-color="#a2a8a4" stop-opacity="0.51765"/><stop offset="1" stop-color="#5c605c" stop-opacity="0.7451"/></radialGradient></defs><g transform="translate(-330.17221,-267.09238)"><g data-paper-data="{&quot;isPaintingLayer&quot;:true}" fill-rule="nonzero" stroke-linejoin="miter" stroke-miterlimit="10" stroke-dasharray="" stroke-dashoffset="0" style="mix-blend-mode: normal"><path d="M334.16846,452.60845c0,0 -3.12231,-43.719 -3.80192,-65.16464c-1.10232,-34.78434 2.84459,-120.05226 2.84459,-120.05226h52.71993c0,0 5.1532,87.66121 3.6075,122.50076c-0.98259,22.14736 -3.6075,62.95548 -3.6075,62.95548z" fill="#9966ff" stroke="none" stroke-width="0" stroke-linecap="butt"/><path d="M334.23837,452.90762c0,0 0,-21.34508 0,-31.27945c0,-9.03888 0,-25.89447 0,-25.89447h51.52326v57.17392z" fill="#9966ff" stroke="none" stroke-width="0" stroke-linecap="butt"/><path d="M334.23837,397.26277v-130.17039h51.52326v130.17039z" fill="#9966ff" stroke="none" stroke-width="0" stroke-linecap="butt"/><path d="M383.20439,446.99743c0,2.6436 -2.67883,4.78665 -5.98332,4.78665c-3.30449,0 -5.98332,-2.14306 -5.98332,-4.78665c0,-2.6436 2.67883,-4.78665 5.98332,-4.78665c3.30449,0 5.98332,2.14306 5.98332,4.78665z" fill-opacity="0.77647" fill="#4a8fd9" stroke="none" stroke-width="0" stroke-linecap="butt"/><path d="M348.87103,446.51876c0,2.6436 -2.67883,4.78665 -5.98332,4.78665c-3.30449,0 -5.98332,-2.14306 -5.98332,-4.78665c0,-2.6436 2.67883,-4.78665 5.98332,-4.78665c3.30449,0 5.98332,2.14306 5.98332,4.78665z" fill-opacity="0.77647" fill="#4a8fd9" stroke="none" stroke-width="0" stroke-linecap="butt"/><path d="M373.61038,412.14667h3.55251c1.40142,0 2.53751,1.43493 2.53751,3.20501c0,1.77008 -1.13608,3.20501 -2.53751,3.20501h-3.55251v11.53803c-0.03503,1.54881 -1.05752,2.76853 -2.28376,2.72426c-1.22626,-0.04425 -2.19192,-1.33569 -2.15688,-2.88452c-0.03503,-1.15054 -0.8019,-2.04737 -1.71282,-2.00312c-0.91092,0.04425 -1.62096,1.01283 -1.58594,2.16338c-0.03503,1.50458 -1.02911,2.68838 -2.22033,2.64415c-1.19122,-0.04425 -2.12848,-1.29982 -2.09345,-2.80438v-5.92928h-1.39562c-0.76126,0 -0.88813,-0.16027 -0.88813,-1.12175v-9.93553c0,-0.96151 0.12688,-1.12175 0.88813,-1.12175h1.39562c0.07008,-4.15967 2.79666,-7.46002 6.09001,-7.37153c3.29335,0.08849 5.90634,3.53235 5.83627,7.69202" fill="#ff6666" stroke="none" stroke-width="0" stroke-linecap="butt"/><path d="M373.64093,411.65603c3.70632,0 6.71088,1.66333 6.71088,3.71511c0,2.05179 -3.00457,3.71511 -6.71088,3.71511c-3.70632,0 -6.71088,-1.66333 -6.71088,-3.71511c0,-2.05179 3.00457,-3.71511 6.71088,-3.71511z" fill="#ffffff" stroke="none" stroke-width="0" stroke-linecap="butt"/><path d="M366.10298,428.01038v-2.31355h2.39333v2.31355z" fill="#000000" stroke="#000000" stroke-width="0.5" stroke-linecap="butt"/><path d="M370.49544,425.01937c0,1.6647 -1.41085,3.0142 -3.15121,3.0142c-1.74037,0 -3.15121,-1.3495 -3.15121,-3.0142c0,-1.6647 1.41084,-3.0142 3.15121,-3.0142c1.74037,0 3.15121,1.3495 3.15121,3.0142z" fill="none" stroke="#000000" stroke-width="1" stroke-linecap="butt"/><path d="M366.14835,425.87481v-1.26706h2.25254v1.26706z" fill="#000000" stroke="none" stroke-width="0" stroke-linecap="butt"/><path d="M364.52933,424.81894l2.74529,0.42235v2.11175" fill="none" stroke="#000000" stroke-width="0.5" stroke-linecap="round"/><path d="M369.80874,424.74854l-2.6045,0.35196l-0.14078,-3.09725" fill="none" stroke="#000000" stroke-width="0.5" stroke-linecap="round"/><path d="M337.90739,428.11759v-26.56593h43.31922v26.56593z" fill="url(#color-1)" stroke="none" stroke-width="0" stroke-linecap="butt"/><path d="M356.04423,434.95767c0,0 0,-2.55711 0,-3.74724c0,-1.08285 0,-3.10212 0,-3.10212h22.56401v6.84937z" fill="#9966ff" stroke="none" stroke-width="0" stroke-linecap="butt"/></g></g></svg>