<svg version="1.1" xmlns="http://www.w3.org/2000/svg" xmlns:xlink="http://www.w3.org/1999/xlink" width="59.54548" height="185.47228" viewBox="0,0,59.54548,185.47228"><defs><radialGradient cx="359.67636" cy="414.73341" r="21.61963" gradientUnits="userSpaceOnUse" id="color-1"><stop offset="0" stop-color="#a2a8a4" stop-opacity="0.51765"/><stop offset="1" stop-color="#5c605c" stop-opacity="0.7451"/></radialGradient></defs><g transform="translate(-330.22726,-267.26386)"><g data-paper-data="{&quot;isPaintingLayer&quot;:true}" fill-rule="nonzero" stroke-linejoin="miter" stroke-miterlimit="10" stroke-dasharray="" stroke-dashoffset="0" style="mix-blend-mode: normal"><path d="M334.21613,452.43752c0,0 -3.11655,-43.63831 -3.7949,-65.04437c-1.10028,-34.72013 2.83934,-119.83069 2.83934,-119.83069h52.62263c0,0 5.14369,87.49942 3.60084,122.27466c-0.98078,22.10648 -3.60084,62.83929 -3.60084,62.83929z" fill="#36ffff" stroke="none" stroke-width="0" stroke-linecap="butt"/><path d="M334.72026,452.73614c0,0 0,-21.30568 0,-31.22172c0,-9.02219 0,-25.84668 0,-25.84668h51.42817v57.0684z" fill="#36ffff" stroke="none" stroke-width="0" stroke-linecap="butt"/><path d="M334.2859,397.19399v-129.93013h51.42817v129.93013z" fill="#36ffff" stroke="none" stroke-width="0" stroke-linecap="butt"/><path d="M383.16155,446.83686c0,2.63871 -2.67389,4.77781 -5.97227,4.77781c-3.29839,0 -5.97227,-2.1391 -5.97227,-4.77781c0,-2.63871 2.67389,-4.77781 5.97227,-4.77781c3.29839,0 5.97227,2.1391 5.97227,4.77781z" fill-opacity="0.77647" fill="#4a8fd9" stroke="none" stroke-width="0" stroke-linecap="butt"/><path d="M348.89156,446.35908c0,2.63871 -2.67389,4.77781 -5.97227,4.77781c-3.29839,0 -5.97227,-2.1391 -5.97227,-4.77781c0,-2.63871 2.67389,-4.77781 5.97227,-4.77781c3.29839,0 5.97227,2.1391 5.97227,4.77781z" fill-opacity="0.77647" fill="#4a8fd9" stroke="none" stroke-width="0" stroke-linecap="butt"/><path d="M373.58525,412.05042h3.54596c1.39883,0 2.53283,1.43228 2.53283,3.1991c0,1.76682 -1.13398,3.1991 -2.53283,3.1991h-3.54596v11.51673c-0.03496,1.54595 -1.05556,2.76341 -2.27955,2.71924c-1.22399,-0.04417 -2.18787,-1.33323 -2.1529,-2.87919c-0.03496,-1.14842 -0.80042,-2.0436 -1.70966,-1.99942c-0.90925,0.04417 -1.61797,1.01097 -1.58301,2.15939c-0.03496,1.5018 -1.0272,2.68341 -2.21622,2.63927c-1.18902,-0.04417 -2.12455,-1.29742 -2.08959,-2.7992v-5.91834h-1.39304c-0.75986,0 -0.88649,-0.15998 -0.88649,-1.11968v-9.91718c0,-0.95973 0.12665,-1.11968 0.88649,-1.11968h1.39304c0.06995,-4.152 2.7915,-7.44625 6.07877,-7.35792c3.28727,0.08833 5.89543,3.52583 5.8255,7.67782" fill="#ff6666" stroke="none" stroke-width="0" stroke-linecap="butt"/><path d="M373.61574,411.56069c3.69948,0 6.69849,1.66025 6.69849,3.70825c0,2.048 -2.99902,3.70825 -6.69849,3.70825c-3.69948,0 -6.69849,-1.66025 -6.69849,-3.70825c0,-2.048 2.99902,-3.70825 6.69849,-3.70825z" fill="#ffffff" stroke="none" stroke-width="0" stroke-linecap="butt"/><path d="M366.09171,427.88486v-2.30928h2.38891v2.30928z" fill="#000000" stroke="#000000" stroke-width="0.5" stroke-linecap="butt"/><path d="M370.47606,424.89935c0,1.66163 -1.40825,3.00864 -3.1454,3.00864c-1.73715,0 -3.1454,-1.34701 -3.1454,-3.00864c0,-1.66163 1.40824,-3.00864 3.1454,-3.00864c1.73715,0 3.1454,1.34701 3.1454,3.00864z" fill="none" stroke="#000000" stroke-width="1" stroke-linecap="butt"/><path d="M366.13699,425.75322v-1.26472h2.24838v1.26472z" fill="#000000" stroke="none" stroke-width="0" stroke-linecap="butt"/><path d="M364.52096,424.6993l2.74022,0.42157v2.10785" fill="none" stroke="#000000" stroke-width="0.5" stroke-linecap="round"/><path d="M369.79062,424.62903l-2.5997,0.35132l-0.14052,-3.09153" fill="none" stroke="#000000" stroke-width="0.5" stroke-linecap="round"/><path d="M338.05673,427.99186v-26.51689h43.23926v26.51689z" fill="url(#color-1)" stroke="none" stroke-width="0" stroke-linecap="butt"/><path d="M356.05152,434.81932c0,0 0,-2.55239 0,-3.74033c0,-1.08085 0,-3.0964 0,-3.0964h22.52237v6.83673z" fill="#36ffff" stroke="none" stroke-width="0" stroke-linecap="butt"/></g></g></svg>