<svg version="1.1" xmlns="http://www.w3.org/2000/svg" xmlns:xlink="http://www.w3.org/1999/xlink" width="37.67348" height="117.34539" viewBox="0,0,37.67348,117.34539"><defs><radialGradient cx="359.72655" cy="394.62896" r="13.6784" gradientUnits="userSpaceOnUse" id="color-1"><stop offset="0" stop-color="#a2a8a4" stop-opacity="0.51765"/><stop offset="1" stop-color="#5c605c" stop-opacity="0.7451"/></radialGradient></defs><g transform="translate(-341.16326,-301.3273)"><g data-paper-data="{&quot;isPaintingLayer&quot;:true}" fill-rule="nonzero" stroke-linejoin="miter" stroke-miterlimit="10" stroke-dasharray="" stroke-dashoffset="0" style="mix-blend-mode: normal"><path d="M343.68696,418.48376c0,0 -1.97179,-27.60927 -2.40098,-41.15254c-0.69614,-21.96688 1.79641,-75.81498 1.79641,-75.81498h33.2935c0,0 3.25433,55.35949 2.27819,77.36124c-0.62052,13.98643 -2.27819,39.75743 -2.27819,39.75743z" fill="#9966ff" stroke="none" stroke-width="0" stroke-linecap="butt"/><path d="M343.73111,418.6727c0,0 0,-13.47977 0,-19.75349c0,-5.7082 0,-16.35279 0,-16.35279h32.53779v36.10628z" fill="#9966ff" stroke="none" stroke-width="0" stroke-linecap="butt"/><path d="M343.73111,383.53205v-82.20474h32.53779v82.20474z" fill="#9966ff" stroke="none" stroke-width="0" stroke-linecap="butt"/><path d="M374.65396,414.94031c0,1.66948 -1.69173,3.02284 -3.77857,3.02284c-2.08684,0 -3.77857,-1.35337 -3.77857,-3.02284c0,-1.66948 1.69173,-3.02284 3.77857,-3.02284c2.08684,0 3.77857,1.35337 3.77857,3.02284z" fill-opacity="0.77647" fill="#4a8fd9" stroke="none" stroke-width="0" stroke-linecap="butt"/><path d="M352.97188,414.63802c0,1.66948 -1.69173,3.02284 -3.77857,3.02284c-2.08684,0 -3.77857,-1.35337 -3.77857,-3.02284c0,-1.66948 1.69173,-3.02284 3.77857,-3.02284c2.08684,0 3.77857,1.35337 3.77857,3.02284z" fill-opacity="0.77647" fill="#4a8fd9" stroke="none" stroke-width="0" stroke-linecap="butt"/><path d="M368.59518,392.93148h2.24347c0.88502,0 1.60248,0.90619 1.60248,2.02402c0,1.11783 -0.71745,2.02402 -1.60248,2.02402h-2.24347v7.28645c-0.02212,0.97809 -0.66784,1.74837 -1.44223,1.72041c-0.77441,-0.02794 -1.38424,-0.84351 -1.36211,-1.82163c-0.02212,-0.72659 -0.50641,-1.29294 -1.08168,-1.265c-0.57526,0.02794 -1.02366,0.63962 -1.00155,1.36621c-0.02212,0.95016 -0.6499,1.69775 -1.40217,1.66982c-0.75228,-0.02794 -1.34417,-0.82086 -1.32205,-1.77101v-3.74443h-0.88136c-0.48075,0 -0.56087,-0.10121 -0.56087,-0.70841v-6.27445c0,-0.60721 0.08013,-0.70841 0.56087,-0.70841h0.88136c0.04426,-2.6269 1.76613,-4.71113 3.84594,-4.65525c2.07981,0.05588 3.72995,2.23074 3.6857,4.85764" fill="#ff6666" stroke="none" stroke-width="0" stroke-linecap="butt"/><path d="M368.61448,392.62163c2.3406,0 4.23803,1.05042 4.23803,2.34615c0,1.29574 -1.89743,2.34615 -4.23803,2.34615c-2.3406,0 -4.23803,-1.05042 -4.23803,-2.34615c0,-1.29574 1.89743,-2.34615 4.23803,-2.34615z" fill="#ffffff" stroke="none" stroke-width="0" stroke-linecap="butt"/><path d="M363.85414,402.94967v-1.46105h1.51143v1.46105z" fill="#000000" stroke="#000000" stroke-width="0.5" stroke-linecap="butt"/><path d="M366.62805,401.06081c0,1.05129 -0.89098,1.90352 -1.99004,1.90352c-1.09908,0 -1.99004,-0.85223 -1.99004,-1.90352c0,-1.05129 0.89097,-1.90352 1.99004,-1.90352c1.09908,0 1.99004,0.85223 1.99004,1.90352z" fill="none" stroke="#000000" stroke-width="1" stroke-linecap="butt"/><path d="M363.88279,401.60102v-0.80017h1.42252v0.80017z" fill="#000000" stroke="none" stroke-width="0" stroke-linecap="butt"/><path d="M362.86035,400.93423l1.73369,0.26672v1.33361" fill="none" stroke="#000000" stroke-width="0.5" stroke-linecap="round"/><path d="M366.19439,400.88976l-1.64478,0.22227l-0.0889,-1.95596" fill="none" stroke="#000000" stroke-width="0.5" stroke-linecap="round"/><path d="M346.04816,403.01738v-16.77683h27.3568v16.77683z" fill="url(#color-1)" stroke="none" stroke-width="0" stroke-linecap="butt"/><path d="M357.50187,407.337c0,0 0,-1.61486 0,-2.36645c0,-0.68384 0,-1.95904 0,-1.95904h14.24955v4.32549z" fill="#9966ff" stroke="none" stroke-width="0" stroke-linecap="butt"/></g></g></svg>