<svg version="1.1" xmlns="http://www.w3.org/2000/svg" xmlns:xlink="http://www.w3.org/1999/xlink" width="59.54547" height="185.47228" viewBox="0,0,59.54547,185.47228"><defs><radialGradient cx="359.45921" cy="414.73342" r="21.61963" gradientUnits="userSpaceOnUse" id="color-1"><stop offset="0" stop-color="#a2a8a4" stop-opacity="0.51765"/><stop offset="1" stop-color="#5c605c" stop-opacity="0.7451"/></radialGradient></defs><g transform="translate(-330.22727,-267.26386)"><g data-paper-data="{&quot;isPaintingLayer&quot;:true}" fill-rule="nonzero" stroke-linejoin="miter" stroke-miterlimit="10" stroke-dasharray="" stroke-dashoffset="0" style="mix-blend-mode: normal"><path d="M334.21614,452.43753c0,0 -3.11655,-43.6383 -3.7949,-65.04437c-1.10028,-34.72014 2.83934,-119.83068 2.83934,-119.83068h52.62262c0,0 5.14369,87.49941 3.60084,122.27466c-0.98078,22.10648 -3.60084,62.83928 -3.60084,62.83928z" fill="#c9f01a" stroke="none" stroke-width="0" stroke-linecap="butt"/><path d="M334.72027,452.73614c0,0 0,-21.30568 0,-31.22172c0,-9.02219 0,-25.84667 0,-25.84667h51.42817v57.0684z" fill-opacity="0.92157" fill="#c9f01a" stroke="none" stroke-width="0" stroke-linecap="butt"/><path d="M334.28592,397.19399v-129.93013h51.42817v129.93013z" fill-opacity="0.92157" fill="#c9f01a" stroke="none" stroke-width="0" stroke-linecap="butt"/><path d="M383.16156,446.83686c0,2.63872 -2.67388,4.77782 -5.97227,4.77782c-3.29839,0 -5.97227,-2.1391 -5.97227,-4.77782c0,-2.63872 2.67388,-4.77782 5.97227,-4.77782c3.29839,0 5.97227,2.1391 5.97227,4.77782z" fill-opacity="0.77647" fill="#4a8fd9" stroke="none" stroke-width="0" stroke-linecap="butt"/><path d="M348.89157,446.35908c0,2.63872 -2.67388,4.77782 -5.97227,4.77782c-3.29839,0 -5.97227,-2.1391 -5.97227,-4.77782c0,-2.63872 2.67388,-4.77782 5.97227,-4.77782c3.29839,0 5.97227,2.1391 5.97227,4.77782z" fill-opacity="0.77647" fill="#4a8fd9" stroke="none" stroke-width="0" stroke-linecap="butt"/><path d="M373.58526,412.05042h3.54595c1.39884,0 2.53283,1.43228 2.53283,3.1991c0,1.76681 -1.13398,3.1991 -2.53283,3.1991h-3.54595v11.51673c-0.03496,1.54595 -1.05556,2.76342 -2.27955,2.71924c-1.22399,-0.04417 -2.18787,-1.33323 -2.1529,-2.8792c-0.03496,-1.14842 -0.80042,-2.04359 -1.70966,-1.99942c-0.90924,0.04417 -1.61797,1.01096 -1.58301,2.15938c-0.03496,1.5018 -1.02721,2.68341 -2.21623,2.63927c-1.18902,-0.04417 -2.12455,-1.29742 -2.08959,-2.7992v-5.91833h-1.39304c-0.75985,0 -0.88649,-0.15997 -0.88649,-1.11968v-9.91719c0,-0.95973 0.12665,-1.11968 0.88649,-1.11968h1.39304c0.06995,-4.152 2.7915,-7.44625 6.07877,-7.35792c3.28727,0.08833 5.89543,3.52583 5.8255,7.67782" fill="#ff6666" stroke="none" stroke-width="0" stroke-linecap="butt"/><path d="M373.61575,411.56069c3.69948,0 6.69849,1.66026 6.69849,3.70826c0,2.048 -2.99902,3.70826 -6.69849,3.70826c-3.69948,0 -6.69849,-1.66026 -6.69849,-3.70826c0,-2.048 2.99902,-3.70826 6.69849,-3.70826z" fill="#ffffff" stroke="none" stroke-width="0" stroke-linecap="butt"/><path d="M366.09172,427.88485v-2.30928h2.38891v2.30928z" fill="#000000" stroke="#000000" stroke-width="0.5" stroke-linecap="butt"/><path d="M370.47607,424.89936c0,1.66163 -1.40825,3.00864 -3.14539,3.00864c-1.73716,0 -3.14539,-1.34701 -3.14539,-3.00864c0,-1.66163 1.40824,-3.00864 3.14539,-3.00864c1.73716,0 3.14539,1.34701 3.14539,3.00864z" fill="none" stroke="#000000" stroke-width="1" stroke-linecap="butt"/><path d="M366.137,425.75323v-1.26472h2.24838v1.26472z" fill="#000000" stroke="none" stroke-width="0" stroke-linecap="butt"/><path d="M364.52097,424.6993l2.74022,0.42157v2.10785" fill="none" stroke="#000000" stroke-width="0.5" stroke-linecap="round"/><path d="M369.79063,424.62903l-2.59969,0.35131l-0.14052,-3.09154" fill="none" stroke="#000000" stroke-width="0.5" stroke-linecap="round"/><path d="M337.83958,427.99186v-26.51689h43.23926v26.51689z" fill="url(#color-1)" stroke="none" stroke-width="0" stroke-linecap="butt"/><path d="M356.05154,434.81932c0,0 0,-2.55239 0,-3.74033c0,-1.08085 0,-3.0964 0,-3.0964h22.52236v6.83672z" fill="#c4f000" stroke="none" stroke-width="0" stroke-linecap="butt"/></g></g></svg>