<svg version="1.1" xmlns="http://www.w3.org/2000/svg" xmlns:xlink="http://www.w3.org/1999/xlink" width="59.2931" height="186.47187" viewBox="0,0,59.2931,186.47187"><defs><radialGradient cx="359.67775" cy="415.0284" r="21.52799" gradientUnits="userSpaceOnUse" id="color-1"><stop offset="0" stop-color="#a2a8a4" stop-opacity="0.51765"/><stop offset="1" stop-color="#5c605c" stop-opacity="0.7451"/></radialGradient></defs><g transform="translate(-330.35345,-266.76406)"><g data-paper-data="{&quot;isPaintingLayer&quot;:true}" fill-rule="nonzero" stroke-linejoin="miter" stroke-miterlimit="10" stroke-dasharray="" stroke-dashoffset="0" style="mix-blend-mode: normal"><path d="M334.32542,452.93571c0,0 -3.10333,-43.8735 -3.77882,-65.39492c-1.09562,-34.90725 2.82731,-120.47651 2.82731,-120.47651h52.39959c0,0 5.12189,87.97098 3.58557,122.93365c-0.97662,22.22563 -3.58557,63.17795 -3.58557,63.17795z" fill="#36ff37" stroke="none" stroke-width="0" stroke-linecap="butt"/><path d="M334.82741,453.23594c0,0 0,-21.4205 0,-31.38999c0,-9.07082 0,-25.98597 0,-25.98597h51.21019v57.37596z" fill="#36ff37" stroke="none" stroke-width="0" stroke-linecap="butt"/><path d="M334.39489,397.39445v-130.63039h51.21019v130.63039z" fill="#36ff37" stroke="none" stroke-width="0" stroke-linecap="butt"/><path d="M383.06339,447.30487c0,2.65294 -2.66255,4.80357 -5.94696,4.80357c-3.28441,0 -5.94696,-2.15064 -5.94696,-4.80357c0,-2.65294 2.66255,-4.80357 5.94696,-4.80357c3.28441,0 5.94696,2.15064 5.94696,4.80357z" fill-opacity="0.77647" fill="#4a8fd9" stroke="none" stroke-width="0" stroke-linecap="butt"/><path d="M348.93864,446.8245c0,2.65294 -2.66255,4.80357 -5.94696,4.80357c-3.28441,0 -5.94696,-2.15064 -5.94696,-4.80357c0,-2.65294 2.66255,-4.80357 5.94696,-4.80357c3.28441,0 5.94696,2.15064 5.94696,4.80357z" fill-opacity="0.77647" fill="#4a8fd9" stroke="none" stroke-width="0" stroke-linecap="butt"/><path d="M373.52766,412.33094h3.53092c1.39291,0 2.52209,1.44 2.52209,3.21634c0,1.77634 -1.12918,3.21634 -2.52209,3.21634h-3.53092v11.5788c-0.03481,1.55428 -1.05109,2.77832 -2.26988,2.73389c-1.21881,-0.04442 -2.1786,-1.34041 -2.14378,-2.89471c-0.03481,-1.15461 -0.79703,-2.05461 -1.70241,-2.0102c-0.90539,0.04442 -1.61111,1.01641 -1.5763,2.17102c-0.03481,1.5099 -1.02285,2.69788 -2.20683,2.65349c-1.18398,-0.04442 -2.11554,-1.30441 -2.08073,-2.81429v-5.95023h-1.38714c-0.75663,0 -0.88274,-0.16083 -0.88274,-1.12571v-9.97063c0,-0.9649 0.12612,-1.12571 0.88274,-1.12571h1.38714c0.06965,-4.17438 2.77967,-7.48638 6.053,-7.39757c3.27334,0.08881 5.87044,3.54483 5.8008,7.71921" fill="#ff6666" stroke="none" stroke-width="0" stroke-linecap="butt"/><path d="M373.55804,411.83858c3.6838,0 6.67009,1.6692 6.67009,3.72824c0,2.05904 -2.98632,3.72824 -6.67009,3.72824c-3.6838,0 -6.67009,-1.6692 -6.67009,-3.72824c0,-2.05904 2.98632,-3.72824 6.67009,-3.72824z" fill="#ffffff" stroke="none" stroke-width="0" stroke-linecap="butt"/><path d="M366.06589,428.25071v-2.32172h2.37879v2.32172z" fill="#000000" stroke="#000000" stroke-width="0.5" stroke-linecap="butt"/><path d="M370.43165,425.24914c0,1.67059 -1.40229,3.02486 -3.13206,3.02486c-1.72979,0 -3.13206,-1.35427 -3.13206,-3.02486c0,-1.67059 1.40227,-3.02486 3.13206,-3.02486c1.72979,0 3.13206,1.35427 3.13206,3.02486z" fill="none" stroke="#000000" stroke-width="1" stroke-linecap="butt"/><path d="M366.11097,426.1076v-1.27155h2.23885v1.27155z" fill="#000000" stroke="none" stroke-width="0" stroke-linecap="butt"/><path d="M364.5018,425.04799l2.72861,0.42384v2.11921" fill="none" stroke="#000000" stroke-width="0.5" stroke-linecap="round"/><path d="M369.74912,424.97734l-2.58867,0.3532l-0.13992,-3.1082" fill="none" stroke="#000000" stroke-width="0.5" stroke-linecap="round"/><path d="M338.14974,428.35831v-26.6598h43.05599v26.6598z" fill="url(#color-1)" stroke="none" stroke-width="0" stroke-linecap="butt"/><path d="M356.06826,435.22256c0,0 0,-2.56615 0,-3.76049c0,-1.08668 0,-3.11308 0,-3.11308h22.4269v6.87357z" fill="#36ff37" stroke="none" stroke-width="0" stroke-linecap="butt"/></g></g></svg>