<svg version="1.1" xmlns="http://www.w3.org/2000/svg" xmlns:xlink="http://www.w3.org/1999/xlink" width="88.20803" height="88.93202" viewBox="0,0,88.20803,88.93202"><g transform="translate(-315.89598,-315.53399)"><g data-paper-data="{&quot;isPaintingLayer&quot;:true}" fill-rule="nonzero" stroke="#0d0000" stroke-width="3.5" stroke-linecap="butt" stroke-linejoin="miter" stroke-miterlimit="10" stroke-dasharray="" stroke-dashoffset="0" style="mix-blend-mode: normal"><path d="M320.49331,402.71601c-1.57253,0 -2.84733,-1.29658 -2.84733,-2.89599v-79.64004c0,-1.59942 1.27479,-2.89599 2.84733,-2.89599h79.01338c1.57253,0 2.84733,1.29658 2.84733,2.89599v79.64004c0,1.59942 -1.27479,2.89599 -2.84733,2.89599z" fill-opacity="0.87843" fill="#00ff66"/><g fill="#ffffff"><path d="M349.72597,391.86521l-19.90948,-9.87113l19.64642,-10.38484z" data-paper-data="{&quot;index&quot;:null}"/><path d="M390.1835,358.26966c0,2.57213 -0.62533,7.03779 -2.47925,9.84117c-0.20862,0.31546 -1.2162,2.38219 -1.4115,2.65956c-3.32738,4.72533 -9.51946,7.71695 -15.73825,10.32683c-6.18278,2.59477 -14.96028,4.66071 -19.67439,4.66071c-1.04169,0 -1.78386,-11.95468 -1.78386,-11.95468c0,0 11.43995,0.42013 18.69808,-3.34617c5.35656,-2.77956 10.33292,-5.48831 10.33292,-10.41915c0,-3.00417 -1.07707,-7.45645 -3.70741,-10.65305c-2.27265,-2.76191 -7.51384,-5.18645 -11.96536,-6.56654c-10.67118,-3.30835 -26.75791,-1.44459 -26.75791,-1.44459c0,0 -1.08833,-13.16434 -0.24847,-13.16434c11.95672,0 25.24432,-1.29716 39.58982,6.92554c14.3455,8.22269 15.14558,22.87421 15.14558,23.13473z"/></g></g></g></svg>