<svg version="1.1" xmlns="http://www.w3.org/2000/svg" xmlns:xlink="http://www.w3.org/1999/xlink" width="1302.15315" height="745.0847" viewBox="0,0,1302.15315,745.0847"><defs><linearGradient x1="640" y1="-12.54235" x2="640" y2="732.54235" gradientUnits="userSpaceOnUse" id="color-1"><stop offset="0" stop-color="#9966ff"/><stop offset="1" stop-color="#66ff9d"/></linearGradient></defs><g transform="translate(11.07658,12.54235)"><g data-paper-data="{&quot;isPaintingLayer&quot;:true}" fill-rule="nonzero" stroke="none" stroke-linecap="butt" stroke-linejoin="miter" stroke-miterlimit="10" stroke-dasharray="" stroke-dashoffset="0" style="mix-blend-mode: normal"><path d="M-11.07658,732.54235v-745.0847h1302.15315v745.0847z" fill="url(#color-1)" stroke-width="0"/><path d="M73.96089,223.32025c0,0 -2.13573,-12.0076 4.38821,-18.26261c4.52761,-4.34097 17.27089,-3.64417 21.01555,-3.64417c39.13693,0 278.71384,-0.51892 278.71384,-0.51892c0,0 11.4294,-0.78157 17.10021,2.8732c5.03233,3.24328 4.38182,10.67722 4.39171,14.80322c0.07732,32.27879 -1.64104,280.21127 -1.64104,280.21127c0,0 -0.16055,3.9625 -2.42402,5.62404c-2.26347,1.66154 -8.63699,2.49549 -8.63699,2.49549c0,0 -304.36342,-1.04676 -305.07879,-1.08329c-0.80572,-0.04113 -5.66448,-0.89506 -5.6866,-5.27536c-0.02212,-4.3803 -2.14206,-277.22287 -2.14206,-277.22287z" fill="#444444" stroke-width="0"/><path d="M180.70838,252.20008v-40.49356h117.94189v40.49356z" fill="#9e9e9e" stroke-width="0"/><text transform="translate(120.13399,242.61337) scale(1.14887,0.94867)" font-size="40" xml:space="preserve" fill="#ff0000" fill-rule="nonzero" stroke="none" stroke-width="1" stroke-linecap="butt" stroke-linejoin="miter" stroke-miterlimit="10" stroke-dasharray="" stroke-dashoffset="0" font-family="Sans Serif" font-weight="normal" text-anchor="start" style="mix-blend-mode: normal"><tspan x="0" dy="0"> </tspan></text><path d="M97.39855,216.24622c0,4.47043 -3.62401,8.09442 -8.09442,8.09442c-4.47041,0 -8.09442,-3.62401 -8.09442,-8.09442c0,-4.47041 3.62401,-8.09442 8.09442,-8.09442c4.47043,0 8.09442,3.62401 8.09442,8.09442z" fill="#292929" stroke-width="0"/><path d="M393.39,215.3385c0,4.47043 -3.62401,8.09442 -8.09442,8.09442c-4.47041,0 -8.09442,-3.62401 -8.09442,-8.09442c0,-4.47041 3.62401,-8.09442 8.09442,-8.09442c4.47043,0 8.09442,3.62401 8.09442,8.09442z" fill="#292929" stroke-width="0"/><path d="M101.55762,488.95902c0,4.47043 -3.62401,8.09442 -8.09442,8.09442c-2.51534,0 -4.76272,-1.14732 -6.24734,-2.94719c-1.15394,-1.39896 -1.84708,-3.19215 -1.84708,-5.14723c0,-4.47043 3.62401,-8.09442 8.09442,-8.09442c4.47043,0 8.09442,3.62399 8.09442,8.09442z" fill="#292929" stroke-width="0"/><path d="M392.00234,492.13523c0,4.47043 -3.62401,8.09442 -8.09442,8.09442c-4.47041,0 -8.09442,-3.62399 -8.09442,-8.09442c0,-4.47043 3.62401,-8.09442 8.09442,-8.09442c4.47043,0 8.09442,3.62399 8.09442,8.09442z" fill="#292929" stroke-width="0"/><text transform="translate(184.48594,241.92397) scale(0.87713,0.87713)" font-size="40" xml:space="preserve" fill="#ff0000" fill-rule="nonzero" stroke="none" stroke-width="1" stroke-linecap="butt" stroke-linejoin="miter" stroke-miterlimit="10" stroke-dasharray="" stroke-dashoffset="0" font-family="Sans Serif" font-weight="normal" text-anchor="start" style="mix-blend-mode: normal"><tspan x="0" dy="0">Online</tspan></text><g><path d="M416.50012,391.48419l1.40773,-175.98283c0,0 1.85539,-14.80257 10.98496,-14.80257c39.09056,0 307.16095,0.13734 307.16095,0.13734c0,0 7.05677,5.82074 7.07776,11.55945c0.08653,23.6503 -0.03913,178.22597 -0.03913,178.22597c0,0 -3.71372,10.35193 -9.15019,10.35193c-47.7821,0 -282.31475,0.86266 -308.99573,0.86266c-4.84197,0 -8.44634,-10.35193 -8.44634,-10.35193z" fill="#444444" stroke-width="0"/><path d="M460.99367,250.20308v-40.49356h242.56652v40.49356z" fill="#9e9e9e" stroke-width="0"/><text transform="translate(463.48234,242.11787) scale(1.14887,0.94867)" font-size="40" xml:space="preserve" fill="#ff0000" fill-rule="nonzero" stroke="none" stroke-width="1" stroke-linecap="butt" stroke-linejoin="miter" stroke-miterlimit="10" stroke-dasharray="" stroke-dashoffset="0" font-family="Sans Serif" font-weight="normal" text-anchor="start" style="mix-blend-mode: normal"><tspan x="0" dy="0">Skin Picker</tspan></text><path d="M440.7469,215.75072c0,4.47043 -3.62401,8.09442 -8.09442,8.09442c-4.47041,0 -8.09442,-3.62401 -8.09442,-8.09442c0,-4.47041 3.62401,-8.09442 8.09442,-8.09442c4.47043,0 8.09442,3.62401 8.09442,8.09442z" fill="#292929" stroke-width="0"/><path d="M739.73842,212.843c0,4.47043 -3.62401,8.09442 -8.09442,8.09442c-4.47041,0 -8.09442,-3.62401 -8.09442,-8.09442c0,-4.47041 3.62401,-8.09442 8.09442,-8.09442c4.47043,0 8.09442,3.62401 8.09442,8.09442z" fill="#292929" stroke-width="0"/><path d="M440.43147,388.39235c0,4.47043 -3.62401,8.09442 -8.09442,8.09442c-4.47041,0 -8.09442,-3.62399 -8.09442,-8.09442c0,-4.47043 3.62401,-8.09442 8.09442,-8.09442c4.47043,0 8.09442,3.62399 8.09442,8.09442z" fill="#292929" stroke-width="0"/><path d="M735.35001,387.68849c0,4.47043 -3.62401,8.09442 -8.09442,8.09442c-4.47041,0 -8.09442,-3.62399 -8.09442,-8.09442c0,-4.47043 3.62401,-8.09442 8.09442,-8.09442c4.47043,0 8.09442,3.62399 8.09442,8.09442z" fill="#292929" stroke-width="0"/></g><g><path d="M416.50011,531.33613l1.39216,-102c0,0 3.78511,-8 12.81372,-8c38.65828,0 301.81396,-0.5 301.81396,-0.5c0,0 6.97873,3.37371 6.99949,6.69988c0.08558,13.70776 -0.0387,103.30013 -0.0387,103.30013c0,0 -3.67265,6 -9.049,6c-47.25369,0 -279.19275,0.5 -305.57868,0.5c-4.78842,0 -8.35293,-6 -8.35293,-6z" fill="#444444" stroke-width="0"/><path d="M504.50013,465.83613v-38h151v38z" fill="#9e9e9e" stroke-width="0"/><text transform="translate(509.5302,455.18566) scale(0.81612,0.6739)" font-size="40" xml:space="preserve" fill="#ff0000" fill-rule="nonzero" stroke="none" stroke-width="1" stroke-linecap="butt" stroke-linejoin="miter" stroke-miterlimit="10" stroke-dasharray="" stroke-dashoffset="0" font-family="Sans Serif" font-weight="normal" text-anchor="start" style="mix-blend-mode: normal"><tspan x="0" dy="0">Difficulty</tspan></text><path d="M435.5001,431.78613c0,3.17564 -2.57437,5.75 -5.75,5.75c-3.17563,0 -5.75,-2.57437 -5.75,-5.75c0,-3.17563 2.57437,-5.75 5.75,-5.75c3.17564,0 5.75,2.57437 5.75,5.75z" fill="#292929" stroke-width="0"/><path d="M734.00019,429.78613c0,3.17564 -2.57437,5.75 -5.75,5.75c-3.17563,0 -5.75,-2.57437 -5.75,-5.75c0,-3.17563 2.57437,-5.75 5.75,-5.75c3.17564,0 5.75,2.57437 5.75,5.75z" fill="#292929" stroke-width="0"/><path d="M433.5001,527.78613c0,3.17564 -2.57437,5.75 -5.75,5.75c-3.17563,0 -5.75,-2.57436 -5.75,-5.75c0,-3.17564 2.57437,-5.75 5.75,-5.75c3.17564,0 5.75,2.57436 5.75,5.75z" fill="#292929" stroke-width="0"/><path d="M737.00023,528.28613c0,3.17564 -2.57437,5.75 -5.75,5.75c-3.17563,0 -5.75,-2.57436 -5.75,-5.75c0,-3.17564 2.57437,-5.75 5.75,-5.75c3.17564,0 5.75,2.57436 5.75,5.75z" fill="#292929" stroke-width="0"/></g><g><path d="M415.00012,701.50781l1.39,-132.58154c0,0 3.27538,-10.93777 12.29002,-10.93777c38.59844,0 301.85069,-0.65236 301.85069,-0.65236c0,0 6.96793,4.40175 6.98866,8.74147c0.08544,17.8848 -0.03864,134.77785 -0.03864,134.77785c0,0 -3.66697,7.82833 -9.03499,7.82833c-47.18056,0 -278.76063,0.65236 -305.10572,0.65236c-4.78101,0 -8.34001,-7.82833 -8.34001,-7.82833z" fill="#444444" stroke-width="0"/><path d="M459.50012,592.50138v-30.64163h242v30.64163z" fill="#9e9e9e" stroke-width="0"/><text transform="translate(460.53018,584.84014) scale(0.78921,0.67318)" font-size="40" xml:space="preserve" fill="#ff0000" fill-rule="nonzero" stroke="none" stroke-width="1" stroke-linecap="butt" stroke-linejoin="miter" stroke-miterlimit="10" stroke-dasharray="" stroke-dashoffset="0" font-family="Sans Serif" font-weight="normal" text-anchor="start" style="mix-blend-mode: normal"><tspan x="0" dy="0">Others Settings</tspan></text><path d="M433.0001,568.12284c0,3.59104 -2.57437,6.50215 -5.75,6.50215c-3.17563,0 -5.75,-2.91112 -5.75,-6.50215c0,-3.59103 2.57437,-6.50215 5.75,-6.50215c3.17564,0 5.75,2.91112 5.75,6.50215z" fill="#292929" stroke-width="0"/><path d="M734.50023,566.70867c0,3.59104 -2.57437,6.50215 -5.75,6.50215c-3.17563,0 -5.75,-2.91112 -5.75,-6.50215c0,-3.59103 2.57437,-6.50215 5.75,-6.50215c3.17564,0 5.75,2.91112 5.75,6.50215z" fill="#292929" stroke-width="0"/><path d="M431.00012,699.12605c0,3.72911 -2.57437,6.75215 -5.75,6.75215c-3.17563,0 -5.75,-3.02304 -5.75,-6.75215c0,-3.72911 2.57437,-6.75215 5.75,-6.75215c3.17564,0 5.75,3.02304 5.75,6.75215z" fill="#292929" stroke-width="0"/><path d="M734.50023,697.87605c0,3.59104 -2.57437,6.50215 -5.75,6.50215c-3.17563,0 -5.75,-2.91111 -5.75,-6.50215c0,-3.59104 2.57437,-6.50215 5.75,-6.50215c3.17564,0 5.75,2.91111 5.75,6.50215z" fill="#292929" stroke-width="0"/></g><g><path d="M529.50006,80.58285l0.92507,-72.30591c0,0 4.17637,-5.67105 10.17575,-5.67105c25.68788,0 198.88994,-0.35444 198.88994,-0.35444c0,0 4.63727,2.39156 4.65106,4.74942c0.05686,9.71718 -0.02571,73.22754 -0.02571,73.22754c0,0 -2.44043,4.25329 -6.01294,4.25329c-31.39942,0 -185.51968,0.35444 -203.05276,0.35444c-3.18184,0 -5.55041,-4.25329 -5.55041,-4.25329z" fill="#444444" stroke-width="0"/><text transform="translate(556.2361,35.23525) scale(1.03509,0.83064)" font-size="40" xml:space="preserve" fill="#ff0000" fill-rule="nonzero" stroke="none" stroke-width="1" stroke-linecap="butt" stroke-linejoin="miter" stroke-miterlimit="10" stroke-dasharray="" stroke-dashoffset="0" font-family="Sans Serif" font-weight="normal" text-anchor="start" style="mix-blend-mode: normal"><tspan x="0" dy="0">Settings</tspan><tspan x="0" dy="46.15px">  Menu</tspan></text><path d="M547.74686,74.75073c0,4.47043 -3.62401,8.09442 -8.09442,8.09442c-4.47041,0 -8.09442,-3.62401 -8.09442,-8.09442c0,-4.47041 3.62401,-8.09442 8.09442,-8.09442c4.47043,0 8.09442,3.62401 8.09442,8.09442z" fill="#292929" stroke-width="0"/><path d="M741.74701,74.25073c0,4.47043 -3.62401,8.09442 -8.09442,8.09442c-4.47041,0 -8.09442,-3.62401 -8.09442,-8.09442c0,-4.47041 3.62401,-8.09442 8.09442,-8.09442c4.47043,0 8.09442,3.62401 8.09442,8.09442z" fill="#292929" stroke-width="0"/><path d="M549.24686,13.25073c0,4.47043 -3.62401,8.09442 -8.09442,8.09442c-4.47041,0 -8.09442,-3.62401 -8.09442,-8.09442c0,-4.47041 3.62401,-8.09442 8.09442,-8.09442c4.47043,0 8.09442,3.62401 8.09442,8.09442z" fill="#292929" stroke-width="0"/><path d="M742.74701,11.25073c0,4.47043 -3.62401,8.09442 -8.09442,8.09442c-4.47041,0 -8.09442,-3.62401 -8.09442,-8.09442c0,-4.47041 3.62401,-8.09442 8.09442,-8.09442c4.47043,0 8.09442,3.62401 8.09442,8.09442z" fill="#292929" stroke-width="0"/></g><g stroke-width="0"><path d="M1141.29051,700.0292l0.54578,-56.74418c0,0 1.28608,-4.68131 4.82569,-4.68131c15.15572,0 118.52202,-0.27921 118.52202,-0.27921c0,0 2.73597,1.88393 2.74411,3.7413c0.03355,7.6546 -0.01517,57.68419 -0.01517,57.68419c0,0 -1.43984,3.35048 -3.5476,3.35048c-18.5255,0 -109.45568,0.27921 -119.80011,0.27921c-1.87727,0 -3.27472,-3.35048 -3.27472,-3.35048z" fill="#444444"/><path d="M1151.39444,644.90402c0,2.47375 -1.7734,4.47909 -3.96097,4.47909c-2.18757,0 -3.96097,-2.00536 -3.96097,-4.47909c0,-2.47373 1.7734,-4.47909 3.96097,-4.47909c2.18759,0 3.96097,2.00536 3.96097,4.47909z" fill="#292929"/><path d="M1266.6348,643.57978c0,2.22393 -1.59431,4.02677 -3.56097,4.02677c-1.96666,0 -3.56097,-1.80285 -3.56097,-4.02677c0,-2.22392 1.59431,-4.02677 3.56097,-4.02677c1.96667,0 3.56097,1.80285 3.56097,4.02677z" fill="#292929"/><path d="M1150.8051,698.03249c0,2.504 -1.72862,4.53388 -3.86097,4.53388c-2.13235,0 -3.86097,-2.02988 -3.86097,-4.53388c0,-2.504 1.72862,-4.53388 3.86097,-4.53388c2.13236,0 3.86097,2.02988 3.86097,4.53388z" fill="#292929"/><path d="M1266.6348,696.55245c0,2.59865 -1.86294,4.70525 -4.16097,4.70525c-2.29803,0 -4.16097,-2.10662 -4.16097,-4.70525c0,-2.59865 1.86294,-4.70525 4.16097,-4.70525c2.29805,0 4.16097,2.10662 4.16097,4.70525z" fill="#292929"/></g><text transform="translate(811.32024,231.09686) scale(1.14887,0.94867)" font-size="40" xml:space="preserve" fill="#ff0000" fill-rule="nonzero" stroke="none" stroke-width="1" stroke-linecap="butt" stroke-linejoin="miter" stroke-miterlimit="10" stroke-dasharray="" stroke-dashoffset="0" font-family="Sans Serif" font-weight="normal" text-anchor="start" style="mix-blend-mode: normal"><tspan x="0" dy="0"> </tspan></text><text transform="translate(123.55815,426.71685) scale(0.40751,0.40751)" font-size="40" xml:space="preserve" fill="#9966ff" fill-rule="nonzero" stroke="none" stroke-width="1" stroke-linecap="butt" stroke-linejoin="miter" stroke-miterlimit="10" stroke-dasharray="" stroke-dashoffset="0" font-family="Sans Serif" font-weight="normal" text-anchor="start" style="mix-blend-mode: normal"><tspan x="0" dy="0">     Account is required for </tspan><tspan x="0" dy="46.15px">lettuce online and highscore </tspan><tspan x="0" dy="46.15px">       sharing functionality</tspan></text><path d="M766.14117,238.1069c0,0 -2.13573,-19.77042 4.38821,-30.06925c4.52761,-7.14739 17.27089,-6.00009 21.01555,-6.00009c39.13693,0 278.71384,-0.8544 278.71384,-0.8544c0,0 11.4294,-1.28684 17.10021,4.73071c5.03233,5.34004 4.38182,17.57997 4.39171,24.37339c0.07732,53.14679 -1.64104,461.36585 -1.64104,461.36585c0,0 -0.16055,6.52422 -2.42402,9.25994c-2.26347,2.73572 -8.63699,4.1088 -8.63699,4.1088c0,0 -304.36342,-1.7235 -305.07879,-1.78362c-0.80572,-0.06772 -5.66448,-1.47371 -5.6866,-8.68585c-0.02212,-7.21214 -2.14206,-456.44547 -2.14206,-456.44547z" fill="#444444" stroke-width="0"/><path d="M811.83157,266.44333v-40.49356h230.5545v40.49356z" fill="#9e9e9e" stroke-width="0"/><text transform="translate(810.31423,495.85662) scale(1.14887,0.94867)" font-size="40" xml:space="preserve" fill="#ff0000" fill-rule="nonzero" stroke="none" stroke-width="1" stroke-linecap="butt" stroke-linejoin="miter" stroke-miterlimit="10" stroke-dasharray="" stroke-dashoffset="0" font-family="Sans Serif" font-weight="normal" text-anchor="start" style="mix-blend-mode: normal"><tspan x="0" dy="0"> </tspan></text><path d="M784.57879,214.48947c0,4.47043 -3.62401,8.09442 -8.09442,8.09442c-4.47041,0 -8.09442,-3.62401 -8.09442,-8.09442c0,-4.47041 3.62401,-8.09442 8.09442,-8.09442c4.47043,0 8.09442,3.62401 8.09442,8.09442z" fill="#292929" stroke-width="0"/><path d="M1085.57018,214.58175c0,4.47043 -3.62401,8.09442 -8.09442,8.09442c-4.47041,0 -8.09442,-3.62401 -8.09442,-8.09442c0,-4.47041 3.62401,-8.09442 8.09442,-8.09442c4.47043,0 8.09442,3.62401 8.09442,8.09442z" fill="#292929" stroke-width="0"/><path d="M785.88022,688.62766c0,4.47043 -3.62401,8.09442 -8.09442,8.09442c-2.51534,0 -4.76272,-1.14732 -6.24734,-2.94719c-1.15394,-1.39896 -1.84708,-3.19215 -1.84708,-5.14723c0,-4.47043 3.62401,-8.09442 8.09442,-8.09442c4.47043,0 8.09442,3.62399 8.09442,8.09442z" fill="#292929" stroke-width="0"/><path d="M1085.18251,689.94623c0,4.47043 -3.62401,8.09442 -8.09442,8.09442c-4.47041,0 -8.09442,-3.62399 -8.09442,-8.09442c0,-4.47043 3.62401,-8.09442 8.09442,-8.09442c4.47043,0 8.09442,3.62399 8.09442,8.09442z" fill="#292929" stroke-width="0"/><text transform="translate(816.60913,256.32795) scale(0.78416,0.78416)" font-size="40" xml:space="preserve" fill="#ff0000" fill-rule="nonzero" stroke="none" stroke-width="1" stroke-linecap="butt" stroke-linejoin="miter" stroke-miterlimit="10" stroke-dasharray="" stroke-dashoffset="0" font-family="Sans Serif" font-weight="normal" text-anchor="start" style="mix-blend-mode: normal"><tspan x="0" dy="0">Sound Options</tspan></text><path d="M821.57662,400.82606v-115h203v115z" fill="#43bf43" stroke-width="NaN"/><text transform="translate(892.57662,312.33877) scale(0.63038,0.63038)" font-size="40" xml:space="preserve" fill="#00a600" fill-rule="nonzero" stroke="none" stroke-width="1" stroke-linecap="butt" stroke-linejoin="miter" stroke-miterlimit="10" stroke-dasharray="" stroke-dashoffset="0" font-family="Sans Serif" font-weight="normal" text-anchor="start" style="mix-blend-mode: normal"><tspan x="0" dy="0">BGM</tspan></text><path d="M822.57662,538.82606v-115h203v115z" fill="#4343bf" stroke-width="NaN"/><text transform="translate(901.57662,452.33877) scale(0.63038,0.63038)" font-size="40" xml:space="preserve" fill="#00a600" fill-rule="nonzero" stroke="none" stroke-width="1" stroke-linecap="butt" stroke-linejoin="miter" stroke-miterlimit="10" stroke-dasharray="" stroke-dashoffset="0" font-family="Sans Serif" font-weight="normal" text-anchor="start" style="mix-blend-mode: normal"><tspan x="0" dy="0">SFX</tspan></text><path d="M823.57662,673.82606v-115h203v115z" fill="#bf4343" stroke-width="NaN"/><text transform="translate(882.57662,588.33877) scale(0.63038,0.63038)" font-size="40" xml:space="preserve" fill="#00a600" fill-rule="nonzero" stroke="none" stroke-width="1" stroke-linecap="butt" stroke-linejoin="miter" stroke-miterlimit="10" stroke-dasharray="" stroke-dashoffset="0" font-family="Sans Serif" font-weight="normal" text-anchor="start" style="mix-blend-mode: normal"><tspan x="0" dy="0">Others</tspan></text></g></g></svg>