<svg version="1.1" xmlns="http://www.w3.org/2000/svg" xmlns:xlink="http://www.w3.org/1999/xlink" width="303.85814" height="460.73104" viewBox="0,0,303.85814,460.73104"><defs><linearGradient x1="349.97998" y1="135.24928" x2="349.97998" y2="158.3243" gradientTransform="translate(-540,-305.11108) scale(2,2)" gradientUnits="userSpaceOnUse" id="color-1"><stop offset="0" stop-color="#0e0e0e"/><stop offset="1" stop-color="#0041ff"/></linearGradient></defs><g transform="translate(-208.07093,-107.48734)"><g data-paper-data="{&quot;isPaintingLayer&quot;:true}" fill-rule="nonzero" stroke-linecap="butt" stroke-linejoin="miter" stroke-miterlimit="10" stroke-dasharray="" stroke-dashoffset="0" style="mix-blend-mode: normal"><path d="M219.917,311.96387c-5.57592,0 -10.09607,-3.07673 -10.09607,-6.87207v-188.98239c0,-3.79536 4.52018,-6.87207 10.09607,-6.87207h280.166c5.57592,0 10.09607,3.07673 10.09607,6.87207v188.9824c0,3.79535 -4.52018,6.87207 -10.09607,6.87207z" fill="#20571d" stroke="#0d0000" stroke-width="3.5"/><path d="M219.917,566.46838c-5.57592,0 -10.09607,-1.20812 -10.09607,-2.69842v-74.20658c0,-1.4903 4.52018,-2.69842 10.09607,-2.69842h280.166c5.57592,0 10.09607,1.20812 10.09607,2.69842v74.20658c0,1.4903 -4.52018,2.69842 -10.09607,2.69842z" fill="#55eb4e" stroke="#0d0000" stroke-width="3.5"/><path d="M219.917,474.12604c-5.57592,0 -10.09607,-2.3703 -10.09607,-5.29423v-145.59154c0,-2.92393 4.52018,-5.29423 10.09607,-5.29423h280.166c5.57592,0 10.09607,2.3703 10.09607,5.29423v145.59154c0,2.92393 -4.52018,5.29423 -10.09607,5.29423z" fill="#495748" stroke="#0d0000" stroke-width="3.5"/><path d="M258.66596,164.05406c-4.9851,0 -9.02631,-3.13401 -9.02631,-7v-20.53454c0,-3.86599 4.04122,-7 9.02631,-7h202.66809c4.9851,0 9.02632,3.13401 9.02632,7v20.53454c0,3.86599 -4.04122,7 -9.02632,7z" fill="#55eb4e" stroke="#0d0000" stroke-width="3.5"/><text transform="translate(270,152.55554) scale(0.5,0.5)" font-size="40" xml:space="preserve" fill="url(#color-1)" fill-rule="nonzero" stroke="none" stroke-width="1" stroke-linecap="butt" stroke-linejoin="miter" stroke-miterlimit="10" stroke-dasharray="" stroke-dashoffset="0" font-family="Technological" font-weight="normal" text-anchor="start" style="mix-blend-mode: normal"><tspan x="0" dy="0">Lettuce Customs</tspan></text><path d="M282.55999,365.25526c-3.66942,0 -6.64407,-3.91751 -6.64407,-8.75v-20.03754c0,-4.83249 2.97465,-8.75 6.64407,-8.75h154.88003c3.66942,0 6.64407,3.91751 6.64407,8.75v20.03754c0,4.83249 -2.97465,8.75 -6.64407,8.75z" fill="#848484" stroke="#0d0000" stroke-width="3.5"/><text transform="translate(242.28229,389.87987) scale(0.5,0.5)" font-size="40" xml:space="preserve" fill="#000000" fill-rule="nonzero" stroke="none" stroke-width="1" stroke-linecap="butt" stroke-linejoin="miter" stroke-miterlimit="10" stroke-dasharray="" stroke-dashoffset="0" font-family="Serif" font-weight="normal" text-anchor="start" style="mix-blend-mode: normal"><tspan x="0" dy="0">Interface</tspan></text><text transform="translate(379.41442,390.37536) scale(0.5,0.5)" font-size="40" xml:space="preserve" fill="#000000" fill-rule="nonzero" stroke="none" stroke-width="1" stroke-linecap="butt" stroke-linejoin="miter" stroke-miterlimit="10" stroke-dasharray="" stroke-dashoffset="0" font-family="Serif" font-weight="normal" text-anchor="start" style="mix-blend-mode: normal"><tspan x="0" dy="0">Game Objects</tspan></text></g></g></svg>