<svg version="1.1" xmlns="http://www.w3.org/2000/svg" xmlns:xlink="http://www.w3.org/1999/xlink" width="36.40716" height="25.96115" viewBox="0,0,36.40716,25.96115"><g transform="translate(-351.45284,-343.10784)"><g data-paper-data="{&quot;isPaintingLayer&quot;:true}" fill-rule="nonzero" stroke="none" stroke-width="0" stroke-linecap="butt" stroke-linejoin="miter" stroke-miterlimit="10" stroke-dasharray="" stroke-dashoffset="0" style="mix-blend-mode: normal"><path d="M364.57371,350.14902h3.25119c1.28256,0 2.32228,1.31322 2.32228,2.93316c0,1.61994 -1.03972,2.93317 -2.32228,2.93317h-3.25119v10.55938c-0.03206,1.41744 -0.96782,2.5337 -2.09005,2.49319c-1.12225,-0.0405 -2.006,-1.2224 -1.97393,-2.63986c-0.03206,-1.05296 -0.73388,-1.87372 -1.56754,-1.83322c-0.83366,0.0405 -1.48348,0.92692 -1.45142,1.97988c-0.03206,1.37696 -0.94182,2.46035 -2.032,2.41987c-1.09018,-0.0405 -1.94795,-1.18957 -1.91589,-2.56651v-5.42636h-1.27724c-0.69669,0 -0.8128,-0.14667 -0.8128,-1.02661v-9.0928c0,-0.87995 0.11612,-1.02661 0.8128,-1.02661h1.27724c0.06413,-3.80685 2.55945,-6.82727 5.57346,-6.74628c3.01401,0.08099 5.40537,3.23274 5.34124,7.03959" fill="#9966ff"/><path d="M358.46,353.1c0,1.87776 2.74972,3.4 6.14167,3.4c3.39195,0 6.14167,-1.52224 6.14167,-3.4c0,-1.87776 -2.74972,-3.4 -6.14167,-3.4c-3.39195,0 -6.14167,1.52224 -6.14167,3.4z" fill="#ffffff"/><ellipse cx="775.72" cy="707.8" transform="scale(0.5,0.5)" rx="0" ry="0" fill="#ffffff"/></g></g></svg>