<svg version="1.1" xmlns="http://www.w3.org/2000/svg" xmlns:xlink="http://www.w3.org/1999/xlink" width="88.49999" height="89.22649" viewBox="0,0,88.49999,89.22649"><g transform="translate(-315.75001,-311.38677)"><g data-paper-data="{&quot;isPaintingLayer&quot;:true}" fill-rule="nonzero" stroke-linejoin="miter" stroke-miterlimit="10" stroke-dasharray="" stroke-dashoffset="0" style="mix-blend-mode: normal"><path d="M320.35715,398.86326c-1.57796,0 -2.85714,-1.30105 -2.85714,-2.90598v-79.91453c0,-1.60493 1.27919,-2.90598 2.85714,-2.90598h79.28571c1.57796,0 2.85714,1.30105 2.85714,2.90598v79.91453c0,1.60493 -1.27919,2.90598 -2.85714,2.90598z" fill-opacity="0.87843" fill="#59ff9c" stroke="#0d0000" stroke-width="3.5" stroke-linecap="butt"/><g><path d="M388.8586,371.65193c-2.67487,6.48471 -16.31116,7.75507 -28.33882,7.75507c-16.28614,0 -29.48865,-9.01009 -29.48865,-20.1246c0,-11.11451 13.20252,-20.1246 29.48865,-20.1246c13.0926,0 20.12156,4.38922 26.70161,14.33336c2.82993,3.06024 -7.94668,6.56486 -7.8086,9.37225c0.20466,4.16135 10.74086,6.59227 9.44582,8.78852zM368.05209,370.82943c0.07407,0.07542 0.18653,0.07542 0.18653,0.07542c0.55701,0 0.98095,-0.25756 1.51824,-0.25304l0.26112,-0.15757c0,0 0.06357,-0.06357 0.07635,-0.15259c0.10258,-0.05252 0.19693,-0.1175 0.27972,-0.19801c0.0645,-0.00822 0.22324,-0.0487 0.22324,-0.24791c0,-0.25 -0.25,-0.25 -0.25,-0.25l-0.28804,0.10506c-0.10066,0.17154 -0.36055,0.25202 -0.64308,0.28891c-0.02968,-0.02316 -0.06277,-0.03684 -0.0915,-0.04492c-0.04147,-0.18036 -0.24258,-0.18036 -0.24258,-0.18036h-0.08435c-0.38862,0.00428 -0.76775,0.05729 -1.15993,0.07702c-0.01961,-0.00176 -0.03116,-0.00176 -0.03116,-0.00176h-0.50918c0,0 -0.5,0 -0.5,0.5c0,0.5 0.5,0.5 0.5,0.5h0.50918c0,0 0.12198,0 0.24545,-0.06025z" data-paper-data="{&quot;index&quot;:null}" fill="#ffffff" stroke="#000000" stroke-width="7" stroke-linecap="butt"/><path d="M342.34765,367.70498c0,-2.21637 3.47876,-4.0131 7.77003,-4.0131c4.29127,0 7.77003,1.79673 7.77003,4.0131c0,2.21637 -3.47876,4.01309 -7.77003,4.01309c-4.29127,0 -7.77003,-1.79672 -7.77003,-4.01309z" data-paper-data="{&quot;index&quot;:null}" fill="#ff6666" stroke="none" stroke-width="0" stroke-linecap="butt"/><path d="M365.06982,350.4664c-2.91755,0 -5.2827,-0.88337 -5.2827,-1.97306c0,-1.08969 2.36515,-1.97305 5.2827,-1.97305c2.91755,0 5.28269,0.88336 5.28269,1.97305c0,1.08969 -2.36514,1.97306 -5.28269,1.97306z" data-paper-data="{&quot;index&quot;:null}" fill="none" stroke="#000000" stroke-width="0" stroke-linecap="butt"/><path d="M337.03684,359.39533c0,-2.21637 3.47876,-4.01309 7.77003,-4.01309c4.29127,0 7.77003,1.79672 7.77003,4.01309c0,2.21637 -3.47876,4.01309 -7.77003,4.01309c-4.29127,0 -7.77003,-1.79672 -7.77003,-4.01309z" data-paper-data="{&quot;index&quot;:null}" fill="#666cff" stroke="none" stroke-width="0" stroke-linecap="butt"/><path d="M343.43708,350.57651c0,-2.21637 3.47876,-4.0131 7.77003,-4.0131c4.29127,0 7.77003,1.79673 7.77003,4.0131c0,2.21637 -3.47876,4.01309 -7.77003,4.01309c-4.29127,0 -7.77003,-1.79672 -7.77003,-4.01309z" data-paper-data="{&quot;index&quot;:null}" fill="#69ff66" stroke="none" stroke-width="0" stroke-linecap="butt"/><path d="M384.02683,334.84195l-13.27032,23.49822l-4.36523,-3.41426l12.74648,-23.69907z" fill="#ffffff" stroke="#000000" stroke-width="2.5" stroke-linecap="round"/><path d="M365.59416,359.35041c0.36244,0.76879 -0.83675,2.36372 -2.19064,2.36372c-1.35389,0 -2.45144,-1.01891 -2.45144,-2.27578c0,-1.25688 1.09755,-2.27578 2.45144,-2.27578c0.57585,0 1.4073,0.11938 1.24989,0.48497c-0.44036,1.02267 0.62306,1.029 0.94076,1.70288z" fill="#ff0000" stroke="none" stroke-width="0" stroke-linecap="butt"/><path d="M361.18555,359.49973c0,-1.55215 3.58275,-3.49693 5.56674,-3.49693c1.98399,0 3.59233,1.25827 3.59233,2.81042c0,1.55215 -1.60834,2.81042 -3.59233,2.81042c-1.20639,0 -1.68763,-1.30982 -4.22761,-0.72607c-0.83055,0.19088 -1.33913,-0.78948 -1.33913,-1.39783z" fill="none" stroke="#000000" stroke-width="2" stroke-linecap="butt"/><path d="M365.71833,366.93992c0.543,-0.95026 4.34438,-1.43445 4.72437,-0.36065c0.63624,0.19103 1.06401,0.58923 1.06401,1.26818c0,0.98409 -5.63635,1.53609 -5.92207,1.03607l-0.49247,-0.86182c0.07957,-0.13924 0.20596,-0.27665 0.36917,-0.40887c0.02657,-0.19037 0.10873,-0.41345 0.257,-0.67292z" fill="#000000" stroke="none" stroke-width="0.5" stroke-linecap="butt"/></g></g></g></svg>