<svg version="1.1" xmlns="http://www.w3.org/2000/svg" xmlns:xlink="http://www.w3.org/1999/xlink" width="345.49998" height="48.87921" viewBox="0,0,345.49998,48.87921"><g transform="translate(-187.25001,-341.92404)"><g data-paper-data="{&quot;isPaintingLayer&quot;:true}" fill-rule="nonzero" stroke-linecap="butt" stroke-linejoin="miter" stroke-miterlimit="10" stroke-dasharray="" stroke-dashoffset="0" style="mix-blend-mode: normal"><path d="M189.41401,390.55325c-1.05708,0 -1.914,-1.35377 -1.914,-3.02371v-42.33179c0,-1.66993 0.85693,-3.0237 1.914,-3.0237h341.17198c1.05708,0 1.914,1.35377 1.914,3.0237v42.3318c0,1.66993 -0.85693,3.02371 -1.914,3.02371z" fill-opacity="0.49412" fill="#8d8d8d" stroke="#000000" stroke-width="0.5"/><path d="M216.19329,382.14867c-3.1115,0 -5.63387,-1.87868 -5.63387,-4.19616v-25.17693c0,-2.31747 2.52238,-4.19616 5.63387,-4.19616h91.55043c3.11151,0 5.63387,1.87868 5.63387,4.19616v25.17693c0,2.31747 -2.52238,4.19616 -5.63387,4.19616z" fill="#00ffff" stroke="#000000" stroke-width="0.5"/><path d="M230.8075,365.11722c0,5.95272 -3.9745,10.77836 -8.8773,10.77836c-4.90279,0 -8.87729,-4.82563 -8.87729,-10.77836c0,-5.95272 3.97449,-10.77837 8.87729,-10.77837c4.90279,0 8.8773,4.82565 8.8773,10.77837z" fill="#e9ff59" stroke="#000000" stroke-width="0.5"/><path d="M219.95079,370.82277v-10.50198h3.35898v10.50198z" fill="#868c61" stroke="#000000" stroke-width="0"/><path d="M329.08156,383.14827c-5.79384,0 -10.49065,-1.87868 -10.49065,-4.19616v-25.17693c0,-2.31747 4.69682,-4.19616 10.49065,-4.19616h170.47322c5.79384,0 10.49066,1.87868 10.49066,4.19616v25.17693c0,2.31747 -4.69683,4.19616 -10.49066,4.19616z" fill="#00ffff" stroke="#000000" stroke-width="0.5"/><path d="M320.47727,375.40776v-20h40v20z" fill="#00d08d" stroke="none" stroke-width="0"/><text transform="translate(321.24973,370.95766) scale(0.30705,0.35367)" font-size="40" xml:space="preserve" fill="#1f1563" fill-rule="nonzero" stroke="none" stroke-width="1" stroke-linecap="butt" stroke-linejoin="miter" stroke-miterlimit="10" stroke-dasharray="" stroke-dashoffset="0" font-family="Pixel" font-weight="normal" text-anchor="start" style="mix-blend-mode: normal"><tspan x="0" dy="0">Score</tspan></text></g></g></svg>