<svg version="1.1" xmlns="http://www.w3.org/2000/svg" xmlns:xlink="http://www.w3.org/1999/xlink" width="68.17837" height="68.73117" viewBox="0,0,68.17837,68.73117"><g transform="translate(-325.91082,-325.50448)"><g data-paper-data="{&quot;isPaintingLayer&quot;:true}" fill-rule="nonzero" stroke="#0d0000" stroke-width="3.5" stroke-linecap="butt" stroke-linejoin="miter" stroke-miterlimit="10" stroke-dasharray="" stroke-dashoffset="0" style="mix-blend-mode: normal"><path d="M329.83489,392.48565c-1.2007,0 -2.17406,-0.99 -2.17406,-2.21122v-60.80873c0,-1.22123 0.97336,-2.21122 2.17406,-2.21122h60.33025c1.2007,0 2.17406,0.99 2.17406,2.21122v60.80873c0,1.22123 -0.97336,2.21122 -2.17406,2.21122z" fill-opacity="0.87843" fill="#00ff66"/><g fill="#ffffff"><path d="M352.15533,384.20058l-15.20178,-7.53705l15.00092,-7.92929z" data-paper-data="{&quot;index&quot;:null}"/><path d="M383.04647,358.54887c0,1.96394 -0.47747,5.37367 -1.89302,7.51417c-0.15929,0.24087 -0.92862,1.81891 -1.07774,2.03069c-2.5406,3.608 -7.26853,5.89224 -12.01686,7.885c-4.72083,1.98122 -11.42284,3.55866 -15.02228,3.55866c-0.79538,0 -1.36206,-9.12793 -1.36206,-9.12793c0,0 8.73491,0.32079 14.27682,-2.55495c4.08997,-2.12232 7.88965,-4.19057 7.88965,-7.95549c0,-2.29382 -0.82239,-5.69333 -2.83077,-8.13408c-1.73527,-2.10884 -5.73715,-3.96009 -9.13609,-5.01385c-8.14792,-2.52607 -20.43086,-1.10301 -20.43086,-1.10301c0,0 -0.83099,-10.05156 -0.18972,-10.05156c9.12949,0 19.27517,-0.99044 30.2286,5.28796c10.95343,6.27839 11.56433,17.46548 11.56433,17.6644z"/></g></g></g></svg>