<svg version="1.1" xmlns="http://www.w3.org/2000/svg" xmlns:xlink="http://www.w3.org/1999/xlink" width="37.63997" height="117.24099" viewBox="0,0,37.63997,117.24099"><defs><radialGradient cx="359.27686" cy="393.4053" r="13.66623" gradientUnits="userSpaceOnUse" id="color-1"><stop offset="0" stop-color="#a2a8a4" stop-opacity="0.51765"/><stop offset="1" stop-color="#5c605c" stop-opacity="0.7451"/></radialGradient></defs><g transform="translate(-340.66145,-300.18665)"><g data-paper-data="{&quot;isPaintingLayer&quot;:true}" fill-rule="nonzero" stroke-linejoin="miter" stroke-miterlimit="10" stroke-dasharray="" stroke-dashoffset="0" style="mix-blend-mode: normal"><path d="M343.1829,417.23888c0,0 -1.97004,-27.58471 -2.39884,-41.11594c-0.69551,-21.94734 1.79481,-75.74754 1.79481,-75.74754h33.26389c0,0 3.25144,55.31025 2.27617,77.29243c-0.61997,13.97398 -2.27617,39.72206 -2.27617,39.72206z" fill="#36ffff" stroke="none" stroke-width="0" stroke-linecap="butt"/><path d="M343.50157,417.42764c0,0 0,-13.46778 0,-19.73592c0,-5.70312 0,-16.33824 0,-16.33824h32.50885v36.07416z" fill="#36ffff" stroke="none" stroke-width="0" stroke-linecap="butt"/><path d="M343.22701,382.31826v-82.13161h32.50885v82.13161z" fill="#36ffff" stroke="none" stroke-width="0" stroke-linecap="butt"/><path d="M374.12235,413.69858c0,1.66798 -1.69022,3.02016 -3.7752,3.02016c-2.08498,0 -3.7752,-1.35217 -3.7752,-3.02016c0,-1.66798 1.69022,-3.02016 3.7752,-3.02016c2.08498,0 3.7752,1.35217 3.7752,3.02016z" fill-opacity="0.77647" fill="#4a8fd9" stroke="none" stroke-width="0" stroke-linecap="butt"/><path d="M352.45956,413.39657c0,1.66798 -1.69022,3.02016 -3.7752,3.02016c-2.08498,0 -3.7752,-1.35217 -3.7752,-3.02016c0,-1.66798 1.69022,-3.02016 3.7752,-3.02016c2.08498,0 3.7752,1.35217 3.7752,3.02016z" fill-opacity="0.77647" fill="#4a8fd9" stroke="none" stroke-width="0" stroke-linecap="butt"/><path d="M368.06896,391.70933h2.24148c0.88423,0 1.60106,0.90537 1.60106,2.02222c0,1.11684 -0.71681,2.02222 -1.60106,2.02222h-2.24148v7.27997c-0.0221,0.97723 -0.66724,1.74681 -1.44095,1.71889c-0.77371,-0.02792 -1.383,-0.84276 -1.36089,-1.82c-0.0221,-0.72594 -0.50596,-1.2918 -1.08071,-1.26388c-0.57476,0.02792 -1.02275,0.63906 -1.00065,1.365c-0.0221,0.94932 -0.64932,1.69624 -1.40092,1.66834c-0.7516,-0.02792 -1.34297,-0.82013 -1.32087,-1.76943v-3.74111h-0.88057c-0.48032,0 -0.56037,-0.10113 -0.56037,-0.70777v-6.26886c0,-0.60667 0.08006,-0.70777 0.56037,-0.70777h0.88057c0.04422,-2.62457 1.76457,-4.70693 3.84252,-4.6511c2.07795,0.05584 3.72663,2.22875 3.68242,4.85331" fill="#ff6666" stroke="none" stroke-width="0" stroke-linecap="butt"/><path d="M368.08824,391.39976c2.33852,0 4.23426,1.04948 4.23426,2.34406c0,1.29458 -1.89574,2.34406 -4.23426,2.34406c-2.33852,0 -4.23426,-1.04948 -4.23426,-2.34406c0,-1.29458 1.89574,-2.34406 4.23426,-2.34406z" fill="#ffffff" stroke="none" stroke-width="0" stroke-linecap="butt"/><path d="M363.33214,401.71862v-1.45975h1.51008v1.45975z" fill="#000000" stroke="#000000" stroke-width="0.5" stroke-linecap="butt"/><path d="M366.10358,399.83141c0,1.05035 -0.89018,1.90183 -1.98827,1.90183c-1.09809,0 -1.98827,-0.85147 -1.98827,-1.90183c0,-1.05035 0.89018,-1.90183 1.98827,-1.90183c1.09809,0 1.98827,0.85147 1.98827,1.90183z" fill="none" stroke="#000000" stroke-width="1" stroke-linecap="butt"/><path d="M363.36076,400.37116v-0.79946h1.42125v0.79946z" fill="#000000" stroke="none" stroke-width="0" stroke-linecap="butt"/><path d="M362.33923,399.70496l1.73215,0.26648v1.33242" fill="none" stroke="#000000" stroke-width="0.5" stroke-linecap="round"/><path d="M365.6703,399.66054l-1.64333,0.22208l-0.08883,-1.95422" fill="none" stroke="#000000" stroke-width="0.5" stroke-linecap="round"/><path d="M345.61063,401.78625v-16.76189h27.33246v16.76189z" fill="url(#color-1)" stroke="none" stroke-width="0" stroke-linecap="butt"/><path d="M356.98552,406.10204c0,0 0,-1.61342 0,-2.36434c0,-0.68323 0,-1.9573 0,-1.9573h14.23687v4.32164z" fill="#36ffff" stroke="none" stroke-width="0" stroke-linecap="butt"/></g></g></svg>