<svg version="1.1" xmlns="http://www.w3.org/2000/svg" xmlns:xlink="http://www.w3.org/1999/xlink" width="88.49999" height="89.22649" viewBox="0,0,88.49999,89.22649"><g transform="translate(-315.75001,-315.21603)"><g data-paper-data="{&quot;isPaintingLayer&quot;:true}" fill-rule="nonzero" stroke-linecap="butt" stroke-linejoin="miter" stroke-miterlimit="10" stroke-dasharray="" stroke-dashoffset="0" style="mix-blend-mode: normal"><path d="M320.35715,402.69252c-1.57796,0 -2.85714,-1.30105 -2.85714,-2.90598v-79.91453c0,-1.60493 1.27919,-2.90598 2.85714,-2.90598h79.28571c1.57796,0 2.85714,1.30105 2.85714,2.90598v79.91453c0,1.60493 -1.27919,2.90598 -2.85714,2.90598z" fill-opacity="0.87843" fill="#00ff66" stroke="#0d0000" stroke-width="3.5"/><g><path d="M338.64887,392.4925c-1.22445,0 -2.21705,-1.21662 -2.21705,-2.7174v-41.89832c0,-1.50078 0.9926,-2.7174 2.21705,-2.7174h42.70227c1.22445,0 2.21705,1.21662 2.21705,2.7174v41.89832c0,1.50078 -0.9926,2.7174 -2.21705,2.7174z" fill="#ffffff" stroke="#0d0000" stroke-width="7"/><text transform="translate(352.49999,378.79875) scale(0.75,0.75)" font-size="40" xml:space="preserve" fill="#000000" fill-rule="nonzero" stroke="none" stroke-width="1" stroke-linecap="butt" stroke-linejoin="miter" stroke-miterlimit="10" stroke-dasharray="" stroke-dashoffset="0" font-family="Serif" font-weight="normal" text-anchor="start" style="mix-blend-mode: normal"><tspan x="0" dy="0">$</tspan></text><path d="M360.63793,348.73127c-6.62741,0 -12,-0.22937 -12,-0.51231v0c0,-0.28294 5.37259,-0.51231 12,-0.51231h0.24932c6.62741,0 12,0.22937 12,0.51231v0c0,0.28294 -5.37259,0.51231 -12,0.51231z" fill="#ffffff" stroke="#0d0000" stroke-width="7"/><path d="M374.08841,349.06571c-5.54282,-0.13199 -2.92687,-16.47235 -14.55571,-16.47235c-11.62884,0 -6.49331,15.86525 -12.98633,15.83889c-4.86956,-0.01978 -5.61311,-4.29927 -4.00326,-9.1883c1.16326,-3.53278 3.55531,-7.38381 6.50735,-10.17592c3.0822,-2.91521 6.77486,-3.26819 10.31674,-3.26819c3.27593,0 7.62322,0.28548 10.77116,2.96425c3.14966,2.68023 5.76942,6.41483 7.2668,9.95114c2.31852,5.47559 1.94611,10.4758 -3.31673,10.35048z" fill="#000000" stroke="#000000" stroke-width="0.5"/></g></g></g></svg>