<svg version="1.1" xmlns="http://www.w3.org/2000/svg" xmlns:xlink="http://www.w3.org/1999/xlink" width="75.59075" height="79.00089" viewBox="0,0,75.59075,79.00089"><g transform="translate(-322.20462,-320.49956)"><g data-paper-data="{&quot;isPaintingLayer&quot;:true}" fill="#00ff01" fill-rule="nonzero" stroke="none" stroke-width="0" stroke-linecap="butt" stroke-linejoin="miter" stroke-miterlimit="10" stroke-dasharray="" stroke-dashoffset="0" style="mix-blend-mode: normal"><path d="M322.20462,359.99999c0,-21.8155 16.92157,-39.50043 37.79538,-39.50043c20.87382,0 37.79538,17.68495 37.79538,39.50043c0,21.8155 -16.92157,39.50046 -37.79538,39.50046c-20.87382,0 -37.79538,-17.68495 -37.79538,-39.50046zM359.81804,390.66496c25.98778,0.13444 28.67007,-25.40903 28.67007,-25.40903h-55.73463c0,0 1.99546,25.27934 27.06456,25.40903zM373.78603,353.03885c2.82311,0 5.11166,-2.39183 5.11166,-5.34227c0,-2.95046 -2.28857,-5.34227 -5.11166,-5.34227c-2.82311,0 -5.11166,2.39183 -5.11166,5.34227c0,2.95046 2.28857,5.34227 5.11166,5.34227zM346.214,353.03885c2.82311,0 5.11166,-2.39183 5.11166,-5.34227c0,-2.95046 -2.28857,-5.34227 -5.11166,-5.34227c-2.82311,0 -5.11166,2.39183 -5.11166,5.34227c0,2.95046 2.28857,5.34227 5.11166,5.34227z"/></g></g></svg>