<svg version="1.1" xmlns="http://www.w3.org/2000/svg" xmlns:xlink="http://www.w3.org/1999/xlink" width="243.66163" height="423.64274" viewBox="0,0,243.66163,423.64274"><g transform="translate(-238.16918,-144.17863)"><g data-paper-data="{&quot;isPaintingLayer&quot;:true}" fill-rule="nonzero" stroke-linecap="butt" stroke-linejoin="miter" stroke-miterlimit="10" stroke-dasharray="" stroke-dashoffset="0" style="mix-blend-mode: normal"><path d="M276.7551,564.32137c-19.37741,0 -35.08589,-16.08605 -35.08589,-35.92921v-344.78431c0,-19.84316 15.70849,-35.92921 35.08589,-35.92921h166.48983c19.37741,0 35.08589,16.08605 35.08589,35.92921v344.78431c0,19.84316 -15.7085,35.92921 -35.08589,35.92921z" fill="#141414" stroke="#4bf144" stroke-width="7"/><path d="M276.75507,564.32136c-19.37741,0 -35.08589,-16.08605 -35.08589,-35.92921v-344.78431c0,-19.84316 15.70849,-35.92921 35.08589,-35.92921h166.48983c19.37741,0 35.08589,16.08605 35.08589,35.92921v344.78431c0,19.84316 -15.7085,35.92921 -35.08589,35.92921z" fill="#004221" stroke="#4bf144" stroke-width="7"/><text transform="translate(271.33331,235.43626) scale(0.5,0.5)" font-size="40" xml:space="preserve" fill="#5cad00" fill-rule="nonzero" stroke="none" stroke-width="1" stroke-linecap="butt" stroke-linejoin="miter" stroke-miterlimit="10" stroke-dasharray="" stroke-dashoffset="0" font-family="Curly" font-weight="normal" text-anchor="middle" style="mix-blend-mode: normal"><tspan x="0" dy="0"> </tspan></text></g></g></svg>