<svg version="1.1" xmlns="http://www.w3.org/2000/svg" xmlns:xlink="http://www.w3.org/1999/xlink" width="157.1706" height="424.12918" viewBox="0,0,157.1706,424.12918"><g transform="translate(-281.66245,-103.88886)"><g data-paper-data="{&quot;isPaintingLayer&quot;:true}" fill-rule="nonzero" stroke-linecap="butt" stroke-linejoin="miter" stroke-miterlimit="10" stroke-dasharray="" stroke-dashoffset="0" style="mix-blend-mode: normal"><path d="M288.56118,526.26804c-2.84354,0 -5.14873,-3.04148 -5.14873,-6.79333v-186.81729c0,-3.75185 2.30516,-6.79333 5.14873,-6.79333h142.87764c2.84354,0 5.14873,3.04148 5.14873,6.79333v186.81725c0,3.75185 -2.30516,6.79333 -5.14873,6.79333z" data-paper-data="{&quot;index&quot;:null}" fill-opacity="0.87843" fill="#00ff66" stroke="#0d0000" stroke-width="3.5"/><text transform="translate(305.16002,356.75974) scale(0.5,0.5)" font-size="40" xml:space="preserve" fill-opacity="0.87843" fill="#000000" fill-rule="nonzero" stroke="none" stroke-width="1" stroke-linecap="butt" stroke-linejoin="miter" stroke-miterlimit="10" stroke-dasharray="" stroke-dashoffset="0" font-family="Handwriting" font-weight="normal" text-anchor="start" style="mix-blend-mode: normal"><tspan x="0" dy="0">Skin Changer</tspan></text><path d="M289.05668,306.04281c-2.84354,0 -5.14873,-3.04148 -5.14873,-6.79333v-186.81729c0,-3.75185 2.30516,-6.79333 5.14873,-6.79333h142.87764c2.84354,0 5.14873,3.04148 5.14873,6.79333v186.81725c0,3.75185 -2.30516,6.79333 -5.14873,6.79333z" data-paper-data="{&quot;index&quot;:null}" fill-opacity="0.87843" fill="#00ff66" stroke="#0d0000" stroke-width="3.5"/><text transform="translate(295.145,136.53451) scale(0.5,0.5)" font-size="40" xml:space="preserve" fill-opacity="0.87843" fill="#000000" fill-rule="nonzero" stroke="none" stroke-width="1" stroke-linecap="butt" stroke-linejoin="miter" stroke-miterlimit="10" stroke-dasharray="" stroke-dashoffset="0" font-family="Handwriting" font-weight="normal" text-anchor="start" style="mix-blend-mode: normal"><tspan x="0" dy="0">Theme Changer</tspan></text></g></g></svg>