<svg version="1.1" xmlns="http://www.w3.org/2000/svg" xmlns:xlink="http://www.w3.org/1999/xlink" width="1859.03138" height="736.0135" viewBox="0,0,1859.03138,736.0135"><g transform="translate(318.05172,5.25899)"><g data-paper-data="{&quot;isPaintingLayer&quot;:true}" fill-rule="nonzero" stroke-linecap="butt" stroke-linejoin="miter" stroke-miterlimit="10" stroke-dasharray="" stroke-dashoffset="0" style="mix-blend-mode: normal"><path d="M-318.05172,728.75751v-730.51801h643.82117v730.51801z" fill="#a9ffe1" stroke="#000000" stroke-width="0"/><path d="M-214.1924,200.77218c-0.38415,-0.28674 -0.72619,-0.58884 -1.02665,-0.90412c-2.04671,0.61332 -3.9882,0.88112 -6.16022,0.96298c-0.02316,0.35283 -0.04882,0.70153 -0.07606,1.04388c0.87965,-0.38727 1.77477,-0.73954 2.72332,-0.95905c1.31043,-0.30324 2.74375,0.12101 4.08765,-0.06227c0.15258,-0.02081 0.30308,-0.0485 0.45198,-0.08142zM-129.50605,203.47368c0.36423,1.39143 0.30549,2.80206 -0.41901,3.98725c-0.11925,0.19506 -0.2617,0.38 -0.42527,0.55528c0.41032,0.0732 0.81721,0.1621 1.21047,0.27518c0.24991,-1.29299 1.3084,-3.1788 2.05379,-4.19198c-0.70102,-0.08461 -1.3754,-0.36407 -2.05892,-0.53484c-0.12043,-0.03009 -0.24079,-0.06039 -0.36106,-0.09089zM-206.40479,172.53458c0.18189,0.02667 0.36375,0.05343 0.5456,0.08021c-0.05056,-0.05295 -0.10062,-0.10688 -0.15015,-0.16184c-0.13123,0.02851 -0.26306,0.0557 -0.39544,0.08163zM-120.55965,196.59784c0.3782,0.23583 0.76319,0.47897 1.14266,0.73167c0.01948,-0.16665 0.04835,-0.32848 0.08899,-0.48419c0.10397,-0.39827 1.32228,-0.84398 0.85987,-1.0029c-0.49458,-0.16998 -0.6369,0.90654 -1.17392,0.89497c-0.3151,-0.00679 -0.61927,-0.06027 -0.91761,-0.13954zM-132.09083,216.95077c-0.35564,-0.08335 -0.72841,-0.15632 -1.12298,-0.21338c-1.23026,-0.1779 -2.48274,-0.13177 -3.7383,-0.06056c0.71674,0.07712 1.43608,0.1241 2.16006,0.11867c0.28404,-0.00213 1.39899,0.08573 2.70122,0.15527zM-245.87578,214.10365c-2.64347,-1.47571 -5.63714,-3.57982 -7.32068,-4.68479c-0.40731,-3.17651 0.10865,-7.25024 -0.58526,-10.40254c-0.96999,-4.40643 -2.91512,-10.90236 -0.88286,-15.4429c0.49418,-1.10413 2.13782,-1.6321 2.87417,-2.64371c0.66082,-0.90788 0.54304,-2.10688 1.2338,-3c3.34195,-4.32101 9.90107,-8.1006 14.77469,-11.11425c1.34699,-0.83292 2.28152,-2.18453 3.86286,-2.67742c1.40848,-0.43901 8.99745,-0.34254 10.76127,-0.34254c6.49712,0 12.91736,-0.03848 19.39785,0.34254c4.04504,2.82519 7.49712,3.22502 11.89838,5.32953c1.4583,0.6973 2.45048,2.28917 4.13942,2.38604c4.46483,0.25607 9.12552,-0.52664 13.57176,0c5.07248,0.60081 9.76826,3.43698 14.80556,4c3.48934,0.39 6.3143,-0.82445 9.87193,0.28444c1.58134,0.49289 2.51587,1.8445 3.86286,2.67742c2.23855,1.38423 4.58397,2.68437 6.57494,4.29806c0.25611,0.20758 3.13198,2.71844 3.85197,2.87507c2.17885,0.47399 4.54302,0.28681 6.68322,0.86502c2.90808,0 5.80589,0.45983 8.63658,1c2.05254,0.39168 4.75186,-0.32481 6.22886,0.89497c3.7028,3.05794 3.36907,6.88511 3.36907,10.54692c0,2.54009 -0.81197,5.03766 -1.2754,7.54982c-0.22851,1.23876 0.28281,2.56348 -0.19663,3.7542c-0.55057,1.36736 -2.00967,2.3828 -2.79393,3.67305c-0.65426,1.07639 -0.73091,2.36263 -1.49843,3.38871c-0.72926,0.97492 -2.00448,1.60583 -2.89682,2.48716c-1.20739,1.19249 -1.84682,2.82163 -3.39118,3.72323c-3.79693,2.21667 -6.64175,1.89487 -10.77286,1.92382c-1.46819,0.01029 -9.03776,-0.00388 -9.52592,-0.05811c-1.28849,-0.14312 -2.41392,-0.85093 -3.70139,-1c-1.62853,-0.18856 -3.32301,0.26529 -4.93519,0c-6.09272,-1.00258 -8.96538,-3 -14.80556,-3c-6.86191,-1.85387 -13.85003,-0.29938 -20.97454,-1c-1.29107,-0.12696 -2.42107,-0.81486 -3.70139,-1c-3.41306,-0.49356 -8.0262,0.05811 -11.44862,0.05811c-2.99377,0 -6.02038,-0.41806 -8.98103,-0.05811c-1.28615,0.15637 -2.41667,0.83607 -3.70139,1c-8.82682,1.12633 -19.03746,0.05811 -28.03287,0.05811c0,0 -5.55208,0 -5.55208,-4.5c0,-0.89784 0.22102,-1.61654 0.57486,-2.19184zM-143.88608,190.57526c-0.48335,-0.32454 -0.9737,-0.66307 -1.46568,-1.00854c0.04698,0.23386 0.07173,0.47377 0.07242,0.71826c0.46523,0.09607 0.92962,0.1928 1.39325,0.29029zM-175.133,191.95502c0.17548,-0.0038 0.35217,-0.00548 0.53041,-0.00501l-0.35655,-0.09633c-0.05733,0.0341 -0.11531,0.06787 -0.17387,0.10134zM-191.52542,182.35127c0.10991,0.18539 0.20971,0.37021 0.29975,0.5544c0.14762,-0.1352 0.30017,-0.26356 0.46313,-0.37806c-0.25433,-0.06082 -0.50864,-0.11965 -0.76288,-0.17634z" fill="#ffffff" stroke="none" stroke-width="0.5"/><path d="M-8.37373,291.78956c-2.57117,0.00911 -5.61796,0.00594 -6.74006,0.00594c-7.04761,0 -13.3539,-0.32043 -20.28784,-1.0219c-3.3524,-0.33915 -6.8561,-0.28833 -10.01576,-1.25762c-3.11523,-0.95565 -5.6857,-2.82252 -8.39541,-4.39255c-1.24427,-0.72094 -5.1805,-0.3013 -5.75949,-0.44831c-2.4439,-0.62051 -4.60396,-1.81935 -6.90594,-2.72903l-0.40693,-0.68958l-0.27263,0.22097l-2.46759,-2c-0.76043,-0.61633 -1.30129,-1.4106 -1.51936,-2.29914c-2.93957,-0.84326 -6.25462,-0.78447 -9.13881,-1.76752c-1.36689,-0.4659 -2.33869,-1.52611 -3.70139,-2c-1.60473,-0.55805 -3.513,-0.41973 -5.0752,-1.0521c-1.90221,-0.77 -3.27928,-2.22281 -5.12582,-3.07721c-4.4313,-2.05039 -10.05408,-2.7994 -12.42307,-7.26393c-0.76928,-1.44977 -0.28175,-3.14805 -0.42262,-4.72208c0.04262,-0.47618 0.02772,-0.96373 0.00751,-1.45234c-0.38813,-0.08913 -0.77052,-0.18209 -1.14635,-0.27859c0,0 -5.26716,-1.42302 -3.51145,-5.6921c1.75572,-4.26907 7.02289,-2.84605 7.02289,-2.84605c0.90091,0.26286 1.9318,0.48856 3.02575,0.66659c5.86506,-3.17944 14.53764,-2.89752 21.12826,-2.89752c0.18555,0 0.43602,-0.00006 0.73692,-0.00013c3.32823,-0.48563 6.66567,-0.93182 7.44172,-0.98454c7.22255,-0.49063 15.4636,-0.06925 22.66627,-0.01533c2.07077,0.0155 4.19755,-0.27279 6.2108,0.12038c2.07435,0.4051 3.80431,1.57757 5.78427,2.22216c2.68679,0.8747 5.61334,1.2702 8.19699,2.32953c1.15309,0.47278 1.73329,1.58034 2.79506,2.17734c1.85203,1.04135 4.37077,1.34754 5.88317,2.70218c0.72737,0.6515 1.16433,1.45953 1.50718,2.31098c6.15323,-0.84849 12.10933,-3.12588 18.29603,-3.82886c3.72897,-0.42371 8.00851,-0.03372 11.78254,-0.03372c5.29617,0 11.12076,-0.68836 16.01108,1.45758c5.26187,2.30898 7.33553,5.28955 7.92819,9.14056c0.85157,-0.70727 1.75061,-1.37233 2.75295,-1.92607c1.07465,-0.59368 2.58125,-0.4644 3.70139,-1c1.24813,-0.59681 1.89953,-1.92898 3.2618,-2.32953c1.4931,-0.43901 8.92595,-0.34254 10.76127,-0.34254c4.44088,0.0443 9.74409,-0.55934 13.14066,2.8688c1.46649,1.48013 0.81861,3.74202 1.048,5.6312c0.39943,3.28968 0.30207,5.99757 -1.16912,8.62785c0.40462,4.17322 0.46378,10.17811 -2.77687,13.42968c-3.81036,3.82321 -11.63373,2.46584 -16.36984,3.3221c-1.79511,0.32455 -3.13891,1.67968 -4.93519,2c-2.20299,0.39285 -4.52412,-0.11371 -6.76621,0.08666c-3.37095,0.30126 -6.51183,1.61838 -9.87037,2c-5.12932,0.58283 -9.74647,0.3052 -15.02599,1.01838c-2.06464,0.00761 -8.45279,0.11756 -9.98541,-0.32721c-1.29868,-0.37688 -1.85453,-1.72579 -3.07841,-2.24156c-2.35766,-0.99359 -5.20629,-0.92301 -7.79759,-1.42184zM9.93345,272.94407c1.3182,-0.15881 2.514,0.03313 3.68096,0.35239c0.13969,-0.17523 0.2416,-0.34352 0.29515,-0.50096h-3.83481c-0.04661,0.0497 -0.09372,0.09923 -0.14129,0.14858zM-72.88583,267.89509c0.3734,0.06317 0.74956,0.11977 1.12699,0.17337c0.05025,-0.07138 0.10285,-0.14154 0.1577,-0.2104c-0.42828,0.0128 -0.85655,0.02578 -1.28469,0.03704z" fill="#ffffff" stroke="none" stroke-width="0.5"/><path d="M114.08566,213.28538c-0.00073,-6.7041 -1.03298,-10.4799 6.00711,-15.64347c1.27756,-0.93703 3.24674,-0.94304 4.82306,-1.50687c5.62814,-2.01309 12.08639,-4.66227 18.53915,-3.14946c1.70472,0.39966 2.93772,1.63243 4.5318,2.2645c4.5623,1.80897 9.66298,3.07854 11.03429,6.94741c0.90685,-0.46524 1.92195,-0.83369 2.74718,-1.38503c3.66844,-2.45086 6.17072,-5.85346 8.77071,-9.01611c3.62945,-4.41487 7.00472,-9.64161 12.20383,-12.98389c2.58524,-1.66194 5.76602,-2.62227 8.79804,-3.67742c5.3218,-1.852 8.56962,-3.30125 14.46266,-3.34254c1.83582,-0.01286 8.48789,-0.05205 9.52748,0.34254c6.72481,2.55253 8.26158,9.91528 8.36257,15.15746c-0.00901,1.18553 -0.19314,2.3787 -0.02702,3.55658c0.0574,0.40693 0.4122,1.58528 0.76365,3.02121c0.13213,-0.08874 0.24549,-0.16534 0.3353,-0.22839c1.07916,-0.75745 2.80048,-0.58779 4.02885,-1.17734c3.80829,-1.82776 6.67285,-5.21144 11.18037,-6.47899c1.39323,-0.39178 2.9677,0.06809 4.42095,-0.13498c1.28163,-0.17909 2.41667,-0.83607 3.70139,-1c5.86309,-0.74815 14.54048,-0.5853 20.28564,0c7.19509,0.73302 13.41867,3.87924 20.53651,4.61396c1.99657,2.75556 4.30949,5.37579 5.9897,8.26667c2.28446,3.93053 2.77338,9.04225 2.8108,13.31684c1.39901,0.40037 2.54084,1.24226 3.1707,2.31915l2.27903,3.69434c0.95604,0.91328 1.82511,1.95423 2.62395,3.25385c0.50009,0.81358 0.39729,1.82938 0.96916,2.61129c0.73895,1.01037 2.37997,1.53958 2.87417,2.64371c0.51189,1.14369 0.42262,6.04334 0.42262,7.72208v3c0,2.41773 -2.35247,4.39014 -5.30339,4.49557c-0.07196,0.16007 -0.13819,0.32052 -0.19636,0.48152l-0.63621,0.3741l0.26829,0.14497l-2.41982,2.94193c-0.98857,1.24065 -2.70964,2.06192 -4.66738,2.06192c-1.07134,0 -2.0718,-0.24594 -2.92015,-0.67196c-1.61318,1.67196 -4.48263,1.67196 -4.48263,1.67196h-1.2338c-4.24364,0 -8.81768,-0.4076 -13.02467,-0.0219c-4.59848,0.42159 -9.04927,1.6933 -13.66092,2.00657c-6.94434,0.47173 -14.03535,-0.47623 -20.97454,0c-5.90396,0.40519 -11.806,1.00654 -17.73109,1.01533c-13.98302,0 -27.96606,0 -41.94908,0c-7.40816,0 -15.38579,0.62447 -22.75543,-0.0219c-2.08488,-0.18286 -4.08283,-0.82695 -6.16898,-1c-4.05405,-0.3363 -7.18198,0.39811 -11.23546,-0.01182c-7.48177,-0.75662 -15.19945,-2.85098 -22.61882,-4.05367c0,0 -4.15101,-0.67288 -4.47889,-3.78131c-0.37187,-0.11941 -0.7463,-0.2407 -1.12316,-0.36223c-1.98573,-0.64036 -4.41628,-0.81859 -5.87159,-2.08709c-2.8752,-2.50614 -3.62535,-7.76687 -2.43734,-10.90406c0.22954,-0.60612 1.07092,-0.90562 1.72882,-1.30302c-1.17626,-3.27304 -1.60992,-6.58012 -0.49502,-8.69698c1.54925,-2.94158 4.75957,-4.45998 8.21395,-5.28504zM257.20606,217.29249c0,0.34544 -0.03272,0.66436 -0.09313,0.95881c0.1559,-0.10997 0.31203,-0.21969 0.46841,-0.32913c-0.14122,-0.29449 -0.24529,-0.60401 -0.30756,-0.92478c-0.02445,0.0137 -0.04906,0.02724 -0.07379,0.04062c0.00402,0.08319 0.00607,0.16801 0.00607,0.25448zM259.98888,212.39134l0.72223,-0.35122c-0.39442,0.07416 -0.78828,0.1506 -1.18185,0.22831c0.03015,0.10503 0.05578,0.21146 0.07668,0.31917c0.12408,-0.06948 0.25182,-0.13498 0.38295,-0.19626zM174.96403,203.75278c-0.25525,-0.19196 -0.49728,-0.39063 -0.72551,-0.59565c-0.67761,0.69259 -1.38025,1.36858 -2.11705,2.02221c0.83595,0.07071 1.59812,0.00484 2.13462,-0.46303c0.31559,-0.27523 0.52124,-0.61365 0.70794,-0.96353zM211.78062,181.73178c0.04481,-0.67384 0.11492,-1.33881 -0.49903,-1.28183c-1.27736,0.11855 -2.61385,0.11247 -3.94852,0.11233c0.59326,0.14686 1.15055,0.30207 1.65995,0.46114c0.88555,0.27653 1.85544,0.46889 2.7876,0.70836zM273.45341,194.95056c1.77923,0.68848 3.51463,1.47031 5.38589,1.96232c0.46024,0.12101 0.98139,0.15177 1.52165,0.14898c-1.54353,-0.36677 -3.0991,-1.10901 -4.59911,-1.51293c-0.76518,-0.20605 -1.5346,-0.40759 -2.30843,-0.59837zM129.70578,234.33005c0.40337,0.1289 1.08007,0.29496 1.84966,0.47514c0.13873,-0.00842 0.27889,-0.0127 0.42027,-0.0127h1.60169c-0.08299,-0.02921 -0.16583,-0.0587 -0.24854,-0.08847l-3.61559,-0.48841c-0.00259,0.03815 -0.00508,0.0763 -0.0075,0.11444zM213.8239,201.68985c0.06178,-0.52698 0.14313,-1.05879 0.18227,-1.5775c-0.40953,0.31207 -0.80888,0.62999 -1.17193,0.96779c0.34478,0.21192 0.67701,0.41656 0.98968,0.60971zM228.98526,230.57067c0.00841,0.00189 0.01682,0.00379 0.02523,0.00568c0.01129,-0.00182 0.02255,-0.00364 0.03382,-0.00546c-0.01968,-0.00008 -0.03936,-0.00015 -0.05904,-0.00022zM286.3011,208.59101c0.10426,0.00665 0.20957,0.01096 0.3154,0.01399c-0.0145,-0.0769 -0.02917,-0.15377 -0.04401,-0.23062c-0.08607,0.07442 -0.17649,0.14666 -0.27139,0.21663zM198.33928,241.79249c0.80584,0 -0.80584,0 0,0z" fill="#ffffff" stroke="none" stroke-width="0.5"/><path d="M-119.65451,97.95952c-1.75572,4.26907 -7.02289,2.84605 -7.02289,2.84605l-3.49796,-0.94853c-0.50042,-0.10104 -0.99865,-0.21124 -1.49572,-0.32619c-0.56456,1.51415 -1.16933,2.87136 -1.7449,3.82614c-2.89488,4.80222 -8.76459,7.12041 -14.90603,8.55913c-1.18528,0.27767 -2.51122,-0.26358 -3.70139,0c-3.4038,0.75382 -6.04666,3.08506 -9.42903,3.8998c-8.78733,2.11669 -18.60531,1.22058 -27.62668,1.22058c0,0 -5.55208,0 -5.55208,-4.5c0,-1.09247 0.32723,-1.91972 0.82281,-2.54614c-0.25362,-0.0392 -0.50028,-0.09291 -0.72783,-0.18478c-2.3853,-0.96309 -5.71983,-1.32473 -6.91161,-3.25661c-1.38808,-2.25011 1.22391,-6.77484 2.10286,-9.27061c0.44702,-1.26931 2.27032,-7.69413 2.72081,-8.56235c0.57483,-1.10787 1.85046,-1.90718 2.46759,-3c0.9278,-1.64294 0.57116,-3.84587 2.12852,-5.13873c1.97058,-1.63589 5.19686,-1.80923 7.63161,-2.96372c3.41218,-1.61796 6.56703,-3.99651 10.46733,-4.51895c3.8736,-0.51887 7.77208,0.08851 11.21103,1.61396c0.77628,0.34435 0.85549,1.39661 1.67339,1.67047c0.76738,0.25695 1.65189,-0.41649 2.46604,-0.28444c1.98303,0.32164 3.97469,0.80125 5.73095,1.61396c1.19927,0.55497 3.06707,1.93748 2.8687,2.89527c0.31844,-0.56087 0.56757,-1.19679 1.24008,-1.37425c5.63476,-1.48697 15.78391,0.94039 18.842,5.18355c1.18137,1.63918 0.75312,3.77812 0.61536,5.67319c-0.01516,0.20849 -0.03748,0.43095 -0.06648,0.66554c1.18585,0.2413 2.07412,0.4228 2.27727,0.4641l3.90482,1.05147c0,0 5.26716,1.42302 3.51145,5.6921zM-140.27849,88.95255c0.14928,-0.15338 0.75792,-0.16502 0.5913,-0.29269c-0.25493,-0.19533 -0.70732,0.04325 -1.05238,-0.00805c-1.60144,-0.23808 -3.2407,-1.23471 -4.78155,-0.8084c-0.18133,0.05017 -0.36139,0.10291 -0.54035,0.15788c0.72103,0.37408 1.38959,0.78281 1.97607,1.22596c0.2167,-0.09106 0.43707,-0.18132 0.65676,-0.19076c1.0469,-0.04497 2.09993,-0.08791 3.15014,-0.08395zM-183.6926,104.70857c1.34595,0.68802 3.05362,0.76258 4.48388,1.32793c0.06258,-0.02623 0.12423,-0.05296 0.185,-0.08017c-1.6827,-0.26074 -3.09577,-1.13709 -3.86874,-2.32879l-0.28545,0.34704c-0.18979,0.2382 -0.4066,0.46093 -0.64689,0.66537c0.04398,0.02317 0.08806,0.04605 0.13221,0.06862z" fill="#ffffff" stroke="none" stroke-width="0.5"/><path d="M282.60985,38.84053c-1.72055,1.88784 -2.82766,4.27426 -5.16165,5.66351c-1.36244,0.81096 -3.4218,0.0313 -5.04557,0.41208c-3.01495,0.70701 -5.62188,2.26795 -8.35924,3.51247c-5.40176,2.45588 -10.4556,6.45787 -15.30613,9.58794c-1.77944,1.14828 -3.04618,2.87954 -5.09665,3.67742c-2.68399,1.04438 -6.06511,0.17815 -8.835,1.06302c-4.20356,1.34288 -5.08192,2.69608 -9.67351,3.22141c-6.21318,0.71086 -10.51994,-1.51462 -16.37327,-1.97561c-3.25198,-0.25611 -6.54131,0.12286 -9.80741,0.10822c-1.46615,0.52515 -2.70742,1.53611 -4.27797,1.80511c-2.4284,0.41593 -4.96275,0.09625 -7.44459,0.12038c-0.30913,0.00301 -0.6225,0.00826 -0.93951,0.01525c-0.63391,1.43706 -2.14396,2.53649 -4.00861,2.87561l-4.87886,0.97804l-0.06373,-0.20883l-0.56605,0.30421c-3.8327,0.04441 -7.67095,-0.03962 -11.49811,0.13323c-3.82082,0.17257 -7.69259,1.58237 -11.42618,0.90215c-0.20342,-0.03706 -0.40578,-0.07665 -0.60714,-0.11862l-0.01299,0.08421l-9.79729,-0.9926c-0.22013,-0.01968 -0.43639,-0.04979 -0.648,-0.08971c-3.23703,0.29603 -6.54875,0.11706 -9.84059,0.11706c-6.16898,0 -12.33797,0 -18.50695,0c0,0 -2.03467,0 -3.64056,-0.99832c-0.88225,-0.16473 -1.8176,-0.5616 -2.75295,-1.3197c-3.92592,-3.18198 0,-6.36396 0,-6.36396l1.2338,-1c1.44517,-1.17132 6.39846,-5.2164 7.176,-5.64595c1.07465,-0.59368 2.58014,-0.46593 3.70139,-1c0.79428,-0.37833 1.14862,-1.18415 1.86654,-1.65211c0.74732,-0.48713 6.69363,-3.60143 7.716,-4.19349c3.19775,-1.85181 6.47485,-3.63475 9.43937,-5.72602c1.93676,-1.36626 3.34659,-3.2448 5.51655,-4.35724c2.482,-1.27242 5.34599,-2.02419 8.17542,-2.66202c1.05042,-0.23679 2.24019,0.37396 3.26929,0.08209c1.58456,-0.44941 2.8228,-1.47347 4.2342,-2.21021c1.6645,-1.20351 2.9857,-2.823 4.99352,-3.61053c1.48499,-0.58246 3.3121,-0.05206 4.93674,-0.28444c5.5498,-0.79381 10.5415,-3.43492 16.25033,-4.02439c5.66223,-0.58466 12.28083,-0.03372 17.95152,-0.03372c16.66949,0 33.24021,-0.031 49.8098,1.01533c8.65501,0.54654 17.51079,2.14527 26.14044,3.01942c0,0 5.50921,0.55816 4.82055,5.02341c-0.29374,1.9046 -1.4645,2.89527 -2.71069,3.40515c-0.01625,0.45759 -0.00967,0.90761 0.04774,1.34073zM264.8612,38.03186c-3.01135,-0.02185 -6.51847,-0.09282 -9.53109,0.33724c0.95311,0.77955 1.55684,1.84018 1.60512,3.01484c2.09124,-1.07229 4.07854,-1.80974 6.77364,-2.87237c0.38729,-0.1527 0.77056,-0.31445 1.15233,-0.47972z" fill="#ffffff" stroke="none" stroke-width="0.5"/><path d="M28.55612,124.83545c0.46863,0.10811 0.9417,0.19558 1.42515,0.23476c2.45534,0.19901 4.95272,-0.23803 7.40278,0c3.64393,0.35402 6.84322,2.15646 10.20432,3.35097c3.06612,1.08967 6.68112,0.87137 9.74894,1.95786c2.26202,0.80111 4.24284,2.0461 6.36427,3.06915c3.22582,0.89835 5.93179,2.73078 8.89335,4.1023c1.2412,0.5748 2.81688,0.56312 4.04353,1.15808c0.99815,0.48413 1.47013,1.51493 2.46759,2c1.1152,0.54233 2.63119,0.40106 3.70139,1c1.657,0.92735 3.20296,2.07885 4.27158,3.46214c3.7598,4.86694 2.86322,11.32018 -2.75841,15.04416c-1.44785,0.95911 -3.72974,0.55282 -5.39795,1.23753c-1.23063,0.5051 -1.76252,1.90616 -3.07841,2.24156c-2.24893,0.57322 -4.70384,0.27526 -7.05988,0.34254c-3.62804,0.10361 -6.99564,-0.04099 -10.37264,-0.30559c-1.36026,0.78267 -2.60077,1.77977 -4.18468,2.14231c-2.45519,0.56197 -5.10007,0.13314 -7.65102,0.16328c-5.76928,0.06816 -12.22184,0.54572 -17.95152,-0.03372c-3.36529,-0.34033 -6.50358,-1.6696 -9.87037,-2c-1.70298,-0.16712 -3.46375,0.24702 -5.14617,-0.02439c-2.43223,-0.39237 -4.62982,-1.51066 -7.04698,-1.94189c-1.59698,0 -3.19397,0 -4.79094,0c-0.342,0.01163 -0.68329,0.01412 -1.02316,0c-2.8193,0 -5.63861,0 -8.45791,0c-5.80599,0 -12.19524,0.56066 -17.95152,-0.03372c-4.61394,-0.47642 -8.54958,-2.28954 -12.99794,-3.09898c-3.72388,-0.67761 -7.7409,-0.11468 -11.37473,-1.06039c-2.21887,-0.57747 -4.25759,-1.4887 -6.16099,-2.5814c-0.62223,0.48727 -1.29471,0.94557 -1.87595,1.45646c0,0 -3.92592,3.18198 -7.85183,0c-3.92592,-3.18198 0,-6.36396 0,-6.36396c0.34464,-0.22839 0.61721,-0.50045 0.84146,-0.80206c-0.00002,-0.00532 -0.00004,-0.01064 -0.00004,-0.01596c0,-0.24985 0.02512,-0.49495 0.07344,-0.73372c-3.17821,-1.58115 -6.00811,-4.1102 -8.31764,-6.0843c-1.69067,-1.44513 -4.06329,-2.58886 -4.90493,-4.45991c-0.9078,-2.01811 -0.6861,-4.36933 0,-6.44415c0.40887,-1.23644 2.22363,-1.84041 3.09297,-2.90912c1.11086,-1.36564 1.50547,-3.09844 2.8094,-4.34692c1.14765,-1.09884 2.99069,-1.56914 4.3437,-2.50193c2.00999,-1.38571 3.4121,-3.39845 5.71965,-4.43586c7.10518,-3.19431 12.96065,-0.66054 19.23565,1.4779c1.90723,-0.74232 3.78767,-1.54123 5.82565,-1.9701c3.33157,-0.70108 6.0709,0.21621 9.29497,-0.07657c1.20921,-0.10981 2.39894,-0.29236 3.57633,-0.51553c4.39918,-2.16241 9.3365,-3.09205 14.18305,-5.04222c1.5895,-0.63959 2.83584,-1.84101 4.5318,-2.2645c1.63589,-0.40848 10.4711,-0.17601 11.63148,0.33938c1.91515,0.85063 2.66562,2.80992 4.14146,4.11459c1.24235,1.09825 2.61395,2.0972 3.93867,3.13161c0.4273,0.10498 0.85813,0.1993 1.29359,0.27945c1.60877,0.29609 3.42499,-0.25091 4.93674,0.28444c1.36127,0.48206 7.37559,5.30742 7.93995,6.43538c0.12866,0.25716 0.224,0.60678 0.29276,1.02103zM-20.01635,125.05089c-0.00194,0.00123 -0.00387,0.00246 -0.00581,0.00369c0.70693,-0.05357 1.38085,-0.04654 1.93621,0.23303c0.04547,-0.20642 0.10011,-0.41028 0.16411,-0.61073c-0.69798,0.12694 -1.39613,0.25255 -2.09451,0.37401z" fill="#ffffff" stroke="none" stroke-width="0.5"/><path d="M-271.70342,431.65986c-0.95143,-1.32557 -0.28954,-3.06289 -0.61536,-4.57354c-0.90398,-4.19129 -1.94042,-7.91363 -1.2037,-12.27064c0.17658,-1.04433 0.99912,-1.96321 1.2338,-3c0.29769,-1.31517 -0.30957,-2.77598 0.35094,-4.00126c1.59328,-2.95562 8.04722,-7.13554 11.51992,-8.39324c2.50751,-0.90813 5.50989,-0.71292 7.96379,-1.71261c2.02749,-0.82598 2.0809,-3.27861 3.35,-4.80327c2.82551,-3.39447 6.85961,-6.62889 10.44854,-9.55078c7.72901,-5.98496 19.52011,-9.90883 30.51402,-8.2843c2.77482,0.41002 5.83504,0.72801 8.02918,2.16453c1.71371,1.12199 1.89705,3.22529 2.7286,4.87872c0.14115,0.28065 0.32973,0.5635 0.51914,0.84834c0.41665,-0.03923 0.82405,-0.09738 1.16515,-0.25324c2.0866,-0.95344 3.00749,-3.17065 5.11859,-4.08797c1.49447,-0.64938 3.4171,-0.38766 4.93519,-1c0.97992,-0.39526 1.34423,-1.45747 2.28419,-1.91203c1.27135,-0.61482 2.85773,-0.67638 4.18098,-1.21449c3.32676,-1.35287 6.19299,-3.59395 9.80028,-4.3372c0.73896,-0.15226 9.79314,-0.12038 11.14598,-0.12038c5.45653,0 14.19827,-1.18627 19.39785,0.34254c1.36227,0.40054 2.0271,1.71465 3.2618,2.32953c2.56209,1.27591 6.15608,1.0324 8.40979,2.64595c0.97471,0.69785 0.59697,2.08093 1.2338,3c0.12048,0.17387 0.41963,-0.24336 0.66482,-0.25991c1.34417,-0.09075 2.69702,-0.05811 4.04584,-0.05811c2.79809,0 5.53221,0.68478 8.29212,1.05811c1.2698,0.17176 2.61271,-0.22887 3.86198,0.02309c2.14919,0.43346 4.02098,1.56267 6.16898,2c3.06389,0.62381 6.56708,0.26785 9.27175,1.59088c1.49387,0.73075 2.24963,2.21548 3.70139,3c1.18778,0.64186 2.9595,0.4108 4.02885,1.17734c2.17621,1.55997 3.85825,3.55277 5.37295,5.56211c0.38734,0.51383 2.12164,5.04611 2.53719,6.1114c0.62639,0.82349 1.5441,1.55876 2.16531,2.38382c0.94746,-0.16613 2.06893,0.28608 3.06199,0.15137c1.28269,-0.174 2.4129,-0.85688 3.70139,-1c7.45941,-0.82857 18.15827,-0.71128 24.78279,2.61396c6.77847,3.40252 13.51667,13.48001 9.37901,19.95129c-1.20073,1.87793 -3.93817,2.80597 -6.1572,3.91906c-0.95361,0.47834 -2.25384,0.32649 -3.2218,0.78551c-2.83797,1.34581 -4.71133,3.8244 -7.60158,5.09501c-5.79233,2.54642 -9.57246,1.68702 -14.73892,3.96915c-1.6264,0.80494 -3.04495,1.99606 -4.87922,2.41482c-3.00238,0.68543 -6.28542,-0.30907 -9.35614,0.13498c-2.3282,0.33668 -4.65779,0.67084 -6.99719,0.95167l-2.18647,0.59072c-0.30788,0.30584 -0.62588,0.5969 -1.01233,0.80513c-0.62724,0.5793 -1.26627,1.14175 -2.14043,1.36805c-4.73122,1.22481 -9.25656,-0.19779 -13.94073,1.11162c-0.8645,0.24166 -7.80629,2.11569 -8.26915,2.17282c-1.62632,0.20071 -3.30666,-0.18856 -4.93519,0c-1.28747,0.14907 -2.4129,0.85688 -3.70139,1c-6.12602,0.68046 -12.62929,-0.71489 -18.71793,0.02439c-1.67698,0.20362 -3.25517,0.81356 -4.93519,1c-2.37513,0.26358 -4.83178,-0.36567 -7.1918,-0.02439c-1.28032,0.18514 -2.41667,0.83607 -3.70139,1c-6.08802,0.77685 -13.23885,0.05811 -19.39629,0.05811c-6.14244,0 -11.35813,-0.53953 -17.61815,-1.0087c-9.11275,-0.68297 -18.61257,0.95864 -27.68788,-0.04941c-1.28849,-0.14312 -2.40919,-0.88085 -3.70139,-1c-6.78356,-0.6255 -14.4211,1.13935 -21.13513,-0.02309c-2.38574,-0.41306 -4.51085,-1.51675 -6.82725,-2.13708c-2.96274,-0.79343 -10.20205,-1.5711 -12.08808,-3.09974c-1.88159,-1.52504 -1.79612,-4.06038 -2.69419,-6.09057c0,0 -0.28672,-0.92955 -0.06634,-2.03802c-0.00737,-0.02 -0.0146,-0.0401 -0.02167,-0.06031c-0.73127,-0.55488 -1.38165,-1.16369 -1.88841,-1.86972zM-75.70133,410.0364c0.04389,0.00006 0.08772,0.00009 0.13151,0.00009c3.25784,0 6.51596,-0.03049 9.7737,-0.01901c0.48675,-0.32777 0.96205,-0.65803 1.43862,-0.98065c-3.5283,0.36601 -7.02646,0.93748 -10.53395,0.96594c-0.26703,0.00217 -0.53727,0.01425 -0.80989,0.03362zM-45.60762,416.25472c-0.24085,0.14057 -0.48218,0.28034 -0.72446,0.41854c0.1866,0.04692 0.37578,0.09399 0.56766,0.14116l-0.40425,0.76024c0.25189,0.21193 0.50704,0.42033 0.76641,0.62416l-0.59091,0.31017c0.02094,-0.00495 0.04185,-0.00992 0.06275,-0.01491c0.39955,-0.09538 1.10351,0.23641 1.24558,-0.08094c0.19884,-0.44415 -0.45927,-0.87158 -0.61536,-1.32681c-0.09738,-0.28403 -0.19971,-0.56126 -0.30743,-0.8316z" fill="#ffffff" stroke="none" stroke-width="0.5"/><path d="M5.40749,354.28766c-1.10248,-0.13193 -2.18983,-0.29943 -3.16665,-0.68794c-1.84604,-0.73422 -3.09639,-2.25394 -4.93519,-3c-1.4712,-0.59691 -3.28313,-0.42228 -4.79518,-0.9479c-1.42734,-0.49618 -2.50994,-1.50275 -3.89459,-2.0729c-4.32815,-1.78216 -8.24365,-1.75064 -12.18481,-4.56238c-6.47251,-4.61766 -6.45378,-11.00929 0.60106,-15.30797c1.03954,-0.63342 2.58014,-0.46593 3.70139,-1c3.8841,-1.85008 5.50658,-4.57152 10.66458,-4.32953c1.0302,-0.91948 1.73504,-2.17917 3.09057,-2.75844c3.0923,-1.32146 6.93363,-0.80638 10.32214,-1.5029c2.14677,-0.44128 4.00208,-1.62895 6.16898,-2c5.43916,-0.93137 11.1077,0.38522 16.40259,0.9407c2.56036,0.26861 5.19473,-0.28922 7.74503,0.03621c1.28472,0.16393 2.42107,0.81486 3.70139,1c3.10492,0.449 7.05479,-0.05811 10.21482,-0.05811c14.22479,0 27.81267,-3.66534 41.93335,-0.89037c7.11009,1.17976 14.30092,1.36746 21.33852,3.07692c3.70864,0.90084 7.50942,1.76233 10.86508,3.32744c1.53323,0.71511 2.50202,2.12673 4.11414,2.71693c0.86366,0.31619 1.90023,-0.29909 2.83502,-0.17282c0.90278,0.12195 8.80839,2.32113 9.43234,2.61396c1.00665,0.47244 1.50021,1.47643 2.46759,2c1.64686,0.89132 4.2005,0.85462 5.28657,2.19673c1.28452,1.58734 0.94353,3.73479 1.048,5.6312c0.10514,1.90887 0.37858,3.92503 -0.42262,5.72208c-0.63782,1.43059 -2.40703,2.33559 -3.67114,3.45991c-2.15811,1.91947 -6.3887,6.06534 -9.20401,6.97548c-1.528,0.49397 -3.37454,-0.42164 -4.93519,0c-1.10354,0.29814 -1.37809,1.66968 -2.46759,2c-1.61154,0.48859 -3.43181,0.20588 -5.14771,0.30883c-15.77826,3.31714 -32.57619,2.03372 -48.79643,2.03372c-6.80884,0 -12.53679,0.53553 -19.34716,0.98868c-14.31342,0.95239 -29.19863,0.01132 -43.57646,0.01132c0,0 -5.55208,0 -5.55208,-4.5c0,-0.46211 0.05854,-0.87677 0.16363,-1.24884z" fill="#ffffff" stroke="none" stroke-width="0.5"/><path d="M-77.02814,472.87253c0.77485,-0.67538 1.83424,-1.02601 2.95093,-1.31125c0.45382,-3.62017 3.1902,-7.55955 5.68564,-9.68875c0.85872,-0.73268 2.43614,-0.76037 3.21503,-1.54949c0.95612,-0.96868 0.64261,-2.56954 1.72016,-3.45051c1.00044,-0.81792 2.98348,-0.40421 3.98957,-1.21756c1.13845,-0.92036 0.91027,-2.57967 1.94306,-3.57857c1.14089,-1.10346 2.96326,-1.59593 4.3437,-2.50193c5.17151,-3.3941 9.68871,-7.88373 14.3996,-11.70194c2.31779,-1.86171 3.95397,-4.23164 6.27942,-6.08706c3.10506,-2.47745 8.0882,-3.50395 11.10417,-6c2.00364,-1.65824 3.90346,-3.42477 5.48038,-5.36215c1.01281,-1.24433 1.44744,-2.75961 2.46759,-4c0.57396,-0.69787 1.71889,-1.01419 2.24879,-1.73459c0.66598,-0.9054 0.50973,-2.12438 1.2338,-3c1.10688,-1.33854 2.86599,-2.24381 4.13062,-3.48716c3.32312,-3.26719 6.49871,-6.29822 10.23812,-9.32903c1.05894,-0.85828 7.6364,-6.23496 8.40979,-6.64595c0.57679,-0.30651 7.37686,-2.12597 8.56597,-2.44115c7.15774,-1.89717 10.63784,-2.23093 17.79507,-2.23093c7.07965,0.0545 13.31344,2.41184 20.28784,3.0219c13.96478,1.22151 27.92496,3.97371 40.47952,9.58233c4.00246,1.78806 7.52937,6.61201 12.06846,7.51615c2.24118,0.44642 6.16827,-0.88425 7.9164,-1.08666c2.87885,-0.33333 5.75536,-0.68026 8.63658,-1c6.519,-0.72344 13.84892,-0.03372 20.41911,-0.03372c3.51627,0 7.06498,-0.35289 10.54874,0.03372c1.68001,0.18644 3.25014,0.84619 4.93519,1c2.16657,0.19776 4.40469,-0.30735 6.54055,0.04748c2.49298,0.41416 4.74537,1.4915 7.12489,2.22274c7.15551,2.19893 15.29456,4.05924 21.8876,7.36813c1.74829,0.87743 3.17203,2.14233 4.93519,3c7.66701,3.72956 16.74057,7.43393 23.21535,12.64595c0.88466,0.71212 0.98442,1.93029 1.91176,2.6058c1.80449,1.31447 4.85171,0.76328 6.9516,1.74825c0.94736,0.44437 1.331,1.47595 2.28419,1.91203c1.70069,0.77804 6.40785,0.31634 7.68195,0.4378c7.36087,0.70169 10.08893,2.04139 17.56108,4.30217c4.39719,1.53657 10.47297,3.08803 14.19506,5.99395c1.19819,0.93545 1.80113,2.27284 2.83534,3.32903c0.91757,0.93708 2.36653,1.55732 3.00536,2.63581c1.68845,2.85051 0.99987,6.28093 1.85427,9.36616c0.48504,1.75148 2.05042,3.23708 2.46759,5c1.07302,4.53442 0.10018,9.23391 0.10018,13.85098c0,10.67613 0.70075,22.56933 -5.76438,32.36579c-1.94944,2.95393 -8.6906,6.44833 -12.34715,7.74952c-1.59245,0.56668 -3.46404,0.47568 -5.05662,1.04214c-2.39924,0.85338 -4.2488,2.73764 -6.81163,3.17926c-1.22621,0.2113 -21.67604,0.16328 -23.69037,0.16328c-16.248,0 -32.21276,-0.08994 -48.4049,-1.00601c-9.12612,-0.51631 -18.36011,0.24418 -27.50571,-0.25015c-7.44025,-0.40215 -14.69244,-2.13526 -22.10852,-2.76591c-10.11154,-0.85987 -20.54471,-0.30324 -30.68931,-0.98925c-8.70128,-0.58841 -16.83207,-3.042 -25.51615,-2.98868c0,0 -3.23346,0 -4.76519,-2c-1.19013,0 -2.38027,0 -3.5704,0c-0.76218,1.74779 -2.81874,3 -5.23616,3h-3.70139c-4.23164,1.07125 -6.58704,-0.67641 -10.54874,-1.03372c-1.97071,-0.17774 -3.97386,0.16412 -5.94855,0.01838c-9.04085,-0.66725 -18.06959,-2.37041 -27.11686,-2.99826c-5.33521,-0.37025 -10.96777,0.57011 -16.28645,-0.02012c-16.45521,-1.8261 -32.59721,-4.89937 -49.35186,-5c-0.69453,-0.13642 -9.52412,-1.8592 -10.53858,-2.10064c-2.37456,-0.56514 -5.22046,-0.51606 -7.0627,-1.85545c-1.43041,-1.03998 -6.55681,-7.94167 -4.65482,-11.14944c-0.46336,0.0334 -0.94063,0.02851 -1.397,0.08115l-0.718,-0.5336l-0.14838,0.36078l-3.57993,-0.96719c-2.26872,-0.56551 -3.91782,-2.27761 -3.91782,-4.30189c0,-1.36798 0.75312,-2.59339 1.94165,-3.41871c-4.65937,-4.14657 -7.3881,-9.67393 -1.54928,-14.76327zM-54.44352,500.69665c-0.69031,-0.26746 -1.37818,-0.53846 -2.0578,-0.82129c0.07936,0.31069 0.21756,0.55558 0.44494,0.66896c0.46893,0.23381 1.03699,0.19591 1.61286,0.15233z" fill="#ffffff" stroke="none" stroke-width="0.5"/><path d="M-227.32679,635.55451c-1.94203,-0.11418 -4.02167,0.25053 -5.82609,-0.34254c-2.89877,-0.95277 -4.05878,-3.21818 -6.33045,-4.67742c-3.25926,-2.09362 -7.24984,-3.92484 -9.6207,-6.84884c-3.55806,-4.3882 -5.09257,-9.41926 -4.74939,-14.6312c0.13472,-2.04591 -0.4188,-4.26932 0.65695,-6.12336c0.85178,-1.46803 3.2751,-1.89568 4.67061,-3.05862c1.24762,-1.0397 1.66907,-2.73916 3.19524,-3.49639c6.33446,-3.14293 11.9167,-0.97239 18.34673,-1.47909c0.19611,-0.01545 0.0054,-0.32882 0.0882,-0.47374c0.7728,-1.35274 1.64506,-2.66667 2.46759,-4c3.77685,-2.98391 5.57263,-7.8174 6.40845,-11.99296c0.35633,-1.78015 -0.42675,-3.65656 0.09485,-5.40973c1.15846,-3.89376 3.33661,-5.12528 5.5367,-8.22478c2.94639,-4.15092 2.74064,-6.26962 8.84635,-8.89879c1.51947,-0.6543 3.44876,-0.08829 5.14771,-0.30883c6.6956,-0.86913 12.23995,-1.03372 19.18531,-1.03372c5.75655,0 10.93821,-0.27462 16.51376,1.21828c2.40393,0.64367 4.77627,1.38933 7.04555,2.29912c1.91836,0.7691 5.09241,3.07111 7.32742,3.60298c3.86199,0.91904 10.71155,-0.12038 14.76375,-0.12038c4.3155,0.01407 8.59195,0.66577 12.88506,1.0219c3.62873,0.30102 7.60666,-0.36288 11.23546,0.01182c8.14126,0.84063 15.60341,4.68446 24.18141,3.04748c2.00884,-0.38336 3.72899,-1.48316 5.72288,-1.91475c2.75656,-0.59668 5.60063,-0.93124 8.44088,-1.15111c5.47419,-0.42377 10.9982,-0.01533 16.49729,-0.01533c3.95812,0 7.98876,-0.56829 11.87426,0.0435c4.602,0.7246 12.36334,2.92771 17.025,4.18743c8.28429,2.23866 15.60732,4.04591 21.91094,9.08709c6.23869,5.22483 7.77159,11.21562 10.04133,17.92384c0.72451,2.1413 2.96124,3.81256 3.68457,5.95412c0.57636,1.70639 0.19733,3.53516 0.23823,5.30403c0.1446,6.2543 1.10686,11.596 -3.72602,16.85295c-4.16853,4.5343 -8.07937,5.18541 -14.50693,7.30451c-3.12603,1.03062 -7.42918,2.14607 -10.96238,3.41625c0.10466,0.01989 0.20929,0.0401 0.3139,0.06065l1.12102,-0.13436c0,0 5.55208,0 5.55208,4.5c0,4.5 -5.55208,4.5 -5.55208,4.5l-3.81417,-0.13436c-7.33253,-1.54549 -15.37774,-1.14296 -23.12488,-0.94428l-1.43827,0.07864c0,0 -0.21094,0 -0.55059,-0.03333c-1.05844,0.02035 -2.10958,0.03333 -3.1508,0.03333c-17.7738,0 -35.75531,0.77877 -53.39825,-1.0087c-9.78874,0.00791 -20.0515,0.63655 -29.81321,-0.0132c-7.25788,-0.4831 -14.41734,-1.89704 -21.55802,-3.07238c-4.66088,-0.76718 -9.48559,-0.57862 -14.22208,-0.92762c-2.08844,-0.15388 -4.08283,-0.82695 -6.16898,-1c-5.81318,-0.48223 -12.11356,0.0219 -17.95986,0.0219c-10.30102,0 -20.60202,0 -30.90304,0c-1.60632,1 -3.64327,1 -3.64327,1z" fill="#ffffff" stroke="none" stroke-width="0.5"/><path d="M93.57454,660.54835c1.92687,-1.46168 3.49769,-3.35911 5.78684,-4.40974c3.17213,-1.45589 6.88454,-2.05208 10.48273,-2.52599c4.9293,-0.64923 9.43622,0.32317 14.11666,1c2.36002,0.34128 4.81714,-0.29065 7.1918,-0.02439c1.57949,0.1771 3.03488,0.97363 4.62941,0.97643c3.29477,0.00578 6.54295,-0.63405 9.81442,-0.95108c5.54958,-0.87993 10.56024,-3.30849 16.06717,-4.00096c1.69514,-0.21316 3.44407,0.14856 5.14617,-0.02439c1.68252,-0.17097 3.25176,-0.83503 4.93519,-1c8.58152,-0.84094 19.23264,-0.4194 27.28057,2.2458c6.92451,2.29316 9.55484,4.16204 14.3376,8.0385c1.64506,1.33333 3.439,2.55605 4.93519,4c0.30633,0.29563 0.22039,0.88893 0.66636,1.02452c0.50946,0.15489 1.03313,-0.32262 1.57669,-0.34254c2.28017,-0.08359 4.57882,-0.17057 6.84735,0.03372c6.12696,0.55174 12.15878,2.18246 17.63543,4.3612c4.96,1.60625 10.86246,1.90453 14.93506,4.70554c4.52753,3.1139 4.42006,6.43177 4.38194,10.39954c-0.01699,1.76913 0.43808,3.62191 -0.23823,5.30403c-2.12684,5.28987 -7.51378,6.8657 -12.79989,9.21151c-0.3968,0.24379 -0.81896,0.42721 -1.22958,0.56521c-3.42851,1.66058 -5.33644,3.51251 -9.74952,4.29887c-2.6047,0.46413 -5.34731,-0.13619 -8.00001,0.08666c-1.68665,0.14169 -3.24934,0.8521 -4.93519,1c-0.5228,0.04587 -14.06997,0.03372 -14.25013,0.03372c-15.79405,0 -31.06339,-0.9668 -46.6514,-3.07373c-6.03104,-1.00058 -12.03635,-1.48144 -18.07824,-1.71252c-5.96163,0.0708 -11.91675,0.04745 -17.85573,-0.20686c-5.06314,0.05759 -10.60847,0.4449 -15.56292,-0.0406c-1.68343,-0.16497 -3.25358,-0.82323 -4.93519,-1c-3.7404,-0.3932 -7.57366,0.36194 -11.31515,-0.02439c-1.57331,-0.16245 -3.13606,-0.55574 -4.6944,-1.01077c-3.26018,0.0805 -6.52618,0.28168 -9.76891,0.04698c-7.42681,-0.53754 -14.21404,-1.9781 -21.66125,-1.9781c0,0 -5.55208,0 -5.55208,-4.5c0,-2.27262 1.41608,-3.39751 2.81791,-3.9543c-0.09943,-1.02228 -0.09778,-2.08565 -0.35031,-3.0457c0.14087,-1.57403 -0.25848,-3.24362 0.42262,-4.72208c0.55246,-1.19921 2.20624,-1.84985 3.09297,-2.90912c1.26554,-1.5118 1.71472,-3.49741 3.33394,-4.76835c1.23293,-0.96773 3.27997,-0.88537 4.76237,-1.58646c1.77606,-0.83999 3.14983,-2.17304 4.93519,-3c1.01761,-0.47135 2.35486,-0.3523 3.35925,-0.84192c1.0559,-0.51473 1.54512,-1.64753 2.651,-2.08797c1.31982,-0.52565 2.52225,-0.77897 3.64067,-0.96812c0.02022,-0.01065 0.04046,-0.02128 0.06072,-0.03188c1.09999,-0.57594 2.49724,-0.58694 3.80656,-0.78393c0.82616,-0.30473 1.62102,-0.75461 2.4058,-1.48216zM70.2613,682.70557c0.20512,0.0328 0.40871,0.07001 0.61093,0.11114c0.02862,-0.1821 0.05975,-0.36427 0.09339,-0.54647c-0.28424,0.11139 -0.54825,0.23563 -0.70431,0.43534z" fill="#ffffff" stroke="none" stroke-width="0.5"/><path d="M318.08943,725.25902v-730.51801h643.82117v730.51801z" fill="#a9ffe1" stroke="#000000" stroke-width="0"/><path d="M393.42022,200.27669c-0.38415,-0.28674 -0.72619,-0.58884 -1.02665,-0.90412c-2.04671,0.61332 -3.9882,0.88112 -6.16022,0.96298c-0.02316,0.35283 -0.04882,0.70153 -0.07606,1.04388c0.87965,-0.38727 1.77477,-0.73954 2.72332,-0.95905c1.31043,-0.30324 2.74375,0.12101 4.08765,-0.06227c0.15258,-0.02081 0.30308,-0.0485 0.45198,-0.08142zM478.10657,202.97819c0.36423,1.39143 0.30549,2.80206 -0.41901,3.98725c-0.11925,0.19506 -0.2617,0.38 -0.42527,0.55528c0.41032,0.0732 0.81721,0.1621 1.21047,0.27518c0.24991,-1.29299 1.3084,-3.1788 2.05379,-4.19198c-0.70102,-0.08461 -1.3754,-0.36407 -2.05892,-0.53484c-0.12043,-0.03009 -0.24079,-0.06039 -0.36106,-0.09089zM401.20783,172.03909c0.18189,0.02667 0.36375,0.05343 0.5456,0.08021c-0.05056,-0.05295 -0.10062,-0.10688 -0.15015,-0.16184c-0.13123,0.02851 -0.26306,0.0557 -0.39544,0.08163zM487.05297,196.10235c0.3782,0.23583 0.76319,0.47897 1.14266,0.73167c0.01948,-0.16665 0.04835,-0.32848 0.08899,-0.48419c0.10397,-0.39827 1.32228,-0.84398 0.85987,-1.0029c-0.49458,-0.16998 -0.6369,0.90654 -1.17392,0.89497c-0.3151,-0.00679 -0.61927,-0.06027 -0.91761,-0.13954zM475.52179,216.45528c-0.35564,-0.08335 -0.72841,-0.15632 -1.12298,-0.21338c-1.23026,-0.1779 -2.48274,-0.13177 -3.7383,-0.06056c0.71674,0.07712 1.43608,0.1241 2.16006,0.11867c0.28404,-0.00213 1.39899,0.08573 2.70122,0.15527zM361.73684,213.60816c-2.64347,-1.47571 -5.63714,-3.57982 -7.32068,-4.68479c-0.40731,-3.17651 0.10865,-7.25024 -0.58526,-10.40254c-0.96999,-4.40643 -2.91512,-10.90236 -0.88286,-15.4429c0.49418,-1.10413 2.13782,-1.6321 2.87417,-2.64371c0.66082,-0.90788 0.54304,-2.10688 1.2338,-3c3.34195,-4.32101 9.90107,-8.1006 14.77469,-11.11425c1.34699,-0.83292 2.28152,-2.18453 3.86286,-2.67742c1.40848,-0.43901 8.99745,-0.34254 10.76127,-0.34254c6.49712,0 12.91736,-0.03848 19.39785,0.34254c4.04504,2.82519 7.49712,3.22502 11.89838,5.32953c1.4583,0.6973 2.45048,2.28917 4.13942,2.38604c4.46483,0.25607 9.12552,-0.52664 13.57176,0c5.07248,0.60081 9.76826,3.43698 14.80556,4c3.48934,0.39 6.3143,-0.82445 9.87193,0.28444c1.58134,0.49289 2.51587,1.8445 3.86286,2.67742c2.23855,1.38423 4.58397,2.68437 6.57494,4.29806c0.25611,0.20758 3.13198,2.71844 3.85197,2.87507c2.17885,0.47399 4.54302,0.28681 6.68322,0.86502c2.90808,0 5.80589,0.45983 8.63658,1c2.05254,0.39168 4.75186,-0.32481 6.22886,0.89497c3.7028,3.05794 3.36907,6.88511 3.36907,10.54692c0,2.54009 -0.81197,5.03766 -1.2754,7.54982c-0.22851,1.23876 0.28281,2.56348 -0.19663,3.7542c-0.55057,1.36736 -2.00967,2.3828 -2.79393,3.67305c-0.65426,1.07639 -0.73091,2.36263 -1.49843,3.38871c-0.72926,0.97492 -2.00448,1.60583 -2.89682,2.48716c-1.20739,1.19249 -1.84682,2.82163 -3.39118,3.72323c-3.79693,2.21667 -6.64175,1.89487 -10.77286,1.92382c-1.46819,0.01029 -9.03776,-0.00388 -9.52592,-0.05811c-1.28849,-0.14312 -2.41392,-0.85093 -3.70139,-1c-1.62853,-0.18856 -3.32301,0.26529 -4.93519,0c-6.09272,-1.00258 -8.96538,-3 -14.80556,-3c-6.86191,-1.85387 -13.85003,-0.29938 -20.97454,-1c-1.29107,-0.12696 -2.42107,-0.81486 -3.70139,-1c-3.41306,-0.49356 -8.0262,0.05811 -11.44862,0.05811c-2.99377,0 -6.02038,-0.41806 -8.98103,-0.05811c-1.28615,0.15637 -2.41667,0.83607 -3.70139,1c-8.82682,1.12633 -19.03746,0.05811 -28.03287,0.05811c0,0 -5.55208,0 -5.55208,-4.5c0,-0.89784 0.22102,-1.61654 0.57486,-2.19184zM463.72654,190.07977c-0.48335,-0.32454 -0.9737,-0.66307 -1.46568,-1.00854c0.04698,0.23386 0.07173,0.47377 0.07242,0.71826c0.46523,0.09607 0.92962,0.1928 1.39325,0.29029zM432.47962,191.45953c0.17548,-0.0038 0.35217,-0.00548 0.53041,-0.00501l-0.35655,-0.09633c-0.05733,0.0341 -0.11531,0.06787 -0.17387,0.10134zM416.0872,181.85578c0.10991,0.18539 0.20971,0.37021 0.29975,0.5544c0.14762,-0.1352 0.30017,-0.26356 0.46313,-0.37806c-0.25433,-0.06082 -0.50864,-0.11965 -0.76288,-0.17634z" fill="#ffffff" stroke="none" stroke-width="0.5"/><path d="M599.23889,291.29407c-2.57117,0.00911 -5.61796,0.00594 -6.74006,0.00594c-7.04761,0 -13.3539,-0.32043 -20.28784,-1.0219c-3.3524,-0.33915 -6.8561,-0.28833 -10.01576,-1.25762c-3.11523,-0.95565 -5.6857,-2.82252 -8.39541,-4.39255c-1.24427,-0.72094 -5.1805,-0.3013 -5.75949,-0.44831c-2.4439,-0.62051 -4.60396,-1.81935 -6.90594,-2.72903l-0.40693,-0.68958l-0.27263,0.22097l-2.46759,-2c-0.76043,-0.61633 -1.30129,-1.4106 -1.51936,-2.29914c-2.93957,-0.84326 -6.25462,-0.78447 -9.13881,-1.76752c-1.36689,-0.4659 -2.33869,-1.52611 -3.70139,-2c-1.60473,-0.55805 -3.513,-0.41973 -5.0752,-1.0521c-1.90221,-0.77 -3.27928,-2.22281 -5.12582,-3.07721c-4.4313,-2.05039 -10.05408,-2.7994 -12.42307,-7.26393c-0.76928,-1.44977 -0.28175,-3.14805 -0.42262,-4.72208c0.04262,-0.47618 0.02772,-0.96373 0.00751,-1.45234c-0.38813,-0.08913 -0.77052,-0.18209 -1.14635,-0.27859c0,0 -5.26716,-1.42302 -3.51145,-5.6921c1.75572,-4.26907 7.02289,-2.84605 7.02289,-2.84605c0.90091,0.26286 1.9318,0.48856 3.02575,0.66659c5.86506,-3.17944 14.53764,-2.89752 21.12826,-2.89752c0.18555,0 0.43602,-0.00006 0.73692,-0.00013c3.32823,-0.48563 6.66567,-0.93182 7.44172,-0.98454c7.22255,-0.49063 15.4636,-0.06925 22.66627,-0.01533c2.07077,0.0155 4.19755,-0.27279 6.2108,0.12038c2.07435,0.4051 3.80431,1.57757 5.78427,2.22216c2.68679,0.8747 5.61334,1.2702 8.19699,2.32953c1.15309,0.47278 1.73329,1.58034 2.79506,2.17734c1.85203,1.04135 4.37077,1.34754 5.88317,2.70218c0.72737,0.6515 1.16433,1.45953 1.50718,2.31098c6.15323,-0.84849 12.10933,-3.12588 18.29603,-3.82886c3.72897,-0.42371 8.00851,-0.03372 11.78254,-0.03372c5.29617,0 11.12076,-0.68836 16.01108,1.45758c5.26187,2.30898 7.33553,5.28955 7.92819,9.14056c0.85157,-0.70727 1.75061,-1.37233 2.75295,-1.92607c1.07465,-0.59368 2.58125,-0.4644 3.70139,-1c1.24813,-0.59681 1.89953,-1.92898 3.2618,-2.32953c1.4931,-0.43901 8.92595,-0.34254 10.76127,-0.34254c4.44088,0.0443 9.74409,-0.55934 13.14066,2.8688c1.46649,1.48013 0.81861,3.74202 1.048,5.6312c0.39943,3.28968 0.30207,5.99757 -1.16912,8.62785c0.40462,4.17322 0.46378,10.17811 -2.77687,13.42968c-3.81036,3.82321 -11.63373,2.46584 -16.36984,3.3221c-1.79511,0.32455 -3.13891,1.67968 -4.93519,2c-2.20299,0.39285 -4.52412,-0.11371 -6.76621,0.08666c-3.37095,0.30126 -6.51183,1.61838 -9.87037,2c-5.12932,0.58283 -9.74647,0.3052 -15.02599,1.01838c-2.06464,0.00761 -8.45279,0.11756 -9.98541,-0.32721c-1.29868,-0.37688 -1.85453,-1.72579 -3.07841,-2.24156c-2.35766,-0.99359 -5.20629,-0.92301 -7.79759,-1.42184zM617.54607,272.44858c1.3182,-0.15881 2.514,0.03313 3.68096,0.35239c0.13969,-0.17523 0.2416,-0.34352 0.29515,-0.50096h-3.83481c-0.04661,0.0497 -0.09372,0.09923 -0.14129,0.14858zM534.72679,267.3996c0.3734,0.06317 0.74956,0.11977 1.12699,0.17337c0.05025,-0.07138 0.10285,-0.14154 0.1577,-0.2104c-0.42828,0.0128 -0.85655,0.02578 -1.28469,0.03704z" fill="#ffffff" stroke="none" stroke-width="0.5"/><path d="M720.19678,215.79289c-0.00073,-6.7041 -1.03298,-10.4799 6.00711,-15.64347c1.27756,-0.93703 3.24674,-0.94304 4.82306,-1.50687c5.62814,-2.01309 12.08639,-4.66227 18.53915,-3.14946c1.70472,0.39966 2.93772,1.63243 4.5318,2.2645c4.5623,1.80897 9.66298,3.07854 11.03429,6.94741c0.90685,-0.46524 1.92195,-0.83369 2.74718,-1.38503c3.66844,-2.45086 6.17072,-5.85346 8.77071,-9.01611c3.62945,-4.41487 7.00472,-9.64161 12.20383,-12.98389c2.58524,-1.66194 5.76602,-2.62227 8.79804,-3.67742c5.3218,-1.852 8.56962,-3.30125 14.46266,-3.34254c1.83582,-0.01286 8.48789,-0.05205 9.52748,0.34254c6.72481,2.55253 8.26158,9.91528 8.36257,15.15746c-0.00901,1.18553 -0.19314,2.3787 -0.02702,3.55658c0.0574,0.40693 0.4122,1.58528 0.76365,3.02121c0.13213,-0.08874 0.24549,-0.16534 0.3353,-0.22839c1.07916,-0.75745 2.80048,-0.58779 4.02885,-1.17734c3.80829,-1.82776 6.67285,-5.21144 11.18037,-6.47899c1.39323,-0.39178 2.9677,0.06809 4.42095,-0.13498c1.28163,-0.17909 2.41667,-0.83607 3.70139,-1c5.86309,-0.74815 14.54048,-0.5853 20.28564,0c7.19509,0.73302 13.41867,3.87924 20.53651,4.61396c1.99657,2.75556 4.30949,5.37579 5.9897,8.26667c2.28446,3.93053 2.77338,9.04225 2.8108,13.31684c1.39901,0.40037 2.54084,1.24226 3.1707,2.31915l2.27903,3.69434c0.95604,0.91328 1.82511,1.95423 2.62395,3.25385c0.50009,0.81358 0.39729,1.82938 0.96916,2.61129c0.73895,1.01037 2.37997,1.53958 2.87417,2.64371c0.51189,1.14369 0.42262,6.04334 0.42262,7.72208v3c0,2.41773 -2.35247,4.39014 -5.30339,4.49557c-0.07196,0.16007 -0.13819,0.32052 -0.19636,0.48152l-0.63621,0.3741l0.26829,0.14497l-2.41982,2.94193c-0.98857,1.24065 -2.70964,2.06192 -4.66738,2.06192c-1.07134,0 -2.0718,-0.24594 -2.92015,-0.67196c-1.61318,1.67196 -4.48263,1.67196 -4.48263,1.67196h-1.2338c-4.24364,0 -8.81768,-0.4076 -13.02467,-0.0219c-4.59848,0.42159 -9.04927,1.6933 -13.66092,2.00657c-6.94434,0.47173 -14.03535,-0.47623 -20.97454,0c-5.90396,0.40519 -11.806,1.00654 -17.73109,1.01533c-13.98302,0 -27.96606,0 -41.94908,0c-7.40816,0 -15.38579,0.62447 -22.75543,-0.0219c-2.08488,-0.18286 -4.08283,-0.82695 -6.16898,-1c-4.05405,-0.3363 -7.18198,0.39811 -11.23546,-0.01182c-7.48177,-0.75662 -15.19945,-2.85098 -22.61882,-4.05367c0,0 -4.15101,-0.67288 -4.47889,-3.78131c-0.37187,-0.11941 -0.7463,-0.2407 -1.12316,-0.36223c-1.98573,-0.64036 -4.41628,-0.81859 -5.87159,-2.08709c-2.8752,-2.50614 -3.62535,-7.76687 -2.43734,-10.90406c0.22954,-0.60612 1.07092,-0.90562 1.72882,-1.30302c-1.17626,-3.27304 -1.60992,-6.58012 -0.49502,-8.69698c1.54925,-2.94158 4.75957,-4.45998 8.21395,-5.28504zM863.31718,219.8c0,0.34544 -0.03272,0.66436 -0.09313,0.95881c0.1559,-0.10997 0.31203,-0.21969 0.46841,-0.32913c-0.14122,-0.29449 -0.24529,-0.60401 -0.30756,-0.92478c-0.02445,0.0137 -0.04906,0.02724 -0.07379,0.04062c0.00402,0.08319 0.00607,0.16801 0.00607,0.25448zM866.1,214.89885l0.72223,-0.35122c-0.39442,0.07416 -0.78828,0.1506 -1.18185,0.22831c0.03015,0.10503 0.05578,0.21146 0.07668,0.31917c0.12408,-0.06948 0.25182,-0.13498 0.38295,-0.19626zM781.07515,206.26029c-0.25525,-0.19196 -0.49728,-0.39063 -0.72551,-0.59565c-0.67761,0.69259 -1.38025,1.36858 -2.11705,2.02221c0.83595,0.07071 1.59812,0.00484 2.13462,-0.46303c0.31559,-0.27523 0.52124,-0.61365 0.70794,-0.96353zM817.89174,184.23929c0.04481,-0.67384 0.11492,-1.33881 -0.49903,-1.28183c-1.27736,0.11855 -2.61385,0.11247 -3.94852,0.11233c0.59326,0.14686 1.15055,0.30207 1.65995,0.46114c0.88555,0.27653 1.85544,0.46889 2.7876,0.70836zM879.56453,197.45807c1.77923,0.68848 3.51463,1.47031 5.38589,1.96232c0.46024,0.12101 0.98139,0.15177 1.52165,0.14898c-1.54353,-0.36677 -3.0991,-1.10901 -4.59911,-1.51293c-0.76518,-0.20605 -1.5346,-0.40759 -2.30843,-0.59837zM735.8169,236.83756c0.40337,0.1289 1.08007,0.29496 1.84966,0.47514c0.13873,-0.00842 0.27889,-0.0127 0.42027,-0.0127h1.60169c-0.08299,-0.02921 -0.16583,-0.0587 -0.24854,-0.08847l-3.61559,-0.48841c-0.00259,0.03815 -0.00508,0.0763 -0.0075,0.11444zM819.93502,204.19736c0.06178,-0.52698 0.14313,-1.05879 0.18227,-1.5775c-0.40953,0.31207 -0.80888,0.62999 -1.17193,0.96779c0.34478,0.21192 0.67701,0.41656 0.98968,0.60971zM835.09638,233.07818c0.00841,0.00189 0.01682,0.00379 0.02523,0.00568c0.01129,-0.00182 0.02255,-0.00364 0.03382,-0.00546c-0.01968,-0.00008 -0.03936,-0.00015 -0.05904,-0.00022zM892.41222,211.09852c0.10426,0.00665 0.20957,0.01096 0.3154,0.01399c-0.0145,-0.0769 -0.02917,-0.15377 -0.04401,-0.23062c-0.08607,0.07442 -0.17649,0.14666 -0.27139,0.21663zM804.4504,244.3c0.80584,0 -0.80584,0 0,0z" fill="#ffffff" stroke="none" stroke-width="0.5"/><path d="M487.95811,97.46403c-1.75572,4.26907 -7.02289,2.84605 -7.02289,2.84605l-3.49796,-0.94853c-0.50042,-0.10104 -0.99865,-0.21124 -1.49572,-0.32619c-0.56456,1.51415 -1.16933,2.87136 -1.7449,3.82614c-2.89488,4.80222 -8.76459,7.12041 -14.90603,8.55913c-1.18528,0.27767 -2.51122,-0.26358 -3.70139,0c-3.4038,0.75382 -6.04666,3.08506 -9.42903,3.8998c-8.78733,2.11669 -18.60531,1.22058 -27.62668,1.22058c0,0 -5.55208,0 -5.55208,-4.5c0,-1.09247 0.32723,-1.91972 0.82281,-2.54614c-0.25362,-0.0392 -0.50028,-0.09291 -0.72783,-0.18478c-2.3853,-0.96309 -5.71983,-1.32473 -6.91161,-3.25661c-1.38808,-2.25011 1.22391,-6.77484 2.10286,-9.27061c0.44702,-1.26931 2.27032,-7.69413 2.72081,-8.56235c0.57483,-1.10787 1.85046,-1.90718 2.46759,-3c0.9278,-1.64294 0.57116,-3.84587 2.12852,-5.13873c1.97058,-1.63589 5.19686,-1.80923 7.63161,-2.96372c3.41218,-1.61796 6.56703,-3.99651 10.46733,-4.51895c3.8736,-0.51887 7.77208,0.08851 11.21103,1.61396c0.77628,0.34435 0.85549,1.39661 1.67339,1.67047c0.76738,0.25695 1.65189,-0.41649 2.46604,-0.28444c1.98303,0.32164 3.97469,0.80125 5.73095,1.61396c1.19927,0.55497 3.06707,1.93748 2.8687,2.89527c0.31844,-0.56087 0.56757,-1.19679 1.24008,-1.37425c5.63476,-1.48697 15.78391,0.94039 18.842,5.18355c1.18137,1.63918 0.75312,3.77812 0.61536,5.67319c-0.01516,0.20849 -0.03748,0.43095 -0.06648,0.66554c1.18585,0.2413 2.07412,0.4228 2.27727,0.4641l3.90482,1.05147c0,0 5.26716,1.42302 3.51145,5.6921zM467.33413,88.45706c0.14928,-0.15338 0.75792,-0.16502 0.5913,-0.29269c-0.25493,-0.19533 -0.70732,0.04325 -1.05238,-0.00805c-1.60144,-0.23808 -3.2407,-1.23471 -4.78155,-0.8084c-0.18133,0.05017 -0.36139,0.10291 -0.54035,0.15788c0.72103,0.37408 1.38959,0.78281 1.97607,1.22596c0.2167,-0.09106 0.43707,-0.18132 0.65676,-0.19076c1.0469,-0.04497 2.09993,-0.08791 3.15014,-0.08395zM423.92002,104.21308c1.34595,0.68802 3.05362,0.76258 4.48388,1.32793c0.06258,-0.02623 0.12423,-0.05296 0.185,-0.08017c-1.6827,-0.26074 -3.09577,-1.13709 -3.86874,-2.32879l-0.28545,0.34704c-0.18979,0.2382 -0.4066,0.46093 -0.64689,0.66537c0.04398,0.02317 0.08806,0.04605 0.13221,0.06862z" fill="#ffffff" stroke="none" stroke-width="0.5"/><path d="M890.22247,38.34504c-1.72055,1.88784 -2.82766,4.27426 -5.16165,5.66351c-1.36244,0.81096 -3.4218,0.0313 -5.04557,0.41208c-3.01495,0.70701 -5.62188,2.26795 -8.35924,3.51247c-5.40176,2.45588 -10.4556,6.45787 -15.30613,9.58794c-1.77944,1.14828 -3.04618,2.87954 -5.09665,3.67742c-2.68399,1.04438 -6.06511,0.17815 -8.835,1.06302c-4.20356,1.34288 -5.08192,2.69608 -9.67351,3.22141c-6.21318,0.71086 -10.51994,-1.51462 -16.37327,-1.97561c-3.25198,-0.25611 -6.54131,0.12286 -9.80741,0.10822c-1.46615,0.52515 -2.70742,1.53611 -4.27797,1.80511c-2.4284,0.41593 -4.96275,0.09625 -7.44459,0.12038c-0.30913,0.00301 -0.6225,0.00826 -0.93951,0.01525c-0.63391,1.43706 -2.14396,2.53649 -4.00861,2.87561l-4.87886,0.97804l-0.06373,-0.20883l-0.56605,0.30421c-3.8327,0.04441 -7.67095,-0.03962 -11.49811,0.13323c-3.82082,0.17257 -7.69259,1.58237 -11.42618,0.90215c-0.20342,-0.03706 -0.40578,-0.07665 -0.60714,-0.11862l-0.01299,0.08421l-9.79729,-0.9926c-0.22013,-0.01968 -0.43639,-0.04979 -0.648,-0.08971c-3.23703,0.29603 -6.54875,0.11706 -9.84059,0.11706c-6.16898,0 -12.33797,0 -18.50695,0c0,0 -2.03467,0 -3.64056,-0.99832c-0.88225,-0.16473 -1.8176,-0.5616 -2.75295,-1.3197c-3.92592,-3.18198 0,-6.36396 0,-6.36396l1.2338,-1c1.44517,-1.17132 6.39846,-5.2164 7.176,-5.64595c1.07465,-0.59368 2.58014,-0.46593 3.70139,-1c0.79428,-0.37833 1.14862,-1.18415 1.86654,-1.65211c0.74732,-0.48713 6.69363,-3.60143 7.716,-4.19349c3.19775,-1.85181 6.47485,-3.63475 9.43937,-5.72602c1.93676,-1.36626 3.34659,-3.2448 5.51655,-4.35724c2.482,-1.27242 5.34599,-2.02419 8.17542,-2.66202c1.05042,-0.23679 2.24019,0.37396 3.26929,0.08209c1.58456,-0.44941 2.8228,-1.47347 4.2342,-2.21021c1.6645,-1.20351 2.9857,-2.823 4.99352,-3.61053c1.48499,-0.58246 3.3121,-0.05206 4.93674,-0.28444c5.5498,-0.79381 10.5415,-3.43492 16.25033,-4.02439c5.66223,-0.58466 12.28083,-0.03372 17.95152,-0.03372c16.66949,0 33.24021,-0.031 49.8098,1.01533c8.65501,0.54654 17.51079,2.14527 26.14044,3.01942c0,0 5.50921,0.55816 4.82055,5.02341c-0.29374,1.9046 -1.4645,2.89527 -2.71069,3.40515c-0.01625,0.45759 -0.00967,0.90761 0.04774,1.34073zM872.47382,37.53637c-3.01135,-0.02185 -6.51847,-0.09282 -9.53109,0.33724c0.95311,0.77955 1.55684,1.84018 1.60512,3.01484c2.09124,-1.07229 4.07854,-1.80974 6.77364,-2.87237c0.38729,-0.1527 0.77056,-0.31445 1.15233,-0.47972z" fill="#ffffff" stroke="none" stroke-width="0.5"/><path d="M636.16874,124.33996c0.46863,0.10811 0.9417,0.19558 1.42515,0.23476c2.45534,0.19901 4.95272,-0.23803 7.40278,0c3.64393,0.35402 6.84322,2.15646 10.20432,3.35097c3.06612,1.08967 6.68112,0.87137 9.74894,1.95786c2.26202,0.80111 4.24284,2.0461 6.36427,3.06915c3.22582,0.89835 5.93179,2.73078 8.89335,4.1023c1.2412,0.5748 2.81688,0.56312 4.04353,1.15808c0.99815,0.48413 1.47013,1.51493 2.46759,2c1.1152,0.54233 2.63119,0.40106 3.70139,1c1.657,0.92735 3.20296,2.07885 4.27158,3.46214c3.7598,4.86694 2.86322,11.32018 -2.75841,15.04416c-1.44785,0.95911 -3.72974,0.55282 -5.39795,1.23753c-1.23063,0.5051 -1.76252,1.90616 -3.07841,2.24156c-2.24893,0.57322 -4.70384,0.27526 -7.05988,0.34254c-3.62804,0.10361 -6.99564,-0.04099 -10.37264,-0.30559c-1.36026,0.78267 -2.60077,1.77977 -4.18468,2.14231c-2.45519,0.56197 -5.10007,0.13314 -7.65102,0.16328c-5.76928,0.06816 -12.22184,0.54572 -17.95152,-0.03372c-3.36529,-0.34033 -6.50358,-1.6696 -9.87037,-2c-1.70298,-0.16712 -3.46375,0.24702 -5.14617,-0.02439c-2.43223,-0.39237 -4.62982,-1.51066 -7.04698,-1.94189c-1.59698,0 -3.19397,0 -4.79094,0c-0.342,0.01163 -0.68329,0.01412 -1.02316,0c-2.8193,0 -5.63861,0 -8.45791,0c-5.80599,0 -12.19524,0.56066 -17.95152,-0.03372c-4.61394,-0.47642 -8.54958,-2.28954 -12.99794,-3.09898c-3.72388,-0.67761 -7.7409,-0.11468 -11.37473,-1.06039c-2.21887,-0.57747 -4.25759,-1.4887 -6.16099,-2.5814c-0.62223,0.48727 -1.29471,0.94557 -1.87595,1.45646c0,0 -3.92592,3.18198 -7.85183,0c-3.92592,-3.18198 0,-6.36396 0,-6.36396c0.34464,-0.22839 0.61721,-0.50045 0.84146,-0.80206c-0.00002,-0.00532 -0.00004,-0.01064 -0.00004,-0.01596c0,-0.24985 0.02512,-0.49495 0.07344,-0.73372c-3.17821,-1.58115 -6.00811,-4.1102 -8.31764,-6.0843c-1.69067,-1.44513 -4.06329,-2.58886 -4.90493,-4.45991c-0.9078,-2.01811 -0.6861,-4.36933 0,-6.44415c0.40887,-1.23644 2.22363,-1.84041 3.09297,-2.90912c1.11086,-1.36564 1.50547,-3.09844 2.8094,-4.34692c1.14765,-1.09884 2.99069,-1.56914 4.3437,-2.50193c2.00999,-1.38571 3.4121,-3.39845 5.71965,-4.43586c7.10518,-3.19431 12.96065,-0.66054 19.23565,1.4779c1.90723,-0.74232 3.78767,-1.54123 5.82565,-1.9701c3.33157,-0.70108 6.0709,0.21621 9.29497,-0.07657c1.20921,-0.10981 2.39894,-0.29236 3.57633,-0.51553c4.39918,-2.16241 9.3365,-3.09205 14.18305,-5.04222c1.5895,-0.63959 2.83584,-1.84101 4.5318,-2.2645c1.63589,-0.40848 10.4711,-0.17601 11.63148,0.33938c1.91515,0.85063 2.66562,2.80992 4.14146,4.11459c1.24235,1.09825 2.61395,2.0972 3.93867,3.13161c0.4273,0.10498 0.85813,0.1993 1.29359,0.27945c1.60877,0.29609 3.42499,-0.25091 4.93674,0.28444c1.36127,0.48206 7.37559,5.30742 7.93995,6.43538c0.12866,0.25716 0.224,0.60678 0.29276,1.02103zM587.59627,124.5554c-0.00194,0.00123 -0.00387,0.00246 -0.00581,0.00369c0.70693,-0.05357 1.38085,-0.04654 1.93621,0.23303c0.04547,-0.20642 0.10011,-0.41028 0.16411,-0.61073c-0.69798,0.12694 -1.39613,0.25255 -2.09451,0.37401z" fill="#ffffff" stroke="none" stroke-width="0.5"/><path d="M335.9092,431.16437c-0.95143,-1.32557 -0.28954,-3.06289 -0.61536,-4.57354c-0.90398,-4.19129 -1.94042,-7.91363 -1.2037,-12.27064c0.17658,-1.04433 0.99912,-1.96321 1.2338,-3c0.29769,-1.31517 -0.30957,-2.77598 0.35094,-4.00126c1.59328,-2.95562 8.04722,-7.13554 11.51992,-8.39324c2.50751,-0.90813 5.50989,-0.71292 7.96379,-1.71261c2.02749,-0.82598 2.0809,-3.27861 3.35,-4.80327c2.82551,-3.39447 6.85961,-6.62889 10.44854,-9.55078c7.72901,-5.98496 19.52011,-9.90883 30.51402,-8.2843c2.77482,0.41002 5.83504,0.72801 8.02918,2.16453c1.71371,1.12199 1.89705,3.22529 2.7286,4.87872c0.14115,0.28065 0.32973,0.5635 0.51914,0.84834c0.41665,-0.03923 0.82405,-0.09738 1.16515,-0.25324c2.0866,-0.95344 3.00749,-3.17065 5.11859,-4.08797c1.49447,-0.64938 3.4171,-0.38766 4.93519,-1c0.97992,-0.39526 1.34423,-1.45747 2.28419,-1.91203c1.27135,-0.61482 2.85773,-0.67638 4.18098,-1.21449c3.32676,-1.35287 6.19299,-3.59395 9.80028,-4.3372c0.73896,-0.15226 9.79314,-0.12038 11.14598,-0.12038c5.45653,0 14.19827,-1.18627 19.39785,0.34254c1.36227,0.40054 2.0271,1.71465 3.2618,2.32953c2.56209,1.27591 6.15608,1.0324 8.40979,2.64595c0.97471,0.69785 0.59697,2.08093 1.2338,3c0.12048,0.17387 0.41963,-0.24336 0.66482,-0.25991c1.34417,-0.09075 2.69702,-0.05811 4.04584,-0.05811c2.79809,0 5.53221,0.68478 8.29212,1.05811c1.2698,0.17176 2.61271,-0.22887 3.86198,0.02309c2.14919,0.43346 4.02098,1.56267 6.16898,2c3.06389,0.62381 6.56708,0.26785 9.27175,1.59088c1.49387,0.73075 2.24963,2.21548 3.70139,3c1.18778,0.64186 2.9595,0.4108 4.02885,1.17734c2.17621,1.55997 3.85825,3.55277 5.37295,5.56211c0.38734,0.51383 2.12164,5.04611 2.53719,6.1114c0.62639,0.82349 1.5441,1.55876 2.16531,2.38382c0.94746,-0.16613 2.06893,0.28608 3.06199,0.15137c1.28269,-0.174 2.4129,-0.85688 3.70139,-1c7.45941,-0.82857 18.15827,-0.71128 24.78279,2.61396c6.77847,3.40252 13.51667,13.48001 9.37901,19.95129c-1.20073,1.87793 -3.93817,2.80597 -6.1572,3.91906c-0.95361,0.47834 -2.25384,0.32649 -3.2218,0.78551c-2.83797,1.34581 -4.71133,3.8244 -7.60158,5.09501c-5.79233,2.54642 -9.57246,1.68702 -14.73892,3.96915c-1.6264,0.80494 -3.04495,1.99606 -4.87922,2.41482c-3.00238,0.68543 -6.28542,-0.30907 -9.35614,0.13498c-2.3282,0.33668 -4.65779,0.67084 -6.99719,0.95167l-2.18647,0.59072c-0.30788,0.30584 -0.62588,0.5969 -1.01233,0.80513c-0.62724,0.5793 -1.26627,1.14175 -2.14043,1.36805c-4.73122,1.22481 -9.25656,-0.19779 -13.94073,1.11162c-0.8645,0.24166 -7.80629,2.11569 -8.26915,2.17282c-1.62632,0.20071 -3.30666,-0.18856 -4.93519,0c-1.28747,0.14907 -2.4129,0.85688 -3.70139,1c-6.12602,0.68046 -12.62929,-0.71489 -18.71793,0.02439c-1.67698,0.20362 -3.25517,0.81356 -4.93519,1c-2.37513,0.26358 -4.83178,-0.36567 -7.1918,-0.02439c-1.28032,0.18514 -2.41667,0.83607 -3.70139,1c-6.08802,0.77685 -13.23885,0.05811 -19.39629,0.05811c-6.14244,0 -11.35813,-0.53953 -17.61815,-1.0087c-9.11275,-0.68297 -18.61257,0.95864 -27.68788,-0.04941c-1.28849,-0.14312 -2.40919,-0.88085 -3.70139,-1c-6.78356,-0.6255 -14.4211,1.13935 -21.13513,-0.02309c-2.38574,-0.41306 -4.51085,-1.51675 -6.82725,-2.13708c-2.96274,-0.79343 -10.20205,-1.5711 -12.08808,-3.09974c-1.88159,-1.52504 -1.79612,-4.06038 -2.69419,-6.09057c0,0 -0.28672,-0.92955 -0.06634,-2.03802c-0.00737,-0.02 -0.0146,-0.0401 -0.02167,-0.06031c-0.73127,-0.55488 -1.38165,-1.16369 -1.88841,-1.86972zM531.91129,409.54091c0.04389,0.00006 0.08772,0.00009 0.13151,0.00009c3.25784,0 6.51596,-0.03049 9.7737,-0.01901c0.48675,-0.32777 0.96205,-0.65803 1.43862,-0.98065c-3.5283,0.36601 -7.02646,0.93748 -10.53395,0.96594c-0.26703,0.00217 -0.53727,0.01425 -0.80989,0.03362zM562.005,415.75923c-0.24085,0.14057 -0.48218,0.28034 -0.72446,0.41854c0.1866,0.04692 0.37578,0.09399 0.56766,0.14116l-0.40425,0.76024c0.25189,0.21193 0.50704,0.42033 0.76641,0.62416l-0.59091,0.31017c0.02094,-0.00495 0.04185,-0.00992 0.06275,-0.01491c0.39955,-0.09538 1.10351,0.23641 1.24558,-0.08094c0.19884,-0.44415 -0.45927,-0.87158 -0.61536,-1.32681c-0.09738,-0.28403 -0.19971,-0.56126 -0.30743,-0.8316z" fill="#ffffff" stroke="none" stroke-width="0.5"/><path d="M613.02011,353.79217c-1.10248,-0.13193 -2.18983,-0.29943 -3.16665,-0.68794c-1.84604,-0.73422 -3.09639,-2.25394 -4.93519,-3c-1.4712,-0.59691 -3.28313,-0.42228 -4.79518,-0.9479c-1.42734,-0.49618 -2.50994,-1.50275 -3.89459,-2.0729c-4.32815,-1.78216 -8.24365,-1.75064 -12.18481,-4.56238c-6.47251,-4.61766 -6.45378,-11.00929 0.60106,-15.30797c1.03954,-0.63342 2.58014,-0.46593 3.70139,-1c3.8841,-1.85008 5.50658,-4.57152 10.66458,-4.32953c1.0302,-0.91948 1.73504,-2.17917 3.09057,-2.75844c3.0923,-1.32146 6.93363,-0.80638 10.32214,-1.5029c2.14677,-0.44128 4.00208,-1.62895 6.16898,-2c5.43916,-0.93137 11.1077,0.38522 16.40259,0.9407c2.56036,0.26861 5.19473,-0.28922 7.74503,0.03621c1.28472,0.16393 2.42107,0.81486 3.70139,1c3.10492,0.449 7.05479,-0.05811 10.21482,-0.05811c14.22479,0 27.81267,-3.66534 41.93335,-0.89037c7.11009,1.17976 14.30092,1.36746 21.33852,3.07692c3.70864,0.90084 7.50942,1.76233 10.86508,3.32744c1.53323,0.71511 2.50202,2.12673 4.11414,2.71693c0.86366,0.31619 1.90023,-0.29909 2.83502,-0.17282c0.90278,0.12195 8.80839,2.32113 9.43234,2.61396c1.00665,0.47244 1.50021,1.47643 2.46759,2c1.64686,0.89132 4.2005,0.85462 5.28657,2.19673c1.28452,1.58734 0.94353,3.73479 1.048,5.6312c0.10514,1.90887 0.37858,3.92503 -0.42262,5.72208c-0.63782,1.43059 -2.40703,2.33559 -3.67114,3.45991c-2.15811,1.91947 -6.3887,6.06534 -9.20401,6.97548c-1.528,0.49397 -3.37454,-0.42164 -4.93519,0c-1.10354,0.29814 -1.37809,1.66968 -2.46759,2c-1.61154,0.48859 -3.43181,0.20588 -5.14771,0.30883c-15.77826,3.31714 -32.57619,2.03372 -48.79643,2.03372c-6.80884,0 -12.53679,0.53553 -19.34716,0.98868c-14.31342,0.95239 -29.19863,0.01132 -43.57646,0.01132c0,0 -5.55208,0 -5.55208,-4.5c0,-0.46211 0.05854,-0.87677 0.16363,-1.24884z" fill="#ffffff" stroke="none" stroke-width="0.5"/><path d="M530.58448,472.37704c0.77485,-0.67538 1.83424,-1.02601 2.95093,-1.31125c0.45382,-3.62017 3.1902,-7.55955 5.68564,-9.68875c0.85872,-0.73268 2.43614,-0.76037 3.21503,-1.54949c0.95612,-0.96868 0.64261,-2.56954 1.72016,-3.45051c1.00044,-0.81792 2.98348,-0.40421 3.98957,-1.21756c1.13845,-0.92036 0.91027,-2.57967 1.94306,-3.57857c1.14089,-1.10346 2.96326,-1.59593 4.3437,-2.50193c5.17151,-3.3941 9.68871,-7.88373 14.3996,-11.70194c2.31779,-1.86171 3.95397,-4.23164 6.27942,-6.08706c3.10506,-2.47745 8.0882,-3.50395 11.10417,-6c2.00364,-1.65824 3.90346,-3.42477 5.48038,-5.36215c1.01281,-1.24433 1.44744,-2.75961 2.46759,-4c0.57396,-0.69787 1.71889,-1.01419 2.24879,-1.73459c0.66598,-0.9054 0.50973,-2.12438 1.2338,-3c1.10688,-1.33854 2.86599,-2.24381 4.13062,-3.48716c3.32312,-3.26719 6.49871,-6.29822 10.23812,-9.32903c1.05894,-0.85828 7.6364,-6.23496 8.40979,-6.64595c0.57679,-0.30651 7.37686,-2.12597 8.56597,-2.44115c7.15774,-1.89717 10.63784,-2.23093 17.79507,-2.23093c7.07965,0.0545 13.31344,2.41184 20.28784,3.0219c13.96478,1.22151 27.92496,3.97371 40.47952,9.58233c4.00246,1.78806 7.52937,6.61201 12.06846,7.51615c2.24118,0.44642 6.16827,-0.88425 7.9164,-1.08666c2.87885,-0.33333 5.75536,-0.68026 8.63658,-1c6.519,-0.72344 13.84892,-0.03372 20.41911,-0.03372c3.51627,0 7.06498,-0.35289 10.54874,0.03372c1.68001,0.18644 3.25014,0.84619 4.93519,1c2.16657,0.19776 4.40469,-0.30735 6.54055,0.04748c2.49298,0.41416 4.74537,1.4915 7.12489,2.22274c7.15551,2.19893 15.29456,4.05924 21.8876,7.36813c1.74829,0.87743 3.17203,2.14233 4.93519,3c7.66701,3.72956 16.74057,7.43393 23.21535,12.64595c0.88466,0.71212 0.98442,1.93029 1.91176,2.6058c1.80449,1.31447 4.85171,0.76328 6.9516,1.74825c0.94736,0.44437 1.331,1.47595 2.28419,1.91203c1.70069,0.77804 6.40785,0.31634 7.68195,0.4378c7.36087,0.70169 10.08893,2.04139 17.56108,4.30217c4.39719,1.53657 10.47297,3.08803 14.19506,5.99395c1.19819,0.93545 1.80113,2.27284 2.83534,3.32903c0.91757,0.93708 2.36653,1.55732 3.00536,2.63581c1.68845,2.85051 0.99987,6.28093 1.85427,9.36616c0.48504,1.75148 2.05042,3.23708 2.46759,5c1.07302,4.53442 0.10018,9.23391 0.10018,13.85098c0,10.67613 0.70075,22.56933 -5.76438,32.36579c-1.94944,2.95393 -8.6906,6.44833 -12.34715,7.74952c-1.59245,0.56668 -3.46404,0.47568 -5.05662,1.04214c-2.39924,0.85338 -4.2488,2.73764 -6.81163,3.17926c-1.22621,0.2113 -21.67604,0.16328 -23.69037,0.16328c-16.248,0 -32.21276,-0.08994 -48.4049,-1.00601c-9.12612,-0.51631 -18.36011,0.24418 -27.50571,-0.25015c-7.44025,-0.40215 -14.69244,-2.13526 -22.10852,-2.76591c-10.11154,-0.85987 -20.54471,-0.30324 -30.68931,-0.98925c-8.70128,-0.58841 -16.83207,-3.042 -25.51615,-2.98868c0,0 -3.23346,0 -4.76519,-2c-1.19013,0 -2.38027,0 -3.5704,0c-0.76218,1.74779 -2.81874,3 -5.23616,3h-3.70139c-4.23164,1.07125 -6.58704,-0.67641 -10.54874,-1.03372c-1.97071,-0.17774 -3.97386,0.16412 -5.94855,0.01838c-9.04085,-0.66725 -18.06959,-2.37041 -27.11686,-2.99826c-5.33521,-0.37025 -10.96777,0.57011 -16.28645,-0.02012c-16.45521,-1.8261 -32.59721,-4.89937 -49.35186,-5c-0.69453,-0.13642 -9.52412,-1.8592 -10.53858,-2.10064c-2.37456,-0.56514 -5.22046,-0.51606 -7.0627,-1.85545c-1.43041,-1.03998 -6.55681,-7.94167 -4.65482,-11.14944c-0.46336,0.0334 -0.94063,0.02851 -1.397,0.08115l-0.718,-0.5336l-0.14838,0.36078l-3.57993,-0.96719c-2.26872,-0.56551 -3.91782,-2.27761 -3.91782,-4.30189c0,-1.36798 0.75312,-2.59339 1.94165,-3.41871c-4.65937,-4.14657 -7.3881,-9.67393 -1.54928,-14.76327zM553.1691,500.20116c-0.69031,-0.26746 -1.37818,-0.53846 -2.0578,-0.82129c0.07936,0.31069 0.21756,0.55558 0.44494,0.66896c0.46893,0.23381 1.03699,0.19591 1.61286,0.15233z" fill="#ffffff" stroke="none" stroke-width="0.5"/><path d="M380.28583,635.05902c-1.94203,-0.11418 -4.02167,0.25053 -5.82609,-0.34254c-2.89877,-0.95277 -4.05878,-3.21818 -6.33045,-4.67742c-3.25926,-2.09362 -7.24984,-3.92484 -9.6207,-6.84884c-3.55806,-4.3882 -5.09257,-9.41926 -4.74939,-14.6312c0.13472,-2.04591 -0.4188,-4.26932 0.65695,-6.12336c0.85178,-1.46803 3.2751,-1.89568 4.67061,-3.05862c1.24762,-1.0397 1.66907,-2.73916 3.19524,-3.49639c6.33446,-3.14293 11.9167,-0.97239 18.34673,-1.47909c0.19611,-0.01545 0.0054,-0.32882 0.0882,-0.47374c0.7728,-1.35274 1.64506,-2.66667 2.46759,-4c3.77685,-2.98391 5.57263,-7.8174 6.40845,-11.99296c0.35633,-1.78015 -0.42675,-3.65656 0.09485,-5.40973c1.15846,-3.89376 3.33661,-5.12528 5.5367,-8.22478c2.94639,-4.15092 2.74064,-6.26962 8.84635,-8.89879c1.51947,-0.6543 3.44876,-0.08829 5.14771,-0.30883c6.6956,-0.86913 12.23995,-1.03372 19.18531,-1.03372c5.75655,0 10.93821,-0.27462 16.51376,1.21828c2.40393,0.64367 4.77627,1.38933 7.04555,2.29912c1.91836,0.7691 5.09241,3.07111 7.32742,3.60298c3.86199,0.91904 10.71155,-0.12038 14.76375,-0.12038c4.3155,0.01407 8.59195,0.66577 12.88506,1.0219c3.62873,0.30102 7.60666,-0.36288 11.23546,0.01182c8.14126,0.84063 15.60341,4.68446 24.18141,3.04748c2.00884,-0.38336 3.72899,-1.48316 5.72288,-1.91475c2.75656,-0.59668 5.60063,-0.93124 8.44088,-1.15111c5.47419,-0.42377 10.9982,-0.01533 16.49729,-0.01533c3.95812,0 7.98876,-0.56829 11.87426,0.0435c4.602,0.7246 12.36334,2.92771 17.025,4.18743c8.28429,2.23866 15.60732,4.04591 21.91094,9.08709c6.23869,5.22483 7.77159,11.21562 10.04133,17.92384c0.72451,2.1413 2.96124,3.81256 3.68457,5.95412c0.57636,1.70639 0.19733,3.53516 0.23823,5.30403c0.1446,6.2543 1.10686,11.596 -3.72602,16.85295c-4.16853,4.5343 -8.07937,5.18541 -14.50693,7.30451c-3.12603,1.03062 -7.42918,2.14607 -10.96238,3.41625c0.10466,0.01989 0.20929,0.0401 0.3139,0.06065l1.12102,-0.13436c0,0 5.55208,0 5.55208,4.5c0,4.5 -5.55208,4.5 -5.55208,4.5l-3.81417,-0.13436c-7.33253,-1.54549 -15.37774,-1.14296 -23.12488,-0.94428l-1.43827,0.07864c0,0 -0.21094,0 -0.55059,-0.03333c-1.05844,0.02035 -2.10958,0.03333 -3.1508,0.03333c-17.7738,0 -35.75531,0.77877 -53.39825,-1.0087c-9.78874,0.00791 -20.0515,0.63655 -29.81321,-0.0132c-7.25788,-0.4831 -14.41734,-1.89704 -21.55802,-3.07238c-4.66088,-0.76718 -9.48559,-0.57862 -14.22208,-0.92762c-2.08844,-0.15388 -4.08283,-0.82695 -6.16898,-1c-5.81318,-0.48223 -12.11356,0.0219 -17.95986,0.0219c-10.30102,0 -20.60202,0 -30.90304,0c-1.60632,1 -3.64327,1 -3.64327,1z" fill="#ffffff" stroke="none" stroke-width="0.5"/><path d="M701.18716,660.05286c1.92687,-1.46168 3.49769,-3.35911 5.78684,-4.40974c3.17213,-1.45589 6.88454,-2.05208 10.48273,-2.52599c4.9293,-0.64923 9.43622,0.32317 14.11666,1c2.36002,0.34128 4.81714,-0.29065 7.1918,-0.02439c1.57949,0.1771 3.03488,0.97363 4.62941,0.97643c3.29477,0.00578 6.54295,-0.63405 9.81442,-0.95108c5.54958,-0.87993 10.56024,-3.30849 16.06717,-4.00096c1.69514,-0.21316 3.44407,0.14856 5.14617,-0.02439c1.68252,-0.17097 3.25176,-0.83503 4.93519,-1c8.58152,-0.84094 19.23264,-0.4194 27.28057,2.2458c6.92451,2.29316 9.55484,4.16204 14.3376,8.0385c1.64506,1.33333 3.439,2.55605 4.93519,4c0.30633,0.29563 0.22039,0.88893 0.66636,1.02452c0.50946,0.15489 1.03313,-0.32262 1.57669,-0.34254c2.28017,-0.08359 4.57882,-0.17057 6.84735,0.03372c6.12696,0.55174 12.15878,2.18246 17.63543,4.3612c4.96,1.60625 10.86246,1.90453 14.93506,4.70554c4.52753,3.1139 4.42006,6.43177 4.38194,10.39954c-0.01699,1.76913 0.43808,3.62191 -0.23823,5.30403c-2.12684,5.28987 -7.51378,6.8657 -12.79989,9.21151c-0.3968,0.24379 -0.81896,0.42721 -1.22958,0.56521c-3.42851,1.66058 -5.33644,3.51251 -9.74952,4.29887c-2.6047,0.46413 -5.34731,-0.13619 -8.00001,0.08666c-1.68665,0.14169 -3.24934,0.8521 -4.93519,1c-0.5228,0.04587 -14.06997,0.03372 -14.25013,0.03372c-15.79405,0 -31.06339,-0.9668 -46.6514,-3.07373c-6.03104,-1.00058 -12.03635,-1.48144 -18.07824,-1.71252c-5.96163,0.0708 -11.91675,0.04745 -17.85573,-0.20686c-5.06314,0.05759 -10.60847,0.4449 -15.56292,-0.0406c-1.68343,-0.16497 -3.25358,-0.82323 -4.93519,-1c-3.7404,-0.3932 -7.57366,0.36194 -11.31515,-0.02439c-1.57331,-0.16245 -3.13606,-0.55574 -4.6944,-1.01077c-3.26018,0.0805 -6.52618,0.28168 -9.76891,0.04698c-7.42681,-0.53754 -14.21404,-1.9781 -21.66125,-1.9781c0,0 -5.55208,0 -5.55208,-4.5c0,-2.27262 1.41608,-3.39751 2.81791,-3.9543c-0.09943,-1.02228 -0.09778,-2.08565 -0.35031,-3.0457c0.14087,-1.57403 -0.25848,-3.24362 0.42262,-4.72208c0.55246,-1.19921 2.20624,-1.84985 3.09297,-2.90912c1.26554,-1.5118 1.71472,-3.49741 3.33394,-4.76835c1.23293,-0.96773 3.27997,-0.88537 4.76237,-1.58646c1.77606,-0.83999 3.14983,-2.17304 4.93519,-3c1.01761,-0.47135 2.35486,-0.3523 3.35925,-0.84192c1.0559,-0.51473 1.54512,-1.64753 2.651,-2.08797c1.31982,-0.52565 2.52225,-0.77897 3.64067,-0.96812c0.02022,-0.01065 0.04046,-0.02128 0.06072,-0.03188c1.09999,-0.57594 2.49724,-0.58694 3.80656,-0.78393c0.82616,-0.30473 1.62102,-0.75461 2.4058,-1.48216zM677.87392,682.21008c0.20512,0.0328 0.40871,0.07001 0.61093,0.11114c0.02862,-0.1821 0.05975,-0.36427 0.09339,-0.54647c-0.28424,0.11139 -0.54825,0.23563 -0.70431,0.43534z" fill="#ffffff" stroke="none" stroke-width="0.5"/><path d="M897.15849,730.75451v-730.51801h643.82117v730.51801z" fill="#a9ffe1" stroke="#000000" stroke-width="0"/><path d="M972.48928,205.77218c-0.38415,-0.28674 -0.72619,-0.58884 -1.02665,-0.90412c-2.04671,0.61332 -3.9882,0.88112 -6.16022,0.96298c-0.02316,0.35283 -0.04882,0.70153 -0.07606,1.04388c0.87965,-0.38727 1.77477,-0.73954 2.72332,-0.95905c1.31043,-0.30324 2.74375,0.12101 4.08765,-0.06227c0.15258,-0.02081 0.30308,-0.0485 0.45198,-0.08142zM1057.17563,208.47368c0.36423,1.39143 0.30549,2.80206 -0.41901,3.98725c-0.11925,0.19506 -0.2617,0.38 -0.42527,0.55528c0.41032,0.0732 0.81721,0.1621 1.21047,0.27518c0.24991,-1.29299 1.3084,-3.1788 2.05379,-4.19198c-0.70102,-0.08461 -1.3754,-0.36407 -2.05892,-0.53484c-0.12043,-0.03009 -0.24079,-0.06039 -0.36106,-0.09089zM980.27689,177.53458c0.18189,0.02667 0.36375,0.05343 0.5456,0.08021c-0.05056,-0.05295 -0.10062,-0.10688 -0.15015,-0.16184c-0.13123,0.02851 -0.26306,0.0557 -0.39544,0.08163zM1066.12203,201.59784c0.3782,0.23583 0.76319,0.47897 1.14266,0.73167c0.01948,-0.16665 0.04835,-0.32848 0.08899,-0.48419c0.10397,-0.39827 1.32228,-0.84398 0.85987,-1.0029c-0.49458,-0.16998 -0.6369,0.90654 -1.17392,0.89497c-0.3151,-0.00679 -0.61927,-0.06027 -0.91761,-0.13954zM1054.59085,221.95077c-0.35564,-0.08335 -0.72841,-0.15632 -1.12298,-0.21338c-1.23026,-0.1779 -2.48274,-0.13177 -3.7383,-0.06056c0.71674,0.07712 1.43608,0.1241 2.16006,0.11867c0.28404,-0.00213 1.39899,0.08573 2.70122,0.15527zM940.8059,219.10365c-2.64347,-1.47571 -5.63714,-3.57982 -7.32068,-4.68479c-0.40731,-3.17651 0.10865,-7.25024 -0.58526,-10.40254c-0.96999,-4.40643 -2.91512,-10.90236 -0.88286,-15.4429c0.49418,-1.10413 2.13782,-1.6321 2.87417,-2.64371c0.66082,-0.90788 0.54304,-2.10688 1.2338,-3c3.34195,-4.32101 9.90107,-8.1006 14.77469,-11.11425c1.34699,-0.83292 2.28152,-2.18453 3.86286,-2.67742c1.40848,-0.43901 8.99745,-0.34254 10.76127,-0.34254c6.49712,0 12.91736,-0.03848 19.39785,0.34254c4.04504,2.82519 7.49712,3.22502 11.89838,5.32953c1.4583,0.6973 2.45048,2.28917 4.13942,2.38604c4.46483,0.25607 9.12552,-0.52664 13.57176,0c5.07248,0.60081 9.76826,3.43698 14.80556,4c3.48934,0.39 6.3143,-0.82445 9.87193,0.28444c1.58134,0.49289 2.51587,1.8445 3.86286,2.67742c2.23855,1.38423 4.58397,2.68437 6.57494,4.29806c0.25611,0.20758 3.13198,2.71844 3.85197,2.87507c2.17885,0.47399 4.54302,0.28681 6.68322,0.86502c2.90808,0 5.80589,0.45983 8.63658,1c2.05254,0.39168 4.75186,-0.32481 6.22886,0.89497c3.7028,3.05794 3.36907,6.88511 3.36907,10.54692c0,2.54009 -0.81197,5.03766 -1.2754,7.54982c-0.22851,1.23876 0.28281,2.56348 -0.19663,3.7542c-0.55057,1.36736 -2.00967,2.3828 -2.79393,3.67305c-0.65426,1.07639 -0.73091,2.36263 -1.49843,3.38871c-0.72926,0.97492 -2.00448,1.60583 -2.89682,2.48716c-1.20739,1.19249 -1.84682,2.82163 -3.39118,3.72323c-3.79693,2.21667 -6.64175,1.89487 -10.77286,1.92382c-1.46819,0.01029 -9.03776,-0.00388 -9.52592,-0.05811c-1.28849,-0.14312 -2.41392,-0.85093 -3.70139,-1c-1.62853,-0.18856 -3.32301,0.26529 -4.93519,0c-6.09272,-1.00258 -8.96538,-3 -14.80556,-3c-6.86191,-1.85387 -13.85003,-0.29938 -20.97454,-1c-1.29107,-0.12696 -2.42107,-0.81486 -3.70139,-1c-3.41306,-0.49356 -8.0262,0.05811 -11.44862,0.05811c-2.99377,0 -6.02038,-0.41806 -8.98103,-0.05811c-1.28615,0.15637 -2.41667,0.83607 -3.70139,1c-8.82682,1.12633 -19.03746,0.05811 -28.03287,0.05811c0,0 -5.55208,0 -5.55208,-4.5c0,-0.89784 0.22102,-1.61654 0.57486,-2.19184zM1042.7956,195.57526c-0.48335,-0.32454 -0.9737,-0.66307 -1.46568,-1.00854c0.04698,0.23386 0.07173,0.47377 0.07242,0.71826c0.46523,0.09607 0.92962,0.1928 1.39325,0.29029zM1011.54868,196.95502c0.17548,-0.0038 0.35217,-0.00548 0.53041,-0.00501l-0.35655,-0.09633c-0.05733,0.0341 -0.11531,0.06787 -0.17387,0.10134zM995.15626,187.35127c0.10991,0.18539 0.20971,0.37021 0.29975,0.5544c0.14762,-0.1352 0.30017,-0.26356 0.46313,-0.37806c-0.25433,-0.06082 -0.50864,-0.11965 -0.76288,-0.17634z" fill="#ffffff" stroke="none" stroke-width="0.5"/><path d="M1178.30795,296.78956c-2.57117,0.00911 -5.61796,0.00594 -6.74006,0.00594c-7.04761,0 -13.3539,-0.32043 -20.28784,-1.0219c-3.3524,-0.33915 -6.8561,-0.28833 -10.01576,-1.25762c-3.11523,-0.95565 -5.6857,-2.82252 -8.39541,-4.39255c-1.24427,-0.72094 -5.1805,-0.3013 -5.75949,-0.44831c-2.4439,-0.62051 -4.60396,-1.81935 -6.90594,-2.72903l-0.40693,-0.68958l-0.27263,0.22097l-2.46759,-2c-0.76043,-0.61633 -1.30129,-1.4106 -1.51936,-2.29914c-2.93957,-0.84326 -6.25462,-0.78447 -9.13881,-1.76752c-1.36689,-0.4659 -2.33869,-1.52611 -3.70139,-2c-1.60473,-0.55805 -3.513,-0.41973 -5.0752,-1.0521c-1.90221,-0.77 -3.27928,-2.22281 -5.12582,-3.07721c-4.4313,-2.05039 -10.05408,-2.7994 -12.42307,-7.26393c-0.76928,-1.44977 -0.28175,-3.14805 -0.42262,-4.72208c0.04262,-0.47618 0.02772,-0.96373 0.00751,-1.45234c-0.38813,-0.08913 -0.77052,-0.18209 -1.14635,-0.27859c0,0 -5.26716,-1.42302 -3.51145,-5.6921c1.75572,-4.26907 7.02289,-2.84605 7.02289,-2.84605c0.90091,0.26286 1.9318,0.48856 3.02575,0.66659c5.86506,-3.17944 14.53764,-2.89752 21.12826,-2.89752c0.18555,0 0.43602,-0.00006 0.73692,-0.00013c3.32823,-0.48563 6.66567,-0.93182 7.44172,-0.98454c7.22255,-0.49063 15.4636,-0.06925 22.66627,-0.01533c2.07077,0.0155 4.19755,-0.27279 6.2108,0.12038c2.07435,0.4051 3.80431,1.57757 5.78427,2.22216c2.68679,0.8747 5.61334,1.2702 8.19699,2.32953c1.15309,0.47278 1.73329,1.58034 2.79506,2.17734c1.85203,1.04135 4.37077,1.34754 5.88317,2.70218c0.72737,0.6515 1.16433,1.45953 1.50718,2.31098c6.15323,-0.84849 12.10933,-3.12588 18.29603,-3.82886c3.72897,-0.42371 8.00851,-0.03372 11.78254,-0.03372c5.29617,0 11.12076,-0.68836 16.01108,1.45758c5.26187,2.30898 7.33553,5.28955 7.92819,9.14056c0.85157,-0.70727 1.75061,-1.37233 2.75295,-1.92607c1.07465,-0.59368 2.58125,-0.4644 3.70139,-1c1.24813,-0.59681 1.89953,-1.92898 3.2618,-2.32953c1.4931,-0.43901 8.92595,-0.34254 10.76127,-0.34254c4.44088,0.0443 9.74409,-0.55934 13.14066,2.8688c1.46649,1.48013 0.81861,3.74202 1.048,5.6312c0.39943,3.28968 0.30207,5.99757 -1.16912,8.62785c0.40462,4.17322 0.46378,10.17811 -2.77687,13.42968c-3.81036,3.82321 -11.63373,2.46584 -16.36984,3.3221c-1.79511,0.32455 -3.13891,1.67968 -4.93519,2c-2.20299,0.39285 -4.52412,-0.11371 -6.76621,0.08666c-3.37095,0.30126 -6.51183,1.61838 -9.87037,2c-5.12932,0.58283 -9.74647,0.3052 -15.02599,1.01838c-2.06464,0.00761 -8.45279,0.11756 -9.98541,-0.32721c-1.29868,-0.37688 -1.85453,-1.72579 -3.07841,-2.24156c-2.35766,-0.99359 -5.20629,-0.92301 -7.79759,-1.42184zM1196.61513,277.94407c1.3182,-0.15881 2.514,0.03313 3.68096,0.35239c0.13969,-0.17523 0.2416,-0.34352 0.29515,-0.50096h-3.83481c-0.04661,0.0497 -0.09372,0.09923 -0.14129,0.14858zM1113.79585,272.89509c0.3734,0.06317 0.74956,0.11977 1.12699,0.17337c0.05025,-0.07138 0.10285,-0.14154 0.1577,-0.2104c-0.42828,0.0128 -0.85655,0.02578 -1.28469,0.03704z" fill="#ffffff" stroke="none" stroke-width="0.5"/><path d="M1299.26584,221.28838c-0.00073,-6.7041 -1.03298,-10.4799 6.00711,-15.64347c1.27756,-0.93703 3.24674,-0.94304 4.82306,-1.50687c5.62814,-2.01309 12.08639,-4.66227 18.53915,-3.14946c1.70472,0.39966 2.93772,1.63243 4.5318,2.2645c4.5623,1.80897 9.66298,3.07854 11.03429,6.94741c0.90685,-0.46524 1.92195,-0.83369 2.74718,-1.38503c3.66844,-2.45086 6.17072,-5.85346 8.77071,-9.01611c3.62945,-4.41487 7.00472,-9.64161 12.20383,-12.98389c2.58524,-1.66194 5.76602,-2.62227 8.79804,-3.67742c5.3218,-1.852 8.56962,-3.30125 14.46266,-3.34254c1.83582,-0.01286 8.48789,-0.05205 9.52748,0.34254c6.72481,2.55253 8.26158,9.91528 8.36257,15.15746c-0.00901,1.18553 -0.19314,2.3787 -0.02702,3.55658c0.0574,0.40693 0.4122,1.58528 0.76365,3.02121c0.13213,-0.08874 0.24549,-0.16534 0.3353,-0.22839c1.07916,-0.75745 2.80048,-0.58779 4.02885,-1.17734c3.80829,-1.82776 6.67285,-5.21144 11.18037,-6.47899c1.39323,-0.39178 2.9677,0.06809 4.42095,-0.13498c1.28163,-0.17909 2.41667,-0.83607 3.70139,-1c5.86309,-0.74815 14.54048,-0.5853 20.28564,0c7.19509,0.73302 13.41867,3.87924 20.53651,4.61396c1.99657,2.75556 4.30949,5.37579 5.9897,8.26667c2.28446,3.93053 2.77338,9.04225 2.8108,13.31684c1.39901,0.40037 2.54084,1.24226 3.1707,2.31915l2.27903,3.69434c0.95604,0.91328 1.82511,1.95423 2.62395,3.25385c0.50009,0.81358 0.39729,1.82938 0.96916,2.61129c0.73895,1.01037 2.37997,1.53958 2.87417,2.64371c0.51189,1.14369 0.42262,6.04334 0.42262,7.72208v3c0,2.41773 -2.35247,4.39014 -5.30339,4.49557c-0.07196,0.16007 -0.13819,0.32052 -0.19636,0.48152l-0.63621,0.3741l0.26829,0.14497l-2.41982,2.94193c-0.98857,1.24065 -2.70964,2.06192 -4.66738,2.06192c-1.07134,0 -2.0718,-0.24594 -2.92015,-0.67196c-1.61318,1.67196 -4.48263,1.67196 -4.48263,1.67196h-1.2338c-4.24364,0 -8.81768,-0.4076 -13.02467,-0.0219c-4.59848,0.42159 -9.04927,1.6933 -13.66092,2.00657c-6.94434,0.47173 -14.03535,-0.47623 -20.97454,0c-5.90396,0.40519 -11.806,1.00654 -17.73109,1.01533c-13.98302,0 -27.96606,0 -41.94908,0c-7.40816,0 -15.38579,0.62447 -22.75543,-0.0219c-2.08488,-0.18286 -4.08283,-0.82695 -6.16898,-1c-4.05405,-0.3363 -7.18198,0.39811 -11.23546,-0.01182c-7.48177,-0.75662 -15.19945,-2.85098 -22.61882,-4.05367c0,0 -4.15101,-0.67288 -4.47889,-3.78131c-0.37187,-0.11941 -0.7463,-0.2407 -1.12316,-0.36223c-1.98573,-0.64036 -4.41628,-0.81859 -5.87159,-2.08709c-2.8752,-2.50614 -3.62535,-7.76687 -2.43734,-10.90406c0.22954,-0.60612 1.07092,-0.90562 1.72882,-1.30302c-1.17626,-3.27304 -1.60992,-6.58012 -0.49502,-8.69698c1.54925,-2.94158 4.75957,-4.45998 8.21395,-5.28504zM1442.38624,225.29549c0,0.34544 -0.03272,0.66436 -0.09313,0.95881c0.1559,-0.10997 0.31203,-0.21969 0.46841,-0.32913c-0.14122,-0.29449 -0.24529,-0.60401 -0.30756,-0.92478c-0.02445,0.0137 -0.04906,0.02724 -0.07379,0.04062c0.00402,0.08319 0.00607,0.16801 0.00607,0.25448zM1445.16906,220.39434l0.72223,-0.35122c-0.39442,0.07416 -0.78828,0.1506 -1.18185,0.22831c0.03015,0.10503 0.05578,0.21146 0.07668,0.31917c0.12408,-0.06948 0.25182,-0.13498 0.38295,-0.19626zM1360.14421,211.75578c-0.25525,-0.19196 -0.49728,-0.39063 -0.72551,-0.59565c-0.67761,0.69259 -1.38025,1.36858 -2.11705,2.02221c0.83595,0.07071 1.59812,0.00484 2.13462,-0.46303c0.31559,-0.27523 0.52124,-0.61365 0.70794,-0.96353zM1396.9608,189.73478c0.04481,-0.67384 0.11492,-1.33881 -0.49903,-1.28183c-1.27736,0.11855 -2.61385,0.11247 -3.94852,0.11233c0.59326,0.14686 1.15055,0.30207 1.65995,0.46114c0.88555,0.27653 1.85544,0.46889 2.7876,0.70836zM1458.63359,202.95356c1.77923,0.68848 3.51463,1.47031 5.38589,1.96232c0.46024,0.12101 0.98139,0.15177 1.52165,0.14898c-1.54353,-0.36677 -3.0991,-1.10901 -4.59911,-1.51293c-0.76518,-0.20605 -1.5346,-0.40759 -2.30843,-0.59837zM1314.88596,242.33305c0.40337,0.1289 1.08007,0.29496 1.84966,0.47514c0.13873,-0.00842 0.27889,-0.0127 0.42027,-0.0127h1.60169c-0.08299,-0.02921 -0.16583,-0.0587 -0.24854,-0.08847l-3.61559,-0.48841c-0.00259,0.03815 -0.00508,0.0763 -0.0075,0.11444zM1399.00408,209.69285c0.06178,-0.52698 0.14313,-1.05879 0.18227,-1.5775c-0.40953,0.31207 -0.80888,0.62999 -1.17193,0.96779c0.34478,0.21192 0.67701,0.41656 0.98968,0.60971zM1414.16544,238.57367c0.00841,0.00189 0.01682,0.00379 0.02523,0.00568c0.01129,-0.00182 0.02255,-0.00364 0.03382,-0.00546c-0.01968,-0.00008 -0.03936,-0.00015 -0.05904,-0.00022zM1471.48128,216.59401c0.10426,0.00665 0.20957,0.01096 0.3154,0.01399c-0.0145,-0.0769 -0.02917,-0.15377 -0.04401,-0.23062c-0.08607,0.07442 -0.17649,0.14666 -0.27139,0.21663zM1383.51946,249.79549c0.80584,0 -0.80584,0 0,0z" fill="#ffffff" stroke="none" stroke-width="0.5"/><path d="M1067.02717,102.95952c-1.75572,4.26907 -7.02289,2.84605 -7.02289,2.84605l-3.49796,-0.94853c-0.50042,-0.10104 -0.99865,-0.21124 -1.49572,-0.32619c-0.56456,1.51415 -1.16933,2.87136 -1.7449,3.82614c-2.89488,4.80222 -8.76459,7.12041 -14.90603,8.55913c-1.18528,0.27767 -2.51122,-0.26358 -3.70139,0c-3.4038,0.75382 -6.04666,3.08506 -9.42903,3.8998c-8.78733,2.11669 -18.60531,1.22058 -27.62668,1.22058c0,0 -5.55208,0 -5.55208,-4.5c0,-1.09247 0.32723,-1.91972 0.82281,-2.54614c-0.25362,-0.0392 -0.50028,-0.09291 -0.72783,-0.18478c-2.3853,-0.96309 -5.71983,-1.32473 -6.91161,-3.25661c-1.38808,-2.25011 1.22391,-6.77484 2.10286,-9.27061c0.44702,-1.26931 2.27032,-7.69413 2.72081,-8.56235c0.57483,-1.10787 1.85046,-1.90718 2.46759,-3c0.9278,-1.64294 0.57116,-3.84587 2.12852,-5.13873c1.97058,-1.63589 5.19686,-1.80923 7.63161,-2.96372c3.41218,-1.61796 6.56703,-3.99651 10.46733,-4.51895c3.8736,-0.51887 7.77208,0.08851 11.21103,1.61396c0.77628,0.34435 0.85549,1.39661 1.67339,1.67047c0.76738,0.25695 1.65189,-0.41649 2.46604,-0.28444c1.98303,0.32164 3.97469,0.80125 5.73095,1.61396c1.19927,0.55497 3.06707,1.93748 2.8687,2.89527c0.31844,-0.56087 0.56757,-1.19679 1.24008,-1.37425c5.63476,-1.48697 15.78391,0.94039 18.842,5.18355c1.18137,1.63918 0.75312,3.77812 0.61536,5.67319c-0.01516,0.20849 -0.03748,0.43095 -0.06648,0.66554c1.18585,0.2413 2.07412,0.4228 2.27727,0.4641l3.90482,1.05147c0,0 5.26716,1.42302 3.51145,5.6921zM1046.40319,93.95255c0.14928,-0.15338 0.75792,-0.16502 0.5913,-0.29269c-0.25493,-0.19533 -0.70732,0.04325 -1.05238,-0.00805c-1.60144,-0.23808 -3.2407,-1.23471 -4.78155,-0.8084c-0.18133,0.05017 -0.36139,0.10291 -0.54035,0.15788c0.72103,0.37408 1.38959,0.78281 1.97607,1.22596c0.2167,-0.09106 0.43707,-0.18132 0.65676,-0.19076c1.0469,-0.04497 2.09993,-0.08791 3.15014,-0.08395zM1002.98908,109.70857c1.34595,0.68802 3.05362,0.76258 4.48388,1.32793c0.06258,-0.02623 0.12423,-0.05296 0.185,-0.08017c-1.6827,-0.26074 -3.09577,-1.13709 -3.86874,-2.32879l-0.28545,0.34704c-0.18979,0.2382 -0.4066,0.46093 -0.64689,0.66537c0.04398,0.02317 0.08806,0.04605 0.13221,0.06862z" fill="#ffffff" stroke="none" stroke-width="0.5"/><path d="M1469.29153,43.84053c-1.72055,1.88784 -2.82766,4.27426 -5.16165,5.66351c-1.36244,0.81096 -3.4218,0.0313 -5.04557,0.41208c-3.01495,0.70701 -5.62188,2.26795 -8.35924,3.51247c-5.40176,2.45588 -10.4556,6.45787 -15.30613,9.58794c-1.77944,1.14828 -3.04618,2.87954 -5.09665,3.67742c-2.68399,1.04438 -6.06511,0.17815 -8.835,1.06302c-4.20356,1.34288 -5.08192,2.69608 -9.67351,3.22141c-6.21318,0.71086 -10.51994,-1.51462 -16.37327,-1.97561c-3.25198,-0.25611 -6.54131,0.12286 -9.80741,0.10822c-1.46615,0.52515 -2.70742,1.53611 -4.27797,1.80511c-2.4284,0.41593 -4.96275,0.09625 -7.44459,0.12038c-0.30913,0.00301 -0.6225,0.00826 -0.93951,0.01525c-0.63391,1.43706 -2.14396,2.53649 -4.00861,2.87561l-4.87886,0.97804l-0.06373,-0.20883l-0.56605,0.30421c-3.8327,0.04441 -7.67095,-0.03962 -11.49811,0.13323c-3.82082,0.17257 -7.69259,1.58237 -11.42618,0.90215c-0.20342,-0.03706 -0.40578,-0.07665 -0.60714,-0.11862l-0.01299,0.08421l-9.79729,-0.9926c-0.22013,-0.01968 -0.43639,-0.04979 -0.648,-0.08971c-3.23703,0.29603 -6.54875,0.11706 -9.84059,0.11706c-6.16898,0 -12.33797,0 -18.50695,0c0,0 -2.03467,0 -3.64056,-0.99832c-0.88225,-0.16473 -1.8176,-0.5616 -2.75295,-1.3197c-3.92592,-3.18198 0,-6.36396 0,-6.36396l1.2338,-1c1.44517,-1.17132 6.39846,-5.2164 7.176,-5.64595c1.07465,-0.59368 2.58014,-0.46593 3.70139,-1c0.79428,-0.37833 1.14862,-1.18415 1.86654,-1.65211c0.74732,-0.48713 6.69363,-3.60143 7.716,-4.19349c3.19775,-1.85181 6.47485,-3.63475 9.43937,-5.72602c1.93676,-1.36626 3.34659,-3.2448 5.51655,-4.35724c2.482,-1.27242 5.34599,-2.02419 8.17542,-2.66202c1.05042,-0.23679 2.24019,0.37396 3.26929,0.08209c1.58456,-0.44941 2.8228,-1.47347 4.2342,-2.21021c1.6645,-1.20351 2.9857,-2.823 4.99352,-3.61053c1.48499,-0.58246 3.3121,-0.05206 4.93674,-0.28444c5.5498,-0.79381 10.5415,-3.43492 16.25033,-4.02439c5.66223,-0.58466 12.28083,-0.03372 17.95152,-0.03372c16.66949,0 33.24021,-0.031 49.8098,1.01533c8.65501,0.54654 17.51079,2.14527 26.14044,3.01942c0,0 5.50921,0.55816 4.82055,5.02341c-0.29374,1.9046 -1.4645,2.89527 -2.71069,3.40515c-0.01625,0.45759 -0.00967,0.90761 0.04774,1.34073zM1451.54288,43.03186c-3.01135,-0.02185 -6.51847,-0.09282 -9.53109,0.33724c0.95311,0.77955 1.55684,1.84018 1.60512,3.01484c2.09124,-1.07229 4.07854,-1.80974 6.77364,-2.87237c0.38729,-0.1527 0.77056,-0.31445 1.15233,-0.47972z" fill="#ffffff" stroke="none" stroke-width="0.5"/><path d="M1215.2378,129.83545c0.46863,0.10811 0.9417,0.19558 1.42515,0.23476c2.45534,0.19901 4.95272,-0.23803 7.40278,0c3.64393,0.35402 6.84322,2.15646 10.20432,3.35097c3.06612,1.08967 6.68112,0.87137 9.74894,1.95786c2.26202,0.80111 4.24284,2.0461 6.36427,3.06915c3.22582,0.89835 5.93179,2.73078 8.89335,4.1023c1.2412,0.5748 2.81688,0.56312 4.04353,1.15808c0.99815,0.48413 1.47013,1.51493 2.46759,2c1.1152,0.54233 2.63119,0.40106 3.70139,1c1.657,0.92735 3.20296,2.07885 4.27158,3.46214c3.7598,4.86694 2.86322,11.32018 -2.75841,15.04416c-1.44785,0.95911 -3.72974,0.55282 -5.39795,1.23753c-1.23063,0.5051 -1.76252,1.90616 -3.07841,2.24156c-2.24893,0.57322 -4.70384,0.27526 -7.05988,0.34254c-3.62804,0.10361 -6.99564,-0.04099 -10.37264,-0.30559c-1.36026,0.78267 -2.60077,1.77977 -4.18468,2.14231c-2.45519,0.56197 -5.10007,0.13314 -7.65102,0.16328c-5.76928,0.06816 -12.22184,0.54572 -17.95152,-0.03372c-3.36529,-0.34033 -6.50358,-1.6696 -9.87037,-2c-1.70298,-0.16712 -3.46375,0.24702 -5.14617,-0.02439c-2.43223,-0.39237 -4.62982,-1.51066 -7.04698,-1.94189c-1.59698,0 -3.19397,0 -4.79094,0c-0.342,0.01163 -0.68329,0.01412 -1.02316,0c-2.8193,0 -5.63861,0 -8.45791,0c-5.80599,0 -12.19524,0.56066 -17.95152,-0.03372c-4.61394,-0.47642 -8.54958,-2.28954 -12.99794,-3.09898c-3.72388,-0.67761 -7.7409,-0.11468 -11.37473,-1.06039c-2.21887,-0.57747 -4.25759,-1.4887 -6.16099,-2.5814c-0.62223,0.48727 -1.29471,0.94557 -1.87595,1.45646c0,0 -3.92592,3.18198 -7.85183,0c-3.92592,-3.18198 0,-6.36396 0,-6.36396c0.34464,-0.22839 0.61721,-0.50045 0.84146,-0.80206c-0.00002,-0.00532 -0.00004,-0.01064 -0.00004,-0.01596c0,-0.24985 0.02512,-0.49495 0.07344,-0.73372c-3.17821,-1.58115 -6.00811,-4.1102 -8.31764,-6.0843c-1.69067,-1.44513 -4.06329,-2.58886 -4.90493,-4.45991c-0.9078,-2.01811 -0.6861,-4.36933 0,-6.44415c0.40887,-1.23644 2.22363,-1.84041 3.09297,-2.90912c1.11086,-1.36564 1.50547,-3.09844 2.8094,-4.34692c1.14765,-1.09884 2.99069,-1.56914 4.3437,-2.50193c2.00999,-1.38571 3.4121,-3.39845 5.71965,-4.43586c7.10518,-3.19431 12.96065,-0.66054 19.23565,1.4779c1.90723,-0.74232 3.78767,-1.54123 5.82565,-1.9701c3.33157,-0.70108 6.0709,0.21621 9.29497,-0.07657c1.20921,-0.10981 2.39894,-0.29236 3.57633,-0.51553c4.39918,-2.16241 9.3365,-3.09205 14.18305,-5.04222c1.5895,-0.63959 2.83584,-1.84101 4.5318,-2.2645c1.63589,-0.40848 10.4711,-0.17601 11.63148,0.33938c1.91515,0.85063 2.66562,2.80992 4.14146,4.11459c1.24235,1.09825 2.61395,2.0972 3.93867,3.13161c0.4273,0.10498 0.85813,0.1993 1.29359,0.27945c1.60877,0.29609 3.42499,-0.25091 4.93674,0.28444c1.36127,0.48206 7.37559,5.30742 7.93995,6.43538c0.12866,0.25716 0.224,0.60678 0.29276,1.02103zM1166.66533,130.05089c-0.00194,0.00123 -0.00387,0.00246 -0.00581,0.00369c0.70693,-0.05357 1.38085,-0.04654 1.93621,0.23303c0.04547,-0.20642 0.10011,-0.41028 0.16411,-0.61073c-0.69798,0.12694 -1.39613,0.25255 -2.09451,0.37401z" fill="#ffffff" stroke="none" stroke-width="0.5"/><path d="M914.97826,436.65986c-0.95143,-1.32557 -0.28954,-3.06289 -0.61536,-4.57354c-0.90398,-4.19129 -1.94042,-7.91363 -1.2037,-12.27064c0.17658,-1.04433 0.99912,-1.96321 1.2338,-3c0.29769,-1.31517 -0.30957,-2.77598 0.35094,-4.00126c1.59328,-2.95562 8.04722,-7.13554 11.51992,-8.39324c2.50751,-0.90813 5.50989,-0.71292 7.96379,-1.71261c2.02749,-0.82598 2.0809,-3.27861 3.35,-4.80327c2.82551,-3.39447 6.85961,-6.62889 10.44854,-9.55078c7.72901,-5.98496 19.52011,-9.90883 30.51402,-8.2843c2.77482,0.41002 5.83504,0.72801 8.02918,2.16453c1.71371,1.12199 1.89705,3.22529 2.7286,4.87872c0.14115,0.28065 0.32973,0.5635 0.51914,0.84834c0.41665,-0.03923 0.82405,-0.09738 1.16515,-0.25324c2.0866,-0.95344 3.00749,-3.17065 5.11859,-4.08797c1.49447,-0.64938 3.4171,-0.38766 4.93519,-1c0.97992,-0.39526 1.34423,-1.45747 2.28419,-1.91203c1.27135,-0.61482 2.85773,-0.67638 4.18098,-1.21449c3.32676,-1.35287 6.19299,-3.59395 9.80028,-4.3372c0.73896,-0.15226 9.79314,-0.12038 11.14598,-0.12038c5.45653,0 14.19827,-1.18627 19.39785,0.34254c1.36227,0.40054 2.0271,1.71465 3.2618,2.32953c2.56209,1.27591 6.15608,1.0324 8.40979,2.64595c0.97471,0.69785 0.59697,2.08093 1.2338,3c0.12048,0.17387 0.41963,-0.24336 0.66482,-0.25991c1.34417,-0.09075 2.69702,-0.05811 4.04584,-0.05811c2.79809,0 5.53221,0.68478 8.29212,1.05811c1.2698,0.17176 2.61271,-0.22887 3.86198,0.02309c2.14919,0.43346 4.02098,1.56267 6.16898,2c3.06389,0.62381 6.56708,0.26785 9.27175,1.59088c1.49387,0.73075 2.24963,2.21548 3.70139,3c1.18778,0.64186 2.9595,0.4108 4.02885,1.17734c2.17621,1.55997 3.85825,3.55277 5.37295,5.56211c0.38734,0.51383 2.12164,5.04611 2.53719,6.1114c0.62639,0.82349 1.5441,1.55876 2.16531,2.38382c0.94746,-0.16613 2.06893,0.28608 3.06199,0.15137c1.28269,-0.174 2.4129,-0.85688 3.70139,-1c7.45941,-0.82857 18.15827,-0.71128 24.78279,2.61396c6.77847,3.40252 13.51667,13.48001 9.37901,19.95129c-1.20073,1.87793 -3.93817,2.80597 -6.1572,3.91906c-0.95361,0.47834 -2.25384,0.32649 -3.2218,0.78551c-2.83797,1.34581 -4.71133,3.8244 -7.60158,5.09501c-5.79233,2.54642 -9.57246,1.68702 -14.73892,3.96915c-1.6264,0.80494 -3.04495,1.99606 -4.87922,2.41482c-3.00238,0.68543 -6.28542,-0.30907 -9.35614,0.13498c-2.3282,0.33668 -4.65779,0.67084 -6.99719,0.95167l-2.18647,0.59072c-0.30788,0.30584 -0.62588,0.5969 -1.01233,0.80513c-0.62724,0.5793 -1.26627,1.14175 -2.14043,1.36805c-4.73122,1.22481 -9.25656,-0.19779 -13.94073,1.11162c-0.8645,0.24166 -7.80629,2.11569 -8.26915,2.17282c-1.62632,0.20071 -3.30666,-0.18856 -4.93519,0c-1.28747,0.14907 -2.4129,0.85688 -3.70139,1c-6.12602,0.68046 -12.62929,-0.71489 -18.71793,0.02439c-1.67698,0.20362 -3.25517,0.81356 -4.93519,1c-2.37513,0.26358 -4.83178,-0.36567 -7.1918,-0.02439c-1.28032,0.18514 -2.41667,0.83607 -3.70139,1c-6.08802,0.77685 -13.23885,0.05811 -19.39629,0.05811c-6.14244,0 -11.35813,-0.53953 -17.61815,-1.0087c-9.11275,-0.68297 -18.61257,0.95864 -27.68788,-0.04941c-1.28849,-0.14312 -2.40919,-0.88085 -3.70139,-1c-6.78356,-0.6255 -14.4211,1.13935 -21.13513,-0.02309c-2.38574,-0.41306 -4.51085,-1.51675 -6.82725,-2.13708c-2.96274,-0.79343 -10.20205,-1.5711 -12.08808,-3.09974c-1.88159,-1.52504 -1.79612,-4.06038 -2.69419,-6.09057c0,0 -0.28672,-0.92955 -0.06634,-2.03802c-0.00737,-0.02 -0.0146,-0.0401 -0.02167,-0.06031c-0.73127,-0.55488 -1.38165,-1.16369 -1.88841,-1.86972zM1110.98035,415.0364c0.04389,0.00006 0.08772,0.00009 0.13151,0.00009c3.25784,0 6.51596,-0.03049 9.7737,-0.01901c0.48675,-0.32777 0.96205,-0.65803 1.43862,-0.98065c-3.5283,0.36601 -7.02646,0.93748 -10.53395,0.96594c-0.26703,0.00217 -0.53727,0.01425 -0.80989,0.03362zM1141.07406,421.25472c-0.24085,0.14057 -0.48218,0.28034 -0.72446,0.41854c0.1866,0.04692 0.37578,0.09399 0.56766,0.14116l-0.40425,0.76024c0.25189,0.21193 0.50704,0.42033 0.76641,0.62416l-0.59091,0.31017c0.02094,-0.00495 0.04185,-0.00992 0.06275,-0.01491c0.39955,-0.09538 1.10351,0.23641 1.24558,-0.08094c0.19884,-0.44415 -0.45927,-0.87158 -0.61536,-1.32681c-0.09738,-0.28403 -0.19971,-0.56126 -0.30743,-0.8316z" fill="#ffffff" stroke="none" stroke-width="0.5"/><path d="M1192.08917,359.28766c-1.10248,-0.13193 -2.18983,-0.29943 -3.16665,-0.68794c-1.84604,-0.73422 -3.09639,-2.25394 -4.93519,-3c-1.4712,-0.59691 -3.28313,-0.42228 -4.79518,-0.9479c-1.42734,-0.49618 -2.50994,-1.50275 -3.89459,-2.0729c-4.32815,-1.78216 -8.24365,-1.75064 -12.18481,-4.56238c-6.47251,-4.61766 -6.45378,-11.00929 0.60106,-15.30797c1.03954,-0.63342 2.58014,-0.46593 3.70139,-1c3.8841,-1.85008 5.50658,-4.57152 10.66458,-4.32953c1.0302,-0.91948 1.73504,-2.17917 3.09057,-2.75844c3.0923,-1.32146 6.93363,-0.80638 10.32214,-1.5029c2.14677,-0.44128 4.00208,-1.62895 6.16898,-2c5.43916,-0.93137 11.1077,0.38522 16.40259,0.9407c2.56036,0.26861 5.19473,-0.28922 7.74503,0.03621c1.28472,0.16393 2.42107,0.81486 3.70139,1c3.10492,0.449 7.05479,-0.05811 10.21482,-0.05811c14.22479,0 27.81267,-3.66534 41.93335,-0.89037c7.11009,1.17976 14.30092,1.36746 21.33852,3.07692c3.70864,0.90084 7.50942,1.76233 10.86508,3.32744c1.53323,0.71511 2.50202,2.12673 4.11414,2.71693c0.86366,0.31619 1.90023,-0.29909 2.83502,-0.17282c0.90278,0.12195 8.80839,2.32113 9.43234,2.61396c1.00665,0.47244 1.50021,1.47643 2.46759,2c1.64686,0.89132 4.2005,0.85462 5.28657,2.19673c1.28452,1.58734 0.94353,3.73479 1.048,5.6312c0.10514,1.90887 0.37858,3.92503 -0.42262,5.72208c-0.63782,1.43059 -2.40703,2.33559 -3.67114,3.45991c-2.15811,1.91947 -6.3887,6.06534 -9.20401,6.97548c-1.528,0.49397 -3.37454,-0.42164 -4.93519,0c-1.10354,0.29814 -1.37809,1.66968 -2.46759,2c-1.61154,0.48859 -3.43181,0.20588 -5.14771,0.30883c-15.77826,3.31714 -32.57619,2.03372 -48.79643,2.03372c-6.80884,0 -12.53679,0.53553 -19.34716,0.98868c-14.31342,0.95239 -29.19863,0.01132 -43.57646,0.01132c0,0 -5.55208,0 -5.55208,-4.5c0,-0.46211 0.05854,-0.87677 0.16363,-1.24884z" fill="#ffffff" stroke="none" stroke-width="0.5"/><path d="M1109.65354,477.87253c0.77485,-0.67538 1.83424,-1.02601 2.95093,-1.31125c0.45382,-3.62017 3.1902,-7.55955 5.68564,-9.68875c0.85872,-0.73268 2.43614,-0.76037 3.21503,-1.54949c0.95612,-0.96868 0.64261,-2.56954 1.72016,-3.45051c1.00044,-0.81792 2.98348,-0.40421 3.98957,-1.21756c1.13845,-0.92036 0.91027,-2.57967 1.94306,-3.57857c1.14089,-1.10346 2.96326,-1.59593 4.3437,-2.50193c5.17151,-3.3941 9.68871,-7.88373 14.3996,-11.70194c2.31779,-1.86171 3.95397,-4.23164 6.27942,-6.08706c3.10506,-2.47745 8.0882,-3.50395 11.10417,-6c2.00364,-1.65824 3.90346,-3.42477 5.48038,-5.36215c1.01281,-1.24433 1.44744,-2.75961 2.46759,-4c0.57396,-0.69787 1.71889,-1.01419 2.24879,-1.73459c0.66598,-0.9054 0.50973,-2.12438 1.2338,-3c1.10688,-1.33854 2.86599,-2.24381 4.13062,-3.48716c3.32312,-3.26719 6.49871,-6.29822 10.23812,-9.32903c1.05894,-0.85828 7.6364,-6.23496 8.40979,-6.64595c0.57679,-0.30651 7.37686,-2.12597 8.56597,-2.44115c7.15774,-1.89717 10.63784,-2.23093 17.79507,-2.23093c7.07965,0.0545 13.31344,2.41184 20.28784,3.0219c13.96478,1.22151 27.92496,3.97371 40.47952,9.58233c4.00246,1.78806 7.52937,6.61201 12.06846,7.51615c2.24118,0.44642 6.16827,-0.88425 7.9164,-1.08666c2.87885,-0.33333 5.75536,-0.68026 8.63658,-1c6.519,-0.72344 13.84892,-0.03372 20.41911,-0.03372c3.51627,0 7.06498,-0.35289 10.54874,0.03372c1.68001,0.18644 3.25014,0.84619 4.93519,1c2.16657,0.19776 4.40469,-0.30735 6.54055,0.04748c2.49298,0.41416 4.74537,1.4915 7.12489,2.22274c7.15551,2.19893 15.29456,4.05924 21.8876,7.36813c1.74829,0.87743 3.17203,2.14233 4.93519,3c7.66701,3.72956 16.74057,7.43393 23.21535,12.64595c0.88466,0.71212 0.98442,1.93029 1.91176,2.6058c1.80449,1.31447 4.85171,0.76328 6.9516,1.74825c0.94736,0.44437 1.331,1.47595 2.28419,1.91203c1.70069,0.77804 6.40785,0.31634 7.68195,0.4378c7.36087,0.70169 10.08893,2.04139 17.56108,4.30217c4.39719,1.53657 10.47297,3.08803 14.19506,5.99395c1.19819,0.93545 1.80113,2.27284 2.83534,3.32903c0.91757,0.93708 2.36653,1.55732 3.00536,2.63581c1.68845,2.85051 0.99987,6.28093 1.85427,9.36616c0.48504,1.75148 2.05042,3.23708 2.46759,5c1.07302,4.53442 0.10018,9.23391 0.10018,13.85098c0,10.67613 0.70075,22.56933 -5.76438,32.36579c-1.94944,2.95393 -8.6906,6.44833 -12.34715,7.74952c-1.59245,0.56668 -3.46404,0.47568 -5.05662,1.04214c-2.39924,0.85338 -4.2488,2.73764 -6.81163,3.17926c-1.22621,0.2113 -21.67604,0.16328 -23.69037,0.16328c-16.248,0 -32.21276,-0.08994 -48.4049,-1.00601c-9.12612,-0.51631 -18.36011,0.24418 -27.50571,-0.25015c-7.44025,-0.40215 -14.69244,-2.13526 -22.10852,-2.76591c-10.11154,-0.85987 -20.54471,-0.30324 -30.68931,-0.98925c-8.70128,-0.58841 -16.83207,-3.042 -25.51615,-2.98868c0,0 -3.23346,0 -4.76519,-2c-1.19013,0 -2.38027,0 -3.5704,0c-0.76218,1.74779 -2.81874,3 -5.23616,3h-3.70139c-4.23164,1.07125 -6.58704,-0.67641 -10.54874,-1.03372c-1.97071,-0.17774 -3.97386,0.16412 -5.94855,0.01838c-9.04085,-0.66725 -18.06959,-2.37041 -27.11686,-2.99826c-5.33521,-0.37025 -10.96777,0.57011 -16.28645,-0.02012c-16.45521,-1.8261 -32.59721,-4.89937 -49.35186,-5c-0.69453,-0.13642 -9.52412,-1.8592 -10.53858,-2.10064c-2.37456,-0.56514 -5.22046,-0.51606 -7.0627,-1.85545c-1.43041,-1.03998 -6.55681,-7.94167 -4.65482,-11.14944c-0.46336,0.0334 -0.94063,0.02851 -1.397,0.08115l-0.718,-0.5336l-0.14838,0.36078l-3.57993,-0.96719c-2.26872,-0.56551 -3.91782,-2.27761 -3.91782,-4.30189c0,-1.36798 0.75312,-2.59339 1.94165,-3.41871c-4.65937,-4.14657 -7.3881,-9.67393 -1.54928,-14.76327zM1132.23816,505.69665c-0.69031,-0.26746 -1.37818,-0.53846 -2.0578,-0.82129c0.07936,0.31069 0.21756,0.55558 0.44494,0.66896c0.46893,0.23381 1.03699,0.19591 1.61286,0.15233z" fill="#ffffff" stroke="none" stroke-width="0.5"/><path d="M959.35489,640.55451c-1.94203,-0.11418 -4.02167,0.25053 -5.82609,-0.34254c-2.89877,-0.95277 -4.05878,-3.21818 -6.33045,-4.67742c-3.25926,-2.09362 -7.24984,-3.92484 -9.6207,-6.84884c-3.55806,-4.3882 -5.09257,-9.41926 -4.74939,-14.6312c0.13472,-2.04591 -0.4188,-4.26932 0.65695,-6.12336c0.85178,-1.46803 3.2751,-1.89568 4.67061,-3.05862c1.24762,-1.0397 1.66907,-2.73916 3.19524,-3.49639c6.33446,-3.14293 11.9167,-0.97239 18.34673,-1.47909c0.19611,-0.01545 0.0054,-0.32882 0.0882,-0.47374c0.7728,-1.35274 1.64506,-2.66667 2.46759,-4c3.77685,-2.98391 5.57263,-7.8174 6.40845,-11.99296c0.35633,-1.78015 -0.42675,-3.65656 0.09485,-5.40973c1.15846,-3.89376 3.33661,-5.12528 5.5367,-8.22478c2.94639,-4.15092 2.74064,-6.26962 8.84635,-8.89879c1.51947,-0.6543 3.44876,-0.08829 5.14771,-0.30883c6.6956,-0.86913 12.23995,-1.03372 19.18531,-1.03372c5.75655,0 10.93821,-0.27462 16.51376,1.21828c2.40393,0.64367 4.77627,1.38933 7.04555,2.29912c1.91836,0.7691 5.09241,3.07111 7.32742,3.60298c3.86199,0.91904 10.71155,-0.12038 14.76375,-0.12038c4.3155,0.01407 8.59195,0.66577 12.88506,1.0219c3.62873,0.30102 7.60666,-0.36288 11.23546,0.01182c8.14126,0.84063 15.60341,4.68446 24.18141,3.04748c2.00884,-0.38336 3.72899,-1.48316 5.72288,-1.91475c2.75656,-0.59668 5.60063,-0.93124 8.44088,-1.15111c5.47419,-0.42377 10.9982,-0.01533 16.49729,-0.01533c3.95812,0 7.98876,-0.56829 11.87426,0.0435c4.602,0.7246 12.36334,2.92771 17.025,4.18743c8.28429,2.23866 15.60732,4.04591 21.91094,9.08709c6.23869,5.22483 7.77159,11.21562 10.04133,17.92384c0.72451,2.1413 2.96124,3.81256 3.68457,5.95412c0.57636,1.70639 0.19733,3.53516 0.23823,5.30403c0.1446,6.2543 1.10686,11.596 -3.72602,16.85295c-4.16853,4.5343 -8.07937,5.18541 -14.50693,7.30451c-3.12603,1.03062 -7.42918,2.14607 -10.96238,3.41625c0.10466,0.01989 0.20929,0.0401 0.3139,0.06065l1.12102,-0.13436c0,0 5.55208,0 5.55208,4.5c0,4.5 -5.55208,4.5 -5.55208,4.5l-3.81417,-0.13436c-7.33253,-1.54549 -15.37774,-1.14296 -23.12488,-0.94428l-1.43827,0.07864c0,0 -0.21094,0 -0.55059,-0.03333c-1.05844,0.02035 -2.10958,0.03333 -3.1508,0.03333c-17.7738,0 -35.75531,0.77877 -53.39825,-1.0087c-9.78874,0.00791 -20.0515,0.63655 -29.81321,-0.0132c-7.25788,-0.4831 -14.41734,-1.89704 -21.55802,-3.07238c-4.66088,-0.76718 -9.48559,-0.57862 -14.22208,-0.92762c-2.08844,-0.15388 -4.08283,-0.82695 -6.16898,-1c-5.81318,-0.48223 -12.11356,0.0219 -17.95986,0.0219c-10.30102,0 -20.60202,0 -30.90304,0c-1.60632,1 -3.64327,1 -3.64327,1z" fill="#ffffff" stroke="none" stroke-width="0.5"/><path d="M1280.25622,665.54835c1.92687,-1.46168 3.49769,-3.35911 5.78684,-4.40974c3.17213,-1.45589 6.88454,-2.05208 10.48273,-2.52599c4.9293,-0.64923 9.43622,0.32317 14.11666,1c2.36002,0.34128 4.81714,-0.29065 7.1918,-0.02439c1.57949,0.1771 3.03488,0.97363 4.62941,0.97643c3.29477,0.00578 6.54295,-0.63405 9.81442,-0.95108c5.54958,-0.87993 10.56024,-3.30849 16.06717,-4.00096c1.69514,-0.21316 3.44407,0.14856 5.14617,-0.02439c1.68252,-0.17097 3.25176,-0.83503 4.93519,-1c8.58152,-0.84094 19.23264,-0.4194 27.28057,2.2458c6.92451,2.29316 9.55484,4.16204 14.3376,8.0385c1.64506,1.33333 3.439,2.55605 4.93519,4c0.30633,0.29563 0.22039,0.88893 0.66636,1.02452c0.50946,0.15489 1.03313,-0.32262 1.57669,-0.34254c2.28017,-0.08359 4.57882,-0.17057 6.84735,0.03372c6.12696,0.55174 12.15878,2.18246 17.63543,4.3612c4.96,1.60625 10.86246,1.90453 14.93506,4.70554c4.52753,3.1139 4.42006,6.43177 4.38194,10.39954c-0.01699,1.76913 0.43808,3.62191 -0.23823,5.30403c-2.12684,5.28987 -7.51378,6.8657 -12.79989,9.21151c-0.3968,0.24379 -0.81896,0.42721 -1.22958,0.56521c-3.42851,1.66058 -5.33644,3.51251 -9.74952,4.29887c-2.6047,0.46413 -5.34731,-0.13619 -8.00001,0.08666c-1.68665,0.14169 -3.24934,0.8521 -4.93519,1c-0.5228,0.04587 -14.06997,0.03372 -14.25013,0.03372c-15.79405,0 -31.06339,-0.9668 -46.6514,-3.07373c-6.03104,-1.00058 -12.03635,-1.48144 -18.07824,-1.71252c-5.96163,0.0708 -11.91675,0.04745 -17.85573,-0.20686c-5.06314,0.05759 -10.60847,0.4449 -15.56292,-0.0406c-1.68343,-0.16497 -3.25358,-0.82323 -4.93519,-1c-3.7404,-0.3932 -7.57366,0.36194 -11.31515,-0.02439c-1.57331,-0.16245 -3.13606,-0.55574 -4.6944,-1.01077c-3.26018,0.0805 -6.52618,0.28168 -9.76891,0.04698c-7.42681,-0.53754 -14.21404,-1.9781 -21.66125,-1.9781c0,0 -5.55208,0 -5.55208,-4.5c0,-2.27262 1.41608,-3.39751 2.81791,-3.9543c-0.09943,-1.02228 -0.09778,-2.08565 -0.35031,-3.0457c0.14087,-1.57403 -0.25848,-3.24362 0.42262,-4.72208c0.55246,-1.19921 2.20624,-1.84985 3.09297,-2.90912c1.26554,-1.5118 1.71472,-3.49741 3.33394,-4.76835c1.23293,-0.96773 3.27997,-0.88537 4.76237,-1.58646c1.77606,-0.83999 3.14983,-2.17304 4.93519,-3c1.01761,-0.47135 2.35486,-0.3523 3.35925,-0.84192c1.0559,-0.51473 1.54512,-1.64753 2.651,-2.08797c1.31982,-0.52565 2.52225,-0.77897 3.64067,-0.96812c0.02022,-0.01065 0.04046,-0.02128 0.06072,-0.03188c1.09999,-0.57594 2.49724,-0.58694 3.80656,-0.78393c0.82616,-0.30473 1.62102,-0.75461 2.4058,-1.48216zM1256.94298,687.70557c0.20512,0.0328 0.40871,0.07001 0.61093,0.11114c0.02862,-0.1821 0.05975,-0.36427 0.09339,-0.54647c-0.28424,0.11139 -0.54825,0.23563 -0.70431,0.43534z" fill="#ffffff" stroke="none" stroke-width="0.5"/></g></g></svg>