<svg version="1.1" xmlns="http://www.w3.org/2000/svg" xmlns:xlink="http://www.w3.org/1999/xlink" width="50.48436" height="36.25918" viewBox="0,0,50.48436,36.25918"><g transform="translate(-351.19287,-344.14736)"><g data-paper-data="{&quot;isPaintingLayer&quot;:true}" fill-rule="nonzero" stroke="none" stroke-width="0" stroke-linecap="butt" stroke-linejoin="miter" stroke-miterlimit="10" stroke-dasharray="" stroke-dashoffset="0" style="mix-blend-mode: normal"><path d="M363.17361,350.57671h2.96868c1.17111,0 2.12049,1.19911 2.12049,2.67829c0,1.47918 -0.94937,2.67829 -2.12049,2.67829h-2.96868v9.64183c-0.02927,1.29427 -0.88372,2.31354 -1.90844,2.27655c-1.02473,-0.03698 -1.83169,-1.11618 -1.80241,-2.41047c-0.02927,-0.96146 -0.67011,-1.7109 -1.43133,-1.67392c-0.76122,0.03698 -1.35457,0.84638 -1.3253,1.80784c-0.02927,1.25731 -0.85998,2.24656 -1.85543,2.2096c-0.99545,-0.03698 -1.77868,-1.0862 -1.74941,-2.3435v-4.95484h-1.16626c-0.63615,0 -0.74217,-0.13393 -0.74217,-0.9374v-8.30269c0,-0.80349 0.10603,-0.9374 0.74217,-0.9374h1.16626c0.05856,-3.47606 2.33705,-6.23402 5.08916,-6.16007c2.75211,0.07395 4.93567,2.95183 4.87712,6.42789" fill="#66ffaa"/><path d="M363.19914,350.16671c3.09721,0 5.60799,1.38997 5.60799,3.10456c0,1.71459 -2.51079,3.10456 -5.60799,3.10456c-3.09721,0 -5.60799,-1.38997 -5.60799,-3.10456c0,-1.71459 2.51079,-3.10456 5.60799,-3.10456z" fill="#ffffff"/><path d="M401.67723,380.40653v0v0v0z" fill="#ffffff"/></g></g></svg>