<svg version="1.1" xmlns="http://www.w3.org/2000/svg" xmlns:xlink="http://www.w3.org/1999/xlink" width="37.82494" height="118.9563" viewBox="0,0,37.82494,118.9563"><defs><radialGradient cx="359.79443" cy="395.10436" r="13.73339" gradientUnits="userSpaceOnUse" id="color-1"><stop offset="0" stop-color="#a2a8a4" stop-opacity="0.51765"/><stop offset="1" stop-color="#5c605c" stop-opacity="0.7451"/></radialGradient></defs><g transform="translate(-341.08753,-300.52185)"><g data-paper-data="{&quot;isPaintingLayer&quot;:true}" fill-rule="nonzero" stroke-linejoin="miter" stroke-miterlimit="10" stroke-dasharray="" stroke-dashoffset="0" style="mix-blend-mode: normal"><path d="M343.62137,419.28663c0,0 -1.97971,-27.98829 -2.41063,-41.71749c-0.69893,-22.26844 1.80363,-76.85577 1.80363,-76.85577h33.42735c0,0 3.26742,56.11947 2.28735,78.42326c-0.62302,14.17843 -2.28735,40.30321 -2.28735,40.30321z" fill="#36ff37" stroke="none" stroke-width="0" stroke-linecap="butt"/><path d="M343.94161,419.47815c0,0 0,-13.66481 0,-20.02467c0,-5.78656 0,-16.57727 0,-16.57727h32.6686v36.60194z" fill="#36ff37" stroke="none" stroke-width="0" stroke-linecap="butt"/><path d="M343.66569,383.8551v-83.33325h32.6686v83.33325z" fill="#36ff37" stroke="none" stroke-width="0" stroke-linecap="butt"/><path d="M374.71287,415.69454c0,1.69239 -1.69852,3.06435 -3.79375,3.06435c-2.09523,0 -3.79375,-1.37196 -3.79375,-3.06435c0,-1.69239 1.69852,-3.06435 3.79375,-3.06435c2.09523,0 3.79375,1.37196 3.79375,3.06435z" fill-opacity="0.77647" fill="#4a8fd9" stroke="none" stroke-width="0" stroke-linecap="butt"/><path d="M352.94361,415.38809c0,1.69239 -1.69852,3.06435 -3.79375,3.06435c-2.09523,0 -3.79375,-1.37196 -3.79375,-3.06435c0,-1.69239 1.69852,-3.06435 3.79375,-3.06435c2.09523,0 3.79375,1.37196 3.79375,3.06435z" fill-opacity="0.77647" fill="#4a8fd9" stroke="none" stroke-width="0" stroke-linecap="butt"/><path d="M368.62972,393.38356h2.25249c0.88858,0 1.60892,0.91862 1.60892,2.0518c0,1.13318 -0.72034,2.0518 -1.60892,2.0518h-2.25249v7.38648c-0.02221,0.99152 -0.67052,1.77238 -1.44803,1.74403c-0.77752,-0.02834 -1.3898,-0.85509 -1.36759,-1.84663c-0.02221,-0.73656 -0.50845,-1.3107 -1.08602,-1.28237c-0.57758,0.02834 -1.02778,0.6484 -1.00557,1.38496c-0.02221,0.96321 -0.65251,1.72106 -1.40781,1.69275c-0.7553,-0.02834 -1.34957,-0.83212 -1.32736,-1.79532v-3.79584h-0.8849c-0.48268,0 -0.56313,-0.1026 -0.56313,-0.71813v-6.36058c0,-0.61554 0.08046,-0.71813 0.56313,-0.71813h0.8849c0.04443,-2.66297 1.77324,-4.7758 3.8614,-4.71914c2.08817,0.05665 3.74494,2.26136 3.70051,4.92433" fill="#ff6666" stroke="none" stroke-width="0" stroke-linecap="butt"/><path d="M368.6491,393.06947c2.35001,0 4.25506,1.06484 4.25506,2.37836c0,1.31353 -1.90507,2.37836 -4.25506,2.37836c-2.35001,0 -4.25506,-1.06484 -4.25506,-2.37836c0,-1.31353 1.90507,-2.37836 4.25506,-2.37836z" fill="#ffffff" stroke="none" stroke-width="0" stroke-linecap="butt"/><path d="M363.86962,403.53928v-1.4811h1.51751v1.4811z" fill="#000000" stroke="#000000" stroke-width="0.5" stroke-linecap="butt"/><path d="M366.65468,401.62449c0,1.06572 -0.89457,1.92965 -1.99804,1.92965c-1.10349,0 -1.99804,-0.86393 -1.99804,-1.92965c0,-1.06572 0.89455,-1.92965 1.99804,-1.92965c1.10349,0 1.99804,0.86393 1.99804,1.92965z" fill="none" stroke="#000000" stroke-width="1" stroke-linecap="butt"/><path d="M363.89838,402.17213v-0.81116h1.42823v0.81116z" fill="#000000" stroke="none" stroke-width="0" stroke-linecap="butt"/><path d="M362.87184,401.49617l1.74067,0.27038v1.35191" fill="none" stroke="#000000" stroke-width="0.5" stroke-linecap="round"/><path d="M366.21927,401.4511l-1.65139,0.22532l-0.08926,-1.98282" fill="none" stroke="#000000" stroke-width="0.5" stroke-linecap="round"/><path d="M346.06103,403.60793v-17.00713h27.46678v17.00713z" fill="url(#color-1)" stroke="none" stroke-width="0" stroke-linecap="butt"/><path d="M357.49182,407.98685c0,0 0,-1.63703 0,-2.39894c0,-0.69323 0,-1.98593 0,-1.98593h14.30683v4.38487z" fill="#36ff37" stroke="none" stroke-width="0" stroke-linecap="butt"/></g></g></svg>