<svg version="1.1" xmlns="http://www.w3.org/2000/svg" xmlns:xlink="http://www.w3.org/1999/xlink" width="584.94386" height="433.55628" viewBox="0,0,584.94386,433.55628"><g transform="translate(184.09682,-190.10409)"><g data-paper-data="{&quot;isPaintingLayer&quot;:true}" fill-rule="nonzero" stroke-linecap="butt" stroke-linejoin="miter" stroke-miterlimit="10" stroke-dasharray="" stroke-dashoffset="0" style="mix-blend-mode: normal"><path d="M203.32347,453.57885c-3.82364,0 -3.82365,-3.68612 -3.82365,-3.68612v-2.90332c0.03051,-3.2244 -0.99451,-6.37754 -1.45644,-9.57118c-0.06431,-0.44462 -0.04937,-11.42438 -0.04937,-12.20374c0,-9.19385 0,-18.38771 0,-27.58156c0,-8.20399 0.16616,-15.65758 1.53447,-23.67697c0.53164,-3.11581 -1.04633,-7.02185 1.09127,-9.41441c1.81242,-2.02859 5.52736,-0.5734 8.25982,-1.05202c8.25422,-1.44584 17.38912,-3.26736 25.33014,-5.82613c6.14748,-1.98085 12.88618,-3.1372 18.83893,-5.53039c8.47633,-3.40776 14.77018,-8.22306 21.55476,-13.89958c1.6063,-1.34396 9.85691,-6.91626 11.59431,-8.58739c2.73577,-2.63141 5.11773,-6.38818 7.25746,-9.51854c2.10418,-4.29907 3.52402,-8.88054 5.39932,-13.27696c0.91018,-2.13382 2.65838,-3.92882 3.28107,-6.15654c0.63974,-2.28874 -0.04542,-4.77261 0.42418,-7.09935c0.47918,-2.3742 1.93542,-4.50097 2.39689,-6.87843c0.701,-3.61163 -0.04937,-7.34853 -0.04937,-11.02285c0,-5.46702 0.72202,-11.54754 0.02864,-16.96956c-0.54652,-4.27358 -2.51966,-9.56909 -4.25505,-13.55637c-1.03297,-2.37338 -1.38759,-6.00537 -3.95394,-6.71505c-1.33425,-0.36897 -2.85087,0.56103 -4.16225,0.12242c-3.56318,-1.19174 -6.00205,-4.54294 -9.47376,-5.9636c-4.65541,-1.90503 -10.05919,-2.63183 -15.01716,-2.58822c-6.48917,0 -15.42488,-1.46527 -21.71104,-0.0981c-2.0789,0.45214 -3.6701,2.1566 -5.69112,2.80847c-2.41667,0.77947 -5.07872,0.66916 -7.4966,1.44509c-4.82307,1.54779 -11.45043,4.46356 -15.87177,6.95201c-6.18011,3.47834 -10.69446,8.23208 -16.01059,12.68484c-3.4758,2.9113 -7.65241,4.97247 -11.15658,7.85199c-4.80035,3.94464 -5.5535,5.60025 -9.35056,10.42848c-1.35163,1.71869 -3.1843,3.1573 -4.09246,5.1284c-0.92084,1.9986 -0.82825,4.30026 -1.24236,6.45039c0,0 -0.74988,3.61454 -4.49927,2.89163c-3.74939,-0.72291 -2.99951,-4.33744 -2.99951,-4.33744c0.58572,-2.66925 0.60726,-5.51479 1.75715,-8.00776c5.38614,-11.6772 17.19541,-18.08773 26.61041,-26.00608c5.64021,-4.74361 10.5375,-9.76203 17.11746,-13.44507c4.78052,-2.67585 12.01437,-5.87498 17.25627,-7.5646c2.41826,-0.77948 5.0811,-0.67167 7.50096,-1.44654c2.2572,-0.72279 4.09113,-2.5262 6.41609,-3.00987c6.92284,-1.4402 16.32061,-0.09809 23.46355,-0.09809c6.04885,0.04339 12.44528,0.85934 18.11088,3.21844c3.18364,1.32563 5.29085,4.63774 8.59609,5.6497c1.54856,0.47412 3.39981,-0.53891 4.87267,0.12242c1.91555,0.86012 3.40572,2.50721 4.6503,4.15354c7.29482,9.64956 8.25084,22.74686 8.25084,34.09187c0,5.63034 0.96951,12.48157 -0.04937,18.01038c-0.4529,2.45763 -1.94252,4.65975 -2.43968,7.10941c-0.50682,2.4972 0.14461,5.16008 -0.54871,7.61528c-0.71057,2.51625 -2.56467,4.6036 -3.58396,7.0192c-1.97589,4.68265 -3.56916,9.52303 -5.80855,14.09415c-2.65173,3.89532 -5.06902,7.79133 -8.53105,11.13537c-3.43848,3.3213 -8.31763,5.86606 -11.97929,8.93233c-7.35745,6.16112 -14.42588,11.48327 -23.61984,15.13365c-6.18107,2.45414 -13.04108,3.69724 -19.39813,5.73107c-6.57505,2.10357 -13.58137,3.00156 -20.29899,4.605c-2.15993,0.51556 -4.2605,1.42969 -6.48303,1.534c-1.31206,0.06157 -3.07739,-2.11788 -3.78674,-1.05202c-0.9727,1.46156 1.15722,3.36686 1.09127,5.10221c-0.07577,1.99378 -1.24394,3.82756 -1.50583,5.80664c-0.72466,5.47616 0.02865,11.43606 0.02865,16.96956c0,9.19385 0,18.38771 0,27.58156c0,3.67431 -0.60257,7.38743 -0.04937,11.02284c0.54482,3.58039 1.52727,7.13348 1.5552,10.75208v2.90332c0,0 0,3.68612 -3.82364,3.68612z" fill="#ffffff" stroke="none" stroke-width="0.5"/><path d="M199.49982,491.99092c0,-2.03579 1.71191,-3.68612 3.82365,-3.68612c2.11174,0 3.82364,1.65034 3.82364,3.68612c0,2.03579 -1.7119,3.68612 -3.82364,3.68612c-2.11174,0 -3.82365,-1.65033 -3.82365,-3.68612z" fill="#ffffff" stroke="none" stroke-width="0.5"/><path d="M396.84704,360c0,91.62178 -70.22281,165.89591 -156.84704,165.89591c-86.62423,0 -156.84704,-74.27413 -156.84704,-165.89591c0,-91.62178 70.22281,-165.89591 156.84704,-165.89591c86.62423,0 156.84704,74.27413 156.84704,165.89591z" fill="none" stroke="#00ff2d" stroke-width="8"/><text transform="translate(-183.84682,617.41037) scale(0.5,0.5)" font-size="40" xml:space="preserve" fill="#6aff00" fill-rule="nonzero" stroke="none" stroke-width="1" stroke-linecap="butt" stroke-linejoin="miter" stroke-miterlimit="10" stroke-dasharray="" stroke-dashoffset="0" font-family="Sans Serif" font-weight="normal" text-anchor="start" style="mix-blend-mode: normal"><tspan x="0" dy="0"> </tspan></text><text transform="translate(281.5557,478.37691) scale(3.95858,3.95858)" font-size="40" xml:space="preserve" fill="#ff0000" fill-rule="nonzero" stroke="none" stroke-width="1" stroke-linecap="butt" stroke-linejoin="miter" stroke-miterlimit="10" stroke-dasharray="" stroke-dashoffset="0" font-family="Sans Serif" font-weight="normal" text-anchor="start" style="mix-blend-mode: normal"><tspan x="0" dy="0">1</tspan></text></g></g></svg>