<svg version="1.1" xmlns="http://www.w3.org/2000/svg" xmlns:xlink="http://www.w3.org/1999/xlink" width="78.43789" height="72.24298" viewBox="0,0,78.43789,72.24298"><g transform="translate(-195.01828,-322.62233)"><g data-paper-data="{&quot;isPaintingLayer&quot;:true}" fill-rule="nonzero" stroke-linecap="butt" stroke-linejoin="miter" stroke-miterlimit="10" stroke-dasharray="" stroke-dashoffset="0" style="mix-blend-mode: normal"><path d="M248.54931,392.11442l-31.92093,-51.98129l22.15596,-13.60564l31.92093,51.98129z" fill="#00ff2a" stroke="#000000" stroke-width="4"/><path d="M224.67149,335.07663l-5.96555,-9.71454l5.71291,-2.73976l5.36555,9.31454z" fill="#00ff2a" stroke="none" stroke-width="0"/><path d="M214.5698,330.97606l-0.89318,-6.40861l10.28497,-1.67021l0.89318,5.20861z" fill="#00ff2a" stroke="none" stroke-width="0"/><text transform="translate(232.15176,362.0869) rotate(-31.55347) scale(0.21039,0.31798) skewX(0)" font-size="40" xml:space="preserve" fill="#000000" fill-rule="nonzero" stroke="none" stroke-width="1" stroke-linecap="butt" stroke-linejoin="miter" stroke-miterlimit="10" stroke-dasharray="" stroke-dashoffset="0" font-family="Sans Serif" font-weight="normal" text-anchor="start" style="mix-blend-mode: normal"><tspan x="0" dy="0">Spray</tspan><tspan x="0" dy="46.150000000000006px">Paint</tspan></text><path d="M201.5032,328.65445c0.37452,0 0.67813,0.56384 0.67813,1.25938c0,0.69554 -0.30361,1.25938 -0.67813,1.25938c-0.37452,0 -0.67813,-0.56384 -0.67813,-1.25938c0,-0.69554 0.30361,-1.25938 0.67813,-1.25938z" fill="#00ff03" stroke="none" stroke-width="0"/><path d="M204.50634,328.55757c0,-0.0535 0.78071,-0.09688 1.74376,-0.09688c0.96305,0 1.74376,0.04337 1.74376,0.09688c0,0.0535 -0.78071,0.09688 -1.74376,0.09688c-0.96305,0 -1.74376,-0.04337 -1.74376,-0.09688z" fill="#00ff03" stroke="none" stroke-width="0"/><path d="M199.08131,327.10444c1.28407,0 2.32501,0.34698 2.32501,0.775c0,0.42802 -1.04094,0.775 -2.32501,0.775c-1.28407,0 -2.32501,-0.34698 -2.32501,-0.775c0,-0.42802 1.04094,-0.775 2.32501,-0.775z" fill="#00ff03" stroke="none" stroke-width="0"/><path d="M201.8907,330.59196c1.33757,0 2.42189,0.52048 2.42189,1.16251c0,0.64204 -1.08432,1.16251 -2.42189,1.16251c-1.33757,0 -2.42189,-0.52048 -2.42189,-1.16251c0,-0.64204 1.08432,-1.16251 2.42189,-1.16251z" fill="#00ff03" stroke="none" stroke-width="0"/><path d="M204.70009,328.65445c2.24712,0 4.06877,0.34698 4.06877,0.775c0,0.42802 -1.82165,0.775 -4.06877,0.775c-2.24712,0 -4.06877,-0.34698 -4.06877,-0.775c0,-0.42802 1.82165,-0.775 4.06877,-0.775z" fill="#00ff03" stroke="none" stroke-width="0"/><path d="M209.54388,325.55443c1.49808,0 2.71252,0.26023 2.71252,0.58125c0,0.32101 -1.21444,0.58125 -2.71252,0.58125c-1.49808,0 -2.71252,-0.26023 -2.71252,-0.58125c0,-0.32101 1.21444,-0.58125 2.71252,-0.58125z" fill="#00ff03" stroke="none" stroke-width="0"/><path d="M203.92509,324.58567c1.17706,0 2.13126,0.82408 2.13126,1.84064c0,1.01656 -0.9542,1.84064 -2.13126,1.84064c-1.17706,0 -2.13126,-0.82408 -2.13126,-1.84064c0,-1.01656 0.9542,-1.84064 2.13126,-1.84064z" fill="#00ff03" stroke="none" stroke-width="0"/><path d="M204.21571,323.61692c1.65859,0 3.00314,1.08432 3.00314,2.42189c0,1.33757 -1.34455,2.42189 -3.00314,2.42189c-1.65859,0 -3.00314,-1.08432 -3.00314,-2.42189c0,-1.33757 1.34455,-2.42189 3.00314,-2.42189z" fill-opacity="0.66667" fill="#00ff04" stroke="none" stroke-width="0"/><path d="M205.57198,329.81695c1.12356,0 2.03439,0.13012 2.03439,0.29063c0,0.16051 -0.91083,0.29063 -2.03439,0.29063c-1.12356,0 -2.03439,-0.13012 -2.03439,-0.29063c0,-0.16051 0.91083,-0.29063 2.03439,-0.29063z" fill-opacity="0.66667" fill="#00ff04" stroke="none" stroke-width="0"/><path d="M208.76887,326.71694c1.49808,0 2.71252,0.56384 2.71252,1.25938c0,0.69554 -1.21444,1.25938 -2.71252,1.25938c-1.49808,0 -2.71252,-0.56384 -2.71252,-1.25938c0,-0.69554 1.21444,-1.25938 2.71252,-1.25938z" fill-opacity="0.39216" fill="#00ff04" stroke="none" stroke-width="0"/><path d="M199.66256,329.04195c1.17706,0 2.13126,0.30361 2.13126,0.67813c0,0.37452 -0.9542,0.67813 -2.13126,0.67813c-1.17706,0 -2.13126,-0.30361 -2.13126,-0.67813c0,-0.37452 0.9542,-0.67813 2.13126,-0.67813z" fill-opacity="0.39216" fill="#00ff04" stroke="none" stroke-width="0"/><path d="M197.9188,326.71693c1.07006,0 1.93751,0.60722 1.93751,1.35626c0,0.74904 -0.86745,1.35626 -1.93751,1.35626c-1.07006,0 -1.93751,-0.60722 -1.93751,-1.35626c0,-0.74904 0.86745,-1.35626 1.93751,-1.35626z" fill-opacity="0.39216" fill="#00ff04" stroke="none" stroke-width="0"/><path d="M204.31259,329.04195c1.71209,0 3.10002,0.60722 3.10002,1.35626c0,0.74904 -1.38793,1.35626 -3.10002,1.35626c-1.71209,0 -3.10002,-0.60722 -3.10002,-1.35626c0,-0.74904 1.38793,-1.35626 3.10002,-1.35626z" fill-opacity="0.96471" fill="#00ff04" stroke="none" stroke-width="0"/><path d="M197.64962,326.91836c1.54544,-0.13799 2.87541,0.61417 2.97057,1.67999c0.09517,1.06582 -1.08051,2.04169 -2.62595,2.17968c-1.54544,0.13799 -2.87541,-0.61417 -2.97057,-1.67999c-0.09517,-1.06582 1.08051,-2.04169 2.62595,-2.17968z" fill-opacity="0.96471" fill="#00ff04" stroke="none" stroke-width="0"/><path d="M204.02196,328.65444c1.55158,0 2.80939,0.21687 2.80939,0.48438c0,0.26752 -1.25781,0.48438 -2.80939,0.48438c-1.55158,0 -2.80939,-0.21687 -2.80939,-0.48438c0,-0.26752 1.25781,-0.48438 2.80939,-0.48438z" fill-opacity="0.47451" fill="#00ff04" stroke="none" stroke-width="0"/></g></g></svg>