<svg version="1.1" xmlns="http://www.w3.org/2000/svg" xmlns:xlink="http://www.w3.org/1999/xlink" width="380.65279" height="234.38153" viewBox="0,0,380.65279,234.38153"><g transform="translate(-133.01459,-244.08786)"><g data-paper-data="{&quot;isPaintingLayer&quot;:true}" fill-rule="nonzero" stroke="none" stroke-linecap="butt" stroke-linejoin="miter" stroke-miterlimit="10" stroke-dasharray="" stroke-dashoffset="0" style="mix-blend-mode: normal"><path d="M133.01459,466.40646l1.6404,-205.06945c0,0 2.16205,-17.24915 12.80057,-17.24915c45.55149,0 357.92881,0.16004 357.92881,0.16004c0,0 8.22312,6.7828 8.24758,13.47001c0.10083,27.55924 -0.0456,207.68333 -0.0456,207.68333c0,0 -4.32753,12.06291 -10.66254,12.06291c-55.67957,0 -328.97601,1.00524 -360.06685,1.00524c-5.64226,0 -9.84236,-12.06291 -9.84236,-12.06291z" fill="#444444" stroke-width="0"/><path d="M184.86207,301.77427v-47.18638h282.65815v47.18638z" fill="#9e9e9e" stroke-width="0"/><text transform="translate(187.76207,290.43479) scale(1.1228,1.05219)" font-size="40" xml:space="preserve" fill="#00ff46" fill-rule="nonzero" stroke="none" stroke-width="1" stroke-linecap="butt" stroke-linejoin="miter" stroke-miterlimit="10" stroke-dasharray="" stroke-dashoffset="0" font-family="Sans Serif" font-weight="normal" text-anchor="start" style="mix-blend-mode: normal"><tspan x="0" dy="0">Classic Mode</tspan></text><path d="M161.2689,261.62759c0,5.20931 -4.22299,9.43227 -9.43227,9.43227c-5.20928,0 -9.43227,-4.22299 -9.43227,-9.43227c0,-5.20928 4.22299,-9.43227 9.43227,-9.43227c5.20931,0 9.43227,4.22299 9.43227,9.43227z" fill="#292929" stroke-width="0"/><path d="M509.67795,258.23927c0,5.20931 -4.22299,9.43227 -9.43227,9.43227c-5.20928,0 -9.43227,-4.22299 -9.43227,-9.43227c0,-5.20928 4.22299,-9.43227 9.43227,-9.43227c5.20931,0 9.43227,4.22299 9.43227,9.43227z" fill="#292929" stroke-width="0"/><path d="M160.90133,462.80359c0,5.20931 -4.22299,9.43227 -9.43227,9.43227c-5.20928,0 -9.43227,-4.22297 -9.43227,-9.43227c0,-5.20931 4.22299,-9.43227 9.43227,-9.43227c5.20931,0 9.43227,4.22297 9.43227,9.43227z" fill="#292929" stroke-width="0"/><path d="M504.56422,461.9834c0,5.20931 -4.22299,9.43227 -9.43227,9.43227c-5.20928,0 -9.43227,-4.22297 -9.43227,-9.43227c0,-5.20931 4.22299,-9.43227 9.43227,-9.43227c5.20931,0 9.43227,4.22297 9.43227,9.43227z" fill="#292929" stroke-width="0"/><text transform="translate(148.59727,331.15625) scale(0.46181,0.5)" font-size="40" xml:space="preserve" fill="#00ff5c" fill-rule="nonzero" stroke="none" stroke-width="1" stroke-linecap="butt" stroke-linejoin="miter" stroke-miterlimit="10" stroke-dasharray="" stroke-dashoffset="0" font-family="Pixel" font-weight="normal" text-anchor="start" style="mix-blend-mode: normal"><tspan x="0" dy="0">dodge trains, and collect powerups to</tspan><tspan x="0" dy="46.150000000000006px">gain the most score and distance. </tspan><tspan x="0" dy="46.150000000000006px">in this mode you don't need to fight</tspan><tspan x="0" dy="46.150000000000006px">any bosses.</tspan></text></g></g></svg>