<svg version="1.1" xmlns="http://www.w3.org/2000/svg" xmlns:xlink="http://www.w3.org/1999/xlink" width="1353.2042" height="745.0847" viewBox="0,0,1353.2042,745.0847"><defs><linearGradient x1="640" y1="-12.54235" x2="640" y2="732.54235" gradientUnits="userSpaceOnUse" id="color-1"><stop offset="0" stop-color="#9966ff"/><stop offset="1" stop-color="#66ff9d"/></linearGradient></defs><g transform="translate(36.6021,12.54235)"><g data-paper-data="{&quot;isPaintingLayer&quot;:true}" fill-rule="nonzero" stroke="none" stroke-linecap="butt" stroke-linejoin="miter" stroke-miterlimit="10" stroke-dasharray="" stroke-dashoffset="0" style="mix-blend-mode: normal"><path d="M-36.6021,732.54235v-745.0847h1353.2042v745.0847z" fill="url(#color-1)" stroke-width="0"/><text transform="translate(451.29198,138.76875) scale(1.02004,1.54009)" font-size="40" xml:space="preserve" fill="#58ff33" fill-rule="nonzero" stroke="none" stroke-width="1" stroke-linecap="butt" stroke-linejoin="miter" stroke-miterlimit="10" stroke-dasharray="" stroke-dashoffset="0" font-family="Pixel" font-weight="normal" text-anchor="start" style="mix-blend-mode: normal"><tspan x="0" dy="0">Select Game Mode</tspan></text><g stroke-width="0"><path d="M1139.90005,701.48566l0.54578,-56.74418c0,0 1.28608,-4.68131 4.82569,-4.68131c15.15572,0 118.52202,-0.27921 118.52202,-0.27921c0,0 2.73597,1.88393 2.74411,3.7413c0.03355,7.6546 -0.01517,57.68419 -0.01517,57.68419c0,0 -1.43984,3.35048 -3.5476,3.35048c-18.5255,0 -109.45568,0.27921 -119.80011,0.27921c-1.87727,0 -3.27472,-3.35048 -3.27472,-3.35048z" fill="#444444"/><path d="M1150.00396,646.36048c0,2.47375 -1.7734,4.47909 -3.96097,4.47909c-2.18757,0 -3.96097,-2.00536 -3.96097,-4.47909c0,-2.47373 1.7734,-4.47909 3.96097,-4.47909c2.18759,0 3.96097,2.00536 3.96097,4.47909z" fill="#292929"/><path d="M1265.24434,645.03624c0,2.22393 -1.59431,4.02677 -3.56097,4.02677c-1.96666,0 -3.56097,-1.80285 -3.56097,-4.02677c0,-2.22392 1.59431,-4.02677 3.56097,-4.02677c1.96667,0 3.56097,1.80285 3.56097,4.02677z" fill="#292929"/><path d="M1149.41463,699.48895c0,2.504 -1.72862,4.53388 -3.86097,4.53388c-2.13235,0 -3.86097,-2.02988 -3.86097,-4.53388c0,-2.504 1.72862,-4.53388 3.86097,-4.53388c2.13236,0 3.86097,2.02988 3.86097,4.53388z" fill="#292929"/><path d="M1265.24434,698.00891c0,2.59865 -1.86294,4.70525 -4.16097,4.70525c-2.29803,0 -4.16097,-2.10662 -4.16097,-4.70525c0,-2.59865 1.86294,-4.70525 4.16097,-4.70525c2.29805,0 4.16097,2.10662 4.16097,4.70525z" fill="#292929"/></g></g></g></svg>